<svg
	width="512"
	height="512"
	viewBox="0 0 512 512"
	xmlns="http://www.w3.org/2000/svg">
	<g transform="translate(45 15) scale(0.9)">
		<path d="M136.57,446.08c-7.5,14.26-19.44,28.59-38.12,41-8.23,5.48-4.88,18.33,5,19.12,29.73,2.39,76.23-.3,118.83-29.91,2.53.44,5.08.84,7.64,1.21a296.94,296.94,0,0,0,43.23,3.16c89.8,0,167.73-39.8,206.67-98.11,16.89-25.29,26.45-54.06,26.45-84.58,0-100.9-104.37-182.69-233.13-182.69S40,197.11,40,298C40,358.94,78.07,412.89,136.57,446.08Z"
			transform="translate(-0.04 -0.31)" fill="#80903F" stroke="#fff" stroke-width="20"/>
		<path d="M278.06,365.69q-2.81-24.37-5.44-41.53t-5-29.72q-2.35-12.56-4.41-21.56t-3.47-17q-1.41-8-2.25-16.22a192.56,192.56,0,0,1-.84-19.31,56.13,56.13,0,0,1,2.63-17.81,43.21,43.21,0,0,1,7-13.41,31.46,31.46,0,0,1,9.94-8.44,23.77,23.77,0,0,1,11.16-2.91,24.14,24.14,0,0,1,11.34,2.91,30.57,30.57,0,0,1,9.84,8.44,44.55,44.55,0,0,1,6.94,13.41,56.21,56.21,0,0,1,2.63,17.81,192.56,192.56,0,0,1-.84,19.31q-.84,8.25-2.25,16.22t-3.37,17q-2,9-4.31,21.56t-5,29.72q-2.63,17.16-5.25,41.53Zm-16.31,45.56a25.87,25.87,0,0,0,2,10.13,23.47,23.47,0,0,0,5.53,8.06,27.47,27.47,0,0,0,8.16,5.34,25.19,25.19,0,0,0,10,2,26.58,26.58,0,0,0,10.22-2,25.76,25.76,0,0,0,8.25-5.34,25.4,25.4,0,0,0,5.53-8.06,25.65,25.65,0,0,0,0-20.16,25.66,25.66,0,0,0-13.78-13.78,25.54,25.54,0,0,0-10.22-2.06,24.21,24.21,0,0,0-10,2.06,28.09,28.09,0,0,0-8.16,5.53,24.27,24.27,0,0,0-5.53,8.25A26.1,26.1,0,0,0,261.75,411.25Z"
			transform="translate(-7 0)" fill="#fff" stroke="#fff" stroke-width="5"/>
	</g>
	<g transform="translate(10 45) scale(0.9)">
		<path d="M268,108.35c0-56.91-58.87-103-131.48-103S5,51.44,5,108.35c0,17.21,5.39,33.44,14.92,47.7,22,32.89,65.91,55.34,116.56,55.34a167.47,167.47,0,0,0,24.38-1.78c1.44-.21,2.88-.44,4.31-.69,24,16.7,50.25,18.22,67,16.87A5.9,5.9,0,0,0,235,215c-10.53-7-17.27-15.1-21.5-23.14C246.53,173.14,268,142.71,268,108.35Z"
			transform="translate(-0.04 -0.31)" fill="#ff3302" stroke="#fff" stroke-width="20"/>
		<path d="M120.09,139.81q-.09-2.06-.19-3.8t-.09-3.52a56.36,56.36,0,0,1,1.45-13.87,45.14,45.14,0,0,1,3.66-9.8,51.35,51.35,0,0,1,4.78-7.5,69.39,69.39,0,0,0,4.78-7A39.21,39.21,0,0,0,138.14,86a38.94,38.94,0,0,0,1.45-11.48,30.72,30.72,0,0,0-1.22-9.14A18.15,18.15,0,0,0,135,58.91a13.69,13.69,0,0,0-5.16-3.8,16.72,16.72,0,0,0-6.56-1.27,16.92,16.92,0,0,0-9.7,2.58q-3.8,2.58-3.8,6.52a7.07,7.07,0,0,0,.94,3.66,32,32,0,0,0,2.11,3.14,32.69,32.69,0,0,1,2.11,3.14,7.09,7.09,0,0,1,.94,3.66,9.42,9.42,0,0,1-1,4.36,10.06,10.06,0,0,1-2.77,3.33A13,13,0,0,1,108,86.38a16.82,16.82,0,0,1-5.16.75A15.66,15.66,0,0,1,96.75,86a16.47,16.47,0,0,1-5-3.19,14.16,14.16,0,0,1-3.37-4.87,15.72,15.72,0,0,1-1.22-6.23A23.55,23.55,0,0,1,90.94,58.2a29.89,29.89,0,0,1,9.66-9.09A44.09,44.09,0,0,1,113.67,44a66.62,66.62,0,0,1,31.13.52,41.93,41.93,0,0,1,13.5,6.14,29.57,29.57,0,0,1,8.86,9.75,26.13,26.13,0,0,1,3.19,12.94,23.33,23.33,0,0,1-1.64,9,30.5,30.5,0,0,1-4.27,7.31,47.8,47.8,0,0,1-6,6.33q-3.42,3-6.94,6t-6.94,6.28a42.16,42.16,0,0,0-6,7.27,38.09,38.09,0,0,0-4.27,8.86,34.59,34.59,0,0,0-1.64,11.06v2.2a12.21,12.21,0,0,0,.19,2.2Zm-7.78,19.31a11.64,11.64,0,0,1,1.13-5,12.89,12.89,0,0,1,3-4.12,15,15,0,0,1,10.08-3.8,14.65,14.65,0,0,1,5.48,1,15,15,0,0,1,4.5,2.77,12.91,12.91,0,0,1,3,4.13,11.85,11.85,0,0,1,0,10.08,12.52,12.52,0,0,1-3,4,14.7,14.7,0,0,1-4.5,2.67,15.25,15.25,0,0,1-5.48,1,15.5,15.5,0,0,1-5.58-1,14.66,14.66,0,0,1-4.5-2.67,12.49,12.49,0,0,1-3-4A11.54,11.54,0,0,1,112.31,159.13Z"
			transform="translate(5 0)" fill="#fff" stroke="#fff" stroke-width="5"/>
	</g>

</svg>