<?xml version="1.0" encoding="utf-8"?>
<!-- Generator: Adobe Illustrator 22.0.0, SVG Export Plug-In . SVG Version: 6.00 Build 0)  -->
<svg version="1.1" id="Calque_1" xmlns="http://www.w3.org/2000/svg" xmlns:xlink="http://www.w3.org/1999/xlink" x="0px" y="0px"
	 viewBox="0 0 128 128" style="enable-background:new 0 0 128 128;" xml:space="preserve">
<style type="text/css">
	.st0{fill:#010002;}
</style>
<title></title>
<g id="icomoon-ignore">
</g>
<path d="M-714.9,690.3h320l32-352h-384L-714.9,690.3z"/>
<path d="M-412,202.5l45.3-45.3l-90.5-90.5l-45.3,45.3L-615.6-1.1l-67.9,67.9h45.3l271.5,271.5v45.3l67.9-67.9L-412,202.5z
	 M-434.6,179.9l-45.3-45.3l22.6-22.6l45.3,45.3L-434.6,179.9z"/>
<g>
	<g>
		<path class="st0" d="M-711.8,303.4c-5.1,6.4-5.1,16,0.2,22.3l135.6,163l1,1.1c3,3,7,4.6,11.2,4.4s8.1-2.1,10.9-5.5l6.4-7.6
			l150.2-112.2c3.6-2.7,5.9-6.8,6.2-11.1c0.3-4.4-1.3-8.7-4.5-11.9l-99-98.9c-0.7-0.7-1.6-2.9-1.6-3.9l0.1-4.7
			c0.2-6.3-2.8-13.7-7.2-18.1l-36.7-36.8c-5.6-5.6-15-6.8-21.8-2.9l-39.9,23l-4.8-4.8c-3.1-3.1-7.4-4.8-11.8-4.6
			c-4.3,0.2-8.4,2.4-11.2,5.8L-711.8,303.4z M-552,197.9l36.1,36.1c0.7,0.7,1.6,2.9,1.6,3.9l-0.1,4.7c-0.2,6.3,2.8,13.7,7.2,18.1
			l95.6,95.5l-79.3,59.2l46.1-54.6c5.6-6.6,5.2-16.5-1-22.6l-92.2-92.1c-4.7-4.7-12.6-7.3-19.2-6.4l-4.8,0.7c-0.7,0-2.3-0.5-2.8-0.9
			l-21.8-21.7L-552,197.9z M-578.5,253.2c4.7,4.7,12.6,7.3,19.2,6.4l4.8-0.7c0.7,0,2.3,0.5,2.8,0.9l90.5,90.5l-103.2,122.1
			l-131.4-158l79.5-98.9L-578.5,253.2z"/>
	</g>
</g>
<path d="M28,128h60l6-66H23L28,128z"/>
<path d="M85,38l9-9L77,12l-9,9L47,0L34,12h9l50,50l-1,10l13-14L85,38z M81,34l-9-9l5-5l9,9L81,34z"/>
<g>
	<g>
		<path class="st0" d="M29.1,56.4c-0.9,1.2,0,2.5,0.9,3.6l24,30l1,1c1.2,0.5,3.9-0.4,4-1l1-1l27-21c0.5,0.2,1.8-1.8,1-3L70,48
			c-0.1-0.1-1-0.8-1-1v-2c0-1.2,0.8-3.2,0-4l-7-7c-1-1-2.7-1.7-4-1l-8,5l-1-1c-0.6-0.6-1.2-1-2-1c-0.8,0-1.5,0.4-2,1L29.1,56.4z
			 M59,36l7,7c0.1,0.1,0,1.8,0,2v2c0,1.2,0.2,1.2,1,2l17,17L70,77l9-10c1-1.2,1.1-2.9,0-4L62,46c-0.9-0.9-2.8-1.2-4-1h-1
			c-0.1,0-0.9-0.9-1-1l-4-4L59,36z M54,47c0.9,0.9,1.8,1.2,3,1h1c0.1,0,0.9-0.1,1,0l17,17L57,87L33,58l14-18L54,47z"/>
	</g>
</g>
<path d="M215.5,64h30l3-33H213L215.5,64z"/>
<path d="M244,19l4.5-4.5L240,6l-4.5,4.5L225,0l-6.5,6h4.5l25,25l-0.5,5l6.5-7L244,19z M242,17l-4.5-4.5L240,10l4.5,4.5L242,17z"/>
<g>
	<g>
		<path class="st0" d="M216,28.2c-0.5,0.6,0,1.2,0.5,1.8l12,15l0.5,0.5c0.6,0.2,2-0.2,2-0.5l0.5-0.5L245,34c0.3,0.1,0.9-0.9,0.5-1.5
			l-9-8.5c-0.1-0.1-0.5-0.4-0.5-0.5v-1c0-0.6,0.4-1.6,0-2l-3.5-3.5c-0.5-0.5-1.4-0.9-2-0.5l-4,2.5l-0.5-0.5c-0.3-0.3-0.6-0.5-1-0.5
			c-0.4,0-0.7,0.2-1,0.5L216,28.2z M231,18l3.5,3.5c0.1,0.1,0,0.9,0,1v1c0,0.6,0.1,0.6,0.5,1l8.5,8.5l-7,5.5l4.5-5
			c0.5-0.6,0.6-1.4,0-2l-8.5-8.5c-0.4-0.4-1.4-0.6-2-0.5H230c-0.1,0-0.5-0.5-0.5-0.5l-2-2L231,18z M228.5,23.5
			c0.4,0.4,0.9,0.6,1.5,0.5h0.5c0.1,0,0.5,0,0.5,0l8.5,8.5l-9.5,11L218,29l7-9L228.5,23.5z"/>
	</g>
</g>
<path d="M291,32h15l1.5-16.5h-17.8L291,32z"/>
<path d="M305.2,9.5l2.2-2.2L303.2,3L301,5.2L295.8,0l-3.2,3h2.2l12.5,12.5L307,18l3.2-3.5L305.2,9.5z M304.2,8.5L302,6.2l1.2-1.2
	l2.2,2.2L304.2,8.5z"/>
<g>
	<g>
		<path class="st0" d="M291.3,14.1c-0.2,0.3,0,0.6,0.2,0.9l6,7.5l0.2,0.2c0.3,0.1,1-0.1,1-0.2l0.2-0.2l6.8-5.2
			c0.1,0,0.5-0.5,0.2-0.8l-4.5-4.2c0,0-0.2-0.2-0.2-0.2v-0.5c0-0.3,0.2-0.8,0-1l-1.8-1.8c-0.3-0.3-0.7-0.4-1-0.2l-2,1.2l-0.2-0.2
			C296.1,9.1,296,9,295.8,9c-0.2,0-0.4,0.1-0.5,0.2L291.3,14.1z M298.8,9l1.8,1.8c0,0,0,0.5,0,0.5v0.5c0,0.3,0,0.3,0.2,0.5l4.2,4.2
			l-3.5,2.8l2.2-2.5c0.3-0.3,0.3-0.7,0-1l-4.2-4.2c-0.2-0.2-0.7-0.3-1-0.2h-0.2c0,0-0.2-0.2-0.2-0.2l-1-1L298.8,9z M297.5,11.8
			c0.2,0.2,0.4,0.3,0.8,0.2h0.2c0,0,0.2,0,0.2,0l4.2,4.2l-4.8,5.5l-6-7.2l3.5-4.5L297.5,11.8z"/>
	</g>
</g>
</svg>
