<?xml version="1.0" encoding="utf-8"?>
<!-- Generator: Adobe Illustrator 22.0.0, SVG Export Plug-In . SVG Version: 6.00 Build 0)  -->
<svg version="1.1" id="Calque_1" xmlns="http://www.w3.org/2000/svg" xmlns:xlink="http://www.w3.org/1999/xlink" x="0px" y="0px"
	 viewBox="0 0 690.3 690.3" style="enable-background:new 0 0 690.3 690.3;" xml:space="preserve">
<style type="text/css">
	.st0{fill:#010002;}
</style>
<title></title>
<g id="icomoon-ignore">
</g>
<path d="M185.1,690.3h320l32-352h-384L185.1,690.3z"/>
<path d="M488,202.5l45.3-45.3l-90.5-90.5L397.5,112L284.4-1.1l-67.9,67.9h45.3l271.5,271.5v45.3l67.9-67.9L488,202.5z M465.4,179.9
	l-45.3-45.3l22.6-22.6l45.3,45.3L465.4,179.9z"/>
<g>
	<g>
		<path class="st0" d="M188.2,303.4c-5.1,6.4-5.1,16,0.2,22.3l135.6,163l1,1.1c3,3,7,4.6,11.2,4.4c4.2-0.2,8.1-2.1,10.9-5.5l6.4-7.6
			l150.2-112.2c3.6-2.7,5.9-6.8,6.2-11.1c0.3-4.4-1.3-8.7-4.5-11.9l-99-98.9c-0.7-0.7-1.6-2.9-1.6-3.9l0.1-4.7
			c0.2-6.3-2.8-13.7-7.2-18.1L361,183.5c-5.6-5.6-15-6.8-21.8-2.9l-39.9,23l-4.8-4.8c-3.1-3.1-7.4-4.8-11.8-4.6
			c-4.3,0.2-8.4,2.4-11.2,5.8L188.2,303.4z M348,197.9l36.1,36.1c0.7,0.7,1.6,2.9,1.6,3.9l-0.1,4.7c-0.2,6.3,2.8,13.7,7.2,18.1
			l95.6,95.5l-79.3,59.2l46.1-54.6c5.6-6.6,5.2-16.5-1-22.6L362,246.1c-4.7-4.7-12.6-7.3-19.2-6.4l-4.8,0.7c-0.7,0-2.3-0.5-2.8-0.9
			l-21.8-21.7L348,197.9z M321.5,253.2c4.7,4.7,12.6,7.3,19.2,6.4l4.8-0.7c0.7,0,2.3,0.5,2.8,0.9l90.5,90.5L335.6,472.4l-131.4-158
			l79.5-98.9L321.5,253.2z"/>
	</g>
</g>
</svg>
