<svg xmlns="http://www.w3.org/2000/svg" xmlns:xlink="http://www.w3.org/1999/xlink" viewBox="0 0 88.000015 88" width="88" height="88"><defs><linearGradient id="a"><stop offset="0" stop-color="#3e83dc"/><stop offset=".5" stop-color="#d13bb3"/><stop offset="1" stop-color="#f0674a"/></linearGradient><linearGradient gradientUnits="userSpaceOnUse" y2="86.115" x2="85.984" y1="8.21" x1="14.6" id="b" xlink:href="#a"/></defs><path d="M44.023 0C28.622 0 15.115 7.74 7.28 19.412a2 2 0 0 0 .547 2.776 2 2 0 0 0 2.776-.545C17.709 11.055 29.96 4 44.023 4 66.16 4 84 21.317 84 42.652v8.338a2 2 0 0 0 2 2 2 2 0 0 0 2-2v-8.338C88 19.085 68.254 0 44.023 0zm.16 8.053c-20.025 0-36.287 16.41-36.287 36.58 0 4.423-.15 6.957-.689 8.488-.54 1.531-1.402 2.434-3.727 4.05a2 2 0 0 0-.5 2.784 2 2 0 0 0 2.784.5c2.567-1.785 4.341-3.521 5.216-6.004.875-2.483.916-5.338.916-9.818 0-18.027 14.442-32.58 32.288-32.58 5 0 9.722 1.144 13.943 3.187a2 2 0 0 0 2.67-.93 2 2 0 0 0-.928-2.671 35.923 35.923 0 0 0-15.685-3.586zm19.813 6.412a2 2 0 0 0-1.562.832 2 2 0 0 0 .457 2.79 32.602 32.602 0 0 1 13.578 26.546c0 13.846-.507 16.697-1.742 25.949a2 2 0 0 0 1.716 2.248 2 2 0 0 0 2.248-1.719c1.232-9.22 1.778-12.53 1.778-26.478A36.632 36.632 0 0 0 65.227 14.84a2 2 0 0 0-1.23-.375zM44.168 16.04a28.168 28.168 0 0 0-13.5 3.426 2 2 0 0 0-.8 2.713 2 2 0 0 0 2.712.8 24.138 24.138 0 0 1 11.588-2.939c13.36 0 24.135 10.711 24.135 23.961 0 14.231.271 23.057-4.639 35.363a2 2 0 0 0 1.117 2.598 2 2 0 0 0 2.598-1.115c5.177-12.975 4.924-22.664 4.924-36.846 0-15.426-12.627-27.961-28.135-27.961zm-17.453 6.656a2 2 0 0 0-1.352.508c-5.702 5.096-9.304 12.496-9.33 20.707l-.326 7.332c-.414 3.723-1.05 5.583-2.28 7.227-1.232 1.648-3.31 3.234-6.689 5.789a2 2 0 0 0-.388 2.802 2 2 0 0 0 2.8.39c3.367-2.546 5.738-4.257 7.48-6.587 1.743-2.33 2.607-5.13 3.058-9.209a2 2 0 0 0 .011-.13l.33-7.434a2 2 0 0 0 .002-.09c0-7.083 3.085-13.424 7.998-17.815a2 2 0 0 0 .159-2.824 2 2 0 0 0-1.473-.666zm-20.746.918a2 2 0 0 0-1.746 1.135C1.592 30.24-.335 37.531.049 44.12a2 2 0 0 0 2.113 1.878 2 2 0 0 0 1.881-2.113C3.716 38.28 5.48 31.383 7.83 26.479a2 2 0 0 0-.94-2.668 2 2 0 0 0-.921-.196zm38.246.387c-10.907 0-19.86 8.606-19.86 19.254 0 5.586.105 10.716-1.35 15.178-1.453 4.46-4.338 8.412-10.985 12.011a2 2 0 0 0-.807 2.711 2 2 0 0 0 2.71.807c7.336-3.971 11.143-8.944 12.886-14.29 1.742-5.345 1.546-10.903 1.546-16.417 0-8.41 7.041-15.254 15.86-15.254 8.819 0 15.857 6.844 15.857 15.254a2 2 0 0 0 2 2 2 2 0 0 0 2-2c0-10.648-8.95-19.254-19.857-19.254zm-.17 8.031c-7.486 0-12.031 6.302-12.031 11.969 0 5.637.471 11.31-1.008 16.67-1.48 5.36-4.774 10.543-12.922 15.492a2 2 0 0 0-.672 2.748 2 2 0 0 0 2.748.67c8.825-5.36 12.978-11.603 14.701-17.846 1.724-6.243 1.153-12.348 1.153-17.734 0-3.543 2.793-7.969 8.03-7.969 5.239 0 8.032 4.426 8.032 7.969 0 4.615.03 6.978-.308 9.826a2 2 0 0 0 1.748 2.223 2 2 0 0 0 2.222-1.75c.374-3.134.338-5.704.338-10.299 0-5.667-4.545-11.969-12.031-11.969zm.098 9.969a2 2 0 0 0-1.975 2.023c.22 18.661-2.66 24.278-5.272 28.53a2 2 0 0 0 .659 2.752 2 2 0 0 0 2.75-.659c2.794-4.548 6.086-11.562 5.861-30.67a2 2 0 0 0-2.023-1.976zm18.021 6.014a2 2 0 0 0-1.977 2.023c.109 8.91-1.777 24.28-7.039 33.467a2 2 0 0 0 .74 2.728 2 2 0 0 0 2.731-.742c5.98-10.441 7.684-26.017 7.569-35.502a2 2 0 0 0-2.024-1.974zm-9.389 11.056a2 2 0 0 0-1.949 1.805c-1.174 11.96-5.24 18.474-8.96 24.008a2 2 0 0 0 .544 2.775 2 2 0 0 0 2.776-.543c3.79-5.638 8.37-13.116 9.62-25.85a2 2 0 0 0-1.794-2.185 2 2 0 0 0-.237-.01zM34.08 78.168a2 2 0 0 0-1.588.781c-1.803 2.348-1.987 2.206-3.285 3.34a2 2 0 0 0-.191 2.822 2 2 0 0 0 2.822.192c1.018-.89 1.862-1.359 3.826-3.916a2 2 0 0 0-.37-2.805 2 2 0 0 0-1.214-.414z" style="line-height:normal;font-variant-ligatures:normal;font-variant-position:normal;font-variant-caps:normal;font-variant-numeric:normal;font-variant-alternates:normal;font-variant-east-asian:normal;font-feature-settings:normal;font-variation-settings:normal;text-indent:0;text-align:start;text-decoration-line:none;text-decoration-style:solid;text-decoration-color:#000;text-transform:none;text-orientation:mixed;shape-padding:0;shape-margin:0;inline-size:0;isolation:auto;mix-blend-mode:normal;anonymous:0" color="#000" font-weight="400" font-family="sans-serif" white-space="normal" overflow="visible" fill="url(#b)" opacity=".835"/></svg>