<svg height="512" viewBox="0 0 410.87 410.87" width="512" xmlns="http://www.w3.org/2000/svg"><path d="m305.44 191c113.46 0 205.44 92 205.44 205.44s-92 205.44-205.44 205.44-205.44-91.99-205.44-205.44 92-205.44 205.44-205.44z" fill="#fff" transform="translate(-100 -191)"/><path d="m434.3 278.93c-9.3-36.49-69.8-48.48-127.06-28.14-34.08 12.11-71 31.11-97.49 55.92-31.54 29.5-36.57 55.17-34.49 65.9 7.31 37.85 59.18 62.6 80.5 81v.11c-6.29 3.09-52.3 26.38-63.07 50.19-11.37 25.09 1.81 43.09 10.53 45.52 27 7.52 54.74-6 69.64-28.23 14.38-21.45 13.18-49.14 6.93-62.92 8.62-2.27 18.67-3.29 31.44-1.8 36 4.21 43.11 26.71 41.76 36.13s-8.91 14.6-11.44 16.16-3.3 2.11-3.09 3.27c.31 1.69 1.48 1.63 3.63 1.26 3-.5 18.92-7.66 19.61-25 .87-22.07-20.28-46.76-57.73-46.11-15.42.27-25.12 1.73-32.13 4.34-.52-.59-1-1.18-1.59-1.76-23.15-24.7-66-42.17-64.14-75.38.66-12.07 4.86-43.86 82.24-82.42 63.39-31.59 114.14-22.89 122.91-3.63 12.53 27.52-27.12 78.67-93 86.05-25.08 2.81-38.29-6.91-41.57-10.53-3.46-3.81-4-4-5.27-3.27-2.1 1.17-.77 4.53 0 6.54 2 5.12 10 14.19 23.78 18.7 12.1 4 41.54 6.15 77.16-7.62 39.94-15.49 71.09-58.41 61.94-94.28zm-169.69 185.94c3 11.06 2.66 21.37-.43 30.7q-.51 1.56-1.13 3.08t-1.33 3a57.39 57.39 0 0 1 -9.49 13.83c-11.94 13-28.61 17.95-35.76 13.8-7.72-4.48-3.85-22.84 10-37.46 14.87-15.75 36.29-25.82 36.29-25.82v-.06z" fill="#cd669a" transform="translate(-100 -191)"/><g transform="matrix(2.675 0 0 2.675 154 282)"><path d="m7.579 10.123h14.204c4.169.035 7.19 1.237 9.063 3.604s2.491 5.6 1.855 9.699c-.247 1.873-.795 3.71-1.643 5.512-.813 1.802-1.943 3.427-3.392 4.876-1.767 1.837-3.657 3.003-5.671 3.498s-4.099.742-6.254.742h-6.36l-2.014 10.07h-7.367zm6.201 6.042-3.18 15.9c.212.035.424.053.636.053h.742c3.392.035 6.219-.3 8.48-1.007 2.261-.742 3.781-3.321 4.558-7.738.636-3.71 0-5.848-1.908-6.413-1.873-.565-4.222-.83-7.049-.795-.424.035-.83.053-1.219.053-.353 0-.724 0-1.113 0z"/><path d="m41.093 0h7.314l-2.067 10.123h6.572c3.604.071 6.289.813 8.056 2.226 1.802 1.413 2.332 4.099 1.59 8.056l-3.551 17.649h-7.42l3.392-16.854c.353-1.767.247-3.021-.318-3.763s-1.784-1.113-3.657-1.113l-5.883-.053-4.346 21.783h-7.314z"/><path d="m70.412 10.123h14.204c4.169.035 7.19 1.237 9.063 3.604s2.491 5.6 1.855 9.699c-.247 1.873-.795 3.71-1.643 5.512-.813 1.802-1.943 3.427-3.392 4.876-1.767 1.837-3.657 3.003-5.671 3.498s-4.099.742-6.254.742h-6.36l-2.014 10.07h-7.367zm6.201 6.042-3.18 15.9c.212.035.424.053.636.053h.742c3.392.035 6.219-.3 8.48-1.007 2.261-.742 3.781-3.321 4.558-7.738.636-3.71 0-5.848-1.908-6.413-1.873-.565-4.222-.83-7.049-.795-.424.035-.83.053-1.219.053-.353 0-.724 0-1.113 0z"/></g></svg>