<svg height="512" viewBox="0 0 512 512" width="512" xmlns="http://www.w3.org/2000/svg"><g transform="matrix(-1 0 0 -1 512 512)"><path d="m355.501 245.374-142.377 142.376c-24.541 24.542-64.333 24.542-88.874 0s-24.542-64.332 0-88.874l142.376-142.376-72.064-72.064-146.305 146.305c-64.342 64.342-64.342 168.661 0 233.002s168.661 64.342 233.002 0l146.306-146.306z" fill="#c43d2c"/><path d="m48.256 463.744 75.994-75.994c24.541 24.542 64.333 24.542 88.874 0l142.376-142.376 72.064 72.064-146.305 146.305c-64.343 64.343-168.661 64.343-233.003.001z" fill="#f74d37"/><g fill="#e7c224"><path d="m276.246 33.588h23.813v58.623h-23.813z" transform="matrix(-.7071 -.7071 .7071 -.7071 447.431 311.1306)"/><path d="m230.5 0h23.815v58.624h-23.815z"/><path d="m292.441 96.746h58.624v23.815h-58.624z"/></g><g fill="#f9d026"><path d="m437.184 194.529h23.813v58.623h-23.813z" transform="matrix(-.7071 -.7071 .7071 -.7071 608.3666 699.6761)"/><path d="m391.446 160.935h23.815v58.624h-23.815z"/><path d="m453.376 257.681h58.624v23.815h-58.624z"/></g><path d="m314.661 270.675h101.909v73.266h-101.909z" fill="#d8d9dd" transform="matrix(-.7071 -.7071 .7071 -.7071 406.8443 783.1379)"/><path d="m153.734 109.741h101.909v73.266h-101.909z" fill="#b7b9c0" transform="matrix(.7071 .7071 -.7071 .7071 163.4544 -101.8644)"/></g></svg>