<svg height="512" 
		 width="512" 
		 viewBox="-8 0 512 512" 
		 xmlns="http://www.w3.org/2000/svg">
	<g class="svg-table" transform="translate(-130 0)">
		<path transform="translate(80 0)" d="m495.433594 34.132812v42.664063h-327.46875v-59.730469h310.402344c9.414062.027344 17.035156 7.652344 17.066406 17.066406zm0 0" fill="#bbd1b5"/>
		<path d="m247.964844 17.066406v59.730469h-76.800782v-42.664063c.03125-9.414062 7.652344-17.039062 17.066407-17.066406zm0 0" fill="#71c285"/>
		<path d="m171.164062 76.796875h76.800782v59.734375h-76.800782zm0 0" fill="#4c8056"/>
		<path d="m247.964844 76.796875h327.46875v59.734375h-327.46875zm0 0" fill="#71c285"/>
		<path d="m247.964844 136.53125h327.46875v59.734375h-327.46875zm0 0" fill="#bbd1b5"/>
		<path d="m171.164062 136.53125h76.800782v59.734375h-76.800782zm0 0" fill="#71c285"/>
		<path d="m171.164062 196.265625h76.800782v59.730469h-76.800782zm0 0" fill="#4c8056"/>
		<path d="m247.964844 196.265625h327.46875v59.730469h-327.46875zm0 0" fill="#71c285"/>
		<path d="m247.964844 255.996094h327.46875v59.734375h-327.46875zm0 0" fill="#bbd1b5"/>
		<path d="m171.164062 255.996094h76.800782v59.734375h-76.800782zm0 0" fill="#71c285"/>
		<path d="m171.164062 315.730469h76.800782v59.734375h-76.800782zm0 0" fill="#4c8056"/>
		<path d="m247.964844 315.730469h327.46875v59.734375h-327.46875zm0 0" fill="#71c285"/>
		<path d="m247.964844 375.464844h327.46875v59.734375h-327.46875zm0 0" fill="#bbd1b5"/>
		<path d="m171.164062 375.464844h76.800782v59.734375h-76.800782zm0 0" fill="#71c285"/>
		<path d="m247.964844 435.199219v59.730469h-59.734375c-9.414063-.027344-17.035157-7.652344-17.066407-17.066407v-42.664062zm0 0" fill="#4c8056"/>
		<path transform="translate(80 0)"
			d="m495.433594 435.199219v42.664062c-.03125 9.414063-7.652344 17.039063-17.066406 17.066407h-310.402344v-59.730469zm0 0"
			fill="#71c285"/>
	</g>
	<g class="svg-arrow" transform="translate(330 0)">
		<path
			d="m89.363281 71.234375v327.429687h-51.199219v-327.429687c-.136718-4.863281 3.671876-8.925781 8.535157-9.101563h34.132812c4.863281.175782 8.671875 4.238282 8.53125 9.101563zm0 0"
			fill="#cc4b4c"/>
		<path
			d="m108.871094 404.722656-39.082032 39.082032c-3.351562 3.328124-8.761718 3.328124-12.117187 0l-39.082031-39.082032c-2.449219-2.429687-3.195313-6.097656-1.886719-9.292968 1.304687-3.191407 4.410156-5.285157 7.859375-5.296876h78.679688c3.386718.144532 6.367187 2.285157 7.589843 5.449219 1.222657 3.167969.453125 6.753907-1.960937 9.140625zm0 0"
			fill="#c03a2b"/>
	</g>
</svg>