<?xml version="1.0" encoding="UTF-8" standalone="no"?>
<!-- Created with Inkscape (http://www.inkscape.org/) -->

<svg
   xmlns:dc="http://purl.org/dc/elements/1.1/"
   xmlns:cc="http://creativecommons.org/ns#"
   xmlns:rdf="http://www.w3.org/1999/02/22-rdf-syntax-ns#"
   xmlns:svg="http://www.w3.org/2000/svg"
   xmlns="http://www.w3.org/2000/svg"
   xmlns:sodipodi="http://sodipodi.sourceforge.net/DTD/sodipodi-0.dtd"
   xmlns:inkscape="http://www.inkscape.org/namespaces/inkscape"
   width="210mm"
   height="297mm"
   id="svg2"
   version="1.1"
   inkscape:version="0.48.5 r10040"
   sodipodi:docname="spip_forme_vecto.svg">
  <defs
     id="defs4" />
  <sodipodi:namedview
     id="base"
     pagecolor="#ffffff"
     bordercolor="#666666"
     borderopacity="1.0"
     inkscape:pageopacity="0.0"
     inkscape:pageshadow="2"
     inkscape:zoom="1.75"
     inkscape:cx="390.82499"
     inkscape:cy="709.84566"
     inkscape:document-units="px"
     inkscape:current-layer="layer1"
     showgrid="false"
     inkscape:window-width="1600"
     inkscape:window-height="838"
     inkscape:window-x="-8"
     inkscape:window-y="-8"
     inkscape:window-maximized="1" />
  <metadata
     id="metadata7">
    <rdf:RDF>
      <cc:Work
         rdf:about="">
        <dc:format>image/svg+xml</dc:format>
        <dc:type
           rdf:resource="http://purl.org/dc/dcmitype/StillImage" />
        <dc:title></dc:title>
      </cc:Work>
    </rdf:RDF>
  </metadata>
  <g
     inkscape:label="Calque 1"
     inkscape:groupmode="layer"
     id="layer1"
     style="display:inline">
    <path
       style="fill:#808080;fill-opacity:1"
       d="m 285.26828,528.34917 c -17.26574,-2.83182 -28.40074,-7.2054 -32.38821,-12.72128 -6.93364,-9.59126 -7.58115,-15.47301 -2.32176,-21.08915 10.55274,-11.26852 10.53166,-13.145 -0.2349,-20.92232 -19.6206,-14.17328 -31.97249,-39.51917 -32.4149,-66.51488 -0.48279,-29.45196 13.80268,-72.69139 37.32227,-112.96824 10.40419,-17.81701 11.43993,-20.79056 11.17455,-32.08124 -0.21206,-9.02056 -1.53306,-14.04659 -4.80179,-18.26896 -9.74257,-12.58481 -12.0772,-8.99282 -19.16471,29.48654 -9.04504,49.107 -18.38628,59.24497 -41.56282,45.1079 -18.69643,-11.40433 -35.39352,-42.82467 -40.05274,-75.37061 -5.67859,-39.66671 6.76147,-71.97043 35.38583,-91.88818 32.74441,-22.7846 76.42165,-27.40929 109.4133,-11.58502 52.7547,25.30349 68.86225,87.42253 39.78494,153.43125 -10.06217,22.84228 -21.64369,39.38385 -43.5994,62.27183 -10.73257,11.18829 -20.85406,23.71436 -22.49219,27.83575 -2.95152,7.42567 -3.87534,16.34989 -1.68857,16.31173 0.62459,-0.0109 8.91968,-4.10531 18.43357,-9.09869 9.51389,-4.99339 26.03839,-12.17785 36.72108,-15.9655 24.73606,-8.77042 56.77922,-11.56195 112.7727,-9.82457 42.88663,1.3307 60.51829,-0.46957 75.28916,-7.68739 11.72069,-5.72733 31.61484,-18.96331 33.54319,-22.31694 0.8965,-1.55911 2.82211,-4.12747 4.27916,-5.70747 1.45704,-1.58 4.32458,-5.59388 6.37232,-8.91974 6.50413,-10.56385 15.58297,-7.43196 26.17745,9.03025 2.48187,3.85643 6.22522,6.0036 11.94143,6.84957 14.65326,2.1686 31.92827,11.381 43.21044,23.04319 16.93338,17.50378 17.85129,19.27497 14.00972,27.03269 -3.25601,6.57521 -12.91535,15.81026 -16.60402,15.87464 -1.08317,0.0189 -4.58704,2.01933 -7.78636,4.4454 -3.9486,2.99423 -13.30966,5.58627 -29.14463,8.07007 -26.37077,4.13639 -32.4402,6.79384 -45.6849,20.00285 -9.01767,8.99339 -13.9284,20.24362 -13.76052,31.52466 0.12836,8.62464 11.12659,26.42032 18.57533,30.05583 10.01025,4.88567 18.99758,15.65418 19.23081,23.0421 0.19129,6.05907 -0.0689,6.21997 -7.98274,4.93655 -4.49927,-0.72962 -16.52172,-2.51553 -26.71651,-3.96872 -10.19484,-1.4531 -20.9995,-3.5734 -24.01038,-4.71176 -3.0109,-1.13834 -12.76573,-9.84708 -21.67739,-19.35271 l -16.20305,-17.28303 -30.83892,1.6234 c -31.67092,1.66718 -71.46981,6.25672 -74.73283,8.61807 -1.00999,0.73091 -2.70285,5.25956 -3.76193,10.06367 -1.60825,7.29544 -3.57475,9.65966 -11.93425,14.34768 -5.5048,3.0871 -12.71938,7.61798 -16.03242,10.06861 -5.18247,3.83347 -9.83385,4.56823 -33.30716,5.26119 -15.00593,0.44314 -29.73772,0.40292 -32.73733,-0.089 z"
       id="path3010"
       inkscape:connector-curvature="0"
       sodipodi:nodetypes="csssssssssssssssssssssssssssssssssssssscsssssscc" />
  </g>
  <g
     inkscape:groupmode="layer"
     id="layer2"
     inkscape:label="Calque" />
</svg>
