<?xml version="1.0" encoding="utf-8"?>
<!-- Generator: Adobe Illustrator 18.0.0, SVG Export Plug-In . SVG Version: 6.00 Build 0)  -->
<!DOCTYPE svg PUBLIC "-//W3C//DTD SVG 1.1//EN" "http://www.w3.org/Graphics/SVG/1.1/DTD/svg11.dtd">
<svg version="1.1"
	 id="svg2" sodipodi:docname="spip_forme_vecto.svg" inkscape:version="0.48.5 r10040" xmlns:sodipodi="http://sodipodi.sourceforge.net/DTD/sodipodi-0.dtd" xmlns:rdf="http://www.w3.org/1999/02/22-rdf-syntax-ns#" xmlns:inkscape="http://www.inkscape.org/namespaces/inkscape" xmlns:svg="http://www.w3.org/2000/svg" xmlns:dc="http://purl.org/dc/elements/1.1/" xmlns:cc="http://creativecommons.org/ns#"
	 xmlns="http://www.w3.org/2000/svg" xmlns:xlink="http://www.w3.org/1999/xlink" x="0px" y="0px" viewBox="0 0 595.3 841.9"
	 enable-background="new 0 0 595.3 841.9" xml:space="preserve">
<sodipodi:namedview  inkscape:window-maximized="1" inkscape:window-y="-8" inkscape:current-layer="layer1" inkscape:pageshadow="2" inkscape:document-units="px" inkscape:pageopacity="0.0" inkscape:window-height="838" inkscape:window-width="1600" inkscape:window-x="-8" borderopacity="1.0" bordercolor="#666666" id="base" showgrid="false" pagecolor="#ffffff" inkscape:zoom="1.75" inkscape:cy="709.84566" inkscape:cx="390.82499">
	</sodipodi:namedview>
<g id="layer1" inkscape:groupmode="layer" inkscape:label="Calque 1">
	
		<path id="path3010" sodipodi:nodetypes="csssssssssssssssssssssssssssssssssssssscsssssscc" inkscape:connector-curvature="0" fill="#333333" d="
		M173.3,623.3c-17.3-2.8-28.4-7.2-32.4-12.7c-6.9-9.6-7.6-15.5-2.3-21.1c10.6-11.3,10.5-13.1-0.2-20.9c-19.6-14.2-32-39.5-32.4-66.5
		c-0.5-29.5,13.8-72.7,37.3-113c10.4-17.8,11.4-20.8,11.2-32.1c-0.2-9-1.5-14-4.8-18.3c-9.7-12.6-12.1-9-19.2,29.5
		c-9,49.1-18.4,59.2-41.6,45.1C70.2,402,53.5,370.6,48.8,338c-5.7-39.7,6.8-72,35.4-91.9c32.7-22.8,76.4-27.4,109.4-11.6
		c52.8,25.3,68.9,87.4,39.8,153.4c-10.1,22.8-21.6,39.4-43.6,62.3c-10.7,11.2-20.9,23.7-22.5,27.8c-3,7.4-3.9,16.3-1.7,16.3
		c0.6,0,8.9-4.1,18.4-9.1s26-12.2,36.7-16c24.7-8.8,56.8-11.6,112.8-9.8c42.9,1.3,60.5-0.5,75.3-7.7c11.7-5.7,31.6-19,33.5-22.3
		c0.9-1.6,2.8-4.1,4.3-5.7c1.5-1.6,4.3-5.6,6.4-8.9c6.5-10.6,15.6-7.4,26.2,9c2.5,3.9,6.2,6,11.9,6.8c14.7,2.2,31.9,11.4,43.2,23
		c16.9,17.5,17.9,19.3,14,27c-3.3,6.6-12.9,15.8-16.6,15.9c-1.1,0-4.6,2-7.8,4.4c-3.9,3-13.3,5.6-29.1,8.1
		c-26.4,4.1-32.4,6.8-45.7,20c-9,9-13.9,20.2-13.8,31.5c0.1,8.6,11.1,26.4,18.6,30.1c10,4.9,19,15.7,19.2,23c0.2,6.1-0.1,6.2-8,4.9
		c-4.5-0.7-16.5-2.5-26.7-4c-10.2-1.5-21-3.6-24-4.7c-3-1.1-12.8-9.8-21.7-19.4l-16.2-17.3l-30.8,1.6c-31.7,1.7-71.5,6.3-74.7,8.6
		c-1,0.7-2.7,5.3-3.8,10.1c-1.6,7.3-3.6,9.7-11.9,14.3c-5.5,3.1-12.7,7.6-16,10.1c-5.2,3.8-9.8,4.6-33.3,5.3
		C191,623.9,176.3,623.8,173.3,623.3L173.3,623.3z"/>
</g>
<g id="layer2" inkscape:groupmode="layer" inkscape:label="Calque">
</g>
</svg>
