<svg height="512" viewBox="0 0 480 480" width="512" xmlns="http://www.w3.org/2000/svg" xmlns:xlink="http://www.w3.org/1999/xlink"><clipPath id="a"><circle cx="240" cy="260" r="152"/></clipPath><path d="m128 192h12.046875c37.984375 0 74.015625-16.871094 98.335937-46.054688l1.617188-1.945312 1.617188 1.945312c24.320312 29.183594 60.351562 46.054688 98.335937 46.054688h12.046875v129.574219c0 28.714843-15.382812 55.21875-40.3125 69.457031l-71.6875 40.96875-71.6875-40.96875c-24.929688-14.238281-40.3125-40.75-40.3125-69.457031zm0 0" fill="#de0808" transform="matrix(1.9 0 0 1.67 -216.2 -240.48)"/><g clip-path="url(#a)"><circle cx="240" cy="260" fill="#fff" r="155"/><g transform="matrix(1.9 0 0 3 -62.7 -480)"><path d="m97.094 233.038h10.882c3.866 0 7-3.134 7-7s-3.134-7-7-7h-10.882c-9.86 0-17.882 8.022-17.882 17.882s8.021 17.882 17.882 17.882c2.141 0 3.882 1.741 3.882 3.882s-1.741 3.882-3.882 3.882h-10.882c-3.866 0-7 3.134-7 7s3.134 7 7 7h10.882c9.86 0 17.882-8.022 17.882-17.882s-8.021-17.882-17.882-17.882c-2.141 0-3.882-1.741-3.882-3.882s1.741-3.882 3.882-3.882z"/><path d="m138.184 219.038h-10.882c-3.866 0-7 3.134-7 7v43.527c0 3.866 3.134 7 7 7s7-3.134 7-7v-14.764h3.882c9.86 0 17.882-8.022 17.882-17.882s-8.022-17.881-17.882-17.881zm0 21.764h-3.882v-7.764h3.882c2.141 0 3.882 1.741 3.882 3.882s-1.742 3.882-3.882 3.882z"/><path d="m179.273 219.038c-9.86 0-17.882 8.022-17.882 17.882v32.646c0 3.866 3.134 7 7 7s7-3.134 7-7v-14.764h7.764v14.764c0 3.866 3.134 7 7 7s7-3.134 7-7v-32.646c0-9.86-8.021-17.882-17.882-17.882zm-3.881 21.764v-3.882c0-2.141 1.741-3.882 3.882-3.882s3.882 1.741 3.882 3.882v3.882z"/><path d="m234.923 219.242c-3.126-.771-6.376.692-7.874 3.542l-5.685 10.829-5.685-10.829c-1.498-2.852-4.747-4.314-7.874-3.542-3.127.771-5.324 3.576-5.324 6.796v43.527c0 3.866 3.134 7 7 7s7-3.134 7-7v-15.877c1.287 1.252 3.03 1.984 4.883 1.984s3.596-.731 4.883-1.984v15.877c0 3.866 3.134 7 7 7s7-3.134 7-7v-43.527c0-3.22-2.197-6.025-5.324-6.796z"/></g></g><path d="m70 240h330v60h-330" fill="#de0808" opacity=".95" transform="matrix(.70710678 .70710678 -.70710678 .70710678 254.142136 -93.553391)"/></svg>