<?xml version="1.0" encoding="UTF-8" standalone="no"?><!DOCTYPE svg PUBLIC "-//W3C//DTD SVG 1.1//EN" "http://www.w3.org/Graphics/SVG/1.1/DTD/svg11.dtd"><svg width="100%" height="100%" viewBox="0 0 48 48" version="1.1" xmlns="http://www.w3.org/2000/svg" xmlns:xlink="http://www.w3.org/1999/xlink" xml:space="preserve" xmlns:serif="http://www.serif.com/" style="fill-rule:evenodd;clip-rule:evenodd;"><g id="vectors"><g id="g1197"><path id="path1196" d="M6.174,33c-2.244,0 -4.051,2.2 -4.051,4.933c0,2.733 1.807,4.933 4.051,4.933l37.274,0c2.245,0 4.052,-2.2 4.052,-4.933c0,-2.733 -1.807,-4.933 -4.052,-4.933l-37.274,0Z" style="fill-opacity:0.05;"/><path id="path1195" d="M6.174,33.329c-2.095,0 -3.781,2.053 -3.781,4.604c0,2.551 1.686,4.604 3.781,4.604l37.274,0c2.095,0 3.782,-2.053 3.782,-4.604c0,-2.551 -1.687,-4.604 -3.782,-4.604l-37.274,0Z" style="fill-opacity:0.05;"/><path id="path1194" d="M6.174,33.658c-1.945,0 -3.511,1.907 -3.511,4.275c0,2.369 1.566,4.275 3.511,4.275l37.274,0c1.946,0 3.512,-1.906 3.512,-4.275c0,-2.368 -1.566,-4.275 -3.512,-4.275l-37.274,0Z" style="fill-opacity:0.05;"/><path id="path1193" d="M6.174,33.987c-1.796,0 -3.241,1.76 -3.241,3.946c0,2.186 1.445,3.946 3.241,3.946l37.274,0c1.796,0 3.242,-1.76 3.242,-3.946c0,-2.186 -1.446,-3.946 -3.242,-3.946l-37.274,0Z" style="fill-opacity:0.05;"/><path id="path1192" d="M6.174,34.315c-1.646,0 -2.971,1.614 -2.971,3.618c0,2.004 1.325,3.618 2.971,3.618l37.274,0c1.646,0 2.971,-1.614 2.971,-3.618c0,-2.004 -1.325,-3.618 -2.971,-3.618l-37.274,0Z" style="fill-opacity:0.05;"/><path id="path1191" d="M6.174,34.644c-1.496,0 -2.701,1.467 -2.701,3.289c0,1.822 1.205,3.289 2.701,3.289l37.274,0c1.497,0 2.701,-1.467 2.701,-3.289c0,-1.822 -1.204,-3.289 -2.701,-3.289l-37.274,0Z" style="fill-opacity:0.05;"/><path id="path1190" d="M6.174,34.973c-1.347,0 -2.431,1.32 -2.431,2.96c0,1.64 1.084,2.96 2.431,2.96l37.274,0c1.347,0 2.431,-1.32 2.431,-2.96c0,-1.64 -1.084,-2.96 -2.431,-2.96l-37.274,0Z" style="fill-opacity:0.05;"/><path id="path1189" d="M6.174,35.302c-1.197,0 -2.161,1.173 -2.161,2.631c0,1.458 0.964,2.631 2.161,2.631l37.274,0c1.198,0 2.161,-1.173 2.161,-2.631c0,-1.458 -0.963,-2.631 -2.161,-2.631l-37.274,0Z" style="fill-opacity:0.05;"/></g><path id="path895" d="M5.419,5.456c-0.465,0 -0.815,0.235 -0.815,0.727l0,33.021c0,0.727 0.487,1.211 1.149,1.211l37.737,0c0.665,0 0.93,-0.452 0.93,-1.086l0,-28.903c0,-0.543 -0.4,-0.837 -0.899,-0.837l-19.11,0c-0.337,0 -0.696,-0.198 -0.894,-0.471l-2.602,-3.2c-0.218,-0.3 -0.642,-0.462 -1.014,-0.462l-14.482,0Z" style="fill:url(#_Linear1);stroke:#b05f1e;stroke-width:1px;"/><path id="path315" d="M5.063,7.906l0,28.25l0.968,-4.375l0.219,-22.625c0,-0.75 0.511,-1.125 1.237,-1.125l11.607,0c1.561,0 3.015,3.188 5.317,3.188c5.972,0 19.339,0.087 19.339,0l0,-1.031l-19.531,-0.125c-1.856,-0.012 -3.131,-3.157 -4.563,-3.157l-13.372,0c-0.815,0 -1.222,0.354 -1.222,1Z" style="fill:url(#_Linear2);"/><path id="rect337" d="M7.686,16.484l7.934,0c0.742,0 1.368,-0.381 1.687,-0.882c0.137,-0.215 1.268,-2.188 1.358,-2.319c0.298,-0.435 0.773,-0.759 1.342,-0.759l23.042,0c0.803,0 1.449,0.644 1.449,1.444l0,24.947c0,0.8 -0.646,1.444 -1.449,1.444l-36.921,0c-0.803,0 -1.449,-0.644 -1.449,-1.444l0,-19.433c0,-1.974 1.14,-2.998 3.007,-2.998Z" style="fill:url(#_Linear3);stroke:#b05f1e;stroke-width:1px;stroke-linejoin:round;"/><path id="path349" d="M20.5,14c-0.646,0 -1.009,0.282 -1.375,0.75c-0.366,0.468 -0.781,0.922 -1.063,1.469c-0.281,0.547 -0.569,0.991 -0.843,1.343c-0.275,0.353 -0.49,0.5 -0.719,0.5l-9.657,0c-0.459,0 -0.836,0.231 -1.156,0.532c-0.321,0.3 -0.594,0.706 -0.594,1.218c0,0.625 0,19.438 0,19.438l1,0c0,0 0,-18.812 0,-19.438c0,-0.112 0.102,-0.331 0.281,-0.5c0.179,-0.168 0.427,-0.25 0.469,-0.25l9.657,0c0.646,0 1.135,-0.406 1.5,-0.875c0.365,-0.468 0.657,-0.984 0.938,-1.531c0.28,-0.547 0.631,-0.929 0.906,-1.281c0.275,-0.352 0.425,-0.375 0.656,-0.375c1.217,0 23.25,0.125 23.25,0.125l0,-1c0,0 -21.967,-0.125 -23.25,-0.125Z" style="fill:url(#_Linear4);"/><path id="rect459" d="M6.779,7.985c0,-0.345 -0.28,-0.625 -0.625,-0.625c-0.345,0 -0.625,0.28 -0.625,0.625c0,0.345 0.28,0.625 0.625,0.625c0.345,0 0.625,-0.28 0.625,-0.625Z" style="fill:#fffffd;"/><path id="rect2337" d="M43.496,16.188c0,-0.242 -0.196,-0.438 -0.437,-0.438l-37.083,0c-0.242,0 -0.438,0.196 -0.438,0.438l0,22.749c0,0.242 0.196,0.438 0.438,0.438l37.083,0c0.241,0 0.437,-0.196 0.437,-0.438l0,-22.749Z" style="fill:none;stroke:url(#_Linear5);stroke-width:1px;stroke-linecap:square;stroke-linejoin:round;"/><g id="g9750"><path id="path9752" d="M6.575,35.349c0,3.566 8.351,6.5 18.5,6.5c10.149,0 18.5,-2.934 18.5,-6.5c0,-3.565 -8.351,-6.5 -18.5,-6.5c-10.149,0 -18.5,2.935 -18.5,6.5l0,0Z" style="fill:url(#_Radial6);"/><g id="g9754" opacity="0.9"><path id="path9756" d="M31.075,43.849l10,-9.5l-10,-9.5l0,5.5l-12.5,0c-3,0 -5.5,-1.5 -5.5,-10l-3,0c0,17.5 6.5,18 13.5,18l7.5,0l0,5.5Z" style="fill:url(#_Linear7);stroke:url(#_Linear8);stroke-width:1px;stroke-linejoin:round;"/><path id="path9758" d="M12.607,20.849c0.05,3.976 0.634,6.455 1.687,7.969c1.101,1.583 2.697,2.031 4.281,2.031l12.5,0c0.275,-0.003 0.496,-0.225 0.5,-0.5l0,-4.312l8.75,8.312l-8.75,8.313l0,-4.313c-0.004,-0.274 -0.225,-0.496 -0.5,-0.5l-7.5,0c-3.488,0 -6.691,-0.148 -9.031,-2.312c-2.288,-2.117 -3.868,-6.375 -3.937,-14.688l2,0Z" style="fill:url(#_Linear9);"/><path id="path9760" d="M12.169,21.349c0.102,3.668 0.632,6.188 1.719,7.75c1.198,1.723 3.021,2.25 4.687,2.25l12.5,0c0.266,0.001 0.521,-0.104 0.708,-0.291c0.188,-0.188 0.293,-0.443 0.292,-0.709l0,-3.187l7.563,7.187l-7.563,7.188l0,-3.188c0.001,-0.265 -0.104,-0.52 -0.292,-0.708c-0.187,-0.188 -0.442,-0.293 -0.708,-0.292l-7.5,0c-3.476,0 -6.502,-0.135 -8.687,-2.156c-2.089,-1.932 -3.616,-5.966 -3.75,-13.844l1.031,0Z" style="fill:none;stroke:url(#_Linear10);stroke-width:1px;"/><path id="path9762" d="M32.075,27.162l7.563,7.187m-28.5,-13l1.031,0c0.102,3.668 0.632,6.188 1.719,7.75c1.198,1.723 3.021,2.25 4.687,2.25l12.5,0" style="fill:none;stroke:url(#_Linear11);stroke-width:1px;stroke-linecap:round;"/></g></g></g><defs><linearGradient id="_Linear1" x1="0" y1="0" x2="1" y2="0" gradientUnits="userSpaceOnUse" gradientTransform="matrix(6.54421e-16,10.6875,-10.6875,6.54421e-16,24.5117,5.87323)"><stop offset="0" style="stop-color:#e4a05d;stop-opacity:1"/><stop offset="1" style="stop-color:#af651d;stop-opacity:1"/></linearGradient><linearGradient id="_Linear2" x1="0" y1="0" x2="1" y2="0" gradientUnits="userSpaceOnUse" gradientTransform="matrix(20.4451,-0.0702664,0.0702664,20.4451,24.6357,10.5544)"><stop offset="0" style="stop-color:#fff;stop-opacity:0.38"/><stop offset="1" style="stop-color:#729fcf;stop-opacity:0"/></linearGradient><linearGradient id="_Linear3" x1="0" y1="0" x2="1" y2="0" gradientUnits="userSpaceOnUse" gradientTransform="matrix(-2.15287,-23.875,23.875,-2.15287,24.5884,39.0665)"><stop offset="0" style="stop-color:#e3aa57;stop-opacity:1"/><stop offset="1" style="stop-color:#eabd7c;stop-opacity:1"/></linearGradient><linearGradient id="_Linear4" x1="0" y1="0" x2="1" y2="0" gradientUnits="userSpaceOnUse" gradientTransform="matrix(3.84467,6.3125,-6.3125,3.84467,21.5303,20.3125)"><stop offset="0" style="stop-color:#fff;stop-opacity:0.82"/><stop offset="1" style="stop-color:#fff;stop-opacity:0"/></linearGradient><linearGradient id="_Linear5" x1="0" y1="0" x2="1" y2="0" gradientUnits="userSpaceOnUse" gradientTransform="matrix(-0.854341,-12.375,12.375,-0.854341,25.8507,37.625)"><stop offset="0" style="stop-color:#fff;stop-opacity:0.29"/><stop offset="1" style="stop-color:#fff;stop-opacity:0"/></linearGradient><radialGradient id="_Radial6" cx="0" cy="0" r="1" gradientUnits="userSpaceOnUse" gradientTransform="matrix(-18.5,0,0,6.5,25.0753,35.3494)"><stop offset="0" style="stop-color:#000;stop-opacity:0.3"/><stop offset="1" style="stop-color:#000;stop-opacity:0"/></radialGradient><linearGradient id="_Linear7" x1="0" y1="0" x2="1" y2="0" gradientUnits="userSpaceOnUse" gradientTransform="matrix(-2.03293,-8.3085,-8.3085,2.03293,13.3083,29.2931)"><stop offset="0" style="stop-color:#f57900;stop-opacity:1"/><stop offset="1" style="stop-color:#f57900;stop-opacity:0"/></linearGradient><linearGradient id="_Linear8" x1="0" y1="0" x2="1" y2="0" gradientUnits="userSpaceOnUse" gradientTransform="matrix(-0.707108,-5.03814,-5.03814,0.707108,13.7503,26.1111)"><stop offset="0" style="stop-color:#ce5c00;stop-opacity:1"/><stop offset="1" style="stop-color:#f57900;stop-opacity:0"/></linearGradient><linearGradient id="_Linear9" x1="0" y1="0" x2="1" y2="0" gradientUnits="userSpaceOnUse" gradientTransform="matrix(2.26752,-10.246,-10.246,-2.26752,30.9711,42.8246)"><stop offset="0" style="stop-color:#fcaf3e;stop-opacity:1"/><stop offset="1" style="stop-color:#fcaf3e;stop-opacity:0"/></linearGradient><linearGradient id="_Linear10" x1="0" y1="0" x2="1" y2="0" gradientUnits="userSpaceOnUse" gradientTransform="matrix(-0.4375,-3.375,-3.375,0.4375,12.5128,25.2869)"><stop offset="0" style="stop-color:#fff;stop-opacity:0.35"/><stop offset="1" style="stop-color:#fff;stop-opacity:0"/></linearGradient><linearGradient id="_Linear11" x1="0" y1="0" x2="1" y2="0" gradientUnits="userSpaceOnUse" gradientTransform="matrix(-0.4375,-3.375,-3.375,0.4375,12.5128,25.2869)"><stop offset="0" style="stop-color:#fff;stop-opacity:0.3"/><stop offset="1" style="stop-color:#fff;stop-opacity:0"/></linearGradient></defs></svg>