<svg xmlns="http://www.w3.org/2000/svg" height="128" viewBox="0 0 96 96" width="128"><path d="M48 0C21.619 0 0 21.619 0 48s21.619 48 48 48 48-21.619 48-48S74.381 0 48 0zm0 0" fill="#fdbf00"/><path d="M96 48c0 26.381-21.619 48-48 48V0c26.381 0 48 21.619 48 48zm0 0" fill="#ff9100"/><path d="M48 11.438c-20.138 0-36.563 16.424-36.563 36.562 0 20.137 16.425 36.563 36.563 36.563S84.563 68.137 84.563 48c0-20.138-16.425-36.563-36.563-36.563zm0 0" fill="#ffda2d"/><path d="M84.563 48c0 20.137-16.425 36.563-36.563 36.563V11.437c20.138 0 36.563 16.425 36.563 36.563zm0 0" fill="#fdbf00"/><path d="M70.5 56.438a8.426 8.426 0 0 1-8.437 8.437 8.426 8.426 0 0 1-8.438-8.437c0-.676.113-1.35.281-2.026L48 50.082l-5.906 4.33c.168.676.281 1.35.281 2.026a8.426 8.426 0 0 1-8.437 8.437 8.426 8.426 0 0 1-8.438-8.437A8.426 8.426 0 0 1 33.938 48c1.912 0 3.656.675 5.062 1.744l6.188-4.556v-6.132c-3.263-1.181-5.625-4.275-5.625-7.931A8.426 8.426 0 0 1 48 22.688a8.426 8.426 0 0 1 8.438 8.437c0 3.656-2.363 6.75-5.625 7.931v6.132L57 49.744C58.406 48.675 60.15 48 62.063 48a8.426 8.426 0 0 1 8.437 8.438zm0 0" fill="#ff9100"/><path d="M70.5 56.438a8.426 8.426 0 0 1-8.437 8.437 8.426 8.426 0 0 1-8.438-8.437c0-.676.113-1.35.281-2.026L48 50.082V22.688a8.426 8.426 0 0 1 8.438 8.437c0 3.656-2.363 6.75-5.625 7.931v6.132L57 49.744C58.406 48.675 60.15 48 62.063 48a8.426 8.426 0 0 1 8.437 8.438zm0 0" fill="#ff641a"/></svg>