<svg xmlns="http://www.w3.org/2000/svg" width="128" height="128" viewBox="0 0 33.866658 33.866674"><path fill="#a66ce8" d="M33.132 14.12l-2.245-8.98a3 3 0 0 0-.786-1.375 3 3 0 0 0-1.375-.786L19.746.734a2.99 2.99 0 0 0-2.834.786L.874 17.558a2.972 2.972 0 0 0 0 4.21l11.225 11.225a2.972 2.972 0 0 0 4.21 0l16.037-16.038a2.99 2.99 0 0 0 .786-2.834zM21.92 11.945a2.972 2.972 0 0 1 0-4.209 2.972 2.972 0 0 1 4.21 0 2.972 2.972 0 0 1 0 4.21 2.972 2.972 0 0 1-4.21 0z"/><path fill="#7f2aff" d="M32.346 16.955L16.308 32.992a2.972 2.972 0 0 1-4.21 0L6.487 27.38l15.435-15.435a2.972 2.972 0 0 0 4.209 0 2.972 2.972 0 0 0 0-4.21l3.97-3.97a3 3 0 0 1 .787 1.375l2.245 8.98a2.99 2.99 0 0 1-.786 2.835z"/><path fill="#ffe470" d="M12.099 16.155a2.98 2.98 0 0 1 0-4.21 2.98 2.98 0 0 1 4.21 0 2.98 2.98 0 0 1 0 4.21 2.98 2.98 0 0 1-4.21 0zm2.806-2.806a.993.993 0 0 0-1.403 0 .993.993 0 0 0 0 1.403.993.993 0 0 0 1.403 0 .993.993 0 0 0 0-1.403z"/><path fill="#ffd400" d="M13.502 25.977a2.98 2.98 0 0 1 0-4.21 2.98 2.98 0 0 1 4.21 0 2.98 2.98 0 0 1 0 4.21 2.98 2.98 0 0 1-4.21 0zm2.806-2.806a.993.993 0 0 0-1.403 0 .992.992 0 0 0 0 1.403.992.992 0 0 0 1.403 0 .992.992 0 0 0 0-1.403z"/><path fill="#ffd833" d="M21.331 19.242l-7.548.842-5.08.561a.948.948 0 0 1-.814-.28 1.014 1.014 0 0 1-.28-.59.984.984 0 0 1 .87-1.094l7.549-.842 5.079-.561a.983.983 0 0 1 1.094.87.984.984 0 0 1-.87 1.094z"/><path fill="#ffd400" d="M21.331 19.242l-7.548.842 2.245-2.245 5.08-.561a.983.983 0 0 1 1.093.87.984.984 0 0 1-.87 1.094z"/><path fill="#3e5959" d="M33.572 1.698L26.13 9.139a.982.982 0 0 1-1.404 0 .982.982 0 0 1 0-1.403L32.168.295a.982.982 0 0 1 1.404 0 .982.982 0 0 1 0 1.403z"/><path fill="#384949" d="M24.727 9.14L33.572.293a.982.982 0 0 1 0 1.404L26.13 9.139a.982.982 0 0 1-1.404 0z"/></svg>