<?xml version="1.0" encoding="UTF-8" standalone="no"?>
<svg
   xmlns:dc="http://purl.org/dc/elements/1.1/"
   xmlns:cc="http://creativecommons.org/ns#"
   xmlns:rdf="http://www.w3.org/1999/02/22-rdf-syntax-ns#"
   xmlns:svg="http://www.w3.org/2000/svg"
   xmlns="http://www.w3.org/2000/svg"
   xmlns:sodipodi="http://sodipodi.sourceforge.net/DTD/sodipodi-0.dtd"
   xmlns:inkscape="http://www.inkscape.org/namespaces/inkscape"
   viewBox="0 0 50 49.999999"
   x="0px"
   y="0px"
   version="1.1"
   id="svg10"
   sodipodi:docname="grid-media-desktop-large.svg"
   width="50"
   height="50"
   inkscape:version="0.92.4 (5da689c313, 2019-01-14)">
  <metadata
     id="metadata16">
    <rdf:RDF>
      <cc:Work
         rdf:about="">
        <dc:format>image/svg+xml</dc:format>
        <dc:type
           rdf:resource="http://purl.org/dc/dcmitype/StillImage" />
        <dc:title>Iconsset_solid</dc:title>
      </cc:Work>
    </rdf:RDF>
  </metadata>
  <defs
     id="defs14" />
  <sodipodi:namedview
     pagecolor="#ffffff"
     bordercolor="#666666"
     borderopacity="1"
     objecttolerance="10"
     gridtolerance="10"
     guidetolerance="10"
     inkscape:pageopacity="0"
     inkscape:pageshadow="2"
     inkscape:window-width="640"
     inkscape:window-height="480"
     id="namedview12"
     showgrid="false"
     fit-margin-top="0"
     fit-margin-left="0"
     fit-margin-right="0"
     fit-margin-bottom="0"
     inkscape:zoom="9.0745371"
     inkscape:cx="25.22686"
     inkscape:cy="15.745685"
     inkscape:current-layer="svg10" />
  <title
     id="title2">Iconsset_solid</title>
  <path
     style="fill:#2c5aa0;fill-opacity:1;stroke-width:1"
     d="M 2.5,9.9994911 A 2.5,2.5 0 0 0 0,12.499491 v 20 a 2.5,2.5 0 0 0 2.5,2.5 H 6.9082031 9.6367188 20.650391 c -0.44653,0.731892 -1.102422,1.312941 -1.882813,1.667969 -0.766666,0.466666 -1.501302,0.899349 -1.667969,1.666016 -0.03999,0.524493 0.169969,1.037083 0.566407,1.382812 0.167721,0.191459 0.413746,0.295768 0.667968,0.283203 h 13.332032 c 0.220034,-0.003 0.429966,-0.09283 0.583984,-0.25 0.41287,-0.349303 0.63059,-0.877218 0.583984,-1.416015 -0.1,-0.8 -0.834635,-1.232683 -1.667968,-1.666016 -0.780391,-0.355028 -1.436283,-0.936077 -1.882813,-1.667969 H 40.363281 43.455078 47.5 a 2.5,2.5 0 0 0 2.5,-2.5 v -20 A 2.5,2.5 0 0 0 47.5,9.9994911 H 43.455078 40.363281 9.6367188 6.9082031 Z m 0,1.6679689 H 6.9082031 9.6367188 40.363281 43.455078 47.5 a 0.83333334,0.83333334 0 0 1 0.833984,0.832031 v 17.5 H 43.455078 40.363281 9.6367188 6.9082031 1.6660156 v -17.5 A 0.83333334,0.83333334 0 0 1 2.5,11.66746 Z"
     id="path4"
     inkscape:connector-curvature="0" />
</svg>
