<?xml version="1.0" encoding="UTF-8" standalone="no"?>
<svg
   xmlns:dc="http://purl.org/dc/elements/1.1/"
   xmlns:cc="http://creativecommons.org/ns#"
   xmlns:rdf="http://www.w3.org/1999/02/22-rdf-syntax-ns#"
   xmlns:svg="http://www.w3.org/2000/svg"
   xmlns="http://www.w3.org/2000/svg"
   xmlns:sodipodi="http://sodipodi.sourceforge.net/DTD/sodipodi-0.dtd"
   xmlns:inkscape="http://www.inkscape.org/namespaces/inkscape"
   viewBox="0 0 20 14"
   x="0px"
   y="0px"
   version="1.1"
   id="svg10"
   sodipodi:docname="grid-visible.svg"
   width="20"
   height="14"
   inkscape:version="0.92.3 (2405546, 2018-03-11)">
  <metadata
     id="metadata16">
    <rdf:RDF>
      <cc:Work
         rdf:about="">
        <dc:format>image/svg+xml</dc:format>
        <dc:type
           rdf:resource="http://purl.org/dc/dcmitype/StillImage" />
        <dc:title>Iconsset_solid</dc:title>
      </cc:Work>
    </rdf:RDF>
  </metadata>
  <defs
     id="defs14" />
  <sodipodi:namedview
     pagecolor="#ffffff"
     bordercolor="#666666"
     borderopacity="1"
     objecttolerance="10"
     gridtolerance="10"
     guidetolerance="10"
     inkscape:pageopacity="0"
     inkscape:pageshadow="2"
     inkscape:window-width="640"
     inkscape:window-height="480"
     id="namedview12"
     showgrid="false"
     fit-margin-top="0"
     fit-margin-left="0"
     fit-margin-right="0"
     fit-margin-bottom="0"
     inkscape:zoom="11.313709"
     inkscape:cx="25.280365"
     inkscape:cy="-0.414227"
     inkscape:current-layer="svg10" />
  <title
     id="title2">Iconsset_solid</title>
  <path
     style="opacity:1;vector-effect:none;fill:#2c5aa0;fill-opacity:1;stroke:none;stroke-width:5;stroke-linecap:round;stroke-linejoin:round;stroke-miterlimit:4;stroke-dasharray:none;stroke-dashoffset:0;stroke-opacity:1;paint-order:stroke fill markers"
     d="M 10,0 C 5.5,0 1.7,2.9 0,7 c 1.7,4.1 5.5,7 10,7 4.5,0 8.3,-2.9 10,-7 C 18.3,2.9 14.5,0 10,0 Z m 0,2 c 2.8,0 5,2.2 5,5 0,2.894366 -2.26436,5 -5,5 C 7.26436,12 5,9.861508 5,7 5,4.2 7.2,2 10,2 Z m 0,1.916016 A 3.0840333,3.0840333 0 0 0 6.916016,7 3.0840333,3.0840333 0 0 0 10,10.083985 3.0840333,3.0840333 0 0 0 13.083984,7 3.0840333,3.0840333 0 0 0 10,3.916016 Z"
     id="path844"
     inkscape:connector-curvature="0" />
</svg>
