<?xml version="1.0" encoding="UTF-8" standalone="no"?>
<svg
   xmlns:dc="http://purl.org/dc/elements/1.1/"
   xmlns:cc="http://creativecommons.org/ns#"
   xmlns:rdf="http://www.w3.org/1999/02/22-rdf-syntax-ns#"
   xmlns:svg="http://www.w3.org/2000/svg"
   xmlns="http://www.w3.org/2000/svg"
   xmlns:sodipodi="http://sodipodi.sourceforge.net/DTD/sodipodi-0.dtd"
   xmlns:inkscape="http://www.inkscape.org/namespaces/inkscape"
   version="1.1"
   x="0px"
   y="0px"
   viewBox="0 0 20 15.400391"
   enable-background="new 0 0 24 24"
   xml:space="preserve"
   id="svg8"
   sodipodi:docname="grid-hidden.svg"
   width="20"
   height="15.400391"
   inkscape:version="0.92.3 (2405546, 2018-03-11)"><metadata
     id="metadata14"><rdf:RDF><cc:Work
         rdf:about=""><dc:format>image/svg+xml</dc:format><dc:type
           rdf:resource="http://purl.org/dc/dcmitype/StillImage" /><dc:title></dc:title></cc:Work></rdf:RDF></metadata><defs
     id="defs12" /><sodipodi:namedview
     pagecolor="#ffffff"
     bordercolor="#666666"
     borderopacity="1"
     objecttolerance="10"
     gridtolerance="10"
     guidetolerance="10"
     inkscape:pageopacity="0"
     inkscape:pageshadow="2"
     inkscape:window-width="640"
     inkscape:window-height="480"
     id="namedview10"
     showgrid="false"
     fit-margin-top="0"
     fit-margin-left="0"
     fit-margin-right="0"
     fit-margin-bottom="0"
     inkscape:zoom="6.4166667"
     inkscape:cx="-46.647364"
     inkscape:cy="0.23505869"
     inkscape:current-layer="svg8" /><path
     inkscape:connector-curvature="0"
     d="M 10,0 C 5.5,0 1.7,2.9 0,7 0.7,8.600001 1.700391,10.09922 2.900391,11.199219 L 5.300781,8.800781 C 5.100781,8.300781 5,7.600001 5,7 5,4.2 7.2,2 10,2 c 0.6,0 1.300781,0.100391 1.800781,0.400391 L 13.5,0.699219 C 12.4,0.199219 11.2,0 10,0 Z m 7.099609,0 -3.5,3.5 -1.40039,1.400391 L 8,9.09961 6.599609,10.5 4.699219,12.400391 3.099609,14 4.5,15.400391 6.599609,13.300781 C 7.599609,13.800781 8.8,14 10,14 14.5,14 18.3,11.100001 20,7 19.3,5.4 18.299609,3.900782 17.099609,2.800782 L 18.5,1.400391 Z M 10,4 C 8.3,4 7,5.3 7,7 V 7.199219 L 10.199219,4 Z m 4.800781,1 c 0.2,0.600001 0.398438,1.200781 0.398438,1.800781 C 14.999219,9.800781 12.8,12 10,12 9.4,12 8.699219,11.89961 8.199219,11.59961 L 9.900391,9.900392 h 0.199218 c 1.7,0 3,-1.3 3,-3 V 6.69922 Z"
     id="path6"
     style="fill:#2c5aa0;fill-opacity:1" /></svg>