<?xml version="1.0" encoding="UTF-8" standalone="no"?>
<svg
   xmlns:dc="http://purl.org/dc/elements/1.1/"
   xmlns:cc="http://creativecommons.org/ns#"
   xmlns:rdf="http://www.w3.org/1999/02/22-rdf-syntax-ns#"
   xmlns:svg="http://www.w3.org/2000/svg"
   xmlns="http://www.w3.org/2000/svg"
   xmlns:sodipodi="http://sodipodi.sourceforge.net/DTD/sodipodi-0.dtd"
   xmlns:inkscape="http://www.inkscape.org/namespaces/inkscape"
   version="1.1"
   x="0px"
   y="0px"
   viewBox="-346 256 50 50"
   enable-background="new -346 256 100 100"
   xml:space="preserve"
   id="svg24"
   sodipodi:docname="grid-media-tablet-hide.svg"
   width="50"
   height="50"
   inkscape:version="0.92.3 (2405546, 2018-03-11)"><metadata
     id="metadata30"><rdf:RDF><cc:Work
         rdf:about=""><dc:format>image/svg+xml</dc:format><dc:type
           rdf:resource="http://purl.org/dc/dcmitype/StillImage" /><dc:title></dc:title></cc:Work></rdf:RDF></metadata><defs
     id="defs28" /><sodipodi:namedview
     pagecolor="#ffffff"
     bordercolor="#666666"
     borderopacity="1"
     objecttolerance="10"
     gridtolerance="10"
     guidetolerance="10"
     inkscape:pageopacity="0"
     inkscape:pageshadow="2"
     inkscape:window-width="640"
     inkscape:window-height="480"
     id="namedview26"
     showgrid="false"
     fit-margin-top="0"
     fit-margin-left="0"
     fit-margin-right="0"
     fit-margin-bottom="0"
     inkscape:zoom="8.7115556"
     inkscape:cx="0.38336968"
     inkscape:cy="25.966226"
     inkscape:current-layer="svg24" /><g
     id="g18"
     transform="matrix(0.50031019,0,0,0.50031019,-172.89267,125.88558)"
     style="fill:#b7c4c8;fill-opacity:1;stroke-width:1.99875998"><path
       d="m -255.337,264.073 h -81.387 c -5.114,0 -9.276,4.162 -9.276,9.277 v 54.501 c 0,5.115 4.162,9.276 9.276,9.276 h 36.657 c 1.719,4.467 11.402,10.68 11.402,10.68 V 356 h 24.536 v -18.873 h 8.792 c 5.114,0 9.275,-4.161 9.275,-9.276 V 273.35 c 0,-5.116 -4.161,-9.277 -9.275,-9.277 z m -0.439,63.339 h -8.353 v -14.147 c 0,-3.882 -5.755,-3.882 -5.755,0 v 5.664 c 0,0.628 -1.621,0.628 -1.621,0 v -9.754 c 0,-3.881 -5.808,-3.881 -5.808,0 v 9.754 c 0,0.628 -1.621,0.628 -1.621,0 v -13.303 c 0,-3.879 -5.808,-3.879 -5.808,0 v 13.303 c 0,0.628 -1.621,0.628 -1.621,0 v -26.995 c 0,-3.871 -5.808,-3.871 -5.808,0 v 34.423 c 0,0.681 -1.831,0.681 -1.831,0 v -12.951 c 0,-4.711 -6.33,-4.502 -6.33,0 v 14.007 h -35.955 v -53.625 h 80.509 v 53.624 z m 4.86,-24.881 c -1.046,0 -1.894,-0.848 -1.894,-1.893 0,-1.046 0.848,-1.895 1.894,-1.895 1.047,0 1.895,0.848 1.895,1.895 0,1.045 -0.848,1.893 -1.895,1.893 z"
       id="path2"
       inkscape:connector-curvature="0"
       style="fill:#b7c4c8;fill-opacity:1;stroke-width:1.99875998" /><circle
       cx="-295.10199"
       cy="296.33301"
       r="1.654"
       id="circle4"
       style="fill:#b7c4c8;fill-opacity:1;stroke-width:1.99875998" /><circle
       cx="-283.35901"
       cy="296.33301"
       r="1.654"
       id="circle6"
       style="fill:#b7c4c8;fill-opacity:1;stroke-width:1.99875998" /><circle
       cx="-289.491"
       cy="285.34201"
       r="1.655"
       id="circle8"
       style="fill:#b7c4c8;fill-opacity:1;stroke-width:1.99875998" /><circle
       cx="-294.07401"
       cy="286.99899"
       r="1.654"
       id="circle10"
       style="fill:#b7c4c8;fill-opacity:1;stroke-width:1.99875998" /><circle
       cx="-284.70001"
       cy="286.99899"
       r="1.655"
       id="circle12"
       style="fill:#b7c4c8;fill-opacity:1;stroke-width:1.99875998" /><circle
       cx="-296.26001"
       cy="291.27301"
       r="1.655"
       id="circle14"
       style="fill:#b7c4c8;fill-opacity:1;stroke-width:1.99875998" /><circle
       cx="-282.319"
       cy="291.27301"
       r="1.654"
       id="circle16"
       style="fill:#b7c4c8;fill-opacity:1;stroke-width:1.99875998" /></g><path
     inkscape:connector-curvature="0"
     d="m -321,269.2998 c -4.5,0 -8.3,2.9 -10,7 0.7,1.60001 1.70039,3.09922 2.90039,4.19923 l 2.40039,-2.39844 c -0.2,-0.5 -0.30078,-1.20078 -0.30078,-1.80078 0,-2.8 2.2,-5 5,-5 0.6,0 1.30078,0.10039 1.80078,0.40039 l 1.69922,-1.70117 c -1.1,-0.5 -2.3,-0.69922 -3.5,-0.69923 z m 7.09961,0 -3.5,3.5 -1.40039,1.40039 -4.19922,4.19923 -1.40039,1.40039 -1.90039,1.90039 -1.59961,1.59961 1.40039,1.40039 2.09961,-2.09961 c 1,0.5 2.20039,0.69922 3.40039,0.69922 4.5,0 8.3,-2.9 10,-7 -0.7,-1.6 -1.70039,-3.09922 -2.90039,-4.19922 L -312.5,270.7002 Z m -7.09961,4 c -1.7,0 -3,1.3 -3,3 v 0.19923 l 3.19922,-3.19923 z m 4.80078,1 c 0.2,0.60001 0.39844,1.20078 0.39844,1.80078 -0.2,3 -2.39922,5.19922 -5.19922,5.19922 -0.6,0 -1.30078,-0.10039 -1.80078,-0.40039 l 1.70117,-1.69922 h 0.19922 c 1.7,0 3,-1.3 3,-3 v -0.20117 z"
     id="path6"
     style="fill:#2c5aa0;fill-opacity:1;stroke:#ffffff;stroke-opacity:1;paint-order:stroke fill markers;stroke-width:5;stroke-miterlimit:4;stroke-dasharray:none" /></svg>