<?xml version="1.0" encoding="UTF-8" standalone="no"?>
<svg
   xmlns:dc="http://purl.org/dc/elements/1.1/"
   xmlns:cc="http://creativecommons.org/ns#"
   xmlns:rdf="http://www.w3.org/1999/02/22-rdf-syntax-ns#"
   xmlns:svg="http://www.w3.org/2000/svg"
   xmlns="http://www.w3.org/2000/svg"
   xmlns:sodipodi="http://sodipodi.sourceforge.net/DTD/sodipodi-0.dtd"
   xmlns:inkscape="http://www.inkscape.org/namespaces/inkscape"
   viewBox="0 0 50 49.999999"
   x="0px"
   y="0px"
   version="1.1"
   id="svg10"
   sodipodi:docname="grid-media-all.svg"
   width="50"
   height="50"
   inkscape:version="0.92.3 (2405546, 2018-03-11)">
  <metadata
     id="metadata16">
    <rdf:RDF>
      <cc:Work
         rdf:about="">
        <dc:format>image/svg+xml</dc:format>
        <dc:type
           rdf:resource="http://purl.org/dc/dcmitype/StillImage" />
        <dc:title>Iconsset_solid</dc:title>
      </cc:Work>
    </rdf:RDF>
  </metadata>
  <defs
     id="defs14" />
  <sodipodi:namedview
     pagecolor="#ffffff"
     bordercolor="#666666"
     borderopacity="1"
     objecttolerance="10"
     gridtolerance="10"
     guidetolerance="10"
     inkscape:pageopacity="0"
     inkscape:pageshadow="2"
     inkscape:window-width="640"
     inkscape:window-height="480"
     id="namedview12"
     showgrid="false"
     fit-margin-top="0"
     fit-margin-left="0"
     fit-margin-right="0"
     fit-margin-bottom="0"
     inkscape:zoom="9.0745368"
     inkscape:cx="29.315144"
     inkscape:cy="17.398578"
     inkscape:current-layer="svg10" />
  <title
     id="title2">Iconsset_solid</title>
  <g
     id="g818"
     transform="matrix(1.0416667,0,0,1.0416667,-2.0833342,-3.4693925)"
     style="stroke-width:0.95999998">
    <path
       sodipodi:nodetypes="cccccccccccccccccccccccccc"
       inkscape:connector-curvature="0"
       id="path4"
       d="m 16.356714,11.801857 c -1.429782,-3.35e-4 -2.588933,1.158816 -2.588598,2.588598 v 9.665138 h 1.72526 v -9.665138 c -3.73e-4,-0.476963 0.386375,-0.863711 0.863338,-0.863338 h 31.054687 c 0.476963,-3.73e-4 0.863712,0.386375 0.863339,0.863338 V 32.506398 H 24.814542 v 5.175781 h 2.566006 c -0.46241,0.757097 -1.141291,1.358081 -1.948879,1.72526 -0.793651,0.483091 -1.552728,0.931609 -1.72526,1.72526 -0.04176,0.54316 0.175458,1.074138 0.585937,1.432292 0.173484,0.197895 0.427811,0.305775 0.69067,0.292969 H 38.7851 c 0.227737,-0.0032 0.44498,-0.09627 0.604336,-0.259002 0.42745,-0.361724 0.652767,-0.908395 0.604336,-1.466259 -0.103519,-0.828157 -0.864011,-1.276675 -1.726675,-1.72526 -0.807588,-0.367179 -1.486469,-0.968163 -1.948879,-1.72526 H 47.411401 C 48.841184,37.682515 50.000336,36.523363 50,35.09358 V 14.390455 c 3.35e-4,-1.429782 -1.158817,-2.588934 -2.588599,-2.588598 z"
       style="fill:#2c5aa0;fill-opacity:1;stroke-width:0.95999998" />
    <path
       sodipodi:nodetypes="ssccccccssssssssssssssssssccccccccssssscccccccccccccccccccccccccccccccccccccccsssss"
       inkscape:connector-curvature="0"
       id="path2"
       d="m 6.91678,22.862489 c -1.1124289,0 -2.0182293,0.905582 -2.0182293,2.018229 v 6.329754 H 7.011606 v -6.234928 h 17.51302 v 11.664968 h -1.817255 v -3.078295 c 0,-0.844437 -1.251133,-0.844437 -1.251133,0 v 1.232733 c 0,0.136607 -0.352411,0.136607 -0.352411,0 v -2.121547 c 0,-0.844219 -1.26387,-0.844219 -1.26387,0 v 2.121547 c 0,0.136607 -0.352412,0.136607 -0.352412,0 v -2.894305 c 0,-0.843784 -1.26387,-0.843784 -1.26387,0 v 2.894305 c 0,0.136607 -0.352411,0.136607 -0.352411,0 v -5.872113 c 0,-0.842044 -1.263871,-0.842044 -1.263871,0 v 7.488395 c 0,0.148134 -0.397701,0.148134 -0.397701,0 v -2.817878 c 0,-1.024766 -1.377095,-0.979303 -1.377095,0 v 3.047158 H 8.66327 v 2.113054 h 6.227355 c 0.373927,0.97169 2.47962,2.322521 2.47962,2.322521 v 1.783288 h 5.337126 v -4.105809 h 1.912081 c 1.112428,0 2.018229,-0.905582 2.018229,-2.018229 V 24.880718 c 0,-1.112864 -0.905801,-2.018229 -2.018229,-2.018229 z m 10.273721,4.265738 c -0.198975,2.85e-4 -0.359986,0.161929 -0.359489,0.360904 2.85e-4,0.198422 0.161067,0.359203 0.359489,0.359488 0.198974,4.96e-4 0.360617,-0.160514 0.360903,-0.359488 4.98e-4,-0.199527 -0.161376,-0.361402 -0.360903,-0.360904 z m -0.996377,0.360904 c -0.198472,1.65e-4 -0.359323,0.161016 -0.359489,0.359488 -6.17e-4,0.199024 0.160464,0.360738 0.359489,0.360903 0.199024,-1.65e-4 0.360105,-0.16188 0.359488,-0.360903 -1.66e-4,-0.198471 -0.161017,-0.359322 -0.359488,-0.359488 z m 2.039459,0 c -0.198974,-4.97e-4 -0.360618,0.160513 -0.360904,0.359488 -4.98e-4,0.199527 0.161377,0.361401 0.360904,0.360903 0.198974,-2.86e-4 0.359984,-0.161929 0.359488,-0.360903 -2.85e-4,-0.198421 -0.161067,-0.359203 -0.359488,-0.359488 z m -2.515003,0.929857 c -0.198974,-4.96e-4 -0.360617,0.160514 -0.360903,0.359488 -4.98e-4,0.199527 0.161376,0.361401 0.360903,0.360903 0.198974,-2.86e-4 0.359984,-0.161929 0.359488,-0.360903 -2.85e-4,-0.198421 -0.161067,-0.359203 -0.359488,-0.359488 z m 3.03159,0 c -0.198471,1.66e-4 -0.359322,0.161017 -0.359488,0.359488 -6.17e-4,0.199023 0.160464,0.360738 0.359488,0.360903 0.199577,6.19e-4 0.361522,-0.161326 0.360903,-0.360903 -1.65e-4,-0.199024 -0.16188,-0.360105 -0.360903,-0.359488 z m -2.80514,1.10111 c -0.188459,0.01354 -0.334341,0.170544 -0.334013,0.359488 1.66e-4,0.198471 0.161017,0.359322 0.359488,0.359488 0.198471,-1.66e-4 0.359322,-0.161017 0.359488,-0.359488 -1.66e-4,-0.198471 -0.161017,-0.359322 -0.359488,-0.359488 -0.0085,-3.01e-4 -0.01699,-3.01e-4 -0.02548,0 z m 2.55463,0 c -0.189018,0.01283 -0.335704,0.170036 -0.335427,0.359488 1.65e-4,0.199024 0.16188,0.360105 0.360903,0.359488 0.198471,-1.66e-4 0.359322,-0.161017 0.359488,-0.359488 -1.66e-4,-0.198471 -0.161017,-0.359322 -0.359488,-0.359488 -0.0085,-3.01e-4 -0.01699,-3.01e-4 -0.02548,0 z m 7.082202,0.883152 c 0.227749,0 0.411854,0.185519 0.411854,0.413269 0,0.227315 -0.184105,0.411855 -0.411854,0.411855 -0.227533,0 -0.411856,-0.18454 -0.411856,-0.411855 0,-0.227532 0.184323,-0.413269 0.411856,-0.413269 z"
       style="fill:#2c5aa0;fill-opacity:1;stroke-width:0.95999998" />
    <path
       style="fill:#2c5aa0;fill-opacity:1;stroke-width:0.95999998"
       inkscape:connector-curvature="0"
       id="path2-3"
       d="M 8.038319,31.182819 H 3.2075652 C 2.5402,31.182819 2,31.723512 2,32.389892 v 9.226783 c 0,0.667365 0.5406935,1.242067 1.2075652,1.242067 H 8.038319 c 0.667364,0 1.208058,-0.541186 1.208058,-1.209044 v -9.258821 c 0,-0.666871 -0.540694,-1.208058 -1.208058,-1.208058 z m -3.2209951,0.403179 h 1.6107435 v 0.402686 H 4.8173239 Z m 0.8058645,10.467865 c -0.2227833,0 -0.4026862,-0.180396 -0.4026862,-0.402686 0,-0.221798 0.1803956,-0.402193 0.4026862,-0.402193 0.2217978,0 0.4021928,0.180395 0.4021928,0.402193 0,0.222291 -0.180395,0.402686 -0.4021928,0.402686 z M 8.441005,40.443612 H 2.8043862 V 32.390877 H 8.441005 Z" />
  </g>
</svg>
