<?xml version="1.0" encoding="UTF-8" standalone="no"?>
<svg
   xmlns:dc="http://purl.org/dc/elements/1.1/"
   xmlns:cc="http://creativecommons.org/ns#"
   xmlns:rdf="http://www.w3.org/1999/02/22-rdf-syntax-ns#"
   xmlns:svg="http://www.w3.org/2000/svg"
   xmlns="http://www.w3.org/2000/svg"
   xmlns:sodipodi="http://sodipodi.sourceforge.net/DTD/sodipodi-0.dtd"
   xmlns:inkscape="http://www.inkscape.org/namespaces/inkscape"
   version="1.1"
   x="0px"
   y="0px"
   viewBox="0 0 50.000001 50"
   enable-background="new 0 0 24 24"
   xml:space="preserve"
   id="svg8"
   sodipodi:docname="grid-media-mobile_visible.svg"
   width="50"
   height="50"
   inkscape:version="0.92.3 (2405546, 2018-03-11)"><metadata
     id="metadata14"><rdf:RDF><cc:Work
         rdf:about=""><dc:format>image/svg+xml</dc:format><dc:type
           rdf:resource="http://purl.org/dc/dcmitype/StillImage" /><dc:title></dc:title></cc:Work></rdf:RDF></metadata><defs
     id="defs12" /><sodipodi:namedview
     pagecolor="#ffffff"
     bordercolor="#666666"
     borderopacity="1"
     objecttolerance="10"
     gridtolerance="10"
     guidetolerance="10"
     inkscape:pageopacity="0"
     inkscape:pageshadow="2"
     inkscape:window-width="640"
     inkscape:window-height="480"
     id="namedview10"
     showgrid="false"
     fit-margin-top="0"
     fit-margin-left="0"
     fit-margin-right="0"
     fit-margin-bottom="0"
     inkscape:zoom="6.4166667"
     inkscape:cx="13.625363"
     inkscape:cy="21.275124"
     inkscape:current-layer="svg8" /><path
     d="M 35.342353,0 H 14.655536 C 11.79767,0 9.4843593,2.315421 9.4843593,5.169066 v 39.51201 C 9.4843593,47.538943 11.79978,50 14.655536,50 h 20.686817 c 2.857867,0 5.173288,-2.317531 5.173288,-5.177508 V 5.173287 C 40.515641,2.317531 38.20022,0 35.342353,0 Z M 21.549031,1.72654 h 6.897716 V 3.450969 H 21.549032 Z M 25,46.553253 c -0.95403,0 -1.72443,-0.77251 -1.72443,-1.724429 0,-0.949808 0.772511,-1.722318 1.72443,-1.722318 0.949807,0 1.722318,0.77251 1.722318,1.722318 0,0.951919 -0.772511,1.724429 -1.722318,1.724429 z M 37.066783,39.657647 H 12.928996 V 5.173287 h 24.137787 z"
     id="path2"
     inkscape:connector-curvature="0"
     style="fill:#2c5aa0;fill-opacity:1;stroke-width:1" /><path
     inkscape:connector-curvature="0"
     style="opacity:1;vector-effect:none;fill:#2c5aa0;fill-opacity:1;stroke:none;stroke-width:5;stroke-linecap:round;stroke-linejoin:round;stroke-miterlimit:4;stroke-dasharray:none;stroke-dashoffset:0;stroke-opacity:1;paint-order:stroke fill markers"
     d="m 25,18 c -4.5,0 -8.3,2.9 -10,7 1.7,4.1 5.5,7 10,7 4.5,0 8.3,-2.9 10,-7 -1.7,-4.1 -5.5,-7 -10,-7 z m 0,2 c 2.8,0 5,2.2 5,5 0,2.894366 -2.26436,5 -5,5 -2.73564,0 -5,-2.138492 -5,-5 0,-2.8 2.2,-5 5,-5 z m 0,1.916016 A 3.0840333,3.0840333 0 0 0 21.916016,25 3.0840333,3.0840333 0 0 0 25,28.083985 3.0840333,3.0840333 0 0 0 28.083984,25 3.0840333,3.0840333 0 0 0 25,21.916016 Z"
     id="path844" /></svg>