<svg height="256" viewBox="0 0 256 256" width="256" xmlns="http://www.w3.org/2000/svg"><rect fill="#339" height="256" rx="36" width="256"/><g fill="#fff" stroke="#fff" stroke-miterlimit="10"><path d="m128.31 84.09q0-15.24-10.5-15.24a16.9 16.9 0 0 0 -4.32.41 31 31 0 0 1 -5.56.62 6 6 0 0 1 -4.53-2 6.76 6.76 0 0 1 -1.85-4.84q0-7.2 8.62-7.21l3.08.21q30.75 2.11 28.75 2.11h2l49.45-1.44q1.44 0 10.67-.62 3.28-.2 5.95-.21 10.67 0 10.67 9.47 0 1.65-.59 10.5-.44 6.59-.44 12.15a98.07 98.07 0 0 0 .34 10.09 86.18 86.18 0 0 1 .68 8.85q0 7.83-7.31 7.82t-7.31-10.91v-10.7q0-17.3-7.21-20.39-5.36-2.26-27.59-2.26-14.62 0-17.3.62-8.85 2.27-8.85 12.35v20.59q0 8.24 3.65 9.47a19.71 19.71 0 0 0 4.88.41h8.33q12.79 0 12.79-8.85a51.45 51.45 0 0 0 -.51-6.38 54.12 54.12 0 0 1 -.51-7q0-8.23 7.31-8.24t7.31 8.85q0 1.65-1.33 12.77a141.67 141.67 0 0 0 -1.08 16.68q0 4.12.82 14.62.2 1.65 1 7.21a56.28 56.28 0 0 1 .62 7.21q0 7.41-7.41 7.41-7.21 0-7.21-8.65a60.28 60.28 0 0 1 .51-6.59 60.93 60.93 0 0 0 .51-6.59q0-8.85-11.74-8.85h-9.27q-6 0-7.31 2.06t-1.34 8.85v12.77q0 3.3.21 8.85.2 6.8.21 9.06.2 8.24 3.29 10.3 2.26 1.44 10.71 1.44h28q12.15 0 16.68-3.6t4.53-13.49q0-3.09-.31-9.16t-.31-9.16q0-9.27 7.31-9.27 7.72 0 7.72 9.47 0 3.71-.31 11.33t-.31 11.33q0 2.89.31 8.54t.31 8.54q0 9.68-9.47 9.68-2.27 0-7.21-.41-2.47-.21-9.06-.21 1.44 0-16.06-.41t-30.27-.41q-19.36 0-37.89 1.24a9.49 9.49 0 0 0 -1.85.21h-1.24q-8.65 0-8.65-7.41 0-6.59 6.38-6.59 1 0 5.56.41a16.41 16.41 0 0 0 4.32.62q10.5 0 10.5-15.44z"/><path d="m80.39 197.55q-21.62 0-34.59-14.93t-13-40q0-25.12 13.08-40t35.12-15.03q22.44 0 35.42 14.62t13 39.74q0 25.13-13.38 40.36t-35.65 15.24zm1-96.37q-14.42 0-22.65 10.09t-9.06 28.62v2.68q0 19.36 8.13 30.37t22.79 11.06q15 0 23.58-11t8.55-30.58q-.01-41.24-31.31-41.24z"/></g></svg>