<svg 
	version="1.1" 
	width="512"
	height="512"
	viewBox="0 0 512 512"
	xmlns="http://www.w3.org/2000/svg" 
	xmlns:xlink="http://www.w3.org/1999/xlink" 
>
	<g transform="translate(-102 0) scale(1.2) rotate(180 256 256)">
		<path fill="#C43D2C" d="M355.501,245.374L213.124,387.75c-24.541,24.542-64.333,24.542-88.874,0s-24.542-64.332,0-88.874 l142.376-142.376l-72.064-72.064L48.257,230.741c-64.342,64.342-64.342,168.661,0,233.002s168.661,64.342,233.002,0l146.306-146.306 L355.501,245.374z"/>
		<path fill="#F74D37" d="M48.256,463.744l75.994-75.994c24.541,24.542,64.333,24.542,88.874,0L355.5,245.374l72.064,72.064 L281.259,463.743C216.916,528.086,112.598,528.086,48.256,463.744z"/>
		<rect x="314.661" y="270.675" transform="matrix(-0.7071 -0.7071 0.7071 -0.7071 406.8443 783.1379)"
					fill="#D8D9DD" width="101.909" height="73.266"/>
		<rect x="153.734" y="109.741" transform="matrix(0.7071 0.7071 -0.7071 0.7071 163.4544 -101.8644)"
					fill="#B7B9C0" width="101.909" height="73.266"/>
	</g>
	<path fill="#E21B1B" opacity="0.9" d="m415.402344 495.421875-159.40625-159.410156-159.40625 159.410156c-22.097656 22.09375-57.921875 22.09375-80.019532 0-22.09375-22.097656-22.09375-57.921875 0-80.019531l159.410157-159.40625-159.410157-159.40625c-22.09375-22.097656-22.09375-57.921875 0-80.019532 22.097657-22.09375 57.921876-22.09375 80.019532 0l159.40625 159.410157 159.40625-159.410157c22.097656-22.09375 57.921875-22.09375 80.019531 0 22.09375 22.097657 22.09375 57.921876 0 80.019532l-159.410156 159.40625 159.410156 159.40625c22.09375 22.097656 22.09375 57.921875 0 80.019531-22.097656 22.09375-57.921875 22.09375-80.019531 0zm0 0" />
</svg>
