<svg width="200" height="200" xmlns="http://www.w3.org/2000/svg">
    <path transform="rotate(90.6927, 101.594, 98.184)" id="svg_puzzle_icon" class="svg_puzzle_icon" fill="#ffbf00" d="m152.555664,120.097778c0.250229,10.767975 9.766113,19.532227 20.534073,19.281967c4.75769,-0.250229 9.265182,-2.00325 12.520981,-5.008392c1.50235,-1.50235 3.756256,-2.253937 6.009811,-2.253937l4.006546,0l0,53.589127c0,3.505615 -2.754456,6.260483 -6.260483,6.260483l-53.838989,0l0,-4.006546c0,-2.253937 1.001862,-4.507492 2.504211,-6.260483c3.005096,-3.505646 5.008377,-8.013123 5.008377,-13.021515c0,-0.75116 0,-1.25206 0,-2.003265c0,-0.250229 0,-0.250229 0,-0.500916c0,-0.5009 0,-1.001831 -0.250229,-1.502335c0,-0.250259 0,-0.500916 -0.250259,-0.75116c0,-0.500946 -0.250275,-0.75119 -0.250275,-1.252136c0,-0.250259 -0.250259,-0.5009 -0.250259,-0.75116c-0.250244,-0.5009 -0.250244,-0.75119 -0.500931,-1.25209c0,-0.250259 -0.250244,-0.500916 -0.250244,-0.751175c-0.250259,-0.25029 -0.250259,-0.751205 -0.500946,-1.001831c0,-0.250275 -0.250229,-0.500946 -0.250229,-0.75119c-0.250275,-0.250259 -0.500916,-0.75119 -0.75119,-1.001862c-0.250244,-0.250244 -0.250244,-0.5009 -0.500916,-0.5009c-0.250275,-0.250244 -0.500916,-0.75119 -0.75119,-1.001846c-0.250244,-0.250244 -0.250244,-0.250244 -0.5009,-0.500916c-0.250259,-0.250244 -0.500931,-0.5009 -0.751175,-0.75119s-0.500931,-0.250244 -0.500931,-0.500916c-0.250259,-0.250244 -0.500916,-0.500916 -1.001831,-0.75116c-0.250275,-0.250259 -0.500916,-0.250259 -0.500916,-0.5009c-0.250275,-0.250305 -0.75119,-0.500961 -1.001846,-0.751205c-0.250259,-0.250259 -0.500916,-0.250259 -0.751175,-0.5009c-0.250275,-0.250259 -0.75119,-0.500916 -1.001831,-0.500916s-0.500931,-0.25029 -0.75119,-0.25029c-0.250259,-0.250244 -0.75119,-0.250244 -1.001831,-0.5009c-0.250275,0 -0.500916,-0.250244 -0.75119,-0.250244c-0.250244,0 -0.751175,-0.250305 -1.001831,-0.500931c-0.250244,0 -0.500916,0 -0.75119,-0.250275c-0.250244,0 -0.751183,-0.250244 -1.001808,-0.250244s-0.500938,0 -0.75119,0s-0.75119,0 -1.252098,0c-0.250267,0 -0.500923,0 -1.001839,0c-0.250244,0 -0.751183,0 -1.001846,0l-0.250252,0l-1.001839,0c-0.250259,0 -0.751183,0 -1.001846,0c-0.5009,0 -0.751167,0.250244 -1.252098,0.250244c-0.250252,0 -0.500908,0 -0.751175,0c-0.500908,0 -1.001823,0.250275 -1.50235,0.5009l-0.250259,0c-0.500916,0.250305 -1.252098,0.500946 -1.753014,0.751205l0,0c-4.006538,1.753006 -7.512581,5.008392 -9.515854,9.014923c0,0 0,0 0,0.250259c-0.250259,0.500931 -0.500916,1.001846 -0.751183,1.502365c0,0 0,0.250259 -0.250244,0.500916c-0.250267,0.500916 -0.250267,0.75119 -0.500931,1.25209c0,0.250244 -0.250252,0.500946 -0.250252,0.75119c0,0.250259 -0.250275,0.75116 -0.250275,1.001846c0,0.250259 -0.250252,0.5009 -0.250252,0.75116c0,0.250244 0,0.751205 0,1.001846c0,0.250259 0,0.75119 0,1.001846c0,0.250244 0,0.751144 0,1.001831s0,0.751205 0,1.001846l0,0.250259c0,0.250229 0,0.500916 0,0.751144l0,1.001877c0,0.250244 0,0.500916 0,0.75116c0,0.250244 0,0.75119 0.250252,1.001846c0,0.250259 0,0.5009 0.250275,0.75116c0,0.250259 0.250252,0.751205 0.250252,1.001846c0,0.250275 0.250267,0.500931 0.250267,0.75119c0,0.250244 0.250244,0.5009 0.250244,0.751175c0,0.250259 0.250267,0.500931 0.250267,0.751175c0,0.250259 0.250259,0.5009 0.250259,0.751175c0,0.250244 0.250275,0.500931 0.500908,0.75116c0.250267,0.250275 0.250267,0.500931 0.500931,0.75119c0.250259,0.250244 0.250259,0.500946 0.500923,0.751175c0.250244,0.250275 0.250244,0.500916 0.500908,0.751175c0.250259,0.250275 0.250259,0.500931 0.500923,0.75119c0.250259,0.250275 0.250259,0.250275 0.500923,0.5009c1.502357,1.753036 2.504173,4.006561 2.504173,6.260483l0,4.006577l-54.089611,0c-3.505619,0 -6.260479,-2.754471 -6.260479,-6.260498l0,-54.340271l-4.006546,0c-2.253929,0 -4.257206,0.751144 -6.009819,2.253906c-3.255367,3.005112 -7.76284,5.008392 -12.520969,5.008392c-10.767948,0.500931 -20.283804,-8.263748 -20.534061,-19.281975c-0.250259,-11.268852 8.764677,-20.283798 19.782887,-20.283798c5.008389,0 9.51585,1.753021 13.021484,5.008392c1.753014,1.502357 3.756287,2.504196 6.260479,2.504196l4.006546,0l0,-53.839359c0,-3.505623 2.754459,-6.260487 6.260479,-6.260487l53.839367,0l0,-4.006554c0,-2.253937 -0.751175,-4.257214 -2.253922,-6.009819c-3.005119,-3.255363 -5.008392,-7.76284 -5.008392,-12.520967c-0.500923,-10.767948 8.263756,-20.283798 19.0317,-20.534065c11.268867,-0.250255 20.283821,8.764683 20.283821,19.782888c0,5.008396 -1.753006,9.515854 -5.008392,13.021481c-1.502365,1.753033 -2.504196,3.756302 -2.504196,6.260483l0,4.006554l54.08963,0c3.505646,0 6.260483,2.754448 6.260483,6.260487l0,53.839359l-4.006546,0c-2.253937,0 -4.507477,-1.001839 -6.260483,-2.504196c-3.505615,-3.005112 -8.013107,-5.008385 -13.0215,-5.008385c-11.018204,0.250259 -20.033127,9.26519 -19.782883,20.534058z"/>
    <g id="svg_recycle_icon" class="svg_recycle_icon">
        <path style="fill:#6A9923;" d="M123.64923858642578,27.179046630859375 L115.81812286376953,15.18927001953125 h-11.030006408691406 C99.73577117919922,15.188434600830078 95.05352020263672,17.716564178466797 92.45453643798828,21.848529815673828 L85.14676666259766,33.175079345703125 l25.930768966674805,15.737592697143555 L123.64923858642578,27.179046630859375 z" id="svg_1" stroke="#4A6603" stroke-opacity="1" stroke-width="5"/>
        <path style="fill:#88B337;" d="M164.94043731689453,36.801483154296875 L155.86702728271484,21.933956146240234 c-2.3090169429779053,-4.162874698638916 -6.848669528961182,-6.7607011795043945 -11.786713600158691,-6.744683265686035 h-28.262182235717773 l21.190156936645508,38.219879150390625 l-11.786713600158691,6.744683265686035 l35.08197021484375,3.8062493801116943 L177.0830307006836,30.926864624023438 L164.94043731689453,36.801483154296875 z" id="svg_2" stroke="#4A6603" stroke-opacity="1" stroke-width="5"/>
        <path style="fill:#6A9923;" d="M179.44037628173828,62.40205383300781 l-28.288116455078125,15.737592697143555 l11.786713600158691,20.234045028686523 h18.858741760253906 l4.926845550537109,-7.587769031524658 c2.7359907627105713,-4.224420070648193 2.8638768196105957,-9.529393196105957 0.3347426652908325,-13.869317054748535 L179.44037628173828,62.40205383300781 z" id="svg_3" stroke="#4A6603" stroke-opacity="1" stroke-width="5"/>
        <path style="fill:#88B337;" d="M134.65094757080078,98.37370300292969 v-11.241140365600586 l-23.573427200317383,24.730504989624023 l23.573427200317383,29.226961135864258 v-8.992911338806152 h18.858741760253906 c4.966037273406982,0.11550271511077881 9.556666374206543,-2.511270523071289 11.786713600158691,-6.744683265686035 l16.501399993896484,-26.97873306274414 H134.65094757080078 z" id="svg_4" stroke="#4A6603" stroke-opacity="1" stroke-width="5"/>
        <path style="fill:#6A9923;" d="M75.71741485595703,100.62196350097656 l-5.740129470825195,12.61705493927002 l7.173393726348877,11.850407600402832 c2.660850763320923,4.294958114624023 7.480438232421875,6.952083110809326 12.71079158782959,7.007727146148682 h9.429370880126953 v-31.47518539428711 H75.71741485595703 z" id="svg_5" stroke="#4A6603" stroke-opacity="1" stroke-width="5"/>
        <path style="fill:#88B337;" d="M104.0055160522461,80.38786315917969 l-14.144058227539062,-29.226961135864258 l-37.71748352050781,2.248227834701538 l13.48164176940918,7.97221565246582 L56.85866928100586,78.1396484375 c-2.4386708736419678,4.195754528045654 -2.4386708736419678,9.293612480163574 0,13.48936653137207 l13.116255760192871,21.609968185424805 l4.907988548278809,-8.120598793029785 l17.519771575927734,-29.002138137817383 L104.0055160522461,80.38786315917969 z" id="svg_6" stroke="#4A6603" stroke-opacity="1" stroke-width="5"/>
    </g>
</svg>