<svg width="200" height="200" xmlns="http://www.w3.org/2000/svg">
    <path transform="rotate(90.6927, 101.594, 98.184)" id="svg_puzzle_icon" class="svg_puzzle_icon" fill="#ffbf00" d="m152.555664,120.097778c0.250229,10.767975 9.766113,19.532227 20.534073,19.281967c4.75769,-0.250229 9.265182,-2.00325 12.520981,-5.008392c1.50235,-1.50235 3.756256,-2.253937 6.009811,-2.253937l4.006546,0l0,53.589127c0,3.505615 -2.754456,6.260483 -6.260483,6.260483l-53.838989,0l0,-4.006546c0,-2.253937 1.001862,-4.507492 2.504211,-6.260483c3.005096,-3.505646 5.008377,-8.013123 5.008377,-13.021515c0,-0.75116 0,-1.25206 0,-2.003265c0,-0.250229 0,-0.250229 0,-0.500916c0,-0.5009 0,-1.001831 -0.250229,-1.502335c0,-0.250259 0,-0.500916 -0.250259,-0.75116c0,-0.500946 -0.250275,-0.75119 -0.250275,-1.252136c0,-0.250259 -0.250259,-0.5009 -0.250259,-0.75116c-0.250244,-0.5009 -0.250244,-0.75119 -0.500931,-1.25209c0,-0.250259 -0.250244,-0.500916 -0.250244,-0.751175c-0.250259,-0.25029 -0.250259,-0.751205 -0.500946,-1.001831c0,-0.250275 -0.250229,-0.500946 -0.250229,-0.75119c-0.250275,-0.250259 -0.500916,-0.75119 -0.75119,-1.001862c-0.250244,-0.250244 -0.250244,-0.5009 -0.500916,-0.5009c-0.250275,-0.250244 -0.500916,-0.75119 -0.75119,-1.001846c-0.250244,-0.250244 -0.250244,-0.250244 -0.5009,-0.500916c-0.250259,-0.250244 -0.500931,-0.5009 -0.751175,-0.75119s-0.500931,-0.250244 -0.500931,-0.500916c-0.250259,-0.250244 -0.500916,-0.500916 -1.001831,-0.75116c-0.250275,-0.250259 -0.500916,-0.250259 -0.500916,-0.5009c-0.250275,-0.250305 -0.75119,-0.500961 -1.001846,-0.751205c-0.250259,-0.250259 -0.500916,-0.250259 -0.751175,-0.5009c-0.250275,-0.250259 -0.75119,-0.500916 -1.001831,-0.500916s-0.500931,-0.25029 -0.75119,-0.25029c-0.250259,-0.250244 -0.75119,-0.250244 -1.001831,-0.5009c-0.250275,0 -0.500916,-0.250244 -0.75119,-0.250244c-0.250244,0 -0.751175,-0.250305 -1.001831,-0.500931c-0.250244,0 -0.500916,0 -0.75119,-0.250275c-0.250244,0 -0.751183,-0.250244 -1.001808,-0.250244s-0.500938,0 -0.75119,0s-0.75119,0 -1.252098,0c-0.250267,0 -0.500923,0 -1.001839,0c-0.250244,0 -0.751183,0 -1.001846,0l-0.250252,0l-1.001839,0c-0.250259,0 -0.751183,0 -1.001846,0c-0.5009,0 -0.751167,0.250244 -1.252098,0.250244c-0.250252,0 -0.500908,0 -0.751175,0c-0.500908,0 -1.001823,0.250275 -1.50235,0.5009l-0.250259,0c-0.500916,0.250305 -1.252098,0.500946 -1.753014,0.751205l0,0c-4.006538,1.753006 -7.512581,5.008392 -9.515854,9.014923c0,0 0,0 0,0.250259c-0.250259,0.500931 -0.500916,1.001846 -0.751183,1.502365c0,0 0,0.250259 -0.250244,0.500916c-0.250267,0.500916 -0.250267,0.75119 -0.500931,1.25209c0,0.250244 -0.250252,0.500946 -0.250252,0.75119c0,0.250259 -0.250275,0.75116 -0.250275,1.001846c0,0.250259 -0.250252,0.5009 -0.250252,0.75116c0,0.250244 0,0.751205 0,1.001846c0,0.250259 0,0.75119 0,1.001846c0,0.250244 0,0.751144 0,1.001831s0,0.751205 0,1.001846l0,0.250259c0,0.250229 0,0.500916 0,0.751144l0,1.001877c0,0.250244 0,0.500916 0,0.75116c0,0.250244 0,0.75119 0.250252,1.001846c0,0.250259 0,0.5009 0.250275,0.75116c0,0.250259 0.250252,0.751205 0.250252,1.001846c0,0.250275 0.250267,0.500931 0.250267,0.75119c0,0.250244 0.250244,0.5009 0.250244,0.751175c0,0.250259 0.250267,0.500931 0.250267,0.751175c0,0.250259 0.250259,0.5009 0.250259,0.751175c0,0.250244 0.250275,0.500931 0.500908,0.75116c0.250267,0.250275 0.250267,0.500931 0.500931,0.75119c0.250259,0.250244 0.250259,0.500946 0.500923,0.751175c0.250244,0.250275 0.250244,0.500916 0.500908,0.751175c0.250259,0.250275 0.250259,0.500931 0.500923,0.75119c0.250259,0.250275 0.250259,0.250275 0.500923,0.5009c1.502357,1.753036 2.504173,4.006561 2.504173,6.260483l0,4.006577l-54.089611,0c-3.505619,0 -6.260479,-2.754471 -6.260479,-6.260498l0,-54.340271l-4.006546,0c-2.253929,0 -4.257206,0.751144 -6.009819,2.253906c-3.255367,3.005112 -7.76284,5.008392 -12.520969,5.008392c-10.767948,0.500931 -20.283804,-8.263748 -20.534061,-19.281975c-0.250259,-11.268852 8.764677,-20.283798 19.782887,-20.283798c5.008389,0 9.51585,1.753021 13.021484,5.008392c1.753014,1.502357 3.756287,2.504196 6.260479,2.504196l4.006546,0l0,-53.839359c0,-3.505623 2.754459,-6.260487 6.260479,-6.260487l53.839367,0l0,-4.006554c0,-2.253937 -0.751175,-4.257214 -2.253922,-6.009819c-3.005119,-3.255363 -5.008392,-7.76284 -5.008392,-12.520967c-0.500923,-10.767948 8.263756,-20.283798 19.0317,-20.534065c11.268867,-0.250255 20.283821,8.764683 20.283821,19.782888c0,5.008396 -1.753006,9.515854 -5.008392,13.021481c-1.502365,1.753033 -2.504196,3.756302 -2.504196,6.260483l0,4.006554l54.08963,0c3.505646,0 6.260483,2.754448 6.260483,6.260487l0,53.839359l-4.006546,0c-2.253937,0 -4.507477,-1.001839 -6.260483,-2.504196c-3.505615,-3.005112 -8.013107,-5.008385 -13.0215,-5.008385c-11.018204,0.250259 -20.033127,9.26519 -19.782883,20.534058z"/>
    <g id="svg_add_icon" class="svg_add_icon">
        <path id="svg_6" fill="#2196f3" d="m148.204687956626,6.731345223151152 c-23.853131198551182,0 -43.25748073731029,19.404348320590316 -43.25748073731029,43.257475864635126 s19.404349538759107,43.257475864635126 43.25748073731029,43.257475864635126 s43.25748073731029,-19.404343447915153 43.25748073731029,-43.257475864635126 s-19.404349538759107,-43.257475864635126 -43.25748073731029,-43.257475864635126 zm0,0 " stroke-width="0"/>
        <path id="svg_7" fill="#fafafa" d="m167.12982694747552,53.59339533032471 l-15.320577539083388,0 l0,15.320577539083388 c0,1.9900711903242154 -1.614499093165648,3.6045699789476657 -3.6045699789476657,3.6045699789476657 s-3.6045699789476657,-1.614499093165648 -3.6045699789476657,-3.6045699789476657 l0,-15.320577539083388 l-15.320577539083388,0 c-1.9900711903242154,0 -3.6045699789476657,-1.614499093165648 -3.6045699789476657,-3.6045699789476657 s1.614499093165648,-3.6045699789476657 3.6045699789476657,-3.6045699789476657 l15.320577539083388,0 l0,-15.320577539083388 c0,-1.9900711903242154 1.614499093165648,-3.6045699789476657 3.6045699789476657,-3.6045699789476657 s3.6045699789476657,1.614499093165648 3.6045699789476657,3.6045699789476657 l0,15.320577539083388 l15.320577539083388,0 c1.9900711903242154,0 3.6045699789476657,1.614499093165648 3.6045699789476657,3.6045699789476657 s-1.614499093165648,3.6045699789476657 -3.6045699789476657,3.6045699789476657 zm0,0 " stroke-width="5" stroke="#fafafa" />
    </g>
</svg>