<svg width="200" height="200" xmlns="http://www.w3.org/2000/svg">
    <path transform="rotate(90.6927, 101.594, 98.184)" id="svg_puzzle_icon" class="svg_puzzle_icon" fill="#ffbf00" d="m152.555664,120.097778c0.250229,10.767975 9.766113,19.532227 20.534073,19.281967c4.75769,-0.250229 9.265182,-2.00325 12.520981,-5.008392c1.50235,-1.50235 3.756256,-2.253937 6.009811,-2.253937l4.006546,0l0,53.589127c0,3.505615 -2.754456,6.260483 -6.260483,6.260483l-53.838989,0l0,-4.006546c0,-2.253937 1.001862,-4.507492 2.504211,-6.260483c3.005096,-3.505646 5.008377,-8.013123 5.008377,-13.021515c0,-0.75116 0,-1.25206 0,-2.003265c0,-0.250229 0,-0.250229 0,-0.500916c0,-0.5009 0,-1.001831 -0.250229,-1.502335c0,-0.250259 0,-0.500916 -0.250259,-0.75116c0,-0.500946 -0.250275,-0.75119 -0.250275,-1.252136c0,-0.250259 -0.250259,-0.5009 -0.250259,-0.75116c-0.250244,-0.5009 -0.250244,-0.75119 -0.500931,-1.25209c0,-0.250259 -0.250244,-0.500916 -0.250244,-0.751175c-0.250259,-0.25029 -0.250259,-0.751205 -0.500946,-1.001831c0,-0.250275 -0.250229,-0.500946 -0.250229,-0.75119c-0.250275,-0.250259 -0.500916,-0.75119 -0.75119,-1.001862c-0.250244,-0.250244 -0.250244,-0.5009 -0.500916,-0.5009c-0.250275,-0.250244 -0.500916,-0.75119 -0.75119,-1.001846c-0.250244,-0.250244 -0.250244,-0.250244 -0.5009,-0.500916c-0.250259,-0.250244 -0.500931,-0.5009 -0.751175,-0.75119s-0.500931,-0.250244 -0.500931,-0.500916c-0.250259,-0.250244 -0.500916,-0.500916 -1.001831,-0.75116c-0.250275,-0.250259 -0.500916,-0.250259 -0.500916,-0.5009c-0.250275,-0.250305 -0.75119,-0.500961 -1.001846,-0.751205c-0.250259,-0.250259 -0.500916,-0.250259 -0.751175,-0.5009c-0.250275,-0.250259 -0.75119,-0.500916 -1.001831,-0.500916s-0.500931,-0.25029 -0.75119,-0.25029c-0.250259,-0.250244 -0.75119,-0.250244 -1.001831,-0.5009c-0.250275,0 -0.500916,-0.250244 -0.75119,-0.250244c-0.250244,0 -0.751175,-0.250305 -1.001831,-0.500931c-0.250244,0 -0.500916,0 -0.75119,-0.250275c-0.250244,0 -0.751183,-0.250244 -1.001808,-0.250244s-0.500938,0 -0.75119,0s-0.75119,0 -1.252098,0c-0.250267,0 -0.500923,0 -1.001839,0c-0.250244,0 -0.751183,0 -1.001846,0l-0.250252,0l-1.001839,0c-0.250259,0 -0.751183,0 -1.001846,0c-0.5009,0 -0.751167,0.250244 -1.252098,0.250244c-0.250252,0 -0.500908,0 -0.751175,0c-0.500908,0 -1.001823,0.250275 -1.50235,0.5009l-0.250259,0c-0.500916,0.250305 -1.252098,0.500946 -1.753014,0.751205l0,0c-4.006538,1.753006 -7.512581,5.008392 -9.515854,9.014923c0,0 0,0 0,0.250259c-0.250259,0.500931 -0.500916,1.001846 -0.751183,1.502365c0,0 0,0.250259 -0.250244,0.500916c-0.250267,0.500916 -0.250267,0.75119 -0.500931,1.25209c0,0.250244 -0.250252,0.500946 -0.250252,0.75119c0,0.250259 -0.250275,0.75116 -0.250275,1.001846c0,0.250259 -0.250252,0.5009 -0.250252,0.75116c0,0.250244 0,0.751205 0,1.001846c0,0.250259 0,0.75119 0,1.001846c0,0.250244 0,0.751144 0,1.001831s0,0.751205 0,1.001846l0,0.250259c0,0.250229 0,0.500916 0,0.751144l0,1.001877c0,0.250244 0,0.500916 0,0.75116c0,0.250244 0,0.75119 0.250252,1.001846c0,0.250259 0,0.5009 0.250275,0.75116c0,0.250259 0.250252,0.751205 0.250252,1.001846c0,0.250275 0.250267,0.500931 0.250267,0.75119c0,0.250244 0.250244,0.5009 0.250244,0.751175c0,0.250259 0.250267,0.500931 0.250267,0.751175c0,0.250259 0.250259,0.5009 0.250259,0.751175c0,0.250244 0.250275,0.500931 0.500908,0.75116c0.250267,0.250275 0.250267,0.500931 0.500931,0.75119c0.250259,0.250244 0.250259,0.500946 0.500923,0.751175c0.250244,0.250275 0.250244,0.500916 0.500908,0.751175c0.250259,0.250275 0.250259,0.500931 0.500923,0.75119c0.250259,0.250275 0.250259,0.250275 0.500923,0.5009c1.502357,1.753036 2.504173,4.006561 2.504173,6.260483l0,4.006577l-54.089611,0c-3.505619,0 -6.260479,-2.754471 -6.260479,-6.260498l0,-54.340271l-4.006546,0c-2.253929,0 -4.257206,0.751144 -6.009819,2.253906c-3.255367,3.005112 -7.76284,5.008392 -12.520969,5.008392c-10.767948,0.500931 -20.283804,-8.263748 -20.534061,-19.281975c-0.250259,-11.268852 8.764677,-20.283798 19.782887,-20.283798c5.008389,0 9.51585,1.753021 13.021484,5.008392c1.753014,1.502357 3.756287,2.504196 6.260479,2.504196l4.006546,0l0,-53.839359c0,-3.505623 2.754459,-6.260487 6.260479,-6.260487l53.839367,0l0,-4.006554c0,-2.253937 -0.751175,-4.257214 -2.253922,-6.009819c-3.005119,-3.255363 -5.008392,-7.76284 -5.008392,-12.520967c-0.500923,-10.767948 8.263756,-20.283798 19.0317,-20.534065c11.268867,-0.250255 20.283821,8.764683 20.283821,19.782888c0,5.008396 -1.753006,9.515854 -5.008392,13.021481c-1.502365,1.753033 -2.504196,3.756302 -2.504196,6.260483l0,4.006554l54.08963,0c3.505646,0 6.260483,2.754448 6.260483,6.260487l0,53.839359l-4.006546,0c-2.253937,0 -4.507477,-1.001839 -6.260483,-2.504196c-3.505615,-3.005112 -8.013107,-5.008385 -13.0215,-5.008385c-11.018204,0.250259 -20.033127,9.26519 -19.782883,20.534058z"/>
    <g id="svg_tools_icon" class="svg_tools_icon">
        <path d="M187.78435416504726,104.45603563655914 L148.6632958116479,65.33344464601214 c-0.36638516894710094,-0.3678970823352401 -0.758220772471347,-0.6942167767606477 -1.1616474663563991,-0.9996218074751937 l6.928812333115786,-7.2959531056854985 c0.3542899232457195,-0.35680980959448405 0.6894290663824734,-0.7320144579547971 0.9978578010658339,-1.1178023772246206 c9.198687738400167,3.469823695013929 19.992434184584454,1.5192133093996176 27.38615873323306,-5.873501761896932 c5.392967454514917,-5.394732443383987 8.112634529164893,-12.854476319627224 7.454450874555448,-20.4676774551981 c-0.07131155406030576,-0.861534270658737 -0.6420560258357071,-1.606399977061784 -1.4536973695989133,-1.9004655192068896 c-0.8134052887688341,-0.2970895224307135 -1.7248323021119063,-0.09449411087977566 -2.336902490926576,0.5153079775886908 l-12.53798281879915,12.537227307282137 l-12.694213561888205,-3.1999486442715863 l-3.600099571868469,-13.094868491316333 l12.534958807811677,-12.53571431932869 c0.6150936471685569,-0.6130778854585017 0.8161772374369534,-1.525261085759638 0.5198436256475105,-2.3376584936734446 c-0.2950736072113287,-0.8146652319432164 -1.039687251295021,-1.3806220163668428 -1.9037414083025226,-1.4564693796707644 c-7.612445624053862,-0.6561670946508755 -15.072693502128345,2.061987421871777 -20.4676774551981,7.4567188827960535 c-7.3874240345281805,7.3874240345281805 -9.343073947225093,18.175376915802417 -5.877030265945507,27.370284149238387 c-0.3769685626640751,0.31876012748471183 -0.7521731189187904,0.6576789773371488 -1.1200702626577623,1.0202844088667007 l-10.198056562500028,9.794376639624716 l-18.727220605087723,-18.725456107448508 c-0.23384143736128493,-0.2345973940553545 -0.4833058876277434,-0.44097249697104246 -0.7403299355367636,-0.6347484905125 c0.21973029179145165,-0.38553591835420065 0.4334129914340785,-0.7824112638741099 0.6329845455068721,-1.194405620467947 c3.9551457741778506,0.7612445378438935 11.185582817255181,-6.940655884920204 17.32644134004272,-13.079244434547718 L111.73621932462265,2.2222213721042863 c-7.999744996183836,8.00100598322166 -13.841245097945944,13.370538826273219 -13.083024939511915,17.325686810985417 c-1.828902171468556,0.8935362992159526 -3.4592403934025526,1.986140181375319 -4.617864217193869,3.1462758878529087 l-2.5200946302230705,2.519339118706057 c-1.636134120185858,1.6384018828115359 -2.62290461780907,3.675946935172391 -2.9751790556615276,5.799166404086748 c-0.2444247696745272,0.27919862409239826 -0.493133309299715,0.5732643197468335 -0.7403299355367636,0.8877407079827506 l-0.9391455175645547,1.1802944288453148 c-0.026206366325948638,0.028978196024337377 -0.10709332771053681,0.14514294841657716 -0.12951992016047065,0.17487710689158398 l-0.8512029699629835,1.1916338560110233 c-0.5324428117764057,0.7103436686896032 -0.9978578010658339,1.4819197528441777 -1.4479015941545157,2.226533458331602 c-0.1660576428293048,0.27642679823174277 -0.3351391124348879,0.5533575368909993 -0.507748410647995,0.8295323649089852 c-0.027466286473931456,0.04762503378692262 -0.05442861333168292,0.09449411087977566 -0.07887108262366915,0.14161518121278505 l-0.3782284751365914,0.712611492719013 c-0.45709951170746166,0.8572506235155402 -0.9315859199219929,1.744739269178936 -1.3375325615595415,2.721178097684003 l-0.0655159167743049,0.15547431051606253 c-0.4787701474633259,1.137205219652941 -0.9749272528374533,2.314727884041332 -1.321153730118695,3.5628058925055655 l-0.16756955621744396,0.5400023480152356 c-0.13707945639930053,0.4439963237473208 -0.27642679823174277,0.886984766639614 -0.4044347896531413,1.4164038130434733 l-0.34773832926564907,1.7218086595468236 c-0.2592918412365641,1.0767288069348382 -0.34647841679313274,2.13884278883819 -0.42232568799145653,3.0794998206666264 l-0.05064884905000122,0.6181174739448352 c-0.12800802979873094,0.9754313160724308 -0.09071435811129369,1.8951737455937376 -0.05594050753115587,2.7068152735681394 c0.01184326205555819,0.2718910887691912 0.022426603963133562,0.5384904653289624 0.030490101737010056,0.898072070082236 c0.009071434276036072,0.14967867323006168 0.010583340948142061,0.2955775783407084 0.015119058086160098,0.4394605835829033 c0.008819449670779522,0.36260537012582006 0.018646837762585244,0.7745996653159253 0.08869847359377481,1.207760686536247 l0.21821840910517842,1.397252848723312 c0.04686907709285304,0.2701271744654292 0.08643061118703255,0.5324428117764057 0.12372429054993628,0.783923207964115 c0.08340680743715367,0.5674686057061678 0.16908146960558312,1.1543400538406559 0.33816293921116625,1.7114772360436064 l0.9152069656736828,3.1755062747606644 c0.2822223894649447,0.9650998925692136 1.1989412685267666,1.6041323372435699 2.2020908432057524,1.5340803809616546 c0.5309309904938644,-0.03704168996048063 1.0081891631653193,-0.2665993765597712 1.3634870593716641,-0.6226531834073867 c0.3172482447984386,-0.3172482447984386 0.5369785826426892,-0.7342822205804751 0.6040064051296667,-1.2047370439711642 l0.4744864389163972,-3.2284230284324735 c0.03502582079389471,-0.2562680144602858 0.14514294841657716,-0.631472601416867 0.2590398403209413,-1.0285998864486672 c0.08113894503041141,-0.2754188559729833 0.16001001997861408,-0.5563813636672776 0.22099023496583392,-0.7960183922617645 l0.33740699786802963,-1.2049889220793233 c0.04107344364458543,-0.16303386210582538 0.12070047912459092,-0.32178395426099016 0.19075215141424628,-0.48481780101588257 c0.06702782248697758,-0.15119058661820084 0.13405564497395517,-0.30691691340081917 0.19377591678679273,-0.4603753393993628 c0.11314095823669401,-0.2562680144602858 0.21973029179145165,-0.5122840894086806 0.32455578012164565,-0.7751036671471709 c0.20788704700569305,-0.5153079775886908 0.4044347896531413,-1.0001257479027075 0.7045481388601331,-1.4761241002072438 c0.13052787777016306,-0.21973029179145165 0.2517323203486672,-0.43794870089663007 0.37545658787220404,-0.6607028041134271 c0.31271253533588705,-0.5599090694673379 0.6098020577666006,-1.0885722359317924 0.9628320071360719,-1.5267729684459113 c0.022174618398443702,-0.02595438651785864 0.042333363792568246,-0.05493257294786291 0.0655159167743049,-0.08567466984389593 l0.7960183922617645,-1.0976436548568955 c0.16303386210582538,-0.20637514896848685 0.3462264158775099,-0.40141102428059483 0.5243793351100621,-0.5979587515771101 c0.12649611641059177,-0.13859135443650672 0.2532442337368064,-0.27793871161988193 0.41325420766262155,-0.4611312807424994 c0.4699506987519797,-0.5652007816767579 1.021796291552974,-1.05808209006085 1.5542391033293796,-1.5431519226942214 l0.28524621624122304,-0.2562680144602858 c0.3946073679811697,-0.36638516894710094 0.8512029699629835,-0.7110996714364717 1.3314850308144486,-1.0754690479716515 c0.19654772729651526,-0.14690684736940618 0.3888117460461018,-0.2928057524800529 0.5777999678056531,-0.43643681821035685 c0.24266087072169817,-0.15723820946889155 0.47751020428894364,-0.3142244180221603 0.70883178600333,-0.4699506987519797 c0.4334129914340785,-0.2928057524800529 0.8086176397943916,-0.5460500015677923 1.242282601442227,-0.7715759613471107 l0.9436811656233743,-0.5369785826426892 l0.9547684690659963,-0.4681868765538155 c0.33287125770361214,-0.17210529638186145 0.6607028041134271,-0.30464902796767745 0.9628320071360719,-0.4266094272402512 c0.1794128317050685,-0.07458735105034098 0.35680980959448405,-0.14690684736940618 0.5213555083337837,-0.21821840910517842 c0.16756955621744396,-0.057956392048674754 0.3290914895841972,-0.12070047912459092 0.4817940049414702,-0.17714496162285975 c0.20461123466472486,-0.07458735105034098 0.38125224050913786,-0.1461508906753366 0.6211413007211135,-0.20864300369976263 l0.2575279422837351,-0.057956392048674754 c0.2807105067786715,0.45432768584680616 0.6098020577666006,0.8862287024890136 1.0046613959615271,1.280836285383245 l18.52462562336291,18.525382117339632 L81.46282371490724,101.45917983547042 c-0.015623025377806576,0.014867074440336858 -0.030490101737010056,0.031246050755613153 -0.044853207926267125,0.044853207926267125 c-4.921001178264078,4.921001178264078 -5.72231152835019,12.1282558564086 -0.8005541017243161,17.050769040166415 c4.921757181010946,4.921001178264078 11.67090612449374,3.6593161028159216 16.59064582449014,-1.2599215602686513 c0.021670649187930602,-0.020914696331594262 0.040317483112782604,-0.040317483112782604 0.05946829776134743,-0.06274409475138265 l34.886719880589226,-36.734773753222726 c0.20461123466472486,0.24114898803542495 0.4072066155137968,0.4838098587571231 0.6344964895968772,0.7116035504602536 l39.118040237170135,39.12132165260164 c4.383518593790143,4.384778598368257 11.493759796637846,4.384778598368257 15.877279864117554,0 C192.1663602621138,115.94826770834788 192.1663602621138,108.83779022393992 187.78435416504726,104.45603563655914 zM92.10261872452975,113.23742557804326 c-1.8120190925815365,1.8140350999065191 -4.751163368191101,1.8140350999065191 -6.564694589073838,0 c-1.8117670916659137,-1.8125230944127821 -1.8117670916659137,-4.749904346072697 0,-6.5624270720630875 c1.8117670916659137,-1.811263089834668 4.751163368191101,-1.8125230944127821 6.564694589073838,0 C93.91286754752127,108.4877751978056 93.91286754752127,111.42491316787982 92.10261872452975,113.23742557804326 z" id="svg_1"/>
    </g>
</svg>