<?xml version="1.0" encoding="utf-8"?>
<!-- Generator: Adobe Illustrator 15.0.2, SVG Export Plug-In . SVG Version: 6.00 Build 0)  -->
<!DOCTYPE svg PUBLIC "-//W3C//DTD SVG 1.1//EN" "http://www.w3.org/Graphics/SVG/1.1/DTD/svg11.dtd">
<svg version="1.1"
	 id="svg9991" inkscape:export-xdpi="90" xmlns:svg="http://www.w3.org/2000/svg" inkscape:export-ydpi="90" inkscape:export-filename="/Users/izo/Sites/spip-zone/_graphismes_/logos/spip_tango/png/spip_lang-64.png" inkscape:version="0.44.1" sodipodi:docname="spip_lang.svg" sodipodi:docbase="/Users/izo/Sites/spip-zone/_graphismes_/logos/spip_tango/svg" xmlns:inkscape="http://www.inkscape.org/namespaces/inkscape" xmlns:sodipodi="http://sodipodi.sourceforge.net/DTD/sodipodi-0.dtd" xmlns:rdf="http://www.w3.org/1999/02/22-rdf-syntax-ns#" sodipodi:version="0.32" xmlns:cc="http://web.resource.org/cc/" xmlns:dc="http://purl.org/dc/elements/1.1/"
	 xmlns="http://www.w3.org/2000/svg" xmlns:xlink="http://www.w3.org/1999/xlink" x="0px" y="0px" width="64px" height="64px"
	 viewBox="0 0 64 64" enable-background="new 0 0 64 64" xml:space="preserve">
<g id="g41" transform="matrix(1.146708,0,0,1.146708,4.563965,1.636408)">
	
		<linearGradient id="rect29408_2_" gradientUnits="userSpaceOnUse" x1="-1.3545" y1="665.2623" x2="4.1237" y2="671.7148" gradientTransform="matrix(1.1554 0 0 1.1325 18.8851 -720.3341)">
		<stop  offset="0" style="stop-color:#F5F5F5"/>
		<stop  offset="1" style="stop-color:#E9E9E9"/>
	</linearGradient>
	<path id="rect29408" fill="url(#rect29408_2_)" stroke="#787878" stroke-width="0.4206" d="M14.847,31.583
		c-0.451,0-0.808,0.363-0.808,0.805v6.334c0,0.441,0.356,0.792,0.808,0.792h5.946c0.36,0.463,1.062,1.216,2.741,1.844
		c-0.748-0.863-0.746-1.447-0.662-1.844h1.219c0.45,0,0.82-0.351,0.82-0.792v-6.334c0-0.441-0.37-0.805-0.82-0.805H14.847
		L14.847,31.583z"/>
	<path id="path29445" fill="none" stroke="#FFFFFF" stroke-width="0.4206" d="M15.02,32.006c-0.386,0-0.544,0.184-0.544,0.562V38.4
		c0,0.378,0.307,0.68,0.692,0.68h5.84c0.309,0.397,0.548,0.829,1.478,1.303c-0.174-0.377-0.027-0.904,0.092-1.303h1.469
		c0.386,0,0.427-0.152,0.427-0.53v-5.982c0-0.378-0.104-0.541-0.491-0.541L15.02,32.006z"/>
</g>
<g id="g50" transform="matrix(1.146708,0,0,1.146708,4.563965,1.636408)">
	
		<linearGradient id="path29441_3_" gradientUnits="userSpaceOnUse" x1="-1120.4105" y1="650.9193" x2="-1123.6617" y2="656.4652" gradientTransform="matrix(-1.1206 0 0 1.142 -1214.5043 -713.0536)">
		<stop  offset="0" style="stop-color:#F5F5F5"/>
		<stop  offset="1" style="stop-color:#E9E9E9"/>
	</linearGradient>
	<path id="path29441" fill="url(#path29441_3_)" stroke="#787878" stroke-width="0.4206" d="M46.682,28.339
		c0.438,0,0.783,0.366,0.783,0.812v6.387c0,0.445-0.346,0.799-0.783,0.799h-5.768c-0.349,0.468-1.028,1.226-2.658,1.858
		c0.726-0.87,0.725-1.458,0.643-1.858h-1.182c-0.438,0-0.797-0.354-0.797-0.799v-6.387c0-0.445,0.359-0.812,0.797-0.812H46.682z"/>
	<path id="path29449" fill="none" stroke="#FFFFFF" stroke-width="0.4206" d="M46.519,28.755c0.397,0,0.52,0.193,0.52,0.598v5.974
		c0,0.404-0.101,0.575-0.498,0.575h-5.847c-0.317,0.425-0.87,1.093-1.478,1.367c0.17-0.49,0.105-0.898,0.072-1.367h-1.432
		c-0.395,0-0.509-0.171-0.509-0.575v-5.92c0-0.404,0.112-0.651,0.509-0.651L46.519,28.755L46.519,28.755z"/>
</g>
<g id="g59" transform="matrix(1.146708,0,0,1.146708,4.563965,1.636408)">
	
		<linearGradient id="rect29408_3_" gradientUnits="userSpaceOnUse" x1="-1.3051" y1="649.1122" x2="4.1728" y2="655.5642" gradientTransform="matrix(1.1554 0 0 1.1325 18.8851 -720.3341)">
		<stop  offset="0" style="stop-color:#F5F5F5"/>
		<stop  offset="1" style="stop-color:#E9E9E9"/>
	</linearGradient>
	<path id="rect29408_1_" fill="url(#rect29408_3_)" stroke="#787878" stroke-width="0.4206" d="M14.904,13.291
		c-0.451,0-0.808,0.363-0.808,0.805v6.335c0,0.442,0.357,0.792,0.808,0.792h5.946c0.36,0.464,1.061,1.217,2.741,1.844
		c-0.749-0.862-0.746-1.447-0.662-1.844h1.219c0.449,0,0.82-0.35,0.82-0.792v-6.335c0-0.441-0.371-0.805-0.82-0.805H14.904
		L14.904,13.291z"/>
	<path id="path29445_1_" fill="none" stroke="#FFFFFF" stroke-width="0.4206" d="M15.077,13.714c-0.386,0-0.543,0.184-0.543,0.562
		v5.833c0,0.378,0.306,0.678,0.692,0.678h5.84c0.309,0.398,0.547,0.83,1.477,1.304c-0.174-0.378-0.027-0.905,0.092-1.304h1.47
		c0.387,0,0.428-0.15,0.428-0.529v-5.982c0-0.378-0.106-0.541-0.492-0.541L15.077,13.714z"/>
</g>
<g id="g68" transform="matrix(1.146708,0,0,1.146708,4.563965,1.636408)">
	
		<linearGradient id="path29441_4_" gradientUnits="userSpaceOnUse" x1="-1118.8154" y1="636.0432" x2="-1122.0669" y2="641.5895" gradientTransform="matrix(-1.1206 0 0 1.142 -1214.5043 -713.0536)">
		<stop  offset="0" style="stop-color:#F5F5F5"/>
		<stop  offset="1" style="stop-color:#E9E9E9"/>
	</linearGradient>
	<path id="path29441_1_" fill="url(#path29441_4_)" stroke="#787878" stroke-width="0.4206" d="M44.895,11.351
		c0.439,0,0.783,0.366,0.783,0.812v6.387c0,0.445-0.346,0.799-0.783,0.799h-5.767c-0.349,0.467-1.029,1.227-2.659,1.857
		c0.727-0.869,0.726-1.459,0.644-1.857H35.93c-0.439,0-0.797-0.354-0.797-0.799v-6.387c0-0.445,0.359-0.812,0.797-0.812H44.895z"/>
	<path id="path29449_1_" fill="none" stroke="#FFFFFF" stroke-width="0.4206" d="M44.733,11.767c0.397,0,0.52,0.193,0.52,0.598
		v5.974c0,0.404-0.102,0.574-0.498,0.574h-5.848c-0.316,0.426-0.869,1.092-1.477,1.367c0.169-0.49,0.104-0.898,0.072-1.367H36.07
		c-0.396,0-0.51-0.17-0.51-0.574v-5.921c0-0.403,0.113-0.65,0.51-0.65L44.733,11.767L44.733,11.767z"/>
</g>
<g id="g77" transform="matrix(1.146708,0,0,1.146708,4.563965,1.636408)">
	
		<linearGradient id="path29441_5_" gradientUnits="userSpaceOnUse" x1="-1109.7933" y1="645.7236" x2="-1113.0444" y2="651.2694" gradientTransform="matrix(-1.1206 0 0 1.142 -1214.5043 -713.0536)">
		<stop  offset="0" style="stop-color:#F5F5F5"/>
		<stop  offset="1" style="stop-color:#E9E9E9"/>
	</linearGradient>
	<path id="path29441_2_" fill="url(#path29441_5_)" stroke="#787878" stroke-width="0.4206" d="M34.785,22.405
		c0.439,0,0.783,0.366,0.783,0.812v6.387c0,0.445-0.346,0.799-0.783,0.799h-5.768c-0.349,0.467-1.028,1.227-2.658,1.857
		c0.726-0.87,0.725-1.459,0.643-1.857H25.82c-0.438,0-0.797-0.354-0.797-0.799v-6.388c0-0.445,0.359-0.812,0.797-0.812H34.785
		L34.785,22.405z"/>
	<path id="path29449_2_" fill="none" stroke="#FFFFFF" stroke-width="0.4206" d="M34.622,22.821c0.395,0,0.52,0.193,0.52,0.599
		v5.973c0,0.404-0.102,0.574-0.497,0.574h-5.849c-0.315,0.426-0.869,1.092-1.477,1.368c0.17-0.491,0.104-0.898,0.072-1.368H25.96
		c-0.397,0-0.511-0.17-0.511-0.574v-5.922c0-0.403,0.113-0.65,0.511-0.65H34.622L34.622,22.821z"/>
</g>
<g id="g86" transform="matrix(1.146708,0,0,1.146708,4.563965,1.636408)">
	<path id="path88" d="M15.513,35.191c0-0.121-0.003-0.208-0.015-0.293c0.096,0.012,0.183,0.014,0.32,0.014h1.346
		c0.138,0,0.221-0.003,0.308-0.014c-0.012,0.087-0.015,0.162-0.015,0.274v1.917c0,0.144,0.006,0.228,0.018,0.32h-0.218v-0.195
		h-1.543v0.195h-0.219c0.012-0.089,0.018-0.183,0.018-0.317V35.191z M15.714,35.932h1.543v-0.836h-1.543V35.932z M15.714,37.034
		h1.543v-0.918h-1.543V37.034z"/>
	<path id="path90" d="M18.378,35.45c-0.116,0-0.218,0.007-0.329,0.019v-0.218c0.11,0.015,0.197,0.02,0.329,0.02h0.838v-0.254
		c0-0.099-0.006-0.17-0.021-0.272h0.236c-0.015,0.089-0.021,0.176-0.021,0.268v0.257h0.883c0.149,0,0.248-0.005,0.335-0.02v0.218
		c-0.126-0.012-0.215-0.019-0.335-0.019h-0.808c0.335,0.605,0.736,1.023,1.232,1.293c-0.062,0.069-0.096,0.112-0.137,0.194
		c-0.242-0.162-0.428-0.317-0.622-0.523c-0.249-0.264-0.416-0.519-0.56-0.841c0.009,0.18,0.012,0.29,0.012,0.389v0.679h0.326
		c0.146,0,0.212-0.003,0.29-0.014v0.209c-0.089-0.014-0.161-0.018-0.296-0.018h-0.32v0.284c0,0.141,0.006,0.247,0.021,0.343h-0.236
		c0.015-0.104,0.021-0.209,0.021-0.347v-0.281h-0.288c-0.14,0-0.212,0.003-0.302,0.018v-0.209c0.078,0.012,0.144,0.014,0.296,0.014
		h0.293v-0.679c0-0.111,0.003-0.224,0.012-0.387c-0.138,0.327-0.296,0.571-0.565,0.864c-0.188,0.207-0.35,0.35-0.568,0.502
		c-0.045-0.08-0.069-0.111-0.141-0.175c0.257-0.156,0.472-0.338,0.7-0.607c0.224-0.256,0.353-0.449,0.487-0.708h-0.762V35.45z"/>
	<path id="path92" d="M21.004,35.239c0.069,0.012,0.125,0.015,0.239,0.015h0.512c0.134,0,0.2-0.003,0.263-0.015v0.194
		c-0.072-0.009-0.123-0.012-0.239-0.012h-0.536c-0.104,0-0.167,0.003-0.239,0.012V35.239z M21.121,36.741
		c0-0.102-0.003-0.172-0.015-0.25c0.078,0.009,0.153,0.012,0.239,0.012h0.395c0.128,0,0.165,0,0.218-0.009
		c-0.006,0.063-0.009,0.126-0.009,0.233v0.425c0,0.1,0.003,0.168,0.015,0.248h-0.185v-0.123h-0.488v0.162h-0.188
		c0.012-0.083,0.018-0.173,0.018-0.293V36.741L21.121,36.741z M21.106,34.822c0.069,0.013,0.12,0.015,0.228,0.015h0.392
		c0.105,0,0.159-0.003,0.228-0.015v0.188c-0.078-0.009-0.12-0.012-0.228-0.012h-0.393c-0.096,0-0.162,0.003-0.228,0.012v-0.188
		H21.106z M21.118,35.658c0.066,0.009,0.111,0.012,0.215,0.012h0.407c0.102,0,0.149-0.003,0.212-0.012v0.186
		c-0.075-0.009-0.114-0.012-0.212-0.012h-0.407c-0.096,0-0.152,0.003-0.215,0.012V35.658L21.118,35.658z M21.118,36.07
		c0.063,0.009,0.111,0.012,0.215,0.012h0.407c0.104,0,0.149-0.003,0.212-0.012v0.186c-0.075-0.009-0.114-0.012-0.215-0.012h-0.404
		c-0.099,0-0.146,0.003-0.215,0.012V36.07L21.118,36.07z M21.291,37.119h0.488v-0.46h-0.488V37.119z M22.392,35.978
		c0.096-0.257,0.102-0.271,0.156-0.452h-0.114c-0.09,0-0.186,0.006-0.257,0.014v-0.191c0.081,0.012,0.159,0.015,0.257,0.015h0.159
		c0.033-0.125,0.045-0.177,0.075-0.344h-0.257c-0.135,0-0.203,0.003-0.293,0.015v-0.194c0.09,0.012,0.165,0.014,0.299,0.014h0.939
		c0.134,0,0.218-0.003,0.296-0.014v0.194c-0.09-0.013-0.155-0.015-0.29-0.015H22.85c-0.042,0.209-0.044,0.221-0.078,0.344h0.371
		c0.12,0,0.188-0.003,0.257-0.012c-0.009,0.063-0.012,0.129-0.012,0.254v0.371h0.027c0.144,0,0.201-0.003,0.287-0.019v0.2
		c-0.102-0.014-0.173-0.018-0.287-0.018h-1.098c-0.134,0-0.203,0.003-0.293,0.015v-0.194c0.083,0.012,0.152,0.015,0.293,0.015
		H22.392L22.392,35.978z M22.216,36.64c0-0.102-0.003-0.173-0.012-0.248c0.075,0.009,0.138,0.012,0.263,0.012h0.793
		c0.131,0,0.194-0.003,0.257-0.012c-0.009,0.063-0.012,0.144-0.012,0.263v0.5c0,0.123,0.006,0.224,0.015,0.29h-0.198v-0.149h-0.924
		v0.149H22.2c0.009-0.069,0.015-0.162,0.015-0.293V36.64H22.216z M22.398,37.126h0.924v-0.557h-0.924V37.126z M23.205,35.978v-0.452
		h-0.479c-0.054,0.197-0.06,0.209-0.146,0.452H23.205z"/>
</g>
<g id="g94" transform="matrix(1.146708,0,0,1.146708,4.563965,1.636408)">
	<path id="path96" d="M16.826,16.397c0.081,0.059,0.122,0.143,0.122,0.253c0,0.112-0.045,0.191-0.137,0.236
		c-0.045,0.021-0.114,0.033-0.209,0.033h-0.314v-0.788h-0.247v-0.127h0.399v0.314h0.102C16.659,16.318,16.754,16.344,16.826,16.397
		L16.826,16.397z"/>
	<path id="path98" d="M15.96,16.477c0,0.132-0.038,0.241-0.111,0.328c-0.079,0.093-0.183,0.138-0.312,0.138
		c-0.154,0-0.266-0.061-0.338-0.183c-0.057-0.098-0.086-0.227-0.086-0.389c0-0.147,0.015-0.282,0.043-0.404
		c0.044-0.185,0.184-0.285,0.418-0.3c0.104-0.006,0.165-0.011,0.179-0.013c0.068-0.01,0.123-0.029,0.164-0.056v0.153
		c-0.048,0.023-0.104,0.039-0.168,0.046c-0.057,0.004-0.113,0.008-0.168,0.012c-0.119,0.01-0.202,0.044-0.251,0.104
		c-0.05,0.059-0.081,0.166-0.095,0.318h0.006c0.07-0.147,0.178-0.221,0.321-0.221c0.117,0,0.213,0.044,0.288,0.131
		C15.922,16.23,15.96,16.342,15.96,16.477z"/>
	<path id="path100" fill="#FFFFFF" d="M15.736,16.707c0.04-0.062,0.058-0.138,0.058-0.23c0-0.091-0.019-0.167-0.058-0.229
		c-0.046-0.074-0.112-0.11-0.199-0.11c-0.087,0-0.154,0.036-0.201,0.11c-0.038,0.061-0.058,0.138-0.058,0.229
		c0,0.092,0.02,0.168,0.058,0.23c0.047,0.074,0.114,0.11,0.201,0.11C15.623,16.816,15.69,16.78,15.736,16.707L15.736,16.707z"/>
	<path id="path102" d="M17.898,16.918h-0.152v-0.787h-0.275l-0.003,0.098c-0.006,0.253-0.021,0.417-0.043,0.494
		c-0.042,0.147-0.136,0.22-0.28,0.22c-0.031,0-0.064-0.004-0.101-0.012v-0.138c0.026,0.01,0.06,0.015,0.1,0.015
		c0.072,0,0.12-0.051,0.144-0.153c0.013-0.058,0.021-0.169,0.026-0.333l0.008-0.318h0.575L17.898,16.918L17.898,16.918z"/>
	<polygon id="polygon104" points="18.453,16.918 18.288,16.918 18.288,16.004 18.963,16.004 18.963,16.131 18.453,16.131 	"/>
	<path id="path106" d="M19.806,16.918c-0.012-0.047-0.02-0.115-0.029-0.206c-0.039,0.063-0.087,0.116-0.146,0.159
		c-0.067,0.048-0.134,0.072-0.202,0.072c-0.099,0-0.175-0.044-0.229-0.131c-0.045-0.074-0.067-0.163-0.067-0.268
		c0-0.153,0.041-0.282,0.123-0.385c0.087-0.112,0.204-0.168,0.352-0.168c0.02,0,0.077,0.004,0.169,0.013h0.153v0.646
		c0,0.11,0.012,0.2,0.034,0.269L19.806,16.918L19.806,16.918z"/>
	<path id="path108" fill="#FFFFFF" d="M19.649,16.702c0.049-0.049,0.092-0.105,0.128-0.17V16.14
		c-0.054-0.014-0.104-0.021-0.151-0.021c-0.106,0-0.19,0.042-0.249,0.127c-0.054,0.075-0.08,0.168-0.08,0.278
		c0,0.066,0.012,0.125,0.034,0.175c0.031,0.066,0.075,0.1,0.133,0.1C19.523,16.798,19.584,16.766,19.649,16.702L19.649,16.702z"/>
	<path id="path110" d="M20.901,16.109c0.045,0.074,0.068,0.163,0.068,0.268c0,0.151-0.04,0.278-0.119,0.381
		c-0.089,0.114-0.208,0.171-0.354,0.171c-0.021,0-0.077-0.004-0.171-0.013v0.355h-0.151v-1.27h0.151v0.206
		c0.04-0.063,0.089-0.116,0.147-0.159c0.066-0.047,0.133-0.072,0.201-0.072C20.77,15.977,20.847,16.021,20.901,16.109L20.901,16.109
		z"/>
	<path id="path112" fill="#FFFFFF" d="M20.724,16.675c0.053-0.076,0.08-0.168,0.08-0.278c0-0.066-0.012-0.125-0.034-0.175
		c-0.031-0.066-0.075-0.099-0.134-0.099c-0.057,0-0.118,0.031-0.183,0.096c-0.048,0.047-0.09,0.105-0.129,0.17v0.392
		c0.055,0.014,0.106,0.021,0.152,0.021C20.581,16.802,20.664,16.759,20.724,16.675L20.724,16.675z"/>
	<path id="path114" d="M21.959,16.89c-0.102,0.035-0.199,0.052-0.293,0.052c-0.138,0-0.252-0.046-0.341-0.139
		c-0.086-0.091-0.129-0.205-0.129-0.343c0-0.134,0.043-0.248,0.131-0.34c0.087-0.095,0.198-0.143,0.331-0.143
		c0.095,0,0.194,0.018,0.301,0.053v0.147c-0.107-0.048-0.203-0.073-0.286-0.073c-0.096,0-0.174,0.035-0.23,0.106
		c-0.053,0.065-0.082,0.147-0.082,0.244c0,0.099,0.029,0.181,0.085,0.245c0.06,0.069,0.137,0.102,0.235,0.102
		c0.072,0,0.162-0.019,0.278-0.058V16.89L21.959,16.89z"/>
	<polygon id="polygon116" points="22.235,16.918 22.235,16.004 22.386,16.004 22.386,16.435 22.826,16.004 23.029,16.004 
		22.591,16.435 23.041,16.918 22.831,16.918 22.386,16.435 22.386,16.918 	"/>
	<polyline id="polyline118" points="23.952,16.918 23.8,16.918 23.803,16.221 23.351,16.918 23.199,16.918 23.199,16.004 
		23.351,16.004 23.351,16.565 23.345,16.692 23.8,16.004 23.952,16.004 	"/>
</g>
<g id="g120" transform="matrix(1.146708,0,0,1.146708,4.563965,1.636408)">
	<path id="path122" d="M27.516,24.488c0.128,0.029,0.232,0.043,0.313,0.043s0.124,0.013,0.124,0.037s-0.02,0.049-0.061,0.071
		c-0.034,0.029-0.052,0.084-0.052,0.169v0.589c0.729-0.002,1.213-0.019,1.445-0.048c-0.014,0.205-0.022,0.382-0.022,0.533v0.879
		c0,0.118,0.008,0.324,0.022,0.618h-0.299v-0.342H27.84v0.685c0,0.342,0.014,0.613,0.039,0.812h-0.365
		c0.026-0.199,0.041-0.47,0.041-0.812v-0.685h-1.174v0.376h-0.301c0.02-0.216,0.029-0.41,0.029-0.579v-1.039
		c0-0.164-0.01-0.313-0.029-0.446c0.237,0.031,0.727,0.046,1.475,0.048v-0.312C27.556,24.832,27.542,24.631,27.516,24.488"/>
	<rect id="rect124" x="26.382" y="25.612" fill="#FFFFFF" width="1.174" height="1.199"/>
	<rect id="rect126" x="27.842" y="25.612" fill="#FFFFFF" width="1.145" height="1.199"/>
	<path id="path128" d="M31.965,27.072c0.334-0.41,0.575-0.912,0.723-1.507h-1.272c-0.444,0-0.859,0.013-1.245,0.035v-0.286
		c0.381,0.022,0.987,0.034,1.823,0.034c0.834,0,1.443-0.01,1.827-0.034v0.285c-0.229-0.021-0.52-0.031-0.87-0.031
		c-0.221,0.748-0.491,1.303-0.804,1.666c0.499,0.416,1.112,0.704,1.839,0.866c-0.112,0.072-0.188,0.167-0.226,0.286
		c-0.787-0.307-1.381-0.634-1.782-0.983c-0.365,0.346-0.953,0.692-1.76,1.039c-0.039-0.104-0.114-0.192-0.23-0.264
		c0.749-0.208,1.354-0.519,1.813-0.93c-0.444-0.436-0.76-0.891-0.948-1.363l0.229-0.108C31.244,26.224,31.539,26.655,31.965,27.072
		L31.965,27.072z"/>
	<path id="path130" d="M31.58,24.488c0.233,0.162,0.468,0.363,0.702,0.605l-0.204,0.182c-0.225-0.26-0.448-0.461-0.669-0.606
		L31.58,24.488"/>
</g>
<polygon id="polygon132" points="57.461,39.336 57.17,39.744 57.17,37.273 57.461,36.924 "/>
<polygon id="polygon134" points="56.589,37.506 56.431,37.821 56.431,39.686 56.334,39.744 55.588,39.744 55.588,39.376 
	56.145,39.376 56.145,37.651 56.043,37.26 56.379,36.924 56.408,37.316 "/>
<path id="path136" d="M55.996,39.744h-0.379c-0.279,0-0.484-0.091-0.616-0.271l-0.395,0.188c-0.137,0.055-0.28,0.082-0.428,0.082
	h-0.312v-0.367c0.068,0,0.145-0.004,0.229-0.012c0.085-0.006,0.18-0.018,0.285-0.033c0.289-0.043,0.434-0.096,0.434-0.161
	c0-0.028-0.012-0.056-0.035-0.086s-0.053-0.056-0.086-0.078s-0.068-0.042-0.106-0.058c-0.036-0.015-0.069-0.021-0.097-0.021
	c-0.068,0-0.127,0.016-0.174,0.047c0-0.054,0.029-0.143,0.092-0.265s0.117-0.204,0.162-0.245c0.075-0.066,0.176-0.1,0.303-0.1
	c0.069,0,0.136,0.014,0.202,0.038c0.067,0.026,0.126,0.062,0.181,0.106c0.053,0.044,0.095,0.095,0.127,0.152
	c0.031,0.059,0.048,0.119,0.048,0.182c0,0.064-0.062,0.205-0.183,0.424c0.047,0.064,0.168,0.102,0.359,0.111
	c-0.002,0,0.127,0,0.39,0L55.996,39.744L55.996,39.744z"/>
<path id="path138" d="M54.201,39.744h-0.32c0,0.243-0.108,0.476-0.324,0.698c-0.217,0.225-0.445,0.337-0.687,0.337
	c-0.165,0-0.313-0.057-0.452-0.174c-0.041-0.035-0.089-0.082-0.145-0.141c-0.055-0.061-0.115-0.133-0.181-0.219
	c0.022,0.023,0.056,0.045,0.1,0.068c0.051,0.023,0.111,0.045,0.181,0.064c0.069,0.019,0.129,0.031,0.184,0.039
	c0.056,0.008,0.105,0.012,0.149,0.014c0.411,0,0.733-0.223,0.968-0.667c0.018-0.033,0.024-0.065,0.024-0.097
	c0-0.173-0.128-0.35-0.384-0.529l0.164-0.361c0.191,0.148,0.316,0.349,0.378,0.602h0.345V39.744z"/>
<path id="path140" d="M52.176,38.916c0.062,0.216,0.092,0.382,0.092,0.499c0,0.219-0.03,0.329-0.092,0.329h-1.178v-0.367h0.978
	c0.021,0,0.028-0.018,0.028-0.051c0-0.025-0.006-0.062-0.023-0.109c-0.016-0.049-0.033-0.096-0.058-0.143s-0.047-0.087-0.072-0.121
	c-0.024-0.035-0.046-0.053-0.063-0.053l0.168-0.396C52.033,38.537,52.106,38.676,52.176,38.916L52.176,38.916z M51.975,40.594
	l-0.177,0.315L51.37,40.67l0.165-0.306L51.975,40.594z"/>
<path id="path142" d="M51.443,39.744H49.85v-0.367h0.979c0.021,0,0.028-0.018,0.028-0.051c0-0.025-0.008-0.062-0.024-0.109
	c-0.016-0.049-0.034-0.096-0.059-0.143c-0.023-0.047-0.047-0.088-0.07-0.123c-0.024-0.035-0.047-0.053-0.064-0.053l0.174-0.404
	c0.084,0.096,0.155,0.235,0.217,0.418c0.061,0.175,0.089,0.33,0.089,0.467h0.324L51.443,39.744L51.443,39.744z M49.932,40.686
	l0.161-0.281l0.384,0.241l-0.152,0.272L49.932,40.686z M50.855,40.885l-0.379-0.239l0.143-0.256l0.385,0.228L50.855,40.885z"/>
<path id="path144" d="M49.971,39.744h-0.3c-0.134,0-0.224-0.031-0.269-0.096c-0.07-0.105-0.109-0.265-0.109-0.476
	c0-0.047,0.006-0.081,0.01-0.105l-0.236,0.239l-0.018,0.002c-0.078,0-0.188-0.045-0.328-0.137c-0.152-0.096-0.227-0.18-0.227-0.249
	c0-0.042,0.024-0.11,0.072-0.202c0.11-0.215,0.273-0.359,0.491-0.434c0.087-0.03,0.152-0.047,0.192-0.047v-0.192l0.219-0.285v1.388
	c0,0.12,0.052,0.191,0.157,0.215c0.036,0.008,0.075,0.012,0.122,0.012h0.223V39.744L49.971,39.744z M48.611,37.299l0.162-0.275
	l0.4,0.256l-0.168,0.264L48.611,37.299z M49.198,38.951c0.053,0,0.078-0.08,0.078-0.238c0-0.209-0.008-0.317-0.022-0.328
	c-0.128,0.137-0.288,0.232-0.485,0.286c0.001,0.026,0.02,0.056,0.052,0.089c0.033,0.031,0.072,0.061,0.117,0.091
	c0.047,0.028,0.094,0.052,0.142,0.071C49.127,38.94,49.168,38.951,49.198,38.951L49.198,38.951z M49.572,37.534l-0.401-0.255
	l0.17-0.27l0.396,0.233L49.572,37.534z"/>
<g id="g146" transform="matrix(1.146708,0,0,1.146708,4.563965,1.636408)">
	<path id="path148" d="M36.538,13.896h0.346v1.286h0.012c0.071-0.103,0.143-0.198,0.21-0.285l0.814-1.001h0.428l-0.967,1.132
		l1.042,1.536h-0.407l-0.875-1.31l-0.257,0.293v1.017h-0.346V13.896L36.538,13.896z"/>
	<path id="path150" d="M38.713,15.245c0-0.226-0.003-0.419-0.015-0.598h0.305l0.015,0.376h0.013
		c0.087-0.257,0.301-0.419,0.534-0.419c0.036,0,0.063,0.004,0.095,0.012v0.325c-0.039-0.004-0.075-0.008-0.123-0.008
		c-0.245,0-0.42,0.186-0.467,0.443c-0.009,0.052-0.014,0.107-0.014,0.167v1.021H38.71L38.713,15.245z"/>
	<path id="path152" d="M40.202,15.665c0.009,0.471,0.306,0.665,0.652,0.665c0.25,0,0.405-0.043,0.531-0.095l0.063,0.246
		c-0.124,0.055-0.336,0.123-0.641,0.123c-0.586,0-0.942-0.392-0.942-0.966c0-0.582,0.345-1.037,0.903-1.037
		c0.624,0,0.787,0.55,0.787,0.902c0,0.071-0.005,0.126-0.012,0.166L40.202,15.665z M41.219,15.415
		c0.003-0.217-0.091-0.566-0.479-0.566c-0.356,0-0.508,0.325-0.535,0.566H41.219z M41.302,13.848l-0.482,0.566h-0.247l0.349-0.566
		H41.302z"/>
	<path id="path154" d="M42.766,16.606c-0.514,0-0.918-0.38-0.918-0.985c0-0.641,0.424-1.017,0.95-1.017
		c0.55,0,0.922,0.4,0.922,0.981c0,0.712-0.495,1.021-0.95,1.021H42.766z M42.777,16.345c0.334,0,0.582-0.312,0.582-0.748
		c0-0.324-0.162-0.732-0.574-0.732c-0.407,0-0.585,0.38-0.585,0.744c0,0.419,0.238,0.736,0.573,0.736H42.777z"/>
	<path id="path156" d="M44.16,13.753h0.347v2.81H44.16V13.753z"/>
</g>
</svg>
