<?xml version="1.0" standalone="no"?>
<!DOCTYPE svg PUBLIC "-//W3C//DTD SVG 20010904//EN"
  "http://www.w3.org/TR/2001/REC-SVG-20010904/DTD/svg10.dtd">
<svg width="20" height="20">
  <circle cx="0" cy="0" r="1" fill="srgba(187,198,219,1)"/>
  <circle cx="1" cy="0" r="1" fill="srgba(86,112,166,1)"/>
  <circle cx="2" cy="0" r="1" fill="srgba(71,99,158,1)"/>
  <circle cx="3" cy="0" r="1" fill="srgba(75,103,160,1)"/>
  <circle cx="4" cy="0" r="1" fill="srgba(75,103,160,1)"/>
  <circle cx="5" cy="0" r="1" fill="srgba(75,103,160,1)"/>
  <circle cx="6" cy="0" r="1" fill="srgba(75,103,160,1)"/>
  <circle cx="7" cy="0" r="1" fill="srgba(75,103,160,1)"/>
  <circle cx="8" cy="0" r="1" fill="srgba(75,103,160,1)"/>
  <circle cx="9" cy="0" r="1" fill="srgba(75,103,160,1)"/>
  <circle cx="10" cy="0" r="1" fill="srgba(75,103,160,1)"/>
  <circle cx="11" cy="0" r="1" fill="srgba(75,103,160,1)"/>
  <circle cx="12" cy="0" r="1" fill="srgba(75,103,160,1)"/>
  <circle cx="13" cy="0" r="1" fill="srgba(75,103,160,1)"/>
  <circle cx="14" cy="0" r="1" fill="srgba(75,103,160,1)"/>
  <circle cx="15" cy="0" r="1" fill="srgba(75,103,160,1)"/>
  <circle cx="16" cy="0" r="1" fill="srgba(75,103,160,1)"/>
  <circle cx="17" cy="0" r="1" fill="srgba(71,99,158,1)"/>
  <circle cx="18" cy="0" r="1" fill="srgba(86,112,166,1)"/>
  <circle cx="19" cy="0" r="1" fill="srgba(188,198,220,1)"/>
  <circle cx="0" cy="1" r="1" fill="srgba(67,96,156,1)"/>
  <circle cx="1" cy="1" r="1" fill="srgba(59,89,152,1)"/>
  <circle cx="2" cy="1" r="1" fill="srgba(59,89,152,1)"/>
  <circle cx="3" cy="1" r="1" fill="srgba(59,89,152,1)"/>
  <circle cx="4" cy="1" r="1" fill="srgba(59,89,152,1)"/>
  <circle cx="5" cy="1" r="1" fill="srgba(59,89,152,1)"/>
  <circle cx="6" cy="1" r="1" fill="srgba(59,89,152,1)"/>
  <circle cx="7" cy="1" r="1" fill="srgba(59,89,152,1)"/>
  <circle cx="8" cy="1" r="1" fill="srgba(59,89,152,1)"/>
  <circle cx="9" cy="1" r="1" fill="srgba(59,89,152,1)"/>
  <circle cx="10" cy="1" r="1" fill="srgba(59,89,152,1)"/>
  <circle cx="11" cy="1" r="1" fill="srgba(59,89,152,1)"/>
  <circle cx="12" cy="1" r="1" fill="srgba(59,89,152,1)"/>
  <circle cx="13" cy="1" r="1" fill="srgba(59,89,152,1)"/>
  <circle cx="14" cy="1" r="1" fill="srgba(59,89,152,1)"/>
  <circle cx="15" cy="1" r="1" fill="srgba(59,89,152,1)"/>
  <circle cx="16" cy="1" r="1" fill="srgba(59,89,152,1)"/>
  <circle cx="17" cy="1" r="1" fill="srgba(59,89,152,1)"/>
  <circle cx="18" cy="1" r="1" fill="srgba(59,89,152,1)"/>
  <circle cx="19" cy="1" r="1" fill="srgba(67,96,156,1)"/>
  <circle cx="0" cy="2" r="1" fill="srgba(70,98,158,1)"/>
  <circle cx="1" cy="2" r="1" fill="srgba(59,89,152,1)"/>
  <circle cx="2" cy="2" r="1" fill="srgba(59,89,152,1)"/>
  <circle cx="3" cy="2" r="1" fill="srgba(59,89,152,1)"/>
  <circle cx="4" cy="2" r="1" fill="srgba(59,89,152,1)"/>
  <circle cx="5" cy="2" r="1" fill="srgba(59,89,152,1)"/>
  <circle cx="6" cy="2" r="1" fill="srgba(59,89,152,1)"/>
  <circle cx="7" cy="2" r="1" fill="srgba(59,89,152,1)"/>
  <circle cx="8" cy="2" r="1" fill="srgba(59,89,152,1)"/>
  <circle cx="9" cy="2" r="1" fill="srgba(59,89,152,1)"/>
  <circle cx="10" cy="2" r="1" fill="srgba(58,89,152,1)"/>
  <circle cx="11" cy="2" r="1" fill="srgba(58,88,152,1)"/>
  <circle cx="12" cy="2" r="1" fill="srgba(59,89,152,1)"/>
  <circle cx="13" cy="2" r="1" fill="srgba(59,89,152,1)"/>
  <circle cx="14" cy="2" r="1" fill="srgba(59,89,152,1)"/>
  <circle cx="15" cy="2" r="1" fill="srgba(59,89,152,1)"/>
  <circle cx="16" cy="2" r="1" fill="srgba(59,89,152,1)"/>
  <circle cx="17" cy="2" r="1" fill="srgba(59,89,152,1)"/>
  <circle cx="18" cy="2" r="1" fill="srgba(59,89,152,1)"/>
  <circle cx="19" cy="2" r="1" fill="srgba(70,98,158,1)"/>
  <circle cx="0" cy="3" r="1" fill="srgba(75,103,160,1)"/>
  <circle cx="1" cy="3" r="1" fill="srgba(59,89,152,1)"/>
  <circle cx="2" cy="3" r="1" fill="srgba(59,89,152,1)"/>
  <circle cx="3" cy="3" r="1" fill="srgba(59,89,152,1)"/>
  <circle cx="4" cy="3" r="1" fill="srgba(59,89,152,1)"/>
  <circle cx="5" cy="3" r="1" fill="srgba(59,89,152,1)"/>
  <circle cx="6" cy="3" r="1" fill="srgba(59,89,152,1)"/>
  <circle cx="7" cy="3" r="1" fill="srgba(60,90,152,1)"/>
  <circle cx="8" cy="3" r="1" fill="srgba(61,91,153,1)"/>
  <circle cx="9" cy="3" r="1" fill="srgba(38,71,141,1)"/>
  <circle cx="10" cy="3" r="1" fill="srgba(30,64,137,1)"/>
  <circle cx="11" cy="3" r="1" fill="srgba(31,65,137,1)"/>
  <circle cx="12" cy="3" r="1" fill="srgba(42,75,143,1)"/>
  <circle cx="13" cy="3" r="1" fill="srgba(63,92,154,1)"/>
  <circle cx="14" cy="3" r="1" fill="srgba(59,89,152,1)"/>
  <circle cx="15" cy="3" r="1" fill="srgba(59,89,152,1)"/>
  <circle cx="16" cy="3" r="1" fill="srgba(59,89,152,1)"/>
  <circle cx="17" cy="3" r="1" fill="srgba(59,89,152,1)"/>
  <circle cx="18" cy="3" r="1" fill="srgba(59,89,152,1)"/>
  <circle cx="19" cy="3" r="1" fill="srgba(75,103,160,1)"/>
  <circle cx="0" cy="4" r="1" fill="srgba(75,103,160,1)"/>
  <circle cx="1" cy="4" r="1" fill="srgba(59,89,152,1)"/>
  <circle cx="2" cy="4" r="1" fill="srgba(59,89,152,1)"/>
  <circle cx="3" cy="4" r="1" fill="srgba(59,89,152,1)"/>
  <circle cx="4" cy="4" r="1" fill="srgba(59,89,152,1)"/>
  <circle cx="5" cy="4" r="1" fill="srgba(59,89,152,1)"/>
  <circle cx="6" cy="4" r="1" fill="srgba(59,89,152,1)"/>
  <circle cx="7" cy="4" r="1" fill="srgba(61,91,153,1)"/>
  <circle cx="8" cy="4" r="1" fill="srgba(38,71,141,1)"/>
  <circle cx="9" cy="4" r="1" fill="srgba(94,119,170,1)"/>
  <circle cx="10" cy="4" r="1" fill="srgba(156,171,203,1)"/>
  <circle cx="11" cy="4" r="1" fill="srgba(171,184,211,1)"/>
  <circle cx="12" cy="4" r="1" fill="srgba(120,140,184,1)"/>
  <circle cx="13" cy="4" r="1" fill="srgba(44,77,144,1)"/>
  <circle cx="14" cy="4" r="1" fill="srgba(59,89,152,1)"/>
  <circle cx="15" cy="4" r="1" fill="srgba(59,89,152,1)"/>
  <circle cx="16" cy="4" r="1" fill="srgba(59,89,152,1)"/>
  <circle cx="17" cy="4" r="1" fill="srgba(59,89,152,1)"/>
  <circle cx="18" cy="4" r="1" fill="srgba(59,89,152,1)"/>
  <circle cx="19" cy="4" r="1" fill="srgba(75,103,160,1)"/>
  <circle cx="0" cy="5" r="1" fill="srgba(75,103,160,1)"/>
  <circle cx="1" cy="5" r="1" fill="srgba(59,89,152,1)"/>
  <circle cx="2" cy="5" r="1" fill="srgba(59,89,152,1)"/>
  <circle cx="3" cy="5" r="1" fill="srgba(59,89,152,1)"/>
  <circle cx="4" cy="5" r="1" fill="srgba(59,89,152,1)"/>
  <circle cx="5" cy="5" r="1" fill="srgba(59,89,152,1)"/>
  <circle cx="6" cy="5" r="1" fill="srgba(59,89,152,1)"/>
  <circle cx="7" cy="5" r="1" fill="srgba(39,72,141,1)"/>
  <circle cx="8" cy="5" r="1" fill="srgba(87,112,167,1)"/>
  <circle cx="9" cy="5" r="1" fill="srgba(254,254,254,1)"/>
  <circle cx="10" cy="5" r="1" fill="white"/>
  <circle cx="11" cy="5" r="1" fill="white"/>
  <circle cx="12" cy="5" r="1" fill="srgba(207,214,230,1)"/>
  <circle cx="13" cy="5" r="1" fill="srgba(23,59,133,1)"/>
  <circle cx="14" cy="5" r="1" fill="srgba(58,88,152,1)"/>
  <circle cx="15" cy="5" r="1" fill="srgba(59,89,152,1)"/>
  <circle cx="16" cy="5" r="1" fill="srgba(59,89,152,1)"/>
  <circle cx="17" cy="5" r="1" fill="srgba(59,89,152,1)"/>
  <circle cx="18" cy="5" r="1" fill="srgba(59,89,152,1)"/>
  <circle cx="19" cy="5" r="1" fill="srgba(75,103,160,1)"/>
  <circle cx="0" cy="6" r="1" fill="srgba(75,103,160,1)"/>
  <circle cx="1" cy="6" r="1" fill="srgba(59,89,152,1)"/>
  <circle cx="2" cy="6" r="1" fill="srgba(59,89,152,1)"/>
  <circle cx="3" cy="6" r="1" fill="srgba(59,89,152,1)"/>
  <circle cx="4" cy="6" r="1" fill="srgba(59,89,152,1)"/>
  <circle cx="5" cy="6" r="1" fill="srgba(59,89,152,1)"/>
  <circle cx="6" cy="6" r="1" fill="srgba(60,90,153,1)"/>
  <circle cx="7" cy="6" r="1" fill="srgba(19,55,131,1)"/>
  <circle cx="8" cy="6" r="1" fill="srgba(157,172,203,1)"/>
  <circle cx="9" cy="6" r="1" fill="white"/>
  <circle cx="10" cy="6" r="1" fill="srgba(240,242,247,1)"/>
  <circle cx="11" cy="6" r="1" fill="srgba(139,156,194,1)"/>
  <circle cx="12" cy="6" r="1" fill="srgba(96,120,172,1)"/>
  <circle cx="13" cy="6" r="1" fill="srgba(48,80,147,1)"/>
  <circle cx="14" cy="6" r="1" fill="srgba(59,89,152,1)"/>
  <circle cx="15" cy="6" r="1" fill="srgba(59,89,152,1)"/>
  <circle cx="16" cy="6" r="1" fill="srgba(59,89,152,1)"/>
  <circle cx="17" cy="6" r="1" fill="srgba(59,89,152,1)"/>
  <circle cx="18" cy="6" r="1" fill="srgba(59,89,152,1)"/>
  <circle cx="19" cy="6" r="1" fill="srgba(75,103,160,1)"/>
  <circle cx="0" cy="7" r="1" fill="srgba(75,103,160,1)"/>
  <circle cx="1" cy="7" r="1" fill="srgba(59,89,152,1)"/>
  <circle cx="2" cy="7" r="1" fill="srgba(59,89,152,1)"/>
  <circle cx="3" cy="7" r="1" fill="srgba(59,89,152,1)"/>
  <circle cx="4" cy="7" r="1" fill="srgba(59,89,152,1)"/>
  <circle cx="5" cy="7" r="1" fill="srgba(59,89,152,1)"/>
  <circle cx="6" cy="7" r="1" fill="srgba(58,89,152,1)"/>
  <circle cx="7" cy="7" r="1" fill="srgba(27,62,136,1)"/>
  <circle cx="8" cy="7" r="1" fill="srgba(163,177,207,1)"/>
  <circle cx="9" cy="7" r="1" fill="white"/>
  <circle cx="10" cy="7" r="1" fill="srgba(211,218,232,1)"/>
  <circle cx="11" cy="7" r="1" fill="srgba(21,57,132,1)"/>
  <circle cx="12" cy="7" r="1" fill="srgba(32,66,138,1)"/>
  <circle cx="13" cy="7" r="1" fill="srgba(64,93,155,1)"/>
  <circle cx="14" cy="7" r="1" fill="srgba(59,89,152,1)"/>
  <circle cx="15" cy="7" r="1" fill="srgba(59,89,152,1)"/>
  <circle cx="16" cy="7" r="1" fill="srgba(59,89,152,1)"/>
  <circle cx="17" cy="7" r="1" fill="srgba(59,89,152,1)"/>
  <circle cx="18" cy="7" r="1" fill="srgba(59,89,152,1)"/>
  <circle cx="19" cy="7" r="1" fill="srgba(75,103,160,1)"/>
  <circle cx="0" cy="8" r="1" fill="srgba(75,103,160,1)"/>
  <circle cx="1" cy="8" r="1" fill="srgba(59,89,152,1)"/>
  <circle cx="2" cy="8" r="1" fill="srgba(59,89,152,1)"/>
  <circle cx="3" cy="8" r="1" fill="srgba(59,89,152,1)"/>
  <circle cx="4" cy="8" r="1" fill="srgba(59,89,152,1)"/>
  <circle cx="5" cy="8" r="1" fill="srgba(58,88,152,1)"/>
  <circle cx="6" cy="8" r="1" fill="srgba(35,69,140,1)"/>
  <circle cx="7" cy="8" r="1" fill="srgba(157,172,204,1)"/>
  <circle cx="8" cy="8" r="1" fill="srgba(246,248,251,1)"/>
  <circle cx="9" cy="8" r="1" fill="white"/>
  <circle cx="10" cy="8" r="1" fill="srgba(249,250,252,1)"/>
  <circle cx="11" cy="8" r="1" fill="srgba(233,236,243,1)"/>
  <circle cx="12" cy="8" r="1" fill="srgba(156,171,203,1)"/>
  <circle cx="13" cy="8" r="1" fill="srgba(35,69,139,1)"/>
  <circle cx="14" cy="8" r="1" fill="srgba(58,88,152,1)"/>
  <circle cx="15" cy="8" r="1" fill="srgba(59,89,152,1)"/>
  <circle cx="16" cy="8" r="1" fill="srgba(59,89,152,1)"/>
  <circle cx="17" cy="8" r="1" fill="srgba(59,89,152,1)"/>
  <circle cx="18" cy="8" r="1" fill="srgba(59,89,152,1)"/>
  <circle cx="19" cy="8" r="1" fill="srgba(75,103,160,1)"/>
  <circle cx="0" cy="9" r="1" fill="srgba(75,103,160,1)"/>
  <circle cx="1" cy="9" r="1" fill="srgba(59,89,152,1)"/>
  <circle cx="2" cy="9" r="1" fill="srgba(59,89,152,1)"/>
  <circle cx="3" cy="9" r="1" fill="srgba(59,89,152,1)"/>
  <circle cx="4" cy="9" r="1" fill="srgba(59,89,152,1)"/>
  <circle cx="5" cy="9" r="1" fill="srgba(58,88,152,1)"/>
  <circle cx="6" cy="9" r="1" fill="srgba(28,63,136,1)"/>
  <circle cx="7" cy="9" r="1" fill="srgba(196,204,224,1)"/>
  <circle cx="8" cy="9" r="1" fill="white"/>
  <circle cx="9" cy="9" r="1" fill="white"/>
  <circle cx="10" cy="9" r="1" fill="white"/>
  <circle cx="11" cy="9" r="1" fill="white"/>
  <circle cx="12" cy="9" r="1" fill="srgba(169,182,210,1)"/>
  <circle cx="13" cy="9" r="1" fill="srgba(26,61,134,1)"/>
  <circle cx="14" cy="9" r="1" fill="srgba(58,89,152,1)"/>
  <circle cx="15" cy="9" r="1" fill="srgba(59,89,152,1)"/>
  <circle cx="16" cy="9" r="1" fill="srgba(59,89,152,1)"/>
  <circle cx="17" cy="9" r="1" fill="srgba(59,89,152,1)"/>
  <circle cx="18" cy="9" r="1" fill="srgba(59,89,152,1)"/>
  <circle cx="19" cy="9" r="1" fill="srgba(75,103,160,1)"/>
  <circle cx="0" cy="10" r="1" fill="srgba(75,103,160,1)"/>
  <circle cx="1" cy="10" r="1" fill="srgba(59,89,152,1)"/>
  <circle cx="2" cy="10" r="1" fill="srgba(59,89,152,1)"/>
  <circle cx="3" cy="10" r="1" fill="srgba(59,89,152,1)"/>
  <circle cx="4" cy="10" r="1" fill="srgba(59,89,152,1)"/>
  <circle cx="5" cy="10" r="1" fill="srgba(59,89,152,1)"/>
  <circle cx="6" cy="10" r="1" fill="srgba(53,85,149,1)"/>
  <circle cx="7" cy="10" r="1" fill="srgba(57,87,151,1)"/>
  <circle cx="8" cy="10" r="1" fill="srgba(179,191,215,1)"/>
  <circle cx="9" cy="10" r="1" fill="white"/>
  <circle cx="10" cy="10" r="1" fill="srgba(224,228,239,1)"/>
  <circle cx="11" cy="10" r="1" fill="srgba(92,118,170,1)"/>
  <circle cx="12" cy="10" r="1" fill="srgba(66,95,156,1)"/>
  <circle cx="13" cy="10" r="1" fill="srgba(53,84,149,1)"/>
  <circle cx="14" cy="10" r="1" fill="srgba(59,89,152,1)"/>
  <circle cx="15" cy="10" r="1" fill="srgba(59,89,152,1)"/>
  <circle cx="16" cy="10" r="1" fill="srgba(59,89,152,1)"/>
  <circle cx="17" cy="10" r="1" fill="srgba(59,89,152,1)"/>
  <circle cx="18" cy="10" r="1" fill="srgba(59,89,152,1)"/>
  <circle cx="19" cy="10" r="1" fill="srgba(75,103,160,1)"/>
  <circle cx="0" cy="11" r="1" fill="srgba(75,103,160,1)"/>
  <circle cx="1" cy="11" r="1" fill="srgba(59,89,152,1)"/>
  <circle cx="2" cy="11" r="1" fill="srgba(59,89,152,1)"/>
  <circle cx="3" cy="11" r="1" fill="srgba(59,89,152,1)"/>
  <circle cx="4" cy="11" r="1" fill="srgba(59,89,152,1)"/>
  <circle cx="5" cy="11" r="1" fill="srgba(59,89,152,1)"/>
  <circle cx="6" cy="11" r="1" fill="srgba(61,92,154,1)"/>
  <circle cx="7" cy="11" r="1" fill="srgba(14,50,128,1)"/>
  <circle cx="8" cy="11" r="1" fill="srgba(146,163,198,1)"/>
  <circle cx="9" cy="11" r="1" fill="white"/>
  <circle cx="10" cy="11" r="1" fill="srgba(213,219,233,1)"/>
  <circle cx="11" cy="11" r="1" fill="srgba(28,63,135,1)"/>
  <circle cx="12" cy="11" r="1" fill="srgba(40,74,142,1)"/>
  <circle cx="13" cy="11" r="1" fill="srgba(62,92,154,1)"/>
  <circle cx="14" cy="11" r="1" fill="srgba(59,89,152,1)"/>
  <circle cx="15" cy="11" r="1" fill="srgba(59,89,152,1)"/>
  <circle cx="16" cy="11" r="1" fill="srgba(59,89,152,1)"/>
  <circle cx="17" cy="11" r="1" fill="srgba(59,89,152,1)"/>
  <circle cx="18" cy="11" r="1" fill="srgba(59,89,152,1)"/>
  <circle cx="19" cy="11" r="1" fill="srgba(75,103,160,1)"/>
  <circle cx="0" cy="12" r="1" fill="srgba(75,103,160,1)"/>
  <circle cx="1" cy="12" r="1" fill="srgba(59,89,152,1)"/>
  <circle cx="2" cy="12" r="1" fill="srgba(59,89,152,1)"/>
  <circle cx="3" cy="12" r="1" fill="srgba(59,89,152,1)"/>
  <circle cx="4" cy="12" r="1" fill="srgba(59,89,152,1)"/>
  <circle cx="5" cy="12" r="1" fill="srgba(59,89,152,1)"/>
  <circle cx="6" cy="12" r="1" fill="srgba(58,89,152,1)"/>
  <circle cx="7" cy="12" r="1" fill="srgba(30,64,137,1)"/>
  <circle cx="8" cy="12" r="1" fill="srgba(158,173,204,1)"/>
  <circle cx="9" cy="12" r="1" fill="white"/>
  <circle cx="10" cy="12" r="1" fill="srgba(217,223,235,1)"/>
  <circle cx="11" cy="12" r="1" fill="srgba(52,83,148,1)"/>
  <circle cx="12" cy="12" r="1" fill="srgba(51,83,148,1)"/>
  <circle cx="13" cy="12" r="1" fill="srgba(59,89,152,1)"/>
  <circle cx="14" cy="12" r="1" fill="srgba(59,89,152,1)"/>
  <circle cx="15" cy="12" r="1" fill="srgba(59,89,152,1)"/>
  <circle cx="16" cy="12" r="1" fill="srgba(59,89,152,1)"/>
  <circle cx="17" cy="12" r="1" fill="srgba(59,89,152,1)"/>
  <circle cx="18" cy="12" r="1" fill="srgba(59,89,152,1)"/>
  <circle cx="19" cy="12" r="1" fill="srgba(75,103,160,1)"/>
  <circle cx="0" cy="13" r="1" fill="srgba(75,103,160,1)"/>
  <circle cx="1" cy="13" r="1" fill="srgba(59,89,152,1)"/>
  <circle cx="2" cy="13" r="1" fill="srgba(59,89,152,1)"/>
  <circle cx="3" cy="13" r="1" fill="srgba(59,89,152,1)"/>
  <circle cx="4" cy="13" r="1" fill="srgba(59,89,152,1)"/>
  <circle cx="5" cy="13" r="1" fill="srgba(59,89,152,1)"/>
  <circle cx="6" cy="13" r="1" fill="srgba(58,89,152,1)"/>
  <circle cx="7" cy="13" r="1" fill="srgba(30,64,137,1)"/>
  <circle cx="8" cy="13" r="1" fill="srgba(158,173,204,1)"/>
  <circle cx="9" cy="13" r="1" fill="white"/>
  <circle cx="10" cy="13" r="1" fill="srgba(217,223,235,1)"/>
  <circle cx="11" cy="13" r="1" fill="srgba(52,83,148,1)"/>
  <circle cx="12" cy="13" r="1" fill="srgba(51,83,148,1)"/>
  <circle cx="13" cy="13" r="1" fill="srgba(59,89,152,1)"/>
  <circle cx="14" cy="13" r="1" fill="srgba(59,89,152,1)"/>
  <circle cx="15" cy="13" r="1" fill="srgba(59,89,152,1)"/>
  <circle cx="16" cy="13" r="1" fill="srgba(59,89,152,1)"/>
  <circle cx="17" cy="13" r="1" fill="srgba(59,89,152,1)"/>
  <circle cx="18" cy="13" r="1" fill="srgba(59,89,152,1)"/>
  <circle cx="19" cy="13" r="1" fill="srgba(75,103,160,1)"/>
  <circle cx="0" cy="14" r="1" fill="srgba(75,103,160,1)"/>
  <circle cx="1" cy="14" r="1" fill="srgba(59,89,152,1)"/>
  <circle cx="2" cy="14" r="1" fill="srgba(59,89,152,1)"/>
  <circle cx="3" cy="14" r="1" fill="srgba(59,89,152,1)"/>
  <circle cx="4" cy="14" r="1" fill="srgba(59,89,152,1)"/>
  <circle cx="5" cy="14" r="1" fill="srgba(59,89,152,1)"/>
  <circle cx="6" cy="14" r="1" fill="srgba(58,89,152,1)"/>
  <circle cx="7" cy="14" r="1" fill="srgba(27,61,135,1)"/>
  <circle cx="8" cy="14" r="1" fill="srgba(169,182,210,1)"/>
  <circle cx="9" cy="14" r="1" fill="white"/>
  <circle cx="10" cy="14" r="1" fill="srgba(234,238,244,1)"/>
  <circle cx="11" cy="14" r="1" fill="srgba(51,82,148,1)"/>
  <circle cx="12" cy="14" r="1" fill="srgba(50,82,148,1)"/>
  <circle cx="13" cy="14" r="1" fill="srgba(59,89,152,1)"/>
  <circle cx="14" cy="14" r="1" fill="srgba(59,89,152,1)"/>
  <circle cx="15" cy="14" r="1" fill="srgba(59,89,152,1)"/>
  <circle cx="16" cy="14" r="1" fill="srgba(59,89,152,1)"/>
  <circle cx="17" cy="14" r="1" fill="srgba(59,89,152,1)"/>
  <circle cx="18" cy="14" r="1" fill="srgba(59,89,152,1)"/>
  <circle cx="19" cy="14" r="1" fill="srgba(75,103,160,1)"/>
  <circle cx="0" cy="15" r="1" fill="srgba(75,103,160,1)"/>
  <circle cx="1" cy="15" r="1" fill="srgba(59,89,152,1)"/>
  <circle cx="2" cy="15" r="1" fill="srgba(59,89,152,1)"/>
  <circle cx="3" cy="15" r="1" fill="srgba(59,89,152,1)"/>
  <circle cx="4" cy="15" r="1" fill="srgba(59,89,152,1)"/>
  <circle cx="5" cy="15" r="1" fill="srgba(59,89,152,1)"/>
  <circle cx="6" cy="15" r="1" fill="srgba(58,89,152,1)"/>
  <circle cx="7" cy="15" r="1" fill="srgba(35,69,140,1)"/>
  <circle cx="8" cy="15" r="1" fill="srgba(140,158,195,1)"/>
  <circle cx="9" cy="15" r="1" fill="srgba(228,232,241,1)"/>
  <circle cx="10" cy="15" r="1" fill="srgba(188,198,220,1)"/>
  <circle cx="11" cy="15" r="1" fill="srgba(53,84,149,1)"/>
  <circle cx="12" cy="15" r="1" fill="srgba(53,84,149,1)"/>
  <circle cx="13" cy="15" r="1" fill="srgba(59,89,152,1)"/>
  <circle cx="14" cy="15" r="1" fill="srgba(59,89,152,1)"/>
  <circle cx="15" cy="15" r="1" fill="srgba(59,89,152,1)"/>
  <circle cx="16" cy="15" r="1" fill="srgba(59,89,152,1)"/>
  <circle cx="17" cy="15" r="1" fill="srgba(59,89,152,1)"/>
  <circle cx="18" cy="15" r="1" fill="srgba(59,89,152,1)"/>
  <circle cx="19" cy="15" r="1" fill="srgba(75,103,160,1)"/>
  <circle cx="0" cy="16" r="1" fill="srgba(75,103,160,1)"/>
  <circle cx="1" cy="16" r="1" fill="srgba(59,89,152,1)"/>
  <circle cx="2" cy="16" r="1" fill="srgba(59,89,152,1)"/>
  <circle cx="3" cy="16" r="1" fill="srgba(59,89,152,1)"/>
  <circle cx="4" cy="16" r="1" fill="srgba(59,89,152,1)"/>
  <circle cx="5" cy="16" r="1" fill="srgba(59,89,152,1)"/>
  <circle cx="6" cy="16" r="1" fill="srgba(59,89,152,1)"/>
  <circle cx="7" cy="16" r="1" fill="srgba(60,90,152,1)"/>
  <circle cx="8" cy="16" r="1" fill="srgba(56,87,151,1)"/>
  <circle cx="9" cy="16" r="1" fill="srgba(60,90,153,1)"/>
  <circle cx="10" cy="16" r="1" fill="srgba(55,86,150,1)"/>
  <circle cx="11" cy="16" r="1" fill="srgba(59,89,152,1)"/>
  <circle cx="12" cy="16" r="1" fill="srgba(59,89,152,1)"/>
  <circle cx="13" cy="16" r="1" fill="srgba(59,89,152,1)"/>
  <circle cx="14" cy="16" r="1" fill="srgba(59,89,152,1)"/>
  <circle cx="15" cy="16" r="1" fill="srgba(59,89,152,1)"/>
  <circle cx="16" cy="16" r="1" fill="srgba(59,89,152,1)"/>
  <circle cx="17" cy="16" r="1" fill="srgba(59,89,152,1)"/>
  <circle cx="18" cy="16" r="1" fill="srgba(59,89,152,1)"/>
  <circle cx="19" cy="16" r="1" fill="srgba(75,103,160,1)"/>
  <circle cx="0" cy="17" r="1" fill="srgba(70,98,158,1)"/>
  <circle cx="1" cy="17" r="1" fill="srgba(59,89,152,1)"/>
  <circle cx="2" cy="17" r="1" fill="srgba(59,89,152,1)"/>
  <circle cx="3" cy="17" r="1" fill="srgba(59,89,152,1)"/>
  <circle cx="4" cy="17" r="1" fill="srgba(59,89,152,1)"/>
  <circle cx="5" cy="17" r="1" fill="srgba(59,89,152,1)"/>
  <circle cx="6" cy="17" r="1" fill="srgba(59,89,152,1)"/>
  <circle cx="7" cy="17" r="1" fill="srgba(60,90,153,1)"/>
  <circle cx="8" cy="17" r="1" fill="srgba(55,85,150,1)"/>
  <circle cx="9" cy="17" r="1" fill="srgba(49,80,147,1)"/>
  <circle cx="10" cy="17" r="1" fill="srgba(52,83,148,1)"/>
  <circle cx="11" cy="17" r="1" fill="srgba(59,89,152,1)"/>
  <circle cx="12" cy="17" r="1" fill="srgba(59,89,152,1)"/>
  <circle cx="13" cy="17" r="1" fill="srgba(59,89,152,1)"/>
  <circle cx="14" cy="17" r="1" fill="srgba(59,89,152,1)"/>
  <circle cx="15" cy="17" r="1" fill="srgba(59,89,152,1)"/>
  <circle cx="16" cy="17" r="1" fill="srgba(59,89,152,1)"/>
  <circle cx="17" cy="17" r="1" fill="srgba(59,89,152,1)"/>
  <circle cx="18" cy="17" r="1" fill="srgba(59,89,152,1)"/>
  <circle cx="19" cy="17" r="1" fill="srgba(70,98,158,1)"/>
  <circle cx="0" cy="18" r="1" fill="srgba(67,96,156,1)"/>
  <circle cx="1" cy="18" r="1" fill="srgba(59,89,152,1)"/>
  <circle cx="2" cy="18" r="1" fill="srgba(59,89,152,1)"/>
  <circle cx="3" cy="18" r="1" fill="srgba(59,89,152,1)"/>
  <circle cx="4" cy="18" r="1" fill="srgba(59,89,152,1)"/>
  <circle cx="5" cy="18" r="1" fill="srgba(59,89,152,1)"/>
  <circle cx="6" cy="18" r="1" fill="srgba(59,89,152,1)"/>
  <circle cx="7" cy="18" r="1" fill="srgba(59,89,152,1)"/>
  <circle cx="8" cy="18" r="1" fill="srgba(59,89,152,1)"/>
  <circle cx="9" cy="18" r="1" fill="srgba(59,89,152,1)"/>
  <circle cx="10" cy="18" r="1" fill="srgba(59,89,152,1)"/>
  <circle cx="11" cy="18" r="1" fill="srgba(59,89,152,1)"/>
  <circle cx="12" cy="18" r="1" fill="srgba(59,89,152,1)"/>
  <circle cx="13" cy="18" r="1" fill="srgba(59,89,152,1)"/>
  <circle cx="14" cy="18" r="1" fill="srgba(59,89,152,1)"/>
  <circle cx="15" cy="18" r="1" fill="srgba(59,89,152,1)"/>
  <circle cx="16" cy="18" r="1" fill="srgba(59,89,152,1)"/>
  <circle cx="17" cy="18" r="1" fill="srgba(59,89,152,1)"/>
  <circle cx="18" cy="18" r="1" fill="srgba(59,89,152,1)"/>
  <circle cx="19" cy="18" r="1" fill="srgba(67,96,156,1)"/>
  <circle cx="0" cy="19" r="1" fill="srgba(187,198,219,1)"/>
  <circle cx="1" cy="19" r="1" fill="srgba(86,112,166,1)"/>
  <circle cx="2" cy="19" r="1" fill="srgba(71,99,158,1)"/>
  <circle cx="3" cy="19" r="1" fill="srgba(75,103,160,1)"/>
  <circle cx="4" cy="19" r="1" fill="srgba(75,103,160,1)"/>
  <circle cx="5" cy="19" r="1" fill="srgba(75,103,160,1)"/>
  <circle cx="6" cy="19" r="1" fill="srgba(75,103,160,1)"/>
  <circle cx="7" cy="19" r="1" fill="srgba(75,103,160,1)"/>
  <circle cx="8" cy="19" r="1" fill="srgba(75,103,160,1)"/>
  <circle cx="9" cy="19" r="1" fill="srgba(75,103,160,1)"/>
  <circle cx="10" cy="19" r="1" fill="srgba(75,103,160,1)"/>
  <circle cx="11" cy="19" r="1" fill="srgba(75,103,160,1)"/>
  <circle cx="12" cy="19" r="1" fill="srgba(75,103,160,1)"/>
  <circle cx="13" cy="19" r="1" fill="srgba(75,103,160,1)"/>
  <circle cx="14" cy="19" r="1" fill="srgba(75,103,160,1)"/>
  <circle cx="15" cy="19" r="1" fill="srgba(75,103,160,1)"/>
  <circle cx="16" cy="19" r="1" fill="srgba(75,103,160,1)"/>
  <circle cx="17" cy="19" r="1" fill="srgba(71,99,158,1)"/>
  <circle cx="18" cy="19" r="1" fill="srgba(86,112,166,1)"/>
  <circle cx="19" cy="19" r="1" fill="srgba(187,198,219,1)"/>
</svg>
