<?xml version="1.0" standalone="no"?>
<!DOCTYPE svg PUBLIC "-//W3C//DTD SVG 20010904//EN"
  "http://www.w3.org/TR/2001/REC-SVG-20010904/DTD/svg10.dtd">
<svg width="20" height="20">
  <circle cx="0" cy="0" r="1" fill="srgba(243,243,243,1)"/>
  <circle cx="1" cy="0" r="1" fill="srgba(225,225,225,1)"/>
  <circle cx="2" cy="0" r="1" fill="grey87"/>
  <circle cx="3" cy="0" r="1" fill="srgba(223,223,223,1)"/>
  <circle cx="4" cy="0" r="1" fill="srgba(223,223,223,1)"/>
  <circle cx="5" cy="0" r="1" fill="srgba(223,223,223,1)"/>
  <circle cx="6" cy="0" r="1" fill="srgba(223,223,223,1)"/>
  <circle cx="7" cy="0" r="1" fill="srgba(223,223,223,1)"/>
  <circle cx="8" cy="0" r="1" fill="srgba(223,223,223,1)"/>
  <circle cx="9" cy="0" r="1" fill="srgba(223,223,223,1)"/>
  <circle cx="10" cy="0" r="1" fill="srgba(223,223,223,1)"/>
  <circle cx="11" cy="0" r="1" fill="srgba(223,223,223,1)"/>
  <circle cx="12" cy="0" r="1" fill="srgba(223,223,223,1)"/>
  <circle cx="13" cy="0" r="1" fill="srgba(223,223,223,1)"/>
  <circle cx="14" cy="0" r="1" fill="srgba(223,223,223,1)"/>
  <circle cx="15" cy="0" r="1" fill="srgba(223,223,223,1)"/>
  <circle cx="16" cy="0" r="1" fill="srgba(223,223,223,1)"/>
  <circle cx="17" cy="0" r="1" fill="grey87"/>
  <circle cx="18" cy="0" r="1" fill="srgba(225,225,225,1)"/>
  <circle cx="19" cy="0" r="1" fill="srgba(243,243,243,1)"/>
  <circle cx="0" cy="1" r="1" fill="grey87"/>
  <circle cx="1" cy="1" r="1" fill="srgba(246,246,246,1)"/>
  <circle cx="2" cy="1" r="1" fill="srgba(253,253,253,1)"/>
  <circle cx="3" cy="1" r="1" fill="grey99"/>
  <circle cx="4" cy="1" r="1" fill="grey99"/>
  <circle cx="5" cy="1" r="1" fill="grey99"/>
  <circle cx="6" cy="1" r="1" fill="grey99"/>
  <circle cx="7" cy="1" r="1" fill="grey99"/>
  <circle cx="8" cy="1" r="1" fill="grey99"/>
  <circle cx="9" cy="1" r="1" fill="grey99"/>
  <circle cx="10" cy="1" r="1" fill="grey99"/>
  <circle cx="11" cy="1" r="1" fill="grey99"/>
  <circle cx="12" cy="1" r="1" fill="grey99"/>
  <circle cx="13" cy="1" r="1" fill="grey99"/>
  <circle cx="14" cy="1" r="1" fill="grey99"/>
  <circle cx="15" cy="1" r="1" fill="grey99"/>
  <circle cx="16" cy="1" r="1" fill="grey99"/>
  <circle cx="17" cy="1" r="1" fill="srgba(253,253,253,1)"/>
  <circle cx="18" cy="1" r="1" fill="srgba(246,246,246,1)"/>
  <circle cx="19" cy="1" r="1" fill="grey87"/>
  <circle cx="0" cy="2" r="1" fill="grey87"/>
  <circle cx="1" cy="2" r="1" fill="srgba(253,253,253,1)"/>
  <circle cx="2" cy="2" r="1" fill="white"/>
  <circle cx="3" cy="2" r="1" fill="white"/>
  <circle cx="4" cy="2" r="1" fill="white"/>
  <circle cx="5" cy="2" r="1" fill="white"/>
  <circle cx="6" cy="2" r="1" fill="white"/>
  <circle cx="7" cy="2" r="1" fill="white"/>
  <circle cx="8" cy="2" r="1" fill="white"/>
  <circle cx="9" cy="2" r="1" fill="white"/>
  <circle cx="10" cy="2" r="1" fill="white"/>
  <circle cx="11" cy="2" r="1" fill="white"/>
  <circle cx="12" cy="2" r="1" fill="white"/>
  <circle cx="13" cy="2" r="1" fill="white"/>
  <circle cx="14" cy="2" r="1" fill="white"/>
  <circle cx="15" cy="2" r="1" fill="white"/>
  <circle cx="16" cy="2" r="1" fill="white"/>
  <circle cx="17" cy="2" r="1" fill="white"/>
  <circle cx="18" cy="2" r="1" fill="srgba(253,253,253,1)"/>
  <circle cx="19" cy="2" r="1" fill="grey87"/>
  <circle cx="0" cy="3" r="1" fill="srgba(223,223,223,1)"/>
  <circle cx="1" cy="3" r="1" fill="grey99"/>
  <circle cx="2" cy="3" r="1" fill="white"/>
  <circle cx="3" cy="3" r="1" fill="white"/>
  <circle cx="4" cy="3" r="1" fill="white"/>
  <circle cx="5" cy="3" r="1" fill="white"/>
  <circle cx="6" cy="3" r="1" fill="white"/>
  <circle cx="7" cy="3" r="1" fill="white"/>
  <circle cx="8" cy="3" r="1" fill="white"/>
  <circle cx="9" cy="3" r="1" fill="white"/>
  <circle cx="10" cy="3" r="1" fill="white"/>
  <circle cx="11" cy="3" r="1" fill="white"/>
  <circle cx="12" cy="3" r="1" fill="white"/>
  <circle cx="13" cy="3" r="1" fill="white"/>
  <circle cx="14" cy="3" r="1" fill="white"/>
  <circle cx="15" cy="3" r="1" fill="white"/>
  <circle cx="16" cy="3" r="1" fill="white"/>
  <circle cx="17" cy="3" r="1" fill="white"/>
  <circle cx="18" cy="3" r="1" fill="grey99"/>
  <circle cx="19" cy="3" r="1" fill="srgba(223,223,223,1)"/>
  <circle cx="0" cy="4" r="1" fill="srgba(223,223,223,1)"/>
  <circle cx="1" cy="4" r="1" fill="grey99"/>
  <circle cx="2" cy="4" r="1" fill="white"/>
  <circle cx="3" cy="4" r="1" fill="white"/>
  <circle cx="4" cy="4" r="1" fill="white"/>
  <circle cx="5" cy="4" r="1" fill="white"/>
  <circle cx="6" cy="4" r="1" fill="white"/>
  <circle cx="7" cy="4" r="1" fill="white"/>
  <circle cx="8" cy="4" r="1" fill="white"/>
  <circle cx="9" cy="4" r="1" fill="white"/>
  <circle cx="10" cy="4" r="1" fill="white"/>
  <circle cx="11" cy="4" r="1" fill="srgba(213,243,253,1)"/>
  <circle cx="12" cy="4" r="1" fill="srgba(175,233,251,1)"/>
  <circle cx="13" cy="4" r="1" fill="srgba(221,246,253,1)"/>
  <circle cx="14" cy="4" r="1" fill="white"/>
  <circle cx="15" cy="4" r="1" fill="srgba(248,253,255,1)"/>
  <circle cx="16" cy="4" r="1" fill="srgba(250,253,255,1)"/>
  <circle cx="17" cy="4" r="1" fill="white"/>
  <circle cx="18" cy="4" r="1" fill="grey99"/>
  <circle cx="19" cy="4" r="1" fill="srgba(223,223,223,1)"/>
  <circle cx="0" cy="5" r="1" fill="srgba(223,223,223,1)"/>
  <circle cx="1" cy="5" r="1" fill="grey99"/>
  <circle cx="2" cy="5" r="1" fill="white"/>
  <circle cx="3" cy="5" r="1" fill="white"/>
  <circle cx="4" cy="5" r="1" fill="srgba(152,227,250,1)"/>
  <circle cx="5" cy="5" r="1" fill="srgba(223,247,253,1)"/>
  <circle cx="6" cy="5" r="1" fill="white"/>
  <circle cx="7" cy="5" r="1" fill="white"/>
  <circle cx="8" cy="5" r="1" fill="white"/>
  <circle cx="9" cy="5" r="1" fill="white"/>
  <circle cx="10" cy="5" r="1" fill="srgba(164,230,251,1)"/>
  <circle cx="11" cy="5" r="1" fill="srgba(37,195,245,1)"/>
  <circle cx="12" cy="5" r="1" fill="srgba(29,193,244,1)"/>
  <circle cx="13" cy="5" r="1" fill="srgba(64,203,246,1)"/>
  <circle cx="14" cy="5" r="1" fill="srgba(116,217,248,1)"/>
  <circle cx="15" cy="5" r="1" fill="srgba(131,221,249,1)"/>
  <circle cx="16" cy="5" r="1" fill="srgba(237,250,254,1)"/>
  <circle cx="17" cy="5" r="1" fill="white"/>
  <circle cx="18" cy="5" r="1" fill="grey99"/>
  <circle cx="19" cy="5" r="1" fill="srgba(223,223,223,1)"/>
  <circle cx="0" cy="6" r="1" fill="srgba(223,223,223,1)"/>
  <circle cx="1" cy="6" r="1" fill="grey99"/>
  <circle cx="2" cy="6" r="1" fill="white"/>
  <circle cx="3" cy="6" r="1" fill="white"/>
  <circle cx="4" cy="6" r="1" fill="srgba(63,203,245,1)"/>
  <circle cx="5" cy="6" r="1" fill="srgba(52,200,245,1)"/>
  <circle cx="6" cy="6" r="1" fill="srgba(203,241,253,1)"/>
  <circle cx="7" cy="6" r="1" fill="white"/>
  <circle cx="8" cy="6" r="1" fill="white"/>
  <circle cx="9" cy="6" r="1" fill="srgba(251,254,255,1)"/>
  <circle cx="10" cy="6" r="1" fill="srgba(52,200,245,1)"/>
  <circle cx="11" cy="6" r="1" fill="srgba(47,198,245,1)"/>
  <circle cx="12" cy="6" r="1" fill="srgba(72,205,246,1)"/>
  <circle cx="13" cy="6" r="1" fill="srgba(59,201,246,1)"/>
  <circle cx="14" cy="6" r="1" fill="srgba(20,191,244,1)"/>
  <circle cx="15" cy="6" r="1" fill="srgba(104,214,247,1)"/>
  <circle cx="16" cy="6" r="1" fill="srgba(243,252,255,1)"/>
  <circle cx="17" cy="6" r="1" fill="white"/>
  <circle cx="18" cy="6" r="1" fill="grey99"/>
  <circle cx="19" cy="6" r="1" fill="srgba(223,223,223,1)"/>
  <circle cx="0" cy="7" r="1" fill="srgba(223,223,223,1)"/>
  <circle cx="1" cy="7" r="1" fill="grey99"/>
  <circle cx="2" cy="7" r="1" fill="white"/>
  <circle cx="3" cy="7" r="1" fill="white"/>
  <circle cx="4" cy="7" r="1" fill="srgba(157,228,250,1)"/>
  <circle cx="5" cy="7" r="1" fill="srgba(21,191,244,1)"/>
  <circle cx="6" cy="7" r="1" fill="srgba(49,199,245,1)"/>
  <circle cx="7" cy="7" r="1" fill="srgba(117,217,248,1)"/>
  <circle cx="8" cy="7" r="1" fill="srgba(189,237,252,1)"/>
  <circle cx="9" cy="7" r="1" fill="srgba(181,235,251,1)"/>
  <circle cx="10" cy="7" r="1" fill="srgba(59,202,246,1)"/>
  <circle cx="11" cy="7" r="1" fill="srgba(64,203,246,1)"/>
  <circle cx="12" cy="7" r="1" fill="srgba(68,204,246,1)"/>
  <circle cx="13" cy="7" r="1" fill="srgba(61,202,245,1)"/>
  <circle cx="14" cy="7" r="1" fill="srgba(59,201,245,1)"/>
  <circle cx="15" cy="7" r="1" fill="srgba(218,245,253,1)"/>
  <circle cx="16" cy="7" r="1" fill="white"/>
  <circle cx="17" cy="7" r="1" fill="white"/>
  <circle cx="18" cy="7" r="1" fill="grey99"/>
  <circle cx="19" cy="7" r="1" fill="srgba(223,223,223,1)"/>
  <circle cx="0" cy="8" r="1" fill="srgba(223,223,223,1)"/>
  <circle cx="1" cy="8" r="1" fill="grey99"/>
  <circle cx="2" cy="8" r="1" fill="white"/>
  <circle cx="3" cy="8" r="1" fill="white"/>
  <circle cx="4" cy="8" r="1" fill="srgba(145,225,250,1)"/>
  <circle cx="5" cy="8" r="1" fill="srgba(54,200,245,1)"/>
  <circle cx="6" cy="8" r="1" fill="srgba(60,202,246,1)"/>
  <circle cx="7" cy="8" r="1" fill="srgba(41,197,245,1)"/>
  <circle cx="8" cy="8" r="1" fill="srgba(44,198,245,1)"/>
  <circle cx="9" cy="8" r="1" fill="srgba(58,201,245,1)"/>
  <circle cx="10" cy="8" r="1" fill="srgba(70,205,246,1)"/>
  <circle cx="11" cy="8" r="1" fill="srgba(68,204,246,1)"/>
  <circle cx="12" cy="8" r="1" fill="srgba(68,204,246,1)"/>
  <circle cx="13" cy="8" r="1" fill="srgba(56,201,245,1)"/>
  <circle cx="14" cy="8" r="1" fill="srgba(74,205,246,1)"/>
  <circle cx="15" cy="8" r="1" fill="srgba(249,253,255,1)"/>
  <circle cx="16" cy="8" r="1" fill="white"/>
  <circle cx="17" cy="8" r="1" fill="white"/>
  <circle cx="18" cy="8" r="1" fill="grey99"/>
  <circle cx="19" cy="8" r="1" fill="srgba(223,223,223,1)"/>
  <circle cx="0" cy="9" r="1" fill="srgba(223,223,223,1)"/>
  <circle cx="1" cy="9" r="1" fill="grey99"/>
  <circle cx="2" cy="9" r="1" fill="white"/>
  <circle cx="3" cy="9" r="1" fill="white"/>
  <circle cx="4" cy="9" r="1" fill="srgba(132,221,249,1)"/>
  <circle cx="5" cy="9" r="1" fill="srgba(31,194,245,1)"/>
  <circle cx="6" cy="9" r="1" fill="srgba(68,204,246,1)"/>
  <circle cx="7" cy="9" r="1" fill="srgba(69,204,246,1)"/>
  <circle cx="8" cy="9" r="1" fill="srgba(66,204,246,1)"/>
  <circle cx="9" cy="9" r="1" fill="srgba(64,203,246,1)"/>
  <circle cx="10" cy="9" r="1" fill="srgba(68,204,246,1)"/>
  <circle cx="11" cy="9" r="1" fill="srgba(68,204,246,1)"/>
  <circle cx="12" cy="9" r="1" fill="srgba(69,204,246,1)"/>
  <circle cx="13" cy="9" r="1" fill="srgba(43,197,245,1)"/>
  <circle cx="14" cy="9" r="1" fill="srgba(99,213,247,1)"/>
  <circle cx="15" cy="9" r="1" fill="white"/>
  <circle cx="16" cy="9" r="1" fill="white"/>
  <circle cx="17" cy="9" r="1" fill="white"/>
  <circle cx="18" cy="9" r="1" fill="grey99"/>
  <circle cx="19" cy="9" r="1" fill="srgba(223,223,223,1)"/>
  <circle cx="0" cy="10" r="1" fill="srgba(223,223,223,1)"/>
  <circle cx="1" cy="10" r="1" fill="grey99"/>
  <circle cx="2" cy="10" r="1" fill="white"/>
  <circle cx="3" cy="10" r="1" fill="white"/>
  <circle cx="4" cy="10" r="1" fill="srgba(250,254,255,1)"/>
  <circle cx="5" cy="10" r="1" fill="srgba(100,212,248,1)"/>
  <circle cx="6" cy="10" r="1" fill="srgba(52,200,245,1)"/>
  <circle cx="7" cy="10" r="1" fill="srgba(67,204,246,1)"/>
  <circle cx="8" cy="10" r="1" fill="srgba(68,204,246,1)"/>
  <circle cx="9" cy="10" r="1" fill="srgba(68,204,246,1)"/>
  <circle cx="10" cy="10" r="1" fill="srgba(68,204,246,1)"/>
  <circle cx="11" cy="10" r="1" fill="srgba(68,204,246,1)"/>
  <circle cx="12" cy="10" r="1" fill="srgba(70,205,246,1)"/>
  <circle cx="13" cy="10" r="1" fill="srgba(29,194,245,1)"/>
  <circle cx="14" cy="10" r="1" fill="srgba(164,230,250,1)"/>
  <circle cx="15" cy="10" r="1" fill="white"/>
  <circle cx="16" cy="10" r="1" fill="white"/>
  <circle cx="17" cy="10" r="1" fill="white"/>
  <circle cx="18" cy="10" r="1" fill="grey99"/>
  <circle cx="19" cy="10" r="1" fill="srgba(223,223,223,1)"/>
  <circle cx="0" cy="11" r="1" fill="srgba(223,223,223,1)"/>
  <circle cx="1" cy="11" r="1" fill="grey99"/>
  <circle cx="2" cy="11" r="1" fill="white"/>
  <circle cx="3" cy="11" r="1" fill="white"/>
  <circle cx="4" cy="11" r="1" fill="white"/>
  <circle cx="5" cy="11" r="1" fill="srgba(151,227,250,1)"/>
  <circle cx="6" cy="11" r="1" fill="srgba(17,190,244,1)"/>
  <circle cx="7" cy="11" r="1" fill="srgba(62,203,246,1)"/>
  <circle cx="8" cy="11" r="1" fill="srgba(70,205,246,1)"/>
  <circle cx="9" cy="11" r="1" fill="srgba(68,204,246,1)"/>
  <circle cx="10" cy="11" r="1" fill="srgba(68,204,246,1)"/>
  <circle cx="11" cy="11" r="1" fill="srgba(71,205,246,1)"/>
  <circle cx="12" cy="11" r="1" fill="srgba(41,197,245,1)"/>
  <circle cx="13" cy="11" r="1" fill="srgba(73,205,246,1)"/>
  <circle cx="14" cy="11" r="1" fill="srgba(246,253,254,1)"/>
  <circle cx="15" cy="11" r="1" fill="white"/>
  <circle cx="16" cy="11" r="1" fill="white"/>
  <circle cx="17" cy="11" r="1" fill="white"/>
  <circle cx="18" cy="11" r="1" fill="grey99"/>
  <circle cx="19" cy="11" r="1" fill="srgba(223,223,223,1)"/>
  <circle cx="0" cy="12" r="1" fill="srgba(223,223,223,1)"/>
  <circle cx="1" cy="12" r="1" fill="grey99"/>
  <circle cx="2" cy="12" r="1" fill="white"/>
  <circle cx="3" cy="12" r="1" fill="white"/>
  <circle cx="4" cy="12" r="1" fill="white"/>
  <circle cx="5" cy="12" r="1" fill="white"/>
  <circle cx="6" cy="12" r="1" fill="srgba(164,230,251,1)"/>
  <circle cx="7" cy="12" r="1" fill="srgba(65,203,246,1)"/>
  <circle cx="8" cy="12" r="1" fill="srgba(61,202,246,1)"/>
  <circle cx="9" cy="12" r="1" fill="srgba(68,204,246,1)"/>
  <circle cx="10" cy="12" r="1" fill="srgba(70,205,246,1)"/>
  <circle cx="11" cy="12" r="1" fill="srgba(42,197,245,1)"/>
  <circle cx="12" cy="12" r="1" fill="srgba(42,197,245,1)"/>
  <circle cx="13" cy="12" r="1" fill="srgba(207,242,253,1)"/>
  <circle cx="14" cy="12" r="1" fill="white"/>
  <circle cx="15" cy="12" r="1" fill="white"/>
  <circle cx="16" cy="12" r="1" fill="white"/>
  <circle cx="17" cy="12" r="1" fill="white"/>
  <circle cx="18" cy="12" r="1" fill="grey99"/>
  <circle cx="19" cy="12" r="1" fill="srgba(223,223,223,1)"/>
  <circle cx="0" cy="13" r="1" fill="srgba(223,223,223,1)"/>
  <circle cx="1" cy="13" r="1" fill="grey99"/>
  <circle cx="2" cy="13" r="1" fill="white"/>
  <circle cx="3" cy="13" r="1" fill="srgba(247,253,255,1)"/>
  <circle cx="4" cy="13" r="1" fill="srgba(193,238,252,1)"/>
  <circle cx="5" cy="13" r="1" fill="srgba(170,232,251,1)"/>
  <circle cx="6" cy="13" r="1" fill="srgba(136,222,249,1)"/>
  <circle cx="7" cy="13" r="1" fill="srgba(54,200,245,1)"/>
  <circle cx="8" cy="13" r="1" fill="srgba(50,199,245,1)"/>
  <circle cx="9" cy="13" r="1" fill="srgba(44,198,245,1)"/>
  <circle cx="10" cy="13" r="1" fill="srgba(30,194,244,1)"/>
  <circle cx="11" cy="13" r="1" fill="srgba(65,203,246,1)"/>
  <circle cx="12" cy="13" r="1" fill="srgba(202,241,252,1)"/>
  <circle cx="13" cy="13" r="1" fill="white"/>
  <circle cx="14" cy="13" r="1" fill="white"/>
  <circle cx="15" cy="13" r="1" fill="white"/>
  <circle cx="16" cy="13" r="1" fill="white"/>
  <circle cx="17" cy="13" r="1" fill="white"/>
  <circle cx="18" cy="13" r="1" fill="grey99"/>
  <circle cx="19" cy="13" r="1" fill="srgba(223,223,223,1)"/>
  <circle cx="0" cy="14" r="1" fill="srgba(223,223,223,1)"/>
  <circle cx="1" cy="14" r="1" fill="grey99"/>
  <circle cx="2" cy="14" r="1" fill="white"/>
  <circle cx="3" cy="14" r="1" fill="srgba(250,254,255,1)"/>
  <circle cx="4" cy="14" r="1" fill="srgba(178,234,251,1)"/>
  <circle cx="5" cy="14" r="1" fill="srgba(93,211,247,1)"/>
  <circle cx="6" cy="14" r="1" fill="srgba(54,200,246,1)"/>
  <circle cx="7" cy="14" r="1" fill="srgba(72,205,246,1)"/>
  <circle cx="8" cy="14" r="1" fill="srgba(78,207,246,1)"/>
  <circle cx="9" cy="14" r="1" fill="srgba(98,212,248,1)"/>
  <circle cx="10" cy="14" r="1" fill="srgba(151,227,250,1)"/>
  <circle cx="11" cy="14" r="1" fill="srgba(241,251,254,1)"/>
  <circle cx="12" cy="14" r="1" fill="white"/>
  <circle cx="13" cy="14" r="1" fill="white"/>
  <circle cx="14" cy="14" r="1" fill="white"/>
  <circle cx="15" cy="14" r="1" fill="white"/>
  <circle cx="16" cy="14" r="1" fill="white"/>
  <circle cx="17" cy="14" r="1" fill="white"/>
  <circle cx="18" cy="14" r="1" fill="grey99"/>
  <circle cx="19" cy="14" r="1" fill="srgba(223,223,223,1)"/>
  <circle cx="0" cy="15" r="1" fill="srgba(223,223,223,1)"/>
  <circle cx="1" cy="15" r="1" fill="grey99"/>
  <circle cx="2" cy="15" r="1" fill="white"/>
  <circle cx="3" cy="15" r="1" fill="white"/>
  <circle cx="4" cy="15" r="1" fill="white"/>
  <circle cx="5" cy="15" r="1" fill="white"/>
  <circle cx="6" cy="15" r="1" fill="srgba(248,253,255,1)"/>
  <circle cx="7" cy="15" r="1" fill="srgba(241,251,254,1)"/>
  <circle cx="8" cy="15" r="1" fill="srgba(243,252,254,1)"/>
  <circle cx="9" cy="15" r="1" fill="white"/>
  <circle cx="10" cy="15" r="1" fill="white"/>
  <circle cx="11" cy="15" r="1" fill="white"/>
  <circle cx="12" cy="15" r="1" fill="white"/>
  <circle cx="13" cy="15" r="1" fill="white"/>
  <circle cx="14" cy="15" r="1" fill="white"/>
  <circle cx="15" cy="15" r="1" fill="white"/>
  <circle cx="16" cy="15" r="1" fill="white"/>
  <circle cx="17" cy="15" r="1" fill="white"/>
  <circle cx="18" cy="15" r="1" fill="grey99"/>
  <circle cx="19" cy="15" r="1" fill="srgba(223,223,223,1)"/>
  <circle cx="0" cy="16" r="1" fill="srgba(223,223,223,1)"/>
  <circle cx="1" cy="16" r="1" fill="grey99"/>
  <circle cx="2" cy="16" r="1" fill="white"/>
  <circle cx="3" cy="16" r="1" fill="white"/>
  <circle cx="4" cy="16" r="1" fill="white"/>
  <circle cx="5" cy="16" r="1" fill="white"/>
  <circle cx="6" cy="16" r="1" fill="white"/>
  <circle cx="7" cy="16" r="1" fill="white"/>
  <circle cx="8" cy="16" r="1" fill="white"/>
  <circle cx="9" cy="16" r="1" fill="white"/>
  <circle cx="10" cy="16" r="1" fill="white"/>
  <circle cx="11" cy="16" r="1" fill="white"/>
  <circle cx="12" cy="16" r="1" fill="white"/>
  <circle cx="13" cy="16" r="1" fill="white"/>
  <circle cx="14" cy="16" r="1" fill="white"/>
  <circle cx="15" cy="16" r="1" fill="white"/>
  <circle cx="16" cy="16" r="1" fill="white"/>
  <circle cx="17" cy="16" r="1" fill="white"/>
  <circle cx="18" cy="16" r="1" fill="grey99"/>
  <circle cx="19" cy="16" r="1" fill="srgba(223,223,223,1)"/>
  <circle cx="0" cy="17" r="1" fill="grey87"/>
  <circle cx="1" cy="17" r="1" fill="srgba(253,253,253,1)"/>
  <circle cx="2" cy="17" r="1" fill="white"/>
  <circle cx="3" cy="17" r="1" fill="white"/>
  <circle cx="4" cy="17" r="1" fill="white"/>
  <circle cx="5" cy="17" r="1" fill="white"/>
  <circle cx="6" cy="17" r="1" fill="white"/>
  <circle cx="7" cy="17" r="1" fill="white"/>
  <circle cx="8" cy="17" r="1" fill="white"/>
  <circle cx="9" cy="17" r="1" fill="white"/>
  <circle cx="10" cy="17" r="1" fill="white"/>
  <circle cx="11" cy="17" r="1" fill="white"/>
  <circle cx="12" cy="17" r="1" fill="white"/>
  <circle cx="13" cy="17" r="1" fill="white"/>
  <circle cx="14" cy="17" r="1" fill="white"/>
  <circle cx="15" cy="17" r="1" fill="white"/>
  <circle cx="16" cy="17" r="1" fill="white"/>
  <circle cx="17" cy="17" r="1" fill="white"/>
  <circle cx="18" cy="17" r="1" fill="srgba(253,253,253,1)"/>
  <circle cx="19" cy="17" r="1" fill="grey87"/>
  <circle cx="0" cy="18" r="1" fill="grey87"/>
  <circle cx="1" cy="18" r="1" fill="srgba(246,246,246,1)"/>
  <circle cx="2" cy="18" r="1" fill="srgba(253,253,253,1)"/>
  <circle cx="3" cy="18" r="1" fill="grey99"/>
  <circle cx="4" cy="18" r="1" fill="grey99"/>
  <circle cx="5" cy="18" r="1" fill="grey99"/>
  <circle cx="6" cy="18" r="1" fill="grey99"/>
  <circle cx="7" cy="18" r="1" fill="grey99"/>
  <circle cx="8" cy="18" r="1" fill="grey99"/>
  <circle cx="9" cy="18" r="1" fill="grey99"/>
  <circle cx="10" cy="18" r="1" fill="grey99"/>
  <circle cx="11" cy="18" r="1" fill="grey99"/>
  <circle cx="12" cy="18" r="1" fill="grey99"/>
  <circle cx="13" cy="18" r="1" fill="grey99"/>
  <circle cx="14" cy="18" r="1" fill="grey99"/>
  <circle cx="15" cy="18" r="1" fill="grey99"/>
  <circle cx="16" cy="18" r="1" fill="grey99"/>
  <circle cx="17" cy="18" r="1" fill="srgba(253,253,253,1)"/>
  <circle cx="18" cy="18" r="1" fill="srgba(246,246,246,1)"/>
  <circle cx="19" cy="18" r="1" fill="grey87"/>
  <circle cx="0" cy="19" r="1" fill="srgba(243,243,243,1)"/>
  <circle cx="1" cy="19" r="1" fill="srgba(225,225,225,1)"/>
  <circle cx="2" cy="19" r="1" fill="grey87"/>
  <circle cx="3" cy="19" r="1" fill="srgba(223,223,223,1)"/>
  <circle cx="4" cy="19" r="1" fill="srgba(223,223,223,1)"/>
  <circle cx="5" cy="19" r="1" fill="srgba(223,223,223,1)"/>
  <circle cx="6" cy="19" r="1" fill="srgba(223,223,223,1)"/>
  <circle cx="7" cy="19" r="1" fill="srgba(223,223,223,1)"/>
  <circle cx="8" cy="19" r="1" fill="srgba(223,223,223,1)"/>
  <circle cx="9" cy="19" r="1" fill="srgba(223,223,223,1)"/>
  <circle cx="10" cy="19" r="1" fill="srgba(223,223,223,1)"/>
  <circle cx="11" cy="19" r="1" fill="srgba(223,223,223,1)"/>
  <circle cx="12" cy="19" r="1" fill="srgba(223,223,223,1)"/>
  <circle cx="13" cy="19" r="1" fill="srgba(223,223,223,1)"/>
  <circle cx="14" cy="19" r="1" fill="srgba(223,223,223,1)"/>
  <circle cx="15" cy="19" r="1" fill="srgba(223,223,223,1)"/>
  <circle cx="16" cy="19" r="1" fill="srgba(223,223,223,1)"/>
  <circle cx="17" cy="19" r="1" fill="grey87"/>
  <circle cx="18" cy="19" r="1" fill="srgba(225,225,225,1)"/>
  <circle cx="19" cy="19" r="1" fill="srgba(243,243,243,1)"/>
</svg>
