<svg 
	version="1.1"
	xmlns="http://www.w3.org/2000/svg"
	width="512"
	height="512"
	viewBox="0 0 511.746 511.746">
	<g opacity="0.8">
		<rect y="144.396" fill="#E0E0E2" width="511.746" height="357.962"/>
		<rect x="254.873" y="144.396" fill="#C6C5CA" width="256.873" height="357.962"/>
		<rect y="39.391" fill="#FF5023" width="511.746" height="120.005"/>
		<rect x="254.873" y="39.391" fill="#CD2A00" width="256.873" height="120.005"/>
		<rect x="89.339" y="9.388" fill="#D4D4D9" width="30" height="90.006"/>
		<rect x="391.074" y="9.388" fill="#BBBBC2" width="30" height="90.006"/>

		<rect x="179.398" y="199.401" fill="#738182" width="52.942" height="52.941"/>
		<rect x="79.393" y="289.406" fill="#738182" width="52.941" height="52.941"/>
		<rect x="179.398" y="289.406" fill="#738182" width="52.942" height="52.941"/>
		<rect x="79.393" y="379.412" fill="#738182" width="52.941" height="52.941"/>
		<rect x="179.398" y="379.412" fill="#738182" width="52.942" height="52.941"/>

		<rect x="279.405" y="199.401" fill="#576666" width="52.941" height="52.941"/>
		<rect x="379.411" y="199.401" fill="#576666" width="52.942" height="52.941"/>
		<rect x="279.405" y="289.406" fill="#576666" width="52.941" height="52.941"/>
		<rect x="379.411" y="289.406" fill="#576666" width="52.942" height="52.941"/>
		<rect x="279.405" y="379.412" fill="#576666" width="52.941" height="52.941"/>
	</g>
	<g transform="translate(256 256) scale(0.6368)">
		<circle cx="201" cy="201" r="200.5" fill="#E21B1B" />
		<g transform="translate(51 51) scale(0.75) rotate(45 201 201)">
			<path fill="#fff" d="M394,154.175c-5.331-5.33-11.806-7.994-19.417-7.994H255.811V27.406c0-7.611-2.666-14.084-7.994-19.414
				C242.488,2.666,236.02,0,228.398,0h-54.812c-7.612,0-14.084,2.663-19.414,7.993c-5.33,5.33-7.994,11.803-7.994,19.414v118.775
				H27.407c-7.611,0-14.084,2.664-19.414,7.994S0,165.973,0,173.589v54.819c0,7.618,2.662,14.086,7.992,19.411
				c5.33,5.332,11.803,7.994,19.414,7.994h118.771V374.59c0,7.611,2.664,14.089,7.994,19.417c5.33,5.325,11.802,7.987,19.414,7.987
				h54.816c7.617,0,14.086-2.662,19.417-7.987c5.332-5.331,7.994-11.806,7.994-19.417V255.813h118.77
				c7.618,0,14.089-2.662,19.417-7.994c5.329-5.325,7.994-11.793,7.994-19.411v-54.819C401.991,165.973,399.332,159.502,394,154.175z"
				/>
		</g>
	</g>
</svg>
