<svg xmlns="http://www.w3.org/2000/svg"
     xml:space="preserve"
     width="480" height="480"
     version="1.1"
     style="shape-rendering:geometricPrecision; text-rendering:geometricPrecision; image-rendering:optimizeQuality; fill-rule:evenodd; clip-rule:evenodd"
     viewBox="15 0 480 480"
     xmlns:xlink="http://www.w3.org/1999/xlink">
  <!-- (c) Snip Master https://creativecommons.org/licenses/by/4.0/ https://icon-icons.com/fr/icone/crayon-mono/105944-->
  <path d="M20,478 l495,0 l0,-40 l-305,0" fill="#F3EA22" />
  <g transform="rotate(45 230 230) translate(-80 0) scale(1.3 1) rotate(-45 230 230)">
    <path d="M350 45l105 105 -281 280 0 0 -63 22 -84 27 c-5,2 -8,-1 -6,-6 l27 -84  l22 -63 230 -231z" fill="#eee"/>
    <path d="M300 95l105 105 -231 230 0 0 -63 22c-5,-15 -13,-28 -24,-39 -11,-11 -24,-19 -39,-24l22 -63 0 0 0 0 230 -231zm-207 362l-66 22c-5,2 -8,-1 -6,-6l22 -66c11,4 22,10 31,19 9,9 15,20 19,31zm381 -353l-78 -79c-7,-7 -19,-7 -26,0l-52 53 104 104 52 -52c8,-7 8,-19 0,-26zm-161 39c5,5 5,13 0,18l-182 182c-5,5 -13,5 -18,0 -5,-5 -5,-12 0,-17l183 -183c5,-5 12,-5 17,0zm44 44c5,5 5,12 0,17l-183 183c-5,5 -13,5 -17,0 -5,-5 -5,-13 0,-18l182 -182c5,-5 13,-5 18,0z"
    fill="#517BAD"/>
  </g>
</svg>
