<svg version="1.1"
		 width="64"
		 height="64"
		 viewBox="0 -35 512 512"
		 xmlns="http://www.w3.org/2000/svg">
	<defs>
		<filter id="topshadow" x="-100%" y="-100%" width="200%" height="200%">
			<feOffset result="offOut" in="SourceAlpha" dx="-10" dy="-10" />
			<feGaussianBlur result="blurOut" in="offOut" stdDeviation="10" />
			<feBlend in="SourceGraphic" in2="blurOut" mode="normal" />
		</filter>
	</defs>
	<path fill="#ad0123" d="m358.636719 0c-38 0-74.613281 14.207031-102.636719 39.417969-28.023438-25.214844-64.636719-39.417969-102.636719-39.417969-84.5625 0-153.363281 68.800781-153.363281 153.363281 0 42.667969 17.988281 83.75 49.351562 112.707031l178.65625 164.953126c7.644532 7.054687 17.585938 10.945312 27.992188 10.945312 10.914062 0 21.179688-4.207031 28.945312-11.855469l177.703126-164.042969c31.363281-28.960937 49.351562-70.039062 49.351562-112.707031 0-84.5625-68.800781-153.363281-153.363281-153.363281zm0 0"/>
	<path fill="#fd0134" d="m256 39.417969c-28.023438-25.214844-64.636719-39.417969-102.636719-39.417969-84.5625 0-153.363281 68.800781-153.363281 153.363281 0 42.667969 17.988281 83.75 49.351562 112.707031l178.65625 164.953126c7.644532 7.054687 17.585938 10.945312 27.992188 10.945312zm0 0"/>
	<g transform="translate(153 117) scale(2.0)" filter="url(#topshadow)">
		<path fill="#ffc259" d="M42,173.3l-36-36L138.6,4.7c6.3-6.3,16.4-6.3,22.7,0L174.6,18c6.3,6.3,6.3,16.4,0,22.7L42,173.3z"/>
		<path fill="#FC6F58" d="M174.6,40.7c6.3-6.3,6.3-16.4,0-22.7L161.3,4.7c-6.3-6.3-16.4-6.3-22.7,0l-9.9,9.9l36,36L174.6,40.7z"/>
		<path fill="#F1543F" d="M174.6,18l-7.1-7.1l-21.3,21.3l18.5,18.5l9.9-9.9C180.9,34.4,180.9,24.2,174.6,18z"/>
		<rect fill="#FFAB20" x="7.2" y="89.4" transform="matrix(0.7071 -0.7071 0.7071 0.7071 -45.0305 96.5264)" width="173.5" height="26.3"/>
		<polygon fill="#FFDC8D" points="42,173.3 0,179.3 6,137.3 "/>
		<polygon fill="#FFD15D" points="42,173.3 24,155.3 0,179.3 0,179.3 "/>
		<polygon fill="#324A5E" points="16.2,177 2.3,163.1 0,179.3 "/>
		<polygon fill="#2B3B4E" points="0,179.3 0,179.3 16.2,177 9.3,170 "/>
	</g>
</svg>