<svg version="1.1"
		 width="12"
		 height="12"
		 viewBox="0 0 448 448"
		 xmlns="http://www.w3.org/2000/svg"
		 xmlns:xlink="http://www.w3.org/1999/xlink">
	<g transform="translate(13 13) scale(0.94 0.94)">
		<path fill="#C8D17B" d="M442.016,3.5c-3.744-3.04-8.672-4.096-13.472-3.136l-288,64C133.216,65.996,128,72.492,128,79.98
			V333.1c-13.408-8.128-29.92-13.12-48-13.12c-44.096,0-80,28.704-80,64s35.904,64,80,64s80-28.704,80-64V188.812l256-56.896V269.1
			c-13.408-8.128-29.92-13.12-48-13.12c-44.128,0-80,28.704-80,64s35.872,64,80,64s80-28.704,80-64v-304
			C448,11.116,445.824,6.54,442.016,3.5z" stroke-width="40" stroke="#757F2A"/>
	</g>
</svg>
