<svg version="1.1"
		 width="12"
		 height="12"
		 viewBox="18.6 29.9 61.2 61.2"
		 xmlns="http://www.w3.org/2000/svg"
		 xmlns:xlink="http://www.w3.org/1999/xlink"
		 xml:space="preserve">
	<g fill="#333">
		<path d="M61.838,54.803c-0.793,0-1.33,0.053-1.611,0.129v5.085c0.332,0.075,0.742,0.103,1.304,0.103
			c2.069,0,3.349-1.047,3.349-2.785C64.879,55.75,63.805,54.803,61.838,54.803z"/>
		<path d="M53.155,31.677c-2.188-2.187-5.734-2.187-7.922,0L20.356,56.555c-2.188,2.188-2.188,5.734,0,7.923l24.876,24.875
			c2.188,2.188,5.734,2.188,7.922,0l24.877-24.877c1.051-1.05,1.641-2.476,1.641-3.961s-0.59-2.91-1.641-3.962L53.155,31.677z
			 M40.153,55.161h-6.618v3.937h6.184v3.168h-6.184v6.925h-3.884V51.967h10.502V55.161z M55.026,55.238h-4.703v13.951H46.44V55.238
			h-4.65v-3.271h13.236V55.238z M67.178,61.293c-1.33,1.229-3.322,1.815-5.621,1.815c-0.512,0-0.971-0.024-1.33-0.103v6.184h-3.857
			V52.198c1.201-0.205,2.889-0.358,5.264-0.358c2.401,0,4.139,0.461,5.289,1.405c1.1,0.845,1.814,2.274,1.814,3.962
			C68.736,58.918,68.2,60.349,67.178,61.293z"/>
	</g>
</svg>
