<svg version="1.1"
		 width="12"
		 height="12"
		 viewBox="0 0 512 512"
		 xmlns="http://www.w3.org/2000/svg"
		 xmlns:xlink="http://www.w3.org/1999/xlink"
		 xml:space="preserve">
		<rect x="110" y="50" width="390" height="400" fill="#fff"  rx="40" ry="70" />
		<rect x="10" y="140" width="110" height="310" fill="#fff"  rx="40" ry="70" />
		<path fill="#666" d="M408.548,122.155H209.242c-9.685,0-17.534,7.849-17.534,17.534v91.178c0,9.685,7.849,17.534,17.534,17.534h199.306
			c9.691,0,17.534-7.849,17.534-17.534v-91.178C426.082,130.005,418.233,122.155,408.548,122.155z M391.014,213.333H226.776v-56.11
			h164.237V213.333z"/>
		<path fill="#444" d="M494.466,42.667H122.74c-9.685,0-17.534,7.849-17.534,17.534v69.552H17.534C7.849,129.753,0,137.603,0,147.288v251.909
			c0,38.675,31.462,70.137,70.137,70.137H428.42c46.086,0,83.58-37.494,83.58-83.58V60.201
			C512,50.516,504.151,42.667,494.466,42.667z M105.206,399.196c0,19.662-15.407,35.069-35.069,35.069
			c-19.662,0-35.068-15.407-35.068-35.069V164.822h70.137V399.196z M476.932,385.753c0,26.746-21.766,48.511-48.511,48.511H130.864
			c5.985-10.322,9.41-22.309,9.41-35.069V77.735h336.658V385.753z"/>
		<path fill="#888" d="M408.548,282.88H209.242c-9.685,0-17.534,7.849-17.534,17.534s7.849,17.534,17.534,17.534h199.306
			c9.691,0,17.534-7.849,17.534-17.534S418.233,282.88,408.548,282.88z"/>
		<path fill="#888" d="M408.548,353.017H209.242c-9.685,0-17.534,7.849-17.534,17.534c0,9.685,7.849,17.534,17.534,17.534h199.306
			c9.691,0,17.534-7.85,17.534-17.534C426.082,360.867,418.233,353.017,408.548,353.017z"/>
</svg>
