<svg
	width="12"
	height="12"
	viewBox="-77 0 512 512.04079"
	xmlns="http://www.w3.org/2000/svg">
	<g transform="scale(1.1 1) translate(-15 0)">
		<path fill='#f4f4f4' d="m349.921,512.039h0zm-332.800-17.097h324.300v-406l-71.800-71.800h-252.5zm0 0"/>
		<path fill="#888" stroke="#888" stroke-width="30" d="m349.921875 93.941406h-76.800781c-4.699219 0-8.5-3.800781-8.5-8.5v-76.902344c0-3.398437 2.097656-6.597656 5.300781-7.898437 3.199219-1.300781 6.898437-.6015625 9.296875 1.898437l76.800781 76.800782c2.402344 2.402344 3.199219 6.101562 1.902344 9.300781-1.5 3.199219-4.601563 5.300781-8 5.300781zm-68.300781-17.101562h47.699218l-47.699218-47.699219zm0 0"/>
		<path fill='#888' stroke="#888" stroke-width="30" d="m349.921 512.039h-341.402c-4.699 0-8.499-3.796-8.499-8.5v-495c0-4.699 3.800-8.499 8.499-8.499h264.5c2.300 0 4.402.902 6 2.499l76.800 76.800c1.601 1.601 2.5 3.800 2.5 6v418.101c.101 4.800-3.699 8.597-8.398 8.597zm-332.800-17.097h324.300v-406l-71.800-71.800h-252.5zm0 0"/>
	</g>
</svg>