<svg version="1.1"
		 xmlns="http://www.w3.org/2000/svg"
		 xmlns:xlink="http://www.w3.org/1999/xlink"
		 width="12"
		 height="12"
		 viewBox="0 0 512 512"
		 xml:space="preserve">
	<g transform="translate(512 0) scale(-1 1)">
		<ellipse cx="256" cy="236" rx="230" ry="180" fill="#fff" />
		<path d="M325,370 l95,50 l-5,-100z" fill="#fff" />
		<path fill="#666" d="M467.68,352.038c28.304-31.915,44.054-73.023,44.32-115.68c0-112.64-114.88-204.32-256-204.32S0,123.718,0,236.358
			s114.88,204.32,256,204.32c22.206,0.006,44.352-2.3,66.08-6.88c69.44,29.12,111.04,43.68,112.8,44.32
			c16.659,5.899,34.947-2.824,40.846-19.483c1.692-4.779,2.225-9.892,1.554-14.917C474.88,425.798,469.12,379.398,467.68,352.038z
			 M412.32,317.318v0.32c-5.853,5.986-9.127,14.028-9.12,22.4c0,14.56,2.08,38.08,4.32,59.68c-18.72-7.36-42.4-16.96-70.08-28.64
			c-3.946-1.681-8.19-2.552-12.48-2.56c-2.589,0.008-5.168,0.33-7.68,0.96c-20.052,4.934-40.63,7.406-61.28,7.36
			c-105.92,0-192-62.88-192-140.32s86.08-140.48,192-140.48s192,62.88,192,140.32C447.304,267.006,434.471,296.125,412.32,317.318z"
		/>
		<g fill="#333">
			<path d="M278.56,217.478c-12.481-12.407-32.639-12.407-45.12,0c-12.46,12.534-12.4,32.795,0.134,45.255
				c5.963,5.927,14.018,9.27,22.426,9.305c4.218-0.052,8.391-0.865,12.32-2.4c1.914-0.822,3.737-1.841,5.44-3.04
				c1.772-1.112,3.386-2.458,4.8-4C290.967,250.117,290.967,229.959,278.56,217.478z"/>
			<g transform="translate(95 0)">
				<path d="M278.56,217.478c-12.481-12.407-32.639-12.407-45.12,0c-12.46,12.534-12.4,32.795,0.134,45.255
					c5.963,5.927,14.018,9.27,22.426,9.305c4.218-0.052,8.391-0.865,12.32-2.4c1.914-0.822,3.737-1.841,5.44-3.04
					c1.772-1.112,3.386-2.458,4.8-4C290.967,250.117,290.967,229.959,278.56,217.478z"/>
			</g>
			<g transform="translate(-95 0)">
				<path d="M278.56,217.478c-12.481-12.407-32.639-12.407-45.12,0c-12.46,12.534-12.4,32.795,0.134,45.255
					c5.963,5.927,14.018,9.27,22.426,9.305c4.218-0.052,8.391-0.865,12.32-2.4c1.914-0.822,3.737-1.841,5.44-3.04
					c1.772-1.112,3.386-2.458,4.8-4C290.967,250.117,290.967,229.959,278.56,217.478z"/>
			</g>
		</g>
	</g>
</svg>
