<svg
	version="1.1"
	xmlns="http://www.w3.org/2000/svg"
	width="512"
	height="512"
	viewBox="0 0 512 512">
	<path fill="#C6C5CA" d="m473.735 512h-435.47c-13.062 0-23.651-10.589-23.651-23.651v-354.234h482.771v354.234c0 13.062-10.588 23.651-23.65 23.651z"/>
	<path fill="#E0E0E2" d="m256 512h-217.737c-13.062 0-23.651-10.589-23.651-23.651v-354.234h241.386z"/>
	<path fill="#CD2A00" d="m497.385 134.115h-482.77v-63.353c0-13.062 10.589-23.651 23.651-23.651h435.469c13.062 0 23.651 10.589 23.651 23.651z"/>
	<path fill="#FF5023" d="m256 134.115h-241.386v-63.353c0-13.062 10.589-23.651 23.651-23.651h217.737z"/>

	<path fill="#000" opacity="0.5" d="m374.93 231.174c1.963 0 3.657.716 5.089 2.143 1.427 1.431 2.142 3.126 2.142 5.089v19.015c0 1.967-.669 3.795-2.008 5.49-1.339 1.698-2.636 3.171-3.883 4.419l-39.102 41.243c8.034 1.072 15.307 3.039 21.827 5.892 6.516 2.858 12.094 6.562 16.739 11.115 4.64 4.552 8.21 9.955 10.713 16.203 2.499 6.251 3.75 13.215 3.75 20.89 0 9.286-1.833 17.542-5.49 24.773-3.662 7.232-8.75 13.349-15.266 18.346-6.52 5-14.195 8.839-23.032 11.516-8.839 2.679-18.438 4.017-28.791 4.017-12.5 0-23.346-1.472-32.54-4.418-9.198-2.946-16.873-6.738-23.032-11.382-6.16-4.64-10.847-9.909-14.061-15.802-3.214-5.891-5.088-11.692-5.624-17.408-.18-2.143.49-3.884 2.009-5.223 1.514-1.339 3.255-2.009 5.222-2.009h21.158c1.783 0 3.256.582 4.419 1.741 1.159 1.163 2.364 2.812 3.616 4.955 1.071 2.143 2.498 4.151 4.285 6.026 1.783 1.874 4.152 3.574 7.097 5.088 2.946 1.519 6.65 2.725 11.115 3.616 4.46.896 9.909 1.339 16.337 1.339 10.889 0 19.685-2.185 26.381-6.562 6.695-4.373 10.043-10.579 10.043-18.613 0-8.035-3.348-13.793-10.043-17.275-6.696-3.481-15.492-5.222-26.381-5.222h-22.229c-1.967 0-3.661-.712-5.088-2.143-1.432-1.427-2.143-3.122-2.143-5.089v-19.015c0-1.962.67-3.791 2.008-5.49 1.339-1.694 2.632-3.167 3.883-4.419l37.495-39.369h-73.918c-1.967 0-3.662-.711-5.089-2.143-1.431-1.427-2.142-3.121-2.142-5.088v-19.015c0-1.963.711-3.658 2.142-5.089 1.427-1.427 3.122-2.143 5.089-2.143z"/>
	<path fill="#000" opacity="0.5" d="m114.389 291.702c-1.251-1.607-1.741-3.39-1.472-5.356.267-1.962 1.205-3.57 2.811-4.82l58.117-45.797c1.427-1.071 2.9-2.096 4.419-3.08 1.514-.979 3.167-1.473 4.954-1.473h20.891c1.962 0 3.657.716 5.088 2.143 1.427 1.431 2.143 3.126 2.143 5.089v173.012c0 1.967-.716 3.661-2.143 5.088-1.431 1.432-3.126 2.143-5.088 2.143h-21.694c-1.967 0-3.661-.711-5.088-2.143-1.432-1.427-2.143-3.121-2.143-5.088v-132.305l-38.031 29.728c-1.607 1.251-3.347 1.741-5.223 1.473-1.874-.268-3.527-1.206-4.954-2.812z"/>

	<path fill="#576666" d="m112.105 94.222h-31.402c-2.843 0-5.148-2.305-5.148-5.148v-83.926c0-2.843 2.304-5.148 5.148-5.148h31.403c2.843 0 5.148 2.305 5.148 5.148v83.925c0 2.844-2.305 5.149-5.149 5.149z"/>
	<path fill="#738182" d="m96.404 94.222h-15.701c-2.843 0-5.148-2.305-5.148-5.148v-83.926c0-2.843 2.304-5.148 5.148-5.148h15.701z"/>

	<path fill="#576666" d="m218.503 94.222h-31.403c-2.843 0-5.148-2.305-5.148-5.148v-83.926c0-2.843 2.305-5.148 5.148-5.148h31.403c2.843 0 5.148 2.305 5.148 5.148v83.925c0 2.844-2.305 5.149-5.148 5.149z"/>
	<path fill="#738182" d="m202.801 94.222h-15.701c-2.843 0-5.148-2.305-5.148-5.148v-83.926c0-2.843 2.305-5.148 5.148-5.148h15.701z"/>

	<path fill="#576666" d="m324.9 94.222h-31.403c-2.843 0-5.148-2.305-5.148-5.148v-83.926c0-2.843 2.305-5.148 5.148-5.148h31.403c2.843 0 5.148 2.305 5.148 5.148v83.925c0 2.844-2.305 5.149-5.148 5.149z"/>
	<path fill="#738182" d="m309.199 94.222h-15.701c-2.843 0-5.148-2.305-5.148-5.148v-83.926c0-2.843 2.305-5.148 5.148-5.148h15.701z"/>

	<path fill="#576666" d="m431.297 94.222h-31.403c-2.843 0-5.148-2.305-5.148-5.148v-83.926c0-2.843 2.305-5.148 5.148-5.148h31.403c2.843 0 5.148 2.305 5.148 5.148v83.925c0 2.844-2.304 5.149-5.148 5.149z"/>
	<path fill="#738182" d="m415.596 94.222h-15.701c-2.843 0-5.148-2.305-5.148-5.148v-83.926c0-2.843 2.305-5.148 5.148-5.148h15.701z"/>
	<g transform="translate(256 0) scale(4)">
		<circle fill="#4caf50" cx="32" cy="32" r="32" />
		<g transform="translate(8 8) scale(0.75)">
			<path transform="scale(0.1582)" fill="#fff" d="M394,154.175c-5.331-5.33-11.806-7.994-19.417-7.994H255.811V27.406c0-7.611-2.666-14.084-7.994-19.414
				C242.488,2.666,236.02,0,228.398,0h-54.812c-7.612,0-14.084,2.663-19.414,7.993c-5.33,5.33-7.994,11.803-7.994,19.414v118.775
				H27.407c-7.611,0-14.084,2.664-19.414,7.994S0,165.973,0,173.589v54.819c0,7.618,2.662,14.086,7.992,19.411
				c5.33,5.332,11.803,7.994,19.414,7.994h118.771V374.59c0,7.611,2.664,14.089,7.994,19.417c5.33,5.325,11.802,7.987,19.414,7.987
				h54.816c7.617,0,14.086-2.662,19.417-7.987c5.332-5.331,7.994-11.806,7.994-19.417V255.813h118.77
				c7.618,0,14.089-2.662,19.417-7.994c5.329-5.325,7.994-11.793,7.994-19.411v-54.819C401.991,165.973,399.332,159.502,394,154.175z"
				/>
		</g>
	</g>
</svg>