<svg xmlns="http://www.w3.org/2000/svg">
<symbol id="bi-alarm-fill" viewBox="0 0 20 20">
  <path fill-rule="evenodd" d="M7.5 2.5A.5.5 0 018 2h4a.5.5 0 010 1h-1v1.07a7.002 7.002 0 013.537 12.26l.817.816a.5.5 0 01-.708.708l-.924-.925A6.967 6.967 0 0110 18a6.967 6.967 0 01-3.722-1.07l-.924.924a.5.5 0 01-.708-.708l.817-.816A7.002 7.002 0 019 4.07V3H8a.5.5 0 01-.5-.5zM2.86 7.387A2.5 2.5 0 116.387 3.86 8.035 8.035 0 002.86 7.387zM15.5 3c-.753 0-1.429.333-1.887.86a8.035 8.035 0 013.527 3.527A2.5 2.5 0 0015.5 3zm-5 4a.5.5 0 00-1 0v3.882l-1.447 2.894a.5.5 0 10.894.448l1.5-3A.5.5 0 0010.5 11V7z" clip-rule="evenodd"/>
</symbol>
<symbol id="bi-alert-circle-fill" viewBox="0 0 20 20">
  <path fill-rule="evenodd" d="M18 10a8 8 0 11-16 0 8 8 0 0116 0zm-8.998 3a1 1 0 112 0 1 1 0 01-2 0zM10 6a.905.905 0 00-.9.995l.35 3.507a.553.553 0 001.1 0l.35-3.507A.905.905 0 0010 6z" clip-rule="evenodd"/>
</symbol>
<symbol id="bi-alert-octagon-fill" viewBox="0 0 20 20">
  <path fill-rule="evenodd" d="M13.107 2a.5.5 0 01.353.146l4.394 4.394a.5.5 0 01.146.353v6.214a.5.5 0 01-.146.353l-4.394 4.394a.5.5 0 01-.353.146H6.893a.5.5 0 01-.353-.146L2.146 13.46A.5.5 0 012 13.107V6.893a.5.5 0 01.146-.353L6.54 2.146A.5.5 0 016.893 2h6.214zM9.002 13a1 1 0 112 0 1 1 0 01-2 0zM10 6a.905.905 0 00-.9.995l.35 3.507a.553.553 0 001.1 0l.35-3.507A.905.905 0 0010 6z" clip-rule="evenodd"/>
</symbol>
<symbol id="bi-alert-square-fill" viewBox="0 0 20 20">
  <path fill-rule="evenodd" d="M2 4a2 2 0 012-2h12a2 2 0 012 2v12a2 2 0 01-2 2H4a2 2 0 01-2-2V4zm7.002 9a1 1 0 112 0 1 1 0 01-2 0zM10 6a.905.905 0 00-.9.995l.35 3.507a.553.553 0 001.1 0l.35-3.507A.905.905 0 0010 6z" clip-rule="evenodd"/>
</symbol>
<symbol id="bi-alert-triangle-fill" viewBox="0 0 20 20">
  <path fill-rule="evenodd" d="M9.022 3.566a1.13 1.13 0 011.96 0l6.857 11.667c.457.778-.092 1.767-.98 1.767H3.144c-.889 0-1.437-.99-.98-1.767L9.022 3.566zM9.002 14a1 1 0 112 0 1 1 0 01-2 0zM10 7a.905.905 0 00-.9.995l.35 3.507a.553.553 0 001.1 0l.35-3.507A.905.905 0 0010 7z" clip-rule="evenodd"/>
</symbol>
<symbol id="bi-archive-fill" viewBox="0 0 20 20">
  <path fill-rule="evenodd" d="M14.643 17C15.979 17 17 15.845 17 14.5V7H3v7.5C3 15.845 4.021 17 5.357 17h9.286zM8 9a.5.5 0 000 1h4a.5.5 0 000-1H8zM3 3a1 1 0 00-1 1v1.5a1 1 0 001 1h14a1 1 0 001-1V4a1 1 0 00-1-1H3z" clip-rule="evenodd"/>
</symbol>
<symbol id="bi-backspace-fill" viewBox="0 0 20 20">
  <path fill-rule="evenodd" d="M17.683 5a2 2 0 00-2-2h-7.08a2 2 0 00-1.519.698L2.241 9.35a1 1 0 000 1.302l4.843 5.65A2 2 0 008.603 17h7.08a2 2 0 002-2V5zM7.829 7.854a.5.5 0 11.707-.708l2.147 2.147 2.146-2.147a.5.5 0 11.707.708L11.39 10l2.146 2.146a.5.5 0 01-.707.708l-2.146-2.147-2.147 2.147a.5.5 0 01-.707-.708L9.976 10 7.829 7.854z" clip-rule="evenodd"/>
</symbol>
<symbol id="bi-backspace-reverse-fill" viewBox="0 0 20 20">
  <path fill-rule="evenodd" d="M2 5a2 2 0 012-2h7.08a2 2 0 011.519.698l4.843 5.651a1 1 0 010 1.302L12.6 16.3a2 2 0 01-1.52.7H4a2 2 0 01-2-2V5zm9.854 2.854a.5.5 0 00-.708-.708L9 9.293 6.854 7.146a.5.5 0 10-.708.708L8.293 10l-2.147 2.146a.5.5 0 00.708.708L9 10.707l2.146 2.147a.5.5 0 00.708-.708L9.707 10l2.147-2.146z" clip-rule="evenodd"/>
</symbol>
<symbol id="bi-bar-chart-fill" viewBox="0 0 20 20">
  <rect width="4" height="5" x="3" y="12" rx="1"/>
  <rect width="4" height="9" x="8" y="8" rx="1"/>
  <rect width="4" height="14" x="13" y="3" rx="1"/>
</symbol>
<symbol id="bi-bell-fill" viewBox="0 0 20 20">
  <path d="M10 18a2 2 0 002-2H8a2 2 0 002 2zm.995-14.901a1 1 0 10-1.99 0A5.002 5.002 0 005 8c0 1.098-.5 6-2 7h14c-1.5-1-2-5.902-2-7 0-2.42-1.72-4.44-4.005-4.901z"/>
</symbol>
<symbol id="bi-book-half-fill" viewBox="0 0 20 20">
  <path fill-rule="evenodd" d="M5.214 3.072c1.599-.32 3.702-.363 5.14 1.074a.5.5 0 01.146.354v11a.5.5 0 01-.854.354c-.843-.844-2.115-1.059-3.47-.92-1.344.14-2.66.617-3.452 1.013A.5.5 0 012 15.5v-11a.5.5 0 01.276-.447L2.5 4.5l-.224-.447.002-.001.004-.002.013-.006a5.116 5.116 0 01.22-.103 12.958 12.958 0 012.7-.869zM3 4.82v9.908c.846-.343 1.944-.672 3.074-.788 1.143-.118 2.387-.023 3.426.56V4.718c-1.063-.929-2.631-.956-4.09-.664A11.958 11.958 0 003 4.82z" clip-rule="evenodd"/>
  <path fill-rule="evenodd" d="M14.786 3.072c-1.598-.32-3.702-.363-5.14 1.074A.5.5 0 009.5 4.5v11a.5.5 0 00.854.354c.844-.844 2.115-1.059 3.47-.92 1.344.14 2.66.617 3.452 1.013A.5.5 0 0018 15.5v-11a.5.5 0 00-.276-.447L17.5 4.5l.224-.447-.002-.001-.004-.002-.013-.006-.047-.023a12.582 12.582 0 00-.799-.34 12.96 12.96 0 00-2.073-.609z" clip-rule="evenodd"/>
</symbol>
<symbol id="bi-bookmark-fill" viewBox="0 0 20 20">
  <path fill-rule="evenodd" d="M5 5a2 2 0 012-2h6a2 2 0 012 2v12l-5-3-5 3V5z" clip-rule="evenodd"/>
</symbol>
<symbol id="bi-bootstrap-fill" viewBox="0 0 20 20">
  <path fill-rule="evenodd" d="M6.002 2a4 4 0 00-4 4v8a4 4 0 004 4h8a4 4 0 004-4V6a4 4 0 00-4-4h-8zm1.06 12h3.475c1.804 0 2.888-.908 2.888-2.396 0-1.102-.761-1.916-1.904-2.034v-.1c.832-.14 1.482-.93 1.482-1.816 0-1.3-.955-2.11-2.543-2.11H7.063V14zm1.313-4.875V6.658h1.78c.974 0 1.542.457 1.542 1.237 0 .802-.604 1.23-1.764 1.23H8.375zm0 3.762h1.898c1.184 0 1.81-.48 1.81-1.377 0-.885-.65-1.348-1.886-1.348H8.375v2.725z" clip-rule="evenodd"/>
</symbol>
<symbol id="bi-brightness-fill-high" viewBox="0 0 20 20">
  <circle cx="10" cy="10" r="4"/>
  <path fill-rule="evenodd" d="M10 2a.5.5 0 01.5.5v2a.5.5 0 01-1 0v-2A.5.5 0 0110 2zm0 13a.5.5 0 01.5.5v2a.5.5 0 01-1 0v-2a.5.5 0 01.5-.5zm8-5a.5.5 0 01-.5.5h-2a.5.5 0 010-1h2a.5.5 0 01.5.5zM5 10a.5.5 0 01-.5.5h-2a.5.5 0 010-1h2a.5.5 0 01.5.5zm10.657-5.657a.5.5 0 010 .707l-1.414 1.414a.5.5 0 01-.707-.707l1.414-1.414a.5.5 0 01.707 0zm-9.193 9.193a.5.5 0 010 .707L5.05 15.657a.5.5 0 01-.707-.707l1.414-1.414a.5.5 0 01.707 0zm9.193 2.121a.5.5 0 01-.707 0l-1.414-1.414a.5.5 0 01.707-.707l1.414 1.414a.5.5 0 010 .707zM6.464 6.464a.5.5 0 01-.707 0L4.343 5.05a.5.5 0 01.707-.707l1.414 1.414a.5.5 0 010 .707z" clip-rule="evenodd"/>
</symbol>
<symbol id="bi-brightness-fill-low" viewBox="0 0 20 20">
  <circle cx="10" cy="10" r="4"/>
  <circle cx="10" cy="4.5" r=".5"/>
  <circle cx="10" cy="15.5" r=".5"/>
  <circle cx="15.5" cy="10" r=".5" transform="rotate(90 15.5 10)"/>
  <circle cx="4.5" cy="10" r=".5" transform="rotate(90 4.5 10)"/>
  <circle cx="13.889" cy="6.111" r=".5" transform="rotate(45 13.89 6.11)"/>
  <circle cx="6.111" cy="13.889" r=".5" transform="rotate(45 6.11 13.89)"/>
  <circle cx="13.889" cy="13.889" r=".5" transform="rotate(135 13.89 13.89)"/>
  <circle cx="6.111" cy="6.111" r=".5" transform="rotate(135 6.11 6.11)"/>
</symbol>
<symbol id="bi-bucket-fill" viewBox="0 0 20 20">
  <path fill-rule="evenodd" d="M10 3.5A4.5 4.5 0 005.5 8h-1a5.5 5.5 0 1111 0h-1A4.5 4.5 0 0010 3.5z" clip-rule="evenodd"/>
  <path fill-rule="evenodd" d="M3.61 7.687A.5.5 0 014 7.5h12a.5.5 0 01.488.608l-1.826 8.217a1.5 1.5 0 01-1.464 1.175H6.802a1.5 1.5 0 01-1.464-1.175L3.512 8.108a.5.5 0 01.098-.42z" clip-rule="evenodd"/>
</symbol>
<symbol id="bi-calendar-fill" viewBox="0 0 20 20">
  <path d="M2 4a2 2 0 012-2h12a2 2 0 012 2H2z"/>
  <path fill-rule="evenodd" d="M2 5h16v11a2 2 0 01-2 2H4a2 2 0 01-2-2V5zm6.5 4a1 1 0 100-2 1 1 0 000 2zm4-1a1 1 0 11-2 0 1 1 0 012 0zm2 1a1 1 0 100-2 1 1 0 000 2zm-8 2a1 1 0 11-2 0 1 1 0 012 0zm2 1a1 1 0 100-2 1 1 0 000 2zm4-1a1 1 0 11-2 0 1 1 0 012 0zm2 1a1 1 0 100-2 1 1 0 000 2zm-8 2a1 1 0 11-2 0 1 1 0 012 0zm2 1a1 1 0 100-2 1 1 0 000 2zm4-1a1 1 0 11-2 0 1 1 0 012 0z" clip-rule="evenodd"/>
</symbol>
<symbol id="bi-camera-video-fill" viewBox="0 0 20 20">
  <path d="M4.667 5h6.666C12.253 5 13 5.746 13 6.667v6.666c0 .92-.746 1.667-1.667 1.667H4.667C3.747 15 3 14.254 3 13.333V6.667C3 5.747 3.746 5 4.667 5z"/>
  <path d="M9.404 10.697l6.363 3.692c.54.313 1.233-.066 1.233-.697V6.308c0-.63-.692-1.01-1.233-.696L9.404 9.304a.802.802 0 000 1.393z"/>
</symbol>
<symbol id="bi-capslock-fill" viewBox="0 0 20 20">
  <path fill-rule="evenodd" d="M9.27 3.047a1 1 0 011.46 0l6.345 6.77c.6.638.146 1.683-.73 1.683H13.5v1a1 1 0 01-1 1h-5a1 1 0 01-1-1v-1H3.654c-.875 0-1.328-1.045-.73-1.684L9.27 3.047zM6.5 15.5a1 1 0 011-1h5a1 1 0 011 1v1a1 1 0 01-1 1h-5a1 1 0 01-1-1v-1z" clip-rule="evenodd"/>
</symbol>
<symbol id="bi-chat-fill" viewBox="0 0 20 20">
  <path fill-rule="evenodd" d="M7.5 14s.65.65.117 1.948A4.821 4.821 0 017 17c.449 0 .887-.067 1.307-.181C10.692 16.169 12.5 14 12.5 14a5.5 5.5 0 100-11h-5a5.5 5.5 0 100 11z" clip-rule="evenodd"/>
</symbol>
<symbol id="bi-circle-fill" viewBox="0 0 20 20">
  <circle cx="10" cy="10" r="8"/>
</symbol>
<symbol id="bi-clock-fill" viewBox="0 0 20 20">
  <path fill-rule="evenodd" d="M18 10a8 8 0 11-16 0 8 8 0 0116 0zM5.5 9.5h4v-5a.5.5 0 011 0V10a.5.5 0 01-.5.5H5.5a.5.5 0 010-1z" clip-rule="evenodd"/>
</symbol>
<symbol id="bi-cloud-fill" viewBox="0 0 20 20">
  <path fill-rule="evenodd" d="M5.5 15a3.5 3.5 0 11.59-6.95 5.002 5.002 0 119.804 1.98A2.5 2.5 0 0115.5 15h-10z" clip-rule="evenodd"/>
</symbol>
<symbol id="bi-cursor-fill" viewBox="0 0 20 20">
  <path fill-rule="evenodd" d="M16.081 4.182a.5.5 0 01.104.557l-5.657 12.727a.5.5 0 01-.917-.006L7.57 12.694l-4.766-2.042a.5.5 0 01-.006-.917L15.525 4.08a.5.5 0 01.556.103z" clip-rule="evenodd"/>
</symbol>
<symbol id="bi-display-fill" viewBox="0 0 20 20">
  <path d="M7.75 15.5c.167-.333.25-.833.25-1.5h4c0 .667.083 1.167.25 1.5H13a.5.5 0 010 1H7a.5.5 0 010-1h.75z"/>
  <path fill-rule="evenodd" d="M15.991 5H4c-.325 0-.502.078-.602.145a.758.758 0 00-.254.302A1.46 1.46 0 003 6.01V12c0 .325.078.502.145.602.07.105.17.188.302.254a1.464 1.464 0 00.538.143L4.01 13H16c.325 0 .502-.078.602-.145a.758.758 0 00.254-.302 1.464 1.464 0 00.143-.538L17 11.99V6c0-.325-.078-.502-.145-.602a.757.757 0 00-.302-.254A1.46 1.46 0 0015.99 5zM16 4H4C2 4 2 6 2 6v6c0 2 2 2 2 2h12c2 0 2-2 2-2V6c0-2-2-2-2-2z" clip-rule="evenodd"/>
  <path d="M4 6h12v6H4z"/>
</symbol>
<symbol id="bi-eject-fill" viewBox="0 0 20 20">
  <path fill-rule="evenodd" d="M9.27 3.047a1 1 0 011.46 0l6.345 6.77c.6.638.146 1.683-.73 1.683H3.656c-.876 0-1.33-1.045-.73-1.684L9.27 3.047zM2.5 13.5a1 1 0 011-1h13a1 1 0 011 1v1a1 1 0 01-1 1h-13a1 1 0 01-1-1v-1z" clip-rule="evenodd"/>
</symbol>
<symbol id="bi-envelope-fill" viewBox="0 0 20 20">
  <path d="M2.05 5.555L10 10.414l7.95-4.859A2 2 0 0016 4H4a2 2 0 00-1.95 1.555zM18 6.697l-5.875 3.59L18 13.743V6.697zm-.168 8.108l-6.675-3.926-1.157.707-1.157-.707-6.675 3.926A2 2 0 004 16h12a2 2 0 001.832-1.195zM2 13.743l5.875-3.456L2 6.697v7.046z"/>
</symbol>
<symbol id="bi-envelope-open-fill" viewBox="0 0 20 20">
  <path fill-rule="evenodd" d="M10.941 2.435a2 2 0 00-1.882 0l-6 3.2A2 2 0 002 7.4v.125l8 4.889 8-4.889V7.4a2 2 0 00-1.059-1.765l-6-3.2zM18 8.697l-5.875 3.59L18 15.743V8.697zm-.168 8.108l-6.586-3.874-.088-.052-.897.548-.261.159-.26-.16-.897-.547-.09.052-6.585 3.874A2 2 0 004 18h12a2 2 0 001.832-1.195zM2 15.743l5.875-3.456L2 8.697v7.046z" clip-rule="evenodd"/>
</symbol>
<symbol id="bi-eye-fill" viewBox="0 0 20 20">
  <path d="M12.5 10a2.5 2.5 0 11-5 0 2.5 2.5 0 015 0z"/>
  <path fill-rule="evenodd" d="M2 10s3-5.5 8-5.5 8 5.5 8 5.5-3 5.5-8 5.5S2 10 2 10zm8 3.5a3.5 3.5 0 100-7 3.5 3.5 0 000 7z" clip-rule="evenodd"/>
</symbol>
<symbol id="bi-eye-slash-fill" viewBox="0 0 20 20">
  <path d="M12.79 14.912l-1.614-1.615a3.5 3.5 0 01-4.474-4.474l-2.06-2.06C2.938 8.278 2 10 2 10s3 5.5 8 5.5a7.027 7.027 0 002.79-.588zM7.21 5.088A7.028 7.028 0 0110 4.5c5 0 8 5.5 8 5.5s-.939 1.72-2.641 3.238l-2.062-2.062a3.5 3.5 0 00-4.474-4.474L7.21 5.088z"/>
  <path d="M7.525 9.646a2.5 2.5 0 002.829 2.829l-2.83-2.829zm4.95.708l-2.829-2.83a2.5 2.5 0 012.829 2.829z"/>
  <path fill-rule="evenodd" d="M15.646 16.354l-12-12 .708-.708 12 12-.708.707z" clip-rule="evenodd"/>
</symbol>
<symbol id="bi-flag-fill" viewBox="0 0 20 20">
  <path fill-rule="evenodd" d="M5.5 3a.5.5 0 01.5.5v13a.5.5 0 01-1 0v-13a.5.5 0 01.5-.5z" clip-rule="evenodd"/>
  <path fill-rule="evenodd" d="M5.762 4.558C6.735 3.909 7.348 3.5 8.5 3.5c.653 0 1.139.325 1.495.562l.032.022c.392.26.646.416.973.416.168 0 .356-.042.587-.126.187-.068.376-.153.593-.25.058-.027.117-.053.18-.08.57-.255 1.278-.544 2.14-.544a.5.5 0 01.5.5v6a.5.5 0 01-.5.5c-.638 0-1.18.21-1.734.457l-.159.07c-.22.1-.453.205-.678.287A2.718 2.718 0 0111 11.5c-.653 0-1.139-.325-1.495-.563l-.032-.021c-.391-.26-.646-.416-.973-.416-.833 0-1.218.246-2.223.916A.5.5 0 015.5 11V5a.5.5 0 01.223-.416l.04-.026z" clip-rule="evenodd"/>
</symbol>
<symbol id="bi-folder-fill" viewBox="0 0 20 20">
  <path fill-rule="evenodd" d="M11.828 5h3.982a2 2 0 011.992 2.181l-.637 7A2 2 0 0115.174 16H4.826a2 2 0 01-1.991-1.819l-.637-7a1.99 1.99 0 01.342-1.31L2.5 5a2 2 0 012-2h3.672a2 2 0 011.414.586l.828.828A2 2 0 0011.828 5zm-8.322.12C3.72 5.042 3.95 5 4.19 5h5.396l-.707-.707A1 1 0 008.172 4H4.5a1 1 0 00-1 .981l.006.139z" clip-rule="evenodd"/>
</symbol>
<symbol id="bi-folder-symlink-fill" viewBox="0 0 20 20">
  <path fill-rule="evenodd" d="M15.81 5h-3.982a2 2 0 01-1.414-.586l-.828-.828A2 2 0 008.172 3H4.5a2 2 0 00-2 2l.04.87a1.99 1.99 0 00-.342 1.311l.637 7A2 2 0 004.826 16h10.348a2 2 0 001.991-1.819l.637-7A2 2 0 0015.81 5zM4.19 5c-.24 0-.47.042-.684.12L3.5 4.98a1 1 0 011-.98h3.672a1 1 0 01.707.293L9.586 5H4.19zm9.608 5.271l-3.182 1.97c-.27.166-.616-.036-.616-.372V11.1s-2.571-.3-4 2.4c.571-4.8 3.143-4.8 4-4.8v-.769c0-.336.346-.538.616-.371l3.182 1.969c.27.166.27.576 0 .742z" clip-rule="evenodd"/>
</symbol>
<symbol id="bi-forward-fill" viewBox="0 0 20 20">
  <path d="M11.77 14.11l4.012-2.953a.647.647 0 000-1.114L11.771 7.09a.644.644 0 00-.971.557V8.65H4v3.9h6.8v1.003c0 .505.545.808.97.557z"/>
</symbol>
<symbol id="bi-gear-fill" viewBox="0 0 20 20">
  <path fill-rule="evenodd" d="M11.405 3.05c-.413-1.4-2.397-1.4-2.81 0l-.1.34a1.464 1.464 0 01-2.105.872l-.31-.17c-1.283-.698-2.686.705-1.987 1.987l.169.311c.446.82.023 1.841-.872 2.105l-.34.1c-1.4.413-1.4 2.397 0 2.81l.34.1a1.464 1.464 0 01.872 2.105l-.17.31c-.698 1.283.705 2.686 1.987 1.987l.311-.169a1.464 1.464 0 012.105.872l.1.34c.413 1.4 2.397 1.4 2.81 0l.1-.34a1.464 1.464 0 012.105-.872l.31.17c1.283.698 2.686-.705 1.987-1.987l-.169-.311a1.464 1.464 0 01.872-2.105l.34-.1c1.4-.413 1.4-2.397 0-2.81l-.34-.1a1.464 1.464 0 01-.872-2.105l.17-.31c.698-1.283-.705-2.686-1.987-1.987l-.311.169a1.464 1.464 0 01-2.105-.872l-.1-.34zM10 12.93a2.929 2.929 0 100-5.858 2.929 2.929 0 000 5.858z" clip-rule="evenodd"/>
</symbol>
<symbol id="bi-grid-fill" viewBox="0 0 20 20">
  <rect width="6" height="6" x="3.5" y="10.5" rx="1"/>
  <rect width="6" height="6" x="10.5" y="10.5" rx="1"/>
  <rect width="6" height="6" x="10.5" y="3.5" rx="1"/>
  <rect width="6" height="6" x="3.5" y="3.5" rx="1"/>
</symbol>
<symbol id="bi-heart-fill" viewBox="0 0 20 20">
  <path fill-rule="evenodd" d="M10 3.314C14.438-1.248 25.534 6.735 10 17-5.534 6.736 5.562-1.248 10 3.314z" clip-rule="evenodd"/>
</symbol>
<symbol id="bi-house-fill" viewBox="0 0 20 20">
  <path d="M8.5 12.995V16.5a.5.5 0 01-.5.5H4a.5.5 0 01-.5-.5v-7a.5.5 0 01.146-.354l6-6a.5.5 0 01.708 0l6 6a.5.5 0 01.146.354v7a.5.5 0 01-.5.5h-4a.5.5 0 01-.5-.5V13c0-.25-.25-.5-.5-.5H9c-.25 0-.5.25-.5.495z"/>
  <path fill-rule="evenodd" d="M15 4.5V8l-2-2V4.5a.5.5 0 01.5-.5h1a.5.5 0 01.5.5z" clip-rule="evenodd"/>
</symbol>
<symbol id="bi-image-fill" viewBox="0 0 20 20">
  <path fill-rule="evenodd" d="M2.002 5a2 2 0 012-2h12a2 2 0 012 2v10a2 2 0 01-2 2h-12a2 2 0 01-2-2V5zm1 9l2.646-2.354a.5.5 0 01.63-.062l2.66 1.773 3.71-3.71a.5.5 0 01.577-.094l3.777 1.947V15a1 1 0 01-1 1h-12a1 1 0 01-1-1v-1zm5-6.5a1.5 1.5 0 11-3 0 1.5 1.5 0 013 0z" clip-rule="evenodd"/>
</symbol>
<symbol id="bi-inbox-fill" viewBox="0 0 20 20">
  <path fill-rule="evenodd" d="M5.81 6.063A1.5 1.5 0 016.98 5.5h6.04a1.5 1.5 0 011.17.563l3.7 4.625a.5.5 0 11-.78.624l-3.7-4.624a.5.5 0 00-.39-.188H6.98a.5.5 0 00-.39.188l-3.7 4.624a.5.5 0 11-.78-.624l3.7-4.625z" clip-rule="evenodd"/>
  <path fill-rule="evenodd" d="M2.125 10.67a.5.5 0 01.375-.17h5a.5.5 0 01.5.5c0 .828.625 2 2 2s2-1.172 2-2a.5.5 0 01.5-.5h5a.5.5 0 01.496.562l-.39 3.124a1.5 1.5 0 01-1.489 1.314H3.883a1.5 1.5 0 01-1.489-1.314l-.39-3.124a.5.5 0 01.121-.393z" clip-rule="evenodd"/>
</symbol>
<symbol id="bi-inboxes-fill" viewBox="0 0 20 20">
  <path fill-rule="evenodd" d="M2.125 13.17A.5.5 0 012.5 13H8a.5.5 0 01.5.5 1.5 1.5 0 003 0 .5.5 0 01.5-.5h5.5a.5.5 0 01.496.562l-.39 3.124A1.5 1.5 0 0116.117 18H3.883a1.5 1.5 0 01-1.489-1.314l-.39-3.124a.5.5 0 01.121-.393zM5.81 2.563A1.5 1.5 0 016.98 2h6.04a1.5 1.5 0 011.17.563l3.7 4.625a.5.5 0 11-.78.624l-3.7-4.624A.5.5 0 0013.02 3H6.98a.5.5 0 00-.39.188l-3.7 4.624a.5.5 0 11-.78-.624l3.7-4.625z" clip-rule="evenodd"/>
  <path fill-rule="evenodd" d="M2.125 7.17A.5.5 0 012.5 7H8a.5.5 0 01.5.5 1.5 1.5 0 003 0A.5.5 0 0112 7h5.5a.5.5 0 01.496.562l-.39 3.124A1.5 1.5 0 0116.117 12H3.883a1.5 1.5 0 01-1.489-1.314l-.39-3.124a.5.5 0 01.121-.393z" clip-rule="evenodd"/>
</symbol>
<symbol id="bi-info-fill" viewBox="0 0 20 20">
  <path fill-rule="evenodd" d="M10 18a8 8 0 100-16 8 8 0 000 16zm.93-9.412l-2.29.287-.082.38.45.083c.294.07.352.176.288.469l-.738 3.468c-.194.897.105 1.319.808 1.319.545 0 1.178-.252 1.465-.598l.088-.416c-.2.176-.492.246-.686.246-.275 0-.375-.193-.304-.533l1.002-4.705zM10 7.5a1 1 0 100-2 1 1 0 000 2z" clip-rule="evenodd"/>
</symbol>
<symbol id="bi-info-square-fill" viewBox="0 0 20 20">
  <path fill-rule="evenodd" d="M2 4a2 2 0 012-2h12a2 2 0 012 2v12a2 2 0 01-2 2H4a2 2 0 01-2-2V4zm8.93 4.588l-2.29.287-.082.38.45.083c.294.07.352.176.288.469l-.738 3.468c-.194.897.105 1.319.808 1.319.545 0 1.178-.252 1.465-.598l.088-.416c-.2.176-.492.246-.686.246-.275 0-.375-.193-.304-.533l1.002-4.705zM10 7.5a1 1 0 100-2 1 1 0 000 2z" clip-rule="evenodd"/>
</symbol>
<symbol id="bi-kanban-fill" viewBox="0 0 20 20">
  <path fill-rule="evenodd" d="M4.5 2a2 2 0 00-2 2v12a2 2 0 002 2h11a2 2 0 002-2V4a2 2 0 00-2-2h-11zm5 2a1 1 0 00-1 1v3a1 1 0 001 1h1a1 1 0 001-1V5a1 1 0 00-1-1h-1zm-5 1a1 1 0 011-1h1a1 1 0 011 1v7a1 1 0 01-1 1h-1a1 1 0 01-1-1V5zm9-1a1 1 0 00-1 1v10a1 1 0 001 1h1a1 1 0 001-1V5a1 1 0 00-1-1h-1z" clip-rule="evenodd"/>
</symbol>
<symbol id="bi-lock-fill" viewBox="0 0 20 20">
  <rect width="11" height="9" x="4.5" y="8" rx="2"/>
  <path fill-rule="evenodd" d="M6.5 5a3.5 3.5 0 117 0v3h-1V5a2.5 2.5 0 00-5 0v3h-1V5z" clip-rule="evenodd"/>
</symbol>
<symbol id="bi-music-player-fill" viewBox="0 0 20 20">
  <path fill-rule="evenodd" d="M4 4a2 2 0 012-2h8a2 2 0 012 2v12a2 2 0 01-2 2H6a2 2 0 01-2-2V4zm2 1a1 1 0 011-1h6a1 1 0 011 1v2.5a1 1 0 01-1 1H7a1 1 0 01-1-1V5zm7 8a3 3 0 11-6 0 3 3 0 016 0z" clip-rule="evenodd"/>
  <circle cx="10" cy="13" r="1"/>
</symbol>
<symbol id="bi-pause-fill" viewBox="0 0 20 20">
  <path d="M7.5 5.5A1.5 1.5 0 019 7v6a1.5 1.5 0 01-3 0V7a1.5 1.5 0 011.5-1.5zm5 0A1.5 1.5 0 0114 7v6a1.5 1.5 0 01-3 0V7a1.5 1.5 0 011.5-1.5z"/>
</symbol>
<symbol id="bi-people-fill" viewBox="0 0 20 20">
  <path fill-rule="evenodd" d="M9 16s-1 0-1-1 1-4 5-4 5 3 5 4-1 1-1 1H9zm4-6a3 3 0 100-6 3 3 0 000 6zm-5.784 6A2.238 2.238 0 017 15c0-1.355.68-2.75 1.936-3.72A6.325 6.325 0 007 11c-4 0-5 3-5 4s1 1 1 1h4.216zM6.5 10a2.5 2.5 0 100-5 2.5 2.5 0 000 5z" clip-rule="evenodd"/>
</symbol>
<symbol id="bi-person-fill" viewBox="0 0 20 20">
  <path fill-rule="evenodd" d="M5 16s-1 0-1-1 1-4 6-4 6 3 6 4-1 1-1 1H5zm5-6a3 3 0 100-6 3 3 0 000 6z" clip-rule="evenodd"/>
</symbol>
<symbol id="bi-pie-chart-fill" viewBox="0 0 20 20">
  <path d="M17.985 10.5h-7.778l-5.5 5.5a8 8 0 0013.277-5.5zM4 15.292A8 8 0 019.5 2.015v7.778l-5.5 5.5zm6.5-13.277V9.5h7.485A8.001 8.001 0 0010.5 2.015z"/>
</symbol>
<symbol id="bi-play-fill" viewBox="0 0 20 20">
  <path d="M13.596 10.697l-6.363 3.692c-.54.313-1.233-.066-1.233-.697V6.308c0-.63.692-1.01 1.233-.696l6.363 3.692a.802.802 0 010 1.393z"/>
</symbol>
<symbol id="bi-question-fill" viewBox="0 0 20 20">
  <path fill-rule="evenodd" d="M18 10a8 8 0 11-16 0 8 8 0 0116 0zM8.57 8.033H7.25C7.22 6.147 8.68 5.5 10.006 5.5c1.397 0 2.673.73 2.673 2.24 0 1.08-.635 1.594-1.244 2.057-.737.559-1.01.768-1.01 1.486v.355H9.117l-.007-.463c-.038-.927.495-1.498 1.168-1.987.59-.444.965-.736.965-1.371 0-.825-.628-1.168-1.314-1.168-.901 0-1.358.603-1.358 1.384zm1.251 6.443c-.584 0-1.009-.394-1.009-.927 0-.552.425-.94 1.01-.94.609 0 1.028.388 1.028.94 0 .533-.42.927-1.029.927z" clip-rule="evenodd"/>
</symbol>
<symbol id="bi-question-square-fill" viewBox="0 0 20 20">
  <path fill-rule="evenodd" d="M4 2a2 2 0 00-2 2v12a2 2 0 002 2h12a2 2 0 002-2V4a2 2 0 00-2-2H4zm4.57 6.033H7.25C7.22 6.147 8.68 5.5 10.006 5.5c1.397 0 2.673.73 2.673 2.24 0 1.08-.635 1.594-1.244 2.057-.737.559-1.01.768-1.01 1.486v.355H9.117l-.007-.463c-.038-.927.495-1.498 1.168-1.987.59-.444.965-.736.965-1.371 0-.825-.628-1.168-1.314-1.168-.901 0-1.358.603-1.358 1.384zm1.251 6.443c-.584 0-1.009-.394-1.009-.927 0-.552.425-.94 1.01-.94.609 0 1.028.388 1.028.94 0 .533-.42.927-1.029.927z" clip-rule="evenodd"/>
</symbol>
<symbol id="bi-reply-all-fill" viewBox="0 0 20 20">
  <path d="M10.079 13.9l4.568-3.281a.719.719 0 000-1.238L10.079 6.1A.716.716 0 009 6.719V8c-1.5 0-6 0-7 8 2.5-4.5 7-4 7-4v1.281c0 .56.606.898 1.079.62z"/>
  <path fill-rule="evenodd" d="M12.868 6.293a.5.5 0 01.7-.106l3.993 2.94a1.147 1.147 0 010 1.946l-3.994 2.94a.5.5 0 11-.593-.805l4.012-2.954a.523.523 0 01.042-.028.147.147 0 000-.252.512.512 0 01-.042-.028l-4.012-2.954a.5.5 0 01-.106-.699z" clip-rule="evenodd"/>
</symbol>
<symbol id="bi-reply-fill" viewBox="0 0 20 20">
  <path d="M11.079 13.9l4.568-3.281a.719.719 0 000-1.238L11.079 6.1A.716.716 0 0010 6.719V8c-1.5 0-6 0-7 8 2.5-4.5 7-4 7-4v1.281c0 .56.606.898 1.079.62z"/>
</symbol>
<symbol id="bi-shield-fill" viewBox="0 0 20 20">
  <path fill-rule="evenodd" d="M7.187 3.025C8.23 2.749 9.337 2.5 10 2.5c.662 0 1.77.249 2.813.525 1.066.282 2.14.614 2.772.815.528.168.926.623 1.003 1.184.573 4.197-.756 7.307-2.367 9.365a11.192 11.192 0 01-2.418 2.3 6.942 6.942 0 01-1.007.586c-.27.124-.558.225-.796.225s-.527-.101-.796-.225a6.908 6.908 0 01-1.007-.586 11.192 11.192 0 01-2.418-2.3c-1.611-2.058-2.94-5.168-2.367-9.365A1.454 1.454 0 014.415 3.84a61.113 61.113 0 012.772-.815z" clip-rule="evenodd"/>
</symbol>
<symbol id="bi-shield-lock-fill" viewBox="0 0 20 20">
  <path fill-rule="evenodd" d="M7.187 3.025C8.23 2.749 9.337 2.5 10 2.5c.662 0 1.77.249 2.813.525a61.1 61.1 0 012.772.815c.527.168.926.623 1.003 1.184.573 4.197-.756 7.307-2.368 9.365a11.19 11.19 0 01-2.417 2.3 6.942 6.942 0 01-1.007.586c-.27.124-.558.225-.796.225s-.527-.101-.796-.225a6.908 6.908 0 01-1.007-.586 11.192 11.192 0 01-2.418-2.3c-1.611-2.058-2.94-5.168-2.367-9.365A1.454 1.454 0 014.415 3.84a61.105 61.105 0 012.772-.815zm3.328 6.884a1.5 1.5 0 10-1.06-.011.5.5 0 00-.044.136l-.333 2a.5.5 0 00.493.582h.835a.5.5 0 00.493-.585l-.347-2a.501.501 0 00-.037-.122z" clip-rule="evenodd"/>
</symbol>
<symbol id="bi-shift-fill" viewBox="0 0 20 20">
  <path fill-rule="evenodd" d="M9.27 4.047a1 1 0 011.46 0l6.345 6.769c.6.639.146 1.684-.73 1.684H13.5v3a1 1 0 01-1 1h-5a1 1 0 01-1-1v-3H3.654c-.875 0-1.328-1.045-.73-1.684L9.27 4.047z" clip-rule="evenodd"/>
</symbol>
<symbol id="bi-skip-backward-fill" viewBox="0 0 20 20">
  <path fill-rule="evenodd" d="M2.50 5.5a.5.5 0 01.5.5v8a.5.5 0 01-1 0V6a.5.5 0 01.5-.5z" clip-rule="evenodd"/>
  <path d="M2.904 10.697l6.363 3.692c.54.313 1.233-.066 1.233-.697V6.308c0-.63-.693-1.01-1.233-.696L2.904 9.304a.802.802 0 000 1.393z"/>
  <path d="M10.404 10.697l6.363 3.692c.54.313 1.233-.066 1.233-.697V6.308c0-.63-.692-1.01-1.233-.696l-6.363 3.692a.802.802 0 000 1.393z"/>
</symbol>

<symbol id="bi-skip-end-fill" viewBox="0 0 20 20">
  <path fill-rule="evenodd" d="M14 5.5a.5.5 0 01.5.5v8a.5.5 0 01-1 0V6a.5.5 0 01.5-.5z" clip-rule="evenodd"/>
  <path d="M13.596 10.697l-6.363 3.692c-.54.313-1.233-.066-1.233-.697V6.308c0-.63.692-1.01 1.233-.696l6.363 3.692a.802.802 0 010 1.393z"/>
</symbol>

<symbol id="bi-skip-forward-fill" viewBox="0 0 20 20">
  <path fill-rule="evenodd" d="M17.55 5.5a.5.5 0 01.5.5v8a.5.5 0 01-1 0V6a.5.5 0 01.5-.5z" clip-rule="evenodd"/>
  <path d="M9.596 10.697l-6.363 3.692c-.54.313-1.233-.066-1.233-.697V6.308c0-.63.692-1.01 1.233-.696l6.363 3.692a.802.802 0 010 1.393z"/>
  <path d="M17.096 10.697l-6.363 3.692c-.54.313-1.233-.066-1.233-.697V6.308c0-.63.693-1.01 1.233-.696l6.363 3.692a.802.802 0 010 1.393z"/>
</symbol>

<symbol id="bi-skip-start-fill" viewBox="0 0 20 20">
  <path fill-rule="evenodd" d="M6.5 5.5a.5.5 0 01.5.5v8a.5.5 0 01-1 0V6a.5.5 0 01.5-.5z" clip-rule="evenodd"/>
  <path d="M6.903 10.697l6.364 3.692c.54.313 1.232-.066 1.232-.697V6.308c0-.63-.692-1.01-1.232-.696L6.903 9.304a.802.802 0 000 1.393z"/>
</symbol>

<symbol id="bi-square-fill" viewBox="0 0 20 20">
  <rect width="16" height="16" x="2" y="2" rx="2"/>
</symbol>
<symbol id="bi-star-fill" viewBox="0 0 20 20">
  <path d="M5.612 17.443c-.386.198-.824-.149-.746-.592l.83-4.73-3.522-3.356c-.33-.314-.16-.888.282-.95l4.898-.696 2.184-4.327c.197-.39.73-.39.927 0l2.184 4.327 4.898.696c.441.062.612.636.283.95l-3.523 3.356.83 4.73c.078.443-.36.79-.746.592L10 15.187l-4.389 2.256z"/>
</symbol>
<symbol id="bi-stop-fill" viewBox="0 0 20 20">
  <path d="M7 5.5h6A1.5 1.5 0 0114.5 7v6a1.5 1.5 0 01-1.5 1.5H7A1.5 1.5 0 015.5 13V7A1.5 1.5 0 017 5.5z"/>
</symbol>
<symbol id="bi-stopwatch-fill" viewBox="0 0 20 20">
  <path fill-rule="evenodd" d="M7.5 2.5A.5.5 0 018 2h4a.5.5 0 010 1h-1v1.07A7.002 7.002 0 0110 18 7 7 0 019 4.07V3H8a.5.5 0 01-.5-.5zm3 4.5a.5.5 0 00-1 0v3.5h-3a.5.5 0 000 1H10a.5.5 0 00.5-.5V7z" clip-rule="evenodd"/>
</symbol>
<symbol id="bi-tag-fill" viewBox="0 0 20 20">
  <path fill-rule="evenodd" d="M4 3a1 1 0 00-1 1v4.586a1 1 0 00.293.707l7 7a1 1 0 001.414 0l4.586-4.586a1 1 0 000-1.414l-7-7A1 1 0 008.586 3H4zm4 3.5a1.5 1.5 0 11-3 0 1.5 1.5 0 013 0z" clip-rule="evenodd"/>
</symbol>
<symbol id="bi-terminal-fill" viewBox="0 0 20 20">
  <path fill-rule="evenodd" d="M2 5a2 2 0 012-2h12a2 2 0 012 2v10a2 2 0 01-2 2H4a2 2 0 01-2-2V5zm9.5 5.5h-3a.5.5 0 000 1h3a.5.5 0 000-1zm-6.354-.354L6.793 8.5 5.146 6.854a.5.5 0 11.708-.708l2 2a.5.5 0 010 .708l-2 2a.5.5 0 01-.708-.708z" clip-rule="evenodd"/>
</symbol>
<symbol id="bi-trash-fill" viewBox="0 0 20 20">
  <path fill-rule="evenodd" d="M4.5 3a1 1 0 00-1 1v1a1 1 0 001 1H5v9a2 2 0 002 2h6a2 2 0 002-2V6h.5a1 1 0 001-1V4a1 1 0 00-1-1H12a1 1 0 00-1-1H9a1 1 0 00-1 1H4.5zm3 4a.5.5 0 01.5.5v7a.5.5 0 01-1 0v-7a.5.5 0 01.5-.5zM10 7a.5.5 0 01.5.5v7a.5.5 0 01-1 0v-7A.5.5 0 0110 7zm3 .5a.5.5 0 00-1 0v7a.5.5 0 001 0v-7z" clip-rule="evenodd"/>
</symbol>
<symbol id="bi-triangle-fill" viewBox="0 0 20 20">
  <path fill-rule="evenodd" d="M9.022 3.566a1.13 1.13 0 011.96 0l6.857 11.667c.457.778-.092 1.767-.98 1.767H3.144c-.889 0-1.437-.99-.98-1.767L9.022 3.566z" clip-rule="evenodd"/>
</symbol>
<symbol id="bi-tv-fill" viewBox="0 0 20 20">
  <path fill-rule="evenodd" d="M4.5 15.5A.5.5 0 015 15h10a.5.5 0 010 1H5a.5.5 0 01-.5-.5zM4 4h12s2 0 2 2v6s0 2-2 2H4s-2 0-2-2V6s0-2 2-2z" clip-rule="evenodd"/>
</symbol>
<symbol id="bi-unlock-fill" viewBox="0 0 20 20">
  <path d="M2.5 10a2 2 0 012-2h7a2 2 0 012 2v5a2 2 0 01-2 2h-7a2 2 0 01-2-2v-5z"/>
  <path fill-rule="evenodd" d="M10.5 5a3.5 3.5 0 117 0v3h-1V5a2.5 2.5 0 00-5 0v3h-1V5z" clip-rule="evenodd"/>
</symbol>
<symbol id="bi-volume-down-fill" viewBox="0 0 20 20">
  <path fill-rule="evenodd" d="M10.717 5.55A.5.5 0 0111 6v8a.5.5 0 01-.812.39L7.825 12.5H5.5A.5.5 0 015 12V8a.5.5 0 01.5-.5h2.325l2.363-1.89a.5.5 0 01.529-.06z" clip-rule="evenodd"/>
  <path d="M12.707 13.182A4.486 4.486 0 0014.025 10a4.486 4.486 0 00-1.318-3.182L12 7.525A3.489 3.489 0 0113.025 10c0 .966-.392 1.841-1.025 2.475l.707.707z"/>
</symbol>
<symbol id="bi-volume-mute-fill" viewBox="0 0 20 20">
  <path fill-rule="evenodd" d="M8.717 5.55A.5.5 0 019 6v8a.5.5 0 01-.812.39L5.825 12.5H3.5A.5.5 0 013 12V8a.5.5 0 01.5-.5h2.325l2.363-1.89a.5.5 0 01.529-.06zm7.137 1.596a.5.5 0 010 .708l-4 4a.5.5 0 01-.708-.708l4-4a.5.5 0 01.708 0z" clip-rule="evenodd"/>
  <path fill-rule="evenodd" d="M11.146 7.146a.5.5 0 000 .708l4 4a.5.5 0 00.708-.708l-4-4a.5.5 0 00-.708 0z" clip-rule="evenodd"/>
</symbol>
<symbol id="bi-volume-up-fill" viewBox="0 0 20 20">
  <path d="M13.536 16.01a8.473 8.473 0 002.49-6.01 8.473 8.473 0 00-2.49-6.01l-.708.707A7.476 7.476 0 0115.025 10c0 2.071-.84 3.946-2.197 5.303l.708.707z"/>
  <path d="M12.121 14.596A6.48 6.48 0 0014.025 10a6.48 6.48 0 00-1.904-4.596l-.707.707A5.483 5.483 0 0113.025 10a5.483 5.483 0 01-1.61 3.89l.706.706z"/>
  <path d="M10.707 13.182A4.486 4.486 0 0012.025 10a4.486 4.486 0 00-1.318-3.182L10 7.525A3.489 3.489 0 0111.025 10c0 .966-.392 1.841-1.025 2.475l.707.707z"/>
  <path fill-rule="evenodd" d="M8.717 5.55A.5.5 0 019 6v8a.5.5 0 01-.812.39L5.825 12.5H3.5A.5.5 0 013 12V8a.5.5 0 01.5-.5h2.325l2.363-1.89a.5.5 0 01.529-.06z" clip-rule="evenodd"/>
</symbol>
<symbol id="bi-x-circle-fill" viewBox="0 0 20 20">
  <path fill-rule="evenodd" d="M10 18a8 8 0 100-16 8 8 0 000 16zM7.354 6.646L10 9.293l2.646-2.647a.5.5 0 01.708.708L10.707 10l2.647 2.646a.5.5 0 01-.708.708L10 10.707l-2.646 2.647a.5.5 0 01-.708-.708L9.293 10 6.646 7.354a.5.5 0 11.708-.708z" clip-rule="evenodd"/>
</symbol>
<symbol id="bi-x-octagon-fill" viewBox="0 0 20 20">
  <path fill-rule="evenodd" d="M13.46 2.146A.5.5 0 0013.107 2H6.893a.5.5 0 00-.353.146L2.146 6.54A.5.5 0 002 6.893v6.214a.5.5 0 00.146.353l4.394 4.394a.5.5 0 00.353.146h6.214a.5.5 0 00.353-.146l4.394-4.394a.5.5 0 00.146-.353V6.893a.5.5 0 00-.146-.353L13.46 2.146zm-6.106 4.5L10 9.293l2.646-2.647a.5.5 0 01.708.708L10.707 10l2.647 2.646a.5.5 0 01-.708.708L10 10.707l-2.646 2.647a.5.5 0 01-.708-.708L9.293 10 6.646 7.354a.5.5 0 11.708-.708z" clip-rule="evenodd"/>
</symbol>
<symbol id="bi-x-square-fill" viewBox="0 0 20 20">
  <path fill-rule="evenodd" d="M4 2a2 2 0 00-2 2v12a2 2 0 002 2h12a2 2 0 002-2V4a2 2 0 00-2-2H4zm3.354 4.646L10 9.293l2.646-2.647a.5.5 0 01.708.708L10.707 10l2.647 2.646a.5.5 0 01-.708.708L10 10.707l-2.646 2.647a.5.5 0 01-.708-.708L9.293 10 6.646 7.354a.5.5 0 11.708-.708z" clip-rule="evenodd"/>
</symbol>
</svg>