<svg xmlns="http://www.w3.org/2000/svg">
<symbol id="bi-alarm-fill" viewBox="0 0 16 16">
  <path fill-rule="evenodd" d="M5.5.5A.5.5 0 0 1 6 0h4a.5.5 0 0 1 0 1H9v1.07a7.002 7.002 0 0 1 3.537 12.26l.817.816a.5.5 0 0 1-.708.708l-.924-.925A6.967 6.967 0 0 1 8 16a6.967 6.967 0 0 1-3.722-1.07l-.924.924a.5.5 0 0 1-.708-.708l.817-.816A7.002 7.002 0 0 1 7 2.07V1H5.999a.5.5 0 0 1-.5-.5zM.86 5.387A2.5 2.5 0 1 1 4.387 1.86 8.035 8.035 0 0 0 .86 5.387zM13.5 1c-.753 0-1.429.333-1.887.86a8.035 8.035 0 0 1 3.527 3.527A2.5 2.5 0 0 0 13.5 1zm-5 4a.5.5 0 0 0-1 0v3.882l-1.447 2.894a.5.5 0 1 0 .894.448l1.5-3A.5.5 0 0 0 8.5 9V5z" clip-rule="evenodd"/>
</symbol>
<symbol id="bi-archive-fill" viewBox="0 0 16 16">
  <path fill-rule="evenodd" d="M12.643 15C13.979 15 15 13.845 15 12.5V5H1v7.5C1 13.845 2.021 15 3.357 15h9.286zM6 7a.5.5 0 0 0 0 1h4a.5.5 0 0 0 0-1H6zM.8 1a.8.8 0 0 0-.8.8V3a.8.8 0 0 0 .8.8h14.4A.8.8 0 0 0 16 3V1.8a.8.8 0 0 0-.8-.8H.8z" clip-rule="evenodd"/>
</symbol>
<symbol id="bi-aspect-ratio-fill" viewBox="0 0 16 16">
  <path fill-rule="evenodd" d="M1.5 2A1.5 1.5 0 0 0 0 3.5v9A1.5 1.5 0 0 0 1.5 14h13a1.5 1.5 0 0 0 1.5-1.5v-9A1.5 1.5 0 0 0 14.5 2h-13zm1 2a.5.5 0 0 0-.5.5v3a.5.5 0 0 0 1 0V5h2.5a.5.5 0 0 0 0-1h-3zm11 8a.5.5 0 0 0 .5-.5v-3a.5.5 0 0 0-1 0V11h-2.5a.5.5 0 0 0 0 1h3z" clip-rule="evenodd"/>
</symbol>
<symbol id="bi-award-fill" viewBox="0 0 16 16">
  <path d="M8 0l1.669.864 1.858.282.842 1.68 1.337 1.32L13.4 6l.306 1.854-1.337 1.32-.842 1.68-1.858.282L8 12l-1.669-.864-1.858-.282-.842-1.68-1.337-1.32L2.6 6l-.306-1.854 1.337-1.32.842-1.68L6.331.864 8 0z"/>
  <path d="M4 11.794V16l4-1 4 1v-4.206l-2.018.306L8 13.126 6.018 12.1 4 11.794z"/>
</symbol>
<symbol id="bi-backspace-fill" viewBox="0 0 16 16">
  <path fill-rule="evenodd" d="M15.683 3a2 2 0 0 0-2-2h-7.08a2 2 0 0 0-1.519.698L.241 7.35a1 1 0 0 0 0 1.302l4.843 5.65A2 2 0 0 0 6.603 15h7.08a2 2 0 0 0 2-2V3zM5.829 5.854a.5.5 0 1 1 .707-.708l2.147 2.147 2.146-2.147a.5.5 0 1 1 .707.708L9.39 8l2.146 2.146a.5.5 0 0 1-.707.708L8.683 8.707l-2.147 2.147a.5.5 0 0 1-.707-.708L7.976 8 5.829 5.854z" clip-rule="evenodd"/>
</symbol>
<symbol id="bi-backspace-reverse-fill" viewBox="0 0 16 16">
  <path fill-rule="evenodd" d="M0 3a2 2 0 0 1 2-2h7.08a2 2 0 0 1 1.519.698l4.843 5.651a1 1 0 0 1 0 1.302L10.6 14.3a2 2 0 0 1-1.52.7H2a2 2 0 0 1-2-2V3zm9.854 2.854a.5.5 0 0 0-.708-.708L7 7.293 4.854 5.146a.5.5 0 1 0-.708.708L6.293 8l-2.147 2.146a.5.5 0 0 0 .708.708L7 8.707l2.146 2.147a.5.5 0 0 0 .708-.708L7.707 8l2.147-2.146z" clip-rule="evenodd"/>
</symbol>
<symbol id="bi-bag-fill" viewBox="0 0 16 16">
  <path d="M1 4h14v10a2 2 0 0 1-2 2H3a2 2 0 0 1-2-2V4zm7-2.5A2.5 2.5 0 0 0 5.5 4h-1a3.5 3.5 0 1 1 7 0h-1A2.5 2.5 0 0 0 8 1.5z"/>
</symbol>
<symbol id="bi-bar-chart-fill" viewBox="0 0 16 16">
  <rect width="4" height="5" x="1" y="10" rx="1"/>
  <rect width="4" height="9" x="6" y="6" rx="1"/>
  <rect width="4" height="14" x="11" y="1" rx="1"/>
</symbol>
<symbol id="bi-bell-fill" viewBox="0 0 16 16">
  <path d="M8 16a2 2 0 0 0 2-2H6a2 2 0 0 0 2 2zm.995-14.901a1 1 0 1 0-1.99 0A5.002 5.002 0 0 0 3 6c0 1.098-.5 6-2 7h14c-1.5-1-2-5.902-2-7 0-2.42-1.72-4.44-4.005-4.901z"/>
</symbol>
<symbol id="bi-bookmark-fill" viewBox="0 0 16 16">
  <path fill-rule="evenodd" d="M3 3a2 2 0 0 1 2-2h6a2 2 0 0 1 2 2v12l-5-3-5 3V3z" clip-rule="evenodd"/>
</symbol>
<symbol id="bi-bookmarks-fill" viewBox="0 0 16 16">
  <path fill-rule="evenodd" d="M2 4a2 2 0 0 1 2-2h6a2 2 0 0 1 2 2v12l-5-3-5 3V4z" clip-rule="evenodd"/>
  <path d="M14 14l-1-.6V2a1 1 0 0 0-1-1H4.268A2 2 0 0 1 6 0h6a2 2 0 0 1 2 2v12z"/>
</symbol>
<symbol id="bi-bootstrap-fill" viewBox="0 0 16 16">
  <path fill-rule="evenodd" d="M4.002 0a4 4 0 0 0-4 4v8a4 4 0 0 0 4 4h8a4 4 0 0 0 4-4V4a4 4 0 0 0-4-4h-8zm1.06 12h3.475c1.804 0 2.888-.908 2.888-2.396 0-1.102-.761-1.916-1.904-2.034v-.1c.832-.14 1.482-.93 1.482-1.816 0-1.3-.955-2.11-2.542-2.11H5.062V12zm1.313-4.875V4.658h1.78c.973 0 1.542.457 1.542 1.237 0 .802-.604 1.23-1.764 1.23H6.375zm0 3.762h1.898c1.184 0 1.81-.48 1.81-1.377 0-.885-.65-1.348-1.886-1.348H6.375v2.725z" clip-rule="evenodd"/>
</symbol>
<symbol id="bi-briefcase-fill" viewBox="0 0 16 16">
  <path fill-rule="evenodd" d="M0 12.5A1.5 1.5 0 0 0 1.5 14h13a1.5 1.5 0 0 0 1.5-1.5V6.85L8.129 8.947a.5.5 0 0 1-.258 0L0 6.85v5.65z" clip-rule="evenodd"/>
  <path fill-rule="evenodd" d="M0 4.5A1.5 1.5 0 0 1 1.5 3h13A1.5 1.5 0 0 1 16 4.5v1.384l-7.614 2.03a1.5 1.5 0 0 1-.772 0L0 5.884V4.5zm5-2A1.5 1.5 0 0 1 6.5 1h3A1.5 1.5 0 0 1 11 2.5V3h-1v-.5a.5.5 0 0 0-.5-.5h-3a.5.5 0 0 0-.5.5V3H5v-.5z" clip-rule="evenodd"/>
</symbol>
<symbol id="bi-brightness-alt-high-fill" viewBox="0 0 16 16">
  <path fill-rule="evenodd" d="M4 11a4 4 0 1 1 8 0 .5.5 0 0 1-.5.5h-7A.5.5 0 0 1 4 11zm4-8a.5.5 0 0 1 .5.5v2a.5.5 0 0 1-1 0v-2A.5.5 0 0 1 8 3zm8 8a.5.5 0 0 1-.5.5h-2a.5.5 0 0 1 0-1h2a.5.5 0 0 1 .5.5zM3 11a.5.5 0 0 1-.5.5h-2a.5.5 0 0 1 0-1h2a.5.5 0 0 1 .5.5zm10.657-5.657a.5.5 0 0 1 0 .707l-1.414 1.414a.5.5 0 1 1-.707-.707l1.414-1.414a.5.5 0 0 1 .707 0zM4.464 7.464a.5.5 0 0 1-.707 0L2.343 6.05a.5.5 0 0 1 .707-.707l1.414 1.414a.5.5 0 0 1 0 .707z" clip-rule="evenodd"/>
</symbol>
<symbol id="bi-brightness-alt-low-fill" viewBox="0 0 16 16">
  <path d="M8.5 5.5a.5.5 0 1 1-1 0 .5.5 0 0 1 1 0zm5 6a.5.5 0 1 1 0-1 .5.5 0 0 1 0 1zm-11 0a.5.5 0 1 1 0-1 .5.5 0 0 1 0 1zm9.743-4.036a.5.5 0 1 1-.707-.707.5.5 0 0 1 .707.707zm-8.486 0a.5.5 0 1 1 .707-.707.5.5 0 0 1-.707.707z"/>
  <path fill-rule="evenodd" d="M4 11a4 4 0 1 1 8 0 .5.5 0 0 1-.5.5h-7A.5.5 0 0 1 4 11z" clip-rule="evenodd"/>
</symbol>
<symbol id="bi-brightness-high-fill" viewBox="0 0 16 16">
  <circle cx="8" cy="8" r="4"/>
  <path fill-rule="evenodd" d="M8 0a.5.5 0 0 1 .5.5v2a.5.5 0 0 1-1 0v-2A.5.5 0 0 1 8 0zm0 13a.5.5 0 0 1 .5.5v2a.5.5 0 0 1-1 0v-2A.5.5 0 0 1 8 13zm8-5a.5.5 0 0 1-.5.5h-2a.5.5 0 0 1 0-1h2a.5.5 0 0 1 .5.5zM3 8a.5.5 0 0 1-.5.5h-2a.5.5 0 0 1 0-1h2A.5.5 0 0 1 3 8zm10.657-5.657a.5.5 0 0 1 0 .707l-1.414 1.415a.5.5 0 1 1-.707-.708l1.414-1.414a.5.5 0 0 1 .707 0zm-9.193 9.193a.5.5 0 0 1 0 .707L3.05 13.657a.5.5 0 0 1-.707-.707l1.414-1.414a.5.5 0 0 1 .707 0zm9.193 2.121a.5.5 0 0 1-.707 0l-1.414-1.414a.5.5 0 0 1 .707-.707l1.414 1.414a.5.5 0 0 1 0 .707zM4.464 4.465a.5.5 0 0 1-.707 0L2.343 3.05a.5.5 0 0 1 .707-.707l1.414 1.414a.5.5 0 0 1 0 .708z" clip-rule="evenodd"/>
</symbol>
<symbol id="bi-brightness-low-fill" viewBox="0 0 16 16">
  <circle cx="8" cy="8" r="4"/>
  <circle cx="8" cy="2.5" r=".5"/>
  <circle cx="8" cy="13.5" r=".5"/>
  <circle cx="13.5" cy="8" r=".5" transform="rotate(90 13.5 8)"/>
  <circle cx="2.5" cy="8" r=".5" transform="rotate(90 2.5 8)"/>
  <circle cx="11.889" cy="4.111" r=".5" transform="rotate(45 11.89 4.11)"/>
  <circle cx="4.111" cy="11.889" r=".5" transform="rotate(45 4.11 11.89)"/>
  <circle cx="11.889" cy="11.889" r=".5" transform="rotate(135 11.89 11.889)"/>
  <circle cx="4.111" cy="4.111" r=".5" transform="rotate(135 4.11 4.11)"/>
</symbol>
<symbol id="bi-bucket-fill" viewBox="0 0 16 16">
  <path fill-rule="evenodd" d="M8 1.5A4.5 4.5 0 0 0 3.5 6h-1a5.5 5.5 0 1 1 11 0h-1A4.5 4.5 0 0 0 8 1.5z" clip-rule="evenodd"/>
  <path fill-rule="evenodd" d="M1.61 5.687A.5.5 0 0 1 2 5.5h12a.5.5 0 0 1 .488.608l-1.826 8.217a1.5 1.5 0 0 1-1.464 1.175H4.802a1.5 1.5 0 0 1-1.464-1.175L1.512 6.108a.5.5 0 0 1 .098-.42z" clip-rule="evenodd"/>
</symbol>
<symbol id="bi-calendar-fill" viewBox="0 0 16 16">
  <path d="M0 2a2 2 0 0 1 2-2h12a2 2 0 0 1 2 2H0z"/>
  <path fill-rule="evenodd" d="M0 3h16v11a2 2 0 0 1-2 2H2a2 2 0 0 1-2-2V3zm6.5 4a1 1 0 1 0 0-2 1 1 0 0 0 0 2zm4-1a1 1 0 1 1-2 0 1 1 0 0 1 2 0zm2 1a1 1 0 1 0 0-2 1 1 0 0 0 0 2zm-8 2a1 1 0 1 1-2 0 1 1 0 0 1 2 0zm2 1a1 1 0 1 0 0-2 1 1 0 0 0 0 2zm4-1a1 1 0 1 1-2 0 1 1 0 0 1 2 0zm2 1a1 1 0 1 0 0-2 1 1 0 0 0 0 2zm-8 2a1 1 0 1 1-2 0 1 1 0 0 1 2 0zm2 1a1 1 0 1 0 0-2 1 1 0 0 0 0 2zm4-1a1 1 0 1 1-2 0 1 1 0 0 1 2 0z" clip-rule="evenodd"/>
</symbol>
<symbol id="bi-camera-video-fill" viewBox="0 0 16 16">
  <path d="M2.667 3h6.666C10.253 3 11 3.746 11 4.667v6.666c0 .92-.746 1.667-1.667 1.667H2.667C1.747 13 1 12.254 1 11.333V4.667C1 3.747 1.746 3 2.667 3z"/>
  <path d="M7.404 8.697l6.363 3.692c.54.313 1.233-.066 1.233-.697V4.308c0-.63-.693-1.01-1.233-.696L7.404 7.304a.802.802 0 0 0 0 1.393z"/>
</symbol>
<symbol id="bi-capslock-fill" viewBox="0 0 16 16">
  <path fill-rule="evenodd" d="M7.27 1.047a1 1 0 0 1 1.46 0l6.345 6.77c.6.638.146 1.683-.73 1.683H11.5v1a1 1 0 0 1-1 1h-5a1 1 0 0 1-1-1v-1H1.654C.78 9.5.326 8.455.924 7.816L7.27 1.047zM4.5 13.5a1 1 0 0 1 1-1h5a1 1 0 0 1 1 1v1a1 1 0 0 1-1 1h-5a1 1 0 0 1-1-1v-1z" clip-rule="evenodd"/>
</symbol>
<symbol id="bi-caret-down-fill" viewBox="0 0 16 16">
  <path d="M7.247 11.14L2.451 5.658C1.885 5.013 2.345 4 3.204 4h9.592a1 1 0 0 1 .753 1.659l-4.796 5.48a1 1 0 0 1-1.506 0z"/>
</symbol>
<symbol id="bi-caret-left-fill" viewBox="0 0 16 16">
  <path d="M3.86 8.753l5.482 4.796c.646.566 1.658.106 1.658-.753V3.204a1 1 0 0 0-1.659-.753l-5.48 4.796a1 1 0 0 0 0 1.506z"/>
</symbol>
<symbol id="bi-caret-right-fill" viewBox="0 0 16 16">
  <path d="M12.14 8.753l-5.482 4.796c-.646.566-1.658.106-1.658-.753V3.204a1 1 0 0 1 1.659-.753l5.48 4.796a1 1 0 0 1 0 1.506z"/>
</symbol>
<symbol id="bi-caret-up-fill" viewBox="0 0 16 16">
  <path d="M7.247 4.86l-4.796 5.481c-.566.647-.106 1.659.753 1.659h9.592a1 1 0 0 0 .753-1.659l-4.796-5.48a1 1 0 0 0-1.506 0z"/>
</symbol>
<symbol id="bi-chat-dots-fill" viewBox="0 0 16 16">
  <path fill-rule="evenodd" d="M16 8c0 3.866-3.582 7-8 7a9.06 9.06 0 0 1-2.347-.306c-.584.296-1.925.864-4.181 1.234-.2.032-.352-.176-.273-.362.354-.836.674-1.95.77-2.966C.744 11.37 0 9.76 0 8c0-3.866 3.582-7 8-7s8 3.134 8 7zM5 8a1 1 0 1 1-2 0 1 1 0 0 1 2 0zm4 0a1 1 0 1 1-2 0 1 1 0 0 1 2 0zm3 1a1 1 0 1 0 0-2 1 1 0 0 0 0 2z" clip-rule="evenodd"/>
</symbol>
<symbol id="bi-chat-fill" viewBox="0 0 16 16">
  <path d="M8 15c4.418 0 8-3.134 8-7s-3.582-7-8-7-8 3.134-8 7c0 1.76.743 3.37 1.97 4.6-.097 1.016-.417 2.13-.771 2.966-.079.186.074.394.273.362 2.256-.37 3.597-.938 4.18-1.234A9.06 9.06 0 0 0 8 15z"/>
</symbol>
<symbol id="bi-chat-quote-fill" viewBox="0 0 16 16">
  <path fill-rule="evenodd" d="M16 8c0 3.866-3.582 7-8 7a9.06 9.06 0 0 1-2.347-.306c-.584.296-1.925.864-4.181 1.234-.2.032-.352-.176-.273-.362.354-.836.674-1.95.77-2.966C.744 11.37 0 9.76 0 8c0-3.866 3.582-7 8-7s8 3.134 8 7zM7.194 6.766c.087.124.163.26.227.401.428.948.393 2.377-.942 3.706a.446.446 0 0 1-.612.01.405.405 0 0 1-.011-.59c.419-.416.672-.831.809-1.22-.269.165-.588.26-.93.26C4.775 9.333 4 8.587 4 7.667 4 6.747 4.776 6 5.734 6c.271 0 .528.06.756.166l.008.004c.169.07.327.182.469.324.085.083.161.174.227.272zM11 9.073c-.269.165-.588.26-.93.26-.958 0-1.735-.746-1.735-1.666 0-.92.777-1.667 1.734-1.667.271 0 .528.06.756.166l.008.004c.17.07.327.182.469.324.085.083.161.174.227.272.087.124.164.26.228.401.428.948.392 2.377-.942 3.706a.446.446 0 0 1-.613.01.405.405 0 0 1-.011-.59c.42-.416.672-.831.81-1.22z" clip-rule="evenodd"/>
</symbol>
<symbol id="bi-chat-square-dots-fill" viewBox="0 0 16 16">
  <path fill-rule="evenodd" d="M0 2a2 2 0 0 1 2-2h12a2 2 0 0 1 2 2v8a2 2 0 0 1-2 2h-2.5a1 1 0 0 0-.8.4l-1.9 2.533a1 1 0 0 1-1.6 0L5.3 12.4a1 1 0 0 0-.8-.4H2a2 2 0 0 1-2-2V2zm5 4a1 1 0 1 1-2 0 1 1 0 0 1 2 0zm4 0a1 1 0 1 1-2 0 1 1 0 0 1 2 0zm3 1a1 1 0 1 0 0-2 1 1 0 0 0 0 2z" clip-rule="evenodd"/>
</symbol>
<symbol id="bi-chat-square-fill" viewBox="0 0 16 16">
  <path fill-rule="evenodd" d="M2 0a2 2 0 0 0-2 2v8a2 2 0 0 0 2 2h2.5a1 1 0 0 1 .8.4l1.9 2.533a1 1 0 0 0 1.6 0l1.9-2.533a1 1 0 0 1 .8-.4H14a2 2 0 0 0 2-2V2a2 2 0 0 0-2-2H2z" clip-rule="evenodd"/>
</symbol>
<symbol id="bi-chat-square-quote-fill" viewBox="0 0 16 16">
  <path fill-rule="evenodd" d="M0 2a2 2 0 0 1 2-2h12a2 2 0 0 1 2 2v8a2 2 0 0 1-2 2h-2.5a1 1 0 0 0-.8.4l-1.9 2.533a1 1 0 0 1-1.6 0L5.3 12.4a1 1 0 0 0-.8-.4H2a2 2 0 0 1-2-2V2zm7.194 2.766c.087.124.163.26.227.401.428.948.393 2.377-.942 3.706a.446.446 0 0 1-.612.01.405.405 0 0 1-.011-.59c.419-.416.672-.831.809-1.22-.269.165-.588.26-.93.26C4.775 7.333 4 6.587 4 5.667 4 4.747 4.776 4 5.734 4c.271 0 .528.06.756.166l.008.004c.169.07.327.182.469.324.085.083.161.174.227.272zM11 7.073c-.269.165-.588.26-.93.26-.958 0-1.735-.746-1.735-1.666 0-.92.777-1.667 1.734-1.667.271 0 .528.06.756.166l.008.004c.17.07.327.182.469.324.085.083.161.174.227.272.087.124.164.26.228.401.428.948.392 2.377-.942 3.706a.446.446 0 0 1-.613.01.405.405 0 0 1-.011-.59c.42-.416.672-.831.81-1.22z" clip-rule="evenodd"/>
</symbol>
<symbol id="bi-circle-fill" viewBox="0 0 16 16">
  <circle cx="8" cy="8" r="8"/>
</symbol>
<symbol id="bi-clock-fill" viewBox="0 0 16 16">
  <path fill-rule="evenodd" d="M16 8A8 8 0 1 1 0 8a8 8 0 0 1 16 0zM8 3.5a.5.5 0 0 0-1 0V9a.5.5 0 0 0 .252.434l3.5 2a.5.5 0 0 0 .496-.868L8 8.71V3.5z" clip-rule="evenodd"/>
</symbol>
<symbol id="bi-cloud-fill" viewBox="0 0 16 16">
  <path fill-rule="evenodd" d="M3.5 13a3.5 3.5 0 1 1 .59-6.95 5.002 5.002 0 1 1 9.804 1.98A2.5 2.5 0 0 1 13.5 13h-10z" clip-rule="evenodd"/>
</symbol>
<symbol id="bi-collection-fill" viewBox="0 0 16 16">
  <rect width="16" height="10" rx="1.5" transform="matrix(1 0 0 -1 0 14.5)"/>
  <path fill-rule="evenodd" d="M2 3a.5.5 0 0 0 .5.5h11a.5.5 0 0 0 0-1h-11A.5.5 0 0 0 2 3zm2-2a.5.5 0 0 0 .5.5h7a.5.5 0 0 0 0-1h-7A.5.5 0 0 0 4 1z" clip-rule="evenodd"/>
</symbol>
<symbol id="bi-collection-play-fill" viewBox="0 0 16 16">
  <path fill-rule="evenodd" d="M1.5 14.5A1.5 1.5 0 0 1 0 13V6a1.5 1.5 0 0 1 1.5-1.5h13A1.5 1.5 0 0 1 16 6v7a1.5 1.5 0 0 1-1.5 1.5h-13zm5.265-7.924A.5.5 0 0 0 6 7v5a.5.5 0 0 0 .765.424l4-2.5a.5.5 0 0 0 0-.848l-4-2.5zM2 3a.5.5 0 0 0 .5.5h11a.5.5 0 0 0 0-1h-11A.5.5 0 0 0 2 3zm2-2a.5.5 0 0 0 .5.5h7a.5.5 0 0 0 0-1h-7A.5.5 0 0 0 4 1z" clip-rule="evenodd"/>
</symbol>
<symbol id="bi-cursor-fill" viewBox="0 0 16 16">
  <path fill-rule="evenodd" d="M14.082 2.182a.5.5 0 0 1 .103.557L8.528 15.467a.5.5 0 0 1-.917-.007L5.57 10.694.803 8.652a.5.5 0 0 1-.006-.916l12.728-5.657a.5.5 0 0 1 .556.103z" clip-rule="evenodd"/>
</symbol>
<symbol id="bi-dash-circle-fill" viewBox="0 0 16 16">
  <path fill-rule="evenodd" d="M16 8A8 8 0 1 1 0 8a8 8 0 0 1 16 0zM4 7.5a.5.5 0 0 0 0 1h8a.5.5 0 0 0 0-1H4z" clip-rule="evenodd"/>
</symbol>
<symbol id="bi-dash-square-fill" viewBox="0 0 16 16">
  <path fill-rule="evenodd" d="M2 0a2 2 0 0 0-2 2v12a2 2 0 0 0 2 2h12a2 2 0 0 0 2-2V2a2 2 0 0 0-2-2H2zm2 7.5a.5.5 0 0 0 0 1h8a.5.5 0 0 0 0-1H4z" clip-rule="evenodd"/>
</symbol>
<symbol id="bi-diamond-fill" viewBox="0 0 16 16">
  <path fill-rule="evenodd" d="M6.95.435c.58-.58 1.52-.58 2.1 0l6.515 6.516c.58.58.58 1.519 0 2.098L9.05 15.565c-.58.58-1.519.58-2.098 0L.435 9.05a1.482 1.482 0 0 1 0-2.098L6.95.435z" clip-rule="evenodd"/>
</symbol>
<symbol id="bi-display-fill" viewBox="0 0 16 16">
  <path d="M5.75 13.5c.167-.333.25-.833.25-1.5h4c0 .667.083 1.167.25 1.5H11a.5.5 0 0 1 0 1H5a.5.5 0 0 1 0-1h.75z"/>
  <path fill-rule="evenodd" d="M13.991 3H2c-.325 0-.502.078-.602.145a.758.758 0 0 0-.254.302A1.46 1.46 0 0 0 1 4.01V10c0 .325.078.502.145.602.07.105.17.188.302.254a1.464 1.464 0 0 0 .538.143L2.01 11H14c.325 0 .502-.078.602-.145a.758.758 0 0 0 .254-.302 1.464 1.464 0 0 0 .143-.538L15 9.99V4c0-.325-.078-.502-.145-.602a.757.757 0 0 0-.302-.254A1.46 1.46 0 0 0 13.99 3zM14 2H2C0 2 0 4 0 4v6c0 2 2 2 2 2h12c2 0 2-2 2-2V4c0-2-2-2-2-2z" clip-rule="evenodd"/>
  <path d="M2 4h12v6H2z"/>
</symbol>
<symbol id="bi-droplet-fill" viewBox="0 0 16 16">
  <path fill-rule="evenodd" d="M8 16a6 6 0 0 0 6-6c0-1.655-1.122-2.904-2.432-4.362C10.254 4.176 8.75 2.503 8 0c0 0-6 5.686-6 10a6 6 0 0 0 6 6zM6.646 4.646c-.376.377-1.272 1.489-2.093 3.13l.894.448c.78-1.559 1.616-2.58 1.907-2.87l-.708-.708z" clip-rule="evenodd"/>
</symbol>
<symbol id="bi-egg-fill" viewBox="0 0 16 16">
  <path d="M14 10a6 6 0 0 1-12 0C2 5.686 5 0 8 0s6 5.686 6 10z"/>
</symbol>
<symbol id="bi-eject-fill" viewBox="0 0 16 16">
  <path fill-rule="evenodd" d="M7.27 1.047a1 1 0 0 1 1.46 0l6.345 6.77c.6.638.146 1.683-.73 1.683H1.656C.78 9.5.326 8.455.926 7.816L7.27 1.047zM.5 11.5a1 1 0 0 1 1-1h13a1 1 0 0 1 1 1v1a1 1 0 0 1-1 1h-13a1 1 0 0 1-1-1v-1z" clip-rule="evenodd"/>
</symbol>
<symbol id="bi-envelope-fill" viewBox="0 0 16 16">
  <path d="M.05 3.555L8 8.414l7.95-4.859A2 2 0 0 0 14 2H2A2 2 0 0 0 .05 3.555zM16 4.697l-5.875 3.59L16 11.743V4.697zm-.168 8.108L9.157 8.879 8 9.586l-1.157-.707-6.675 3.926A2 2 0 0 0 2 14h12a2 2 0 0 0 1.832-1.195zM0 11.743l5.875-3.456L0 4.697v7.046z"/>
</symbol>
<symbol id="bi-envelope-open-fill" viewBox="0 0 16 16">
  <path fill-rule="evenodd" d="M8.941.435a2 2 0 0 0-1.882 0l-6 3.2A2 2 0 0 0 0 5.4v.125l8 4.889 8-4.889V5.4a2 2 0 0 0-1.059-1.765l-6-3.2zM16 6.697l-5.875 3.59L16 13.743V6.697zm-.168 8.108L9.246 10.93l-.089-.052-.896.548-.261.159-.26-.16-.897-.547-.09.052-6.585 3.874A2 2 0 0 0 2 16h12a2 2 0 0 0 1.832-1.195zM0 13.743l5.875-3.456L0 6.697v7.046z" clip-rule="evenodd"/>
</symbol>
<symbol id="bi-exclamation-circle-fill" viewBox="0 0 16 16">
  <path fill-rule="evenodd" d="M16 8A8 8 0 1 1 0 8a8 8 0 0 1 16 0zM8 4a.905.905 0 0 0-.9.995l.35 3.507a.552.552 0 0 0 1.1 0l.35-3.507A.905.905 0 0 0 8 4zm.002 6a1 1 0 1 0 0 2 1 1 0 0 0 0-2z" clip-rule="evenodd"/>
</symbol>
<symbol id="bi-exclamation-diamond-fill" viewBox="0 0 16 16">
  <path fill-rule="evenodd" d="M9.05.435c-.58-.58-1.52-.58-2.1 0L.436 6.95c-.58.58-.58 1.519 0 2.098l6.516 6.516c.58.58 1.519.58 2.098 0l6.516-6.516c.58-.58.58-1.519 0-2.098L9.05.435zM8 4a.905.905 0 0 0-.9.995l.35 3.507a.552.552 0 0 0 1.1 0l.35-3.507A.905.905 0 0 0 8 4zm.002 6a1 1 0 1 0 0 2 1 1 0 0 0 0-2z" clip-rule="evenodd"/>
</symbol>
<symbol id="bi-exclamation-octagon-fill" viewBox="0 0 16 16">
  <path fill-rule="evenodd" d="M11.46.146A.5.5 0 0 0 11.107 0H4.893a.5.5 0 0 0-.353.146L.146 4.54A.5.5 0 0 0 0 4.893v6.214a.5.5 0 0 0 .146.353l4.394 4.394a.5.5 0 0 0 .353.146h6.214a.5.5 0 0 0 .353-.146l4.394-4.394a.5.5 0 0 0 .146-.353V4.893a.5.5 0 0 0-.146-.353L11.46.146zM8 4a.905.905 0 0 0-.9.995l.35 3.507a.552.552 0 0 0 1.1 0l.35-3.507A.905.905 0 0 0 8 4zm.002 6a1 1 0 1 0 0 2 1 1 0 0 0 0-2z" clip-rule="evenodd"/>
</symbol>
<symbol id="bi-exclamation-square-fill" viewBox="0 0 16 16">
  <path fill-rule="evenodd" d="M2 0a2 2 0 0 0-2 2v12a2 2 0 0 0 2 2h12a2 2 0 0 0 2-2V2a2 2 0 0 0-2-2H2zm6 4a.905.905 0 0 0-.9.995l.35 3.507a.552.552 0 0 0 1.1 0l.35-3.507A.905.905 0 0 0 8 4zm.002 6a1 1 0 1 0 0 2 1 1 0 0 0 0-2z" clip-rule="evenodd"/>
</symbol>
<symbol id="bi-exclamation-triangle-fill" viewBox="0 0 16 16">
  <path fill-rule="evenodd" d="M8.982 1.566a1.13 1.13 0 0 0-1.96 0L.165 13.233c-.457.778.091 1.767.98 1.767h13.713c.889 0 1.438-.99.98-1.767L8.982 1.566zM8 5a.905.905 0 0 0-.9.995l.35 3.507a.552.552 0 0 0 1.1 0l.35-3.507A.905.905 0 0 0 8 5zm.002 6a1 1 0 1 0 0 2 1 1 0 0 0 0-2z" clip-rule="evenodd"/>
</symbol>
<symbol id="bi-eye-fill" viewBox="0 0 16 16">
  <path d="M10.5 8a2.5 2.5 0 1 1-5 0 2.5 2.5 0 0 1 5 0z"/>
  <path fill-rule="evenodd" d="M0 8s3-5.5 8-5.5S16 8 16 8s-3 5.5-8 5.5S0 8 0 8zm8 3.5a3.5 3.5 0 1 0 0-7 3.5 3.5 0 0 0 0 7z" clip-rule="evenodd"/>
</symbol>
<symbol id="bi-eye-slash-fill" viewBox="0 0 16 16">
  <path d="M10.79 12.912l-1.614-1.615a3.5 3.5 0 0 1-4.474-4.474l-2.06-2.06C.938 6.278 0 8 0 8s3 5.5 8 5.5a7.029 7.029 0 0 0 2.79-.588zM5.21 3.088A7.028 7.028 0 0 1 8 2.5c5 0 8 5.5 8 5.5s-.939 1.721-2.641 3.238l-2.062-2.062a3.5 3.5 0 0 0-4.474-4.474L5.21 3.089z"/>
  <path d="M5.525 7.646a2.5 2.5 0 0 0 2.829 2.829l-2.83-2.829zm4.95.708l-2.829-2.83a2.5 2.5 0 0 1 2.829 2.829z"/>
  <path fill-rule="evenodd" d="M13.646 14.354l-12-12 .708-.708 12 12-.708.708z" clip-rule="evenodd"/>
</symbol>
<symbol id="bi-flag-fill" viewBox="0 0 16 16">
  <path fill-rule="evenodd" d="M3.5 1a.5.5 0 0 1 .5.5v13a.5.5 0 0 1-1 0v-13a.5.5 0 0 1 .5-.5z" clip-rule="evenodd"/>
  <path fill-rule="evenodd" d="M3.762 2.558C4.735 1.909 5.348 1.5 6.5 1.5c.653 0 1.139.325 1.495.562l.032.022c.391.26.646.416.973.416.168 0 .356-.042.587-.126a8.89 8.89 0 0 0 .593-.25c.058-.027.117-.053.18-.08.57-.255 1.278-.544 2.14-.544a.5.5 0 0 1 .5.5v6a.5.5 0 0 1-.5.5c-.638 0-1.18.21-1.734.457l-.159.07c-.22.1-.453.205-.678.287A2.719 2.719 0 0 1 9 9.5c-.653 0-1.139-.325-1.495-.562l-.032-.022c-.391-.26-.646-.416-.973-.416-.833 0-1.218.246-2.223.916A.5.5 0 0 1 3.5 9V3a.5.5 0 0 1 .223-.416l.04-.026z" clip-rule="evenodd"/>
</symbol>
<symbol id="bi-folder-fill" viewBox="0 0 16 16">
  <path fill-rule="evenodd" d="M9.828 3h3.982a2 2 0 0 1 1.992 2.181l-.637 7A2 2 0 0 1 13.174 14H2.826a2 2 0 0 1-1.991-1.819l-.637-7a1.99 1.99 0 0 1 .342-1.31L.5 3a2 2 0 0 1 2-2h3.672a2 2 0 0 1 1.414.586l.828.828A2 2 0 0 0 9.828 3zm-8.322.12C1.72 3.042 1.95 3 2.19 3h5.396l-.707-.707A1 1 0 0 0 6.172 2H2.5a1 1 0 0 0-1 .981l.006.139z" clip-rule="evenodd"/>
</symbol>
<symbol id="bi-folder-symlink-fill" viewBox="0 0 16 16">
  <path fill-rule="evenodd" d="M13.81 3H9.828a2 2 0 0 1-1.414-.586l-.828-.828A2 2 0 0 0 6.172 1H2.5a2 2 0 0 0-2 2l.04.87a1.99 1.99 0 0 0-.342 1.311l.637 7A2 2 0 0 0 2.826 14h10.348a2 2 0 0 0 1.991-1.819l.637-7A2 2 0 0 0 13.81 3zM2.19 3c-.24 0-.47.042-.684.12L1.5 2.98a1 1 0 0 1 1-.98h3.672a1 1 0 0 1 .707.293L7.586 3H2.19zm9.608 5.271l-3.182 1.97c-.27.166-.616-.036-.616-.372V9.1s-2.571-.3-4 2.4c.571-4.8 3.143-4.8 4-4.8v-.769c0-.336.346-.538.616-.371l3.182 1.969c.27.166.27.576 0 .742z" clip-rule="evenodd"/>
</symbol>
<symbol id="bi-forward-fill" viewBox="0 0 16 16">
  <path d="M9.77 12.11l4.012-2.953a.647.647 0 0 0 0-1.114L9.771 5.09a.644.644 0 0 0-.971.557V6.65H2v3.9h6.8v1.003c0 .505.545.808.97.557z"/>
</symbol>
<symbol id="bi-funnel-fill" viewBox="0 0 16 16">
  <path d="M2 3.5v-2h12v2l-4.5 5v5l-3 1v-6L2 3.5z"/>
  <path fill-rule="evenodd" d="M1.5 1.5A.5.5 0 0 1 2 1h12a.5.5 0 0 1 .5.5v2a.5.5 0 0 1-.128.334L10 8.692V13.5a.5.5 0 0 1-.342.474l-3 1A.5.5 0 0 1 6 14.5V8.692L1.628 3.834A.5.5 0 0 1 1.5 3.5v-2zm1 .5v1.308l4.372 4.858A.5.5 0 0 1 7 8.5v5.306l2-.666V8.5a.5.5 0 0 1 .128-.334L13.5 3.308V2h-11z" clip-rule="evenodd"/>
</symbol>
<symbol id="bi-gear-fill" viewBox="0 0 16 16">
  <path fill-rule="evenodd" d="M9.405 1.05c-.413-1.4-2.397-1.4-2.81 0l-.1.34a1.464 1.464 0 0 1-2.105.872l-.31-.17c-1.283-.698-2.686.705-1.987 1.987l.169.311c.446.82.023 1.841-.872 2.105l-.34.1c-1.4.413-1.4 2.397 0 2.81l.34.1a1.464 1.464 0 0 1 .872 2.105l-.17.31c-.698 1.283.705 2.686 1.987 1.987l.311-.169a1.464 1.464 0 0 1 2.105.872l.1.34c.413 1.4 2.397 1.4 2.81 0l.1-.34a1.464 1.464 0 0 1 2.105-.872l.31.17c1.283.698 2.686-.705 1.987-1.987l-.169-.311a1.464 1.464 0 0 1 .872-2.105l.34-.1c1.4-.413 1.4-2.397 0-2.81l-.34-.1a1.464 1.464 0 0 1-.872-2.105l.17-.31c.698-1.283-.705-2.686-1.987-1.987l-.311.169a1.464 1.464 0 0 1-2.105-.872l-.1-.34zM8 10.93a2.929 2.929 0 1 0 0-5.86 2.929 2.929 0 0 0 0 5.858z" clip-rule="evenodd"/>
</symbol>
<symbol id="bi-gift-fill" viewBox="0 0 16 16">
  <path fill-rule="evenodd" d="M10 1a1.5 1.5 0 0 0-1.5 1.5c0 .098.033.16.12.227.103.081.272.15.49.2A3.44 3.44 0 0 0 9.96 3h.015L10 2.999l.025.002h.014A2.569 2.569 0 0 0 10.293 3c.17-.006.387-.026.598-.073.217-.048.386-.118.49-.199.086-.066.119-.13.119-.227A1.5 1.5 0 0 0 10 1zm0 3h-.006a3.535 3.535 0 0 1-.326 0 4.435 4.435 0 0 1-.777-.097c-.283-.063-.614-.175-.885-.385A1.255 1.255 0 0 1 7.5 2.5a2.5 2.5 0 0 1 5 0c0 .454-.217.793-.506 1.017-.27.21-.602.322-.885.385a4.434 4.434 0 0 1-1.104.099H10z" clip-rule="evenodd"/>
  <path fill-rule="evenodd" d="M6 1a1.5 1.5 0 0 0-1.5 1.5c0 .098.033.16.12.227.103.081.272.15.49.2A3.44 3.44 0 0 0 5.96 3h.015L6 2.999l.025.002h.014l.053.001a3.869 3.869 0 0 0 .799-.076c.217-.048.386-.118.49-.199.086-.066.119-.13.119-.227A1.5 1.5 0 0 0 6 1zm0 3h-.006a3.535 3.535 0 0 1-.326 0 4.435 4.435 0 0 1-.777-.097c-.283-.063-.614-.175-.885-.385A1.255 1.255 0 0 1 3.5 2.5a2.5 2.5 0 0 1 5 0c0 .454-.217.793-.506 1.017-.27.21-.602.322-.885.385a4.435 4.435 0 0 1-1.103.099H6zm9 10.5V7H8.5v9h5a1.5 1.5 0 0 0 1.5-1.5zM7.5 16h-5A1.5 1.5 0 0 1 1 14.5V7h6.5v9z" clip-rule="evenodd"/>
  <path d="M0 4a1 1 0 0 1 1-1h14a1 1 0 0 1 1 1v1a1 1 0 0 1-1 1H1a1 1 0 0 1-1-1V4z"/>
</symbol>
<symbol id="bi-grid-1x2-fill" viewBox="0 0 16 16">
  <path d="M0 1a1 1 0 0 1 1-1h5a1 1 0 0 1 1 1v14a1 1 0 0 1-1 1H1a1 1 0 0 1-1-1V1zm9 0a1 1 0 0 1 1-1h5a1 1 0 0 1 1 1v5a1 1 0 0 1-1 1h-5a1 1 0 0 1-1-1V1zm0 9a1 1 0 0 1 1-1h5a1 1 0 0 1 1 1v5a1 1 0 0 1-1 1h-5a1 1 0 0 1-1-1v-5z"/>
</symbol>
<symbol id="bi-grid-3x2-gap-fill" viewBox="0 0 16 16">
  <path d="M1 4a1 1 0 0 1 1-1h2a1 1 0 0 1 1 1v2a1 1 0 0 1-1 1H2a1 1 0 0 1-1-1V4zm5 0a1 1 0 0 1 1-1h2a1 1 0 0 1 1 1v2a1 1 0 0 1-1 1H7a1 1 0 0 1-1-1V4zm5 0a1 1 0 0 1 1-1h2a1 1 0 0 1 1 1v2a1 1 0 0 1-1 1h-2a1 1 0 0 1-1-1V4zM1 9a1 1 0 0 1 1-1h2a1 1 0 0 1 1 1v2a1 1 0 0 1-1 1H2a1 1 0 0 1-1-1V9zm5 0a1 1 0 0 1 1-1h2a1 1 0 0 1 1 1v2a1 1 0 0 1-1 1H7a1 1 0 0 1-1-1V9zm5 0a1 1 0 0 1 1-1h2a1 1 0 0 1 1 1v2a1 1 0 0 1-1 1h-2a1 1 0 0 1-1-1V9z"/>
</symbol>
<symbol id="bi-grid-3x3-gap-fill" viewBox="0 0 16 16">
  <path d="M1 2a1 1 0 0 1 1-1h2a1 1 0 0 1 1 1v2a1 1 0 0 1-1 1H2a1 1 0 0 1-1-1V2zm5 0a1 1 0 0 1 1-1h2a1 1 0 0 1 1 1v2a1 1 0 0 1-1 1H7a1 1 0 0 1-1-1V2zm5 0a1 1 0 0 1 1-1h2a1 1 0 0 1 1 1v2a1 1 0 0 1-1 1h-2a1 1 0 0 1-1-1V2zM1 7a1 1 0 0 1 1-1h2a1 1 0 0 1 1 1v2a1 1 0 0 1-1 1H2a1 1 0 0 1-1-1V7zm5 0a1 1 0 0 1 1-1h2a1 1 0 0 1 1 1v2a1 1 0 0 1-1 1H7a1 1 0 0 1-1-1V7zm5 0a1 1 0 0 1 1-1h2a1 1 0 0 1 1 1v2a1 1 0 0 1-1 1h-2a1 1 0 0 1-1-1V7zM1 12a1 1 0 0 1 1-1h2a1 1 0 0 1 1 1v2a1 1 0 0 1-1 1H2a1 1 0 0 1-1-1v-2zm5 0a1 1 0 0 1 1-1h2a1 1 0 0 1 1 1v2a1 1 0 0 1-1 1H7a1 1 0 0 1-1-1v-2zm5 0a1 1 0 0 1 1-1h2a1 1 0 0 1 1 1v2a1 1 0 0 1-1 1h-2a1 1 0 0 1-1-1v-2z"/>
</symbol>
<symbol id="bi-grid-fill" viewBox="0 0 16 16">
  <path fill-rule="evenodd" d="M1 2.5A1.5 1.5 0 0 1 2.5 1h3A1.5 1.5 0 0 1 7 2.5v3A1.5 1.5 0 0 1 5.5 7h-3A1.5 1.5 0 0 1 1 5.5v-3zm8 0A1.5 1.5 0 0 1 10.5 1h3A1.5 1.5 0 0 1 15 2.5v3A1.5 1.5 0 0 1 13.5 7h-3A1.5 1.5 0 0 1 9 5.5v-3zm-8 8A1.5 1.5 0 0 1 2.5 9h3A1.5 1.5 0 0 1 7 10.5v3A1.5 1.5 0 0 1 5.5 15h-3A1.5 1.5 0 0 1 1 13.5v-3zm8 0A1.5 1.5 0 0 1 10.5 9h3a1.5 1.5 0 0 1 1.5 1.5v3a1.5 1.5 0 0 1-1.5 1.5h-3A1.5 1.5 0 0 1 9 13.5v-3z" clip-rule="evenodd"/>
</symbol>
<symbol id="bi-heart-fill" viewBox="0 0 16 16">
  <path fill-rule="evenodd" d="M8 1.314C12.438-3.248 23.534 4.735 8 15-7.534 4.736 3.562-3.248 8 1.314z" clip-rule="evenodd"/>
</symbol>
<symbol id="bi-house-door-fill" viewBox="0 0 16 16">
  <path d="M6.5 10.995V14.5a.5.5 0 0 1-.5.5H2a.5.5 0 0 1-.5-.5v-7a.5.5 0 0 1 .146-.354l6-6a.5.5 0 0 1 .708 0l6 6a.5.5 0 0 1 .146.354v7a.5.5 0 0 1-.5.5h-4a.5.5 0 0 1-.5-.5V11c0-.25-.25-.5-.5-.5H7c-.25 0-.5.25-.5.495z"/>
  <path fill-rule="evenodd" d="M13 2.5V6l-2-2V2.5a.5.5 0 0 1 .5-.5h1a.5.5 0 0 1 .5.5z" clip-rule="evenodd"/>
</symbol>
<symbol id="bi-house-fill" viewBox="0 0 16 16">
  <path fill-rule="evenodd" d="M8 3.293l6 6V13.5a1.5 1.5 0 0 1-1.5 1.5h-9A1.5 1.5 0 0 1 2 13.5V9.293l6-6zm5-.793V6l-2-2V2.5a.5.5 0 0 1 .5-.5h1a.5.5 0 0 1 .5.5z" clip-rule="evenodd"/>
  <path fill-rule="evenodd" d="M7.293 1.5a1 1 0 0 1 1.414 0l6.647 6.646a.5.5 0 0 1-.708.708L8 2.207 1.354 8.854a.5.5 0 1 1-.708-.708L7.293 1.5z" clip-rule="evenodd"/>
</symbol>
<symbol id="bi-image-fill" viewBox="0 0 16 16">
  <path fill-rule="evenodd" d="M.002 3a2 2 0 0 1 2-2h12a2 2 0 0 1 2 2v10a2 2 0 0 1-2 2h-12a2 2 0 0 1-2-2V3zm1 9l2.646-2.354a.5.5 0 0 1 .63-.062l2.66 1.773 3.71-3.71a.5.5 0 0 1 .577-.094L15.002 9.5V13a1 1 0 0 1-1 1h-12a1 1 0 0 1-1-1v-1zm5-6.5a1.5 1.5 0 1 1-3 0 1.5 1.5 0 0 1 3 0z" clip-rule="evenodd"/>
</symbol>
<symbol id="bi-inbox-fill" viewBox="0 0 16 16">
  <path fill-rule="evenodd" d="M3.81 4.063A1.5 1.5 0 0 1 4.98 3.5h6.04a1.5 1.5 0 0 1 1.17.563l3.7 4.625a.5.5 0 0 1-.78.624l-3.7-4.624a.5.5 0 0 0-.39-.188H4.98a.5.5 0 0 0-.39.188L.89 9.312a.5.5 0 1 1-.78-.624l3.7-4.625z" clip-rule="evenodd"/>
  <path fill-rule="evenodd" d="M.125 8.67A.5.5 0 0 1 .5 8.5h5A.5.5 0 0 1 6 9c0 .828.625 2 2 2s2-1.172 2-2a.5.5 0 0 1 .5-.5h5a.5.5 0 0 1 .496.562l-.39 3.124a1.5 1.5 0 0 1-1.489 1.314H1.883a1.5 1.5 0 0 1-1.489-1.314l-.39-3.124a.5.5 0 0 1 .121-.393z" clip-rule="evenodd"/>
</symbol>
<symbol id="bi-inboxes-fill" viewBox="0 0 16 16">
  <path fill-rule="evenodd" d="M.125 11.17A.5.5 0 0 1 .5 11H6a.5.5 0 0 1 .5.5 1.5 1.5 0 0 0 3 0 .5.5 0 0 1 .5-.5h5.5a.5.5 0 0 1 .496.562l-.39 3.124A1.5 1.5 0 0 1 14.117 16H1.883a1.5 1.5 0 0 1-1.489-1.314l-.39-3.124a.5.5 0 0 1 .121-.393zM3.81.563A1.5 1.5 0 0 1 4.98 0h6.04a1.5 1.5 0 0 1 1.17.563l3.7 4.625a.5.5 0 0 1-.78.624l-3.7-4.624A.5.5 0 0 0 11.02 1H4.98a.5.5 0 0 0-.39.188L.89 5.812a.5.5 0 1 1-.78-.624L3.81.563z" clip-rule="evenodd"/>
  <path fill-rule="evenodd" d="M.125 5.17A.5.5 0 0 1 .5 5H6a.5.5 0 0 1 .5.5 1.5 1.5 0 0 0 3 0A.5.5 0 0 1 10 5h5.5a.5.5 0 0 1 .496.562l-.39 3.124A1.5 1.5 0 0 1 14.117 10H1.883A1.5 1.5 0 0 1 .394 8.686l-.39-3.124a.5.5 0 0 1 .121-.393z" clip-rule="evenodd"/>
</symbol>
<symbol id="bi-info-circle-fill" viewBox="0 0 16 16">
  <path fill-rule="evenodd" d="M8 16A8 8 0 1 0 8 0a8 8 0 0 0 0 16zm.93-9.412l-2.29.287-.082.38.45.083c.294.07.352.176.288.469l-.738 3.468c-.194.897.105 1.319.808 1.319.545 0 1.178-.252 1.465-.598l.088-.416c-.2.176-.492.246-.686.246-.275 0-.375-.193-.304-.533L8.93 6.588zM8 5.5a1 1 0 1 0 0-2 1 1 0 0 0 0 2z" clip-rule="evenodd"/>
</symbol>
<symbol id="bi-info-square-fill" viewBox="0 0 16 16">
  <path fill-rule="evenodd" d="M0 2a2 2 0 0 1 2-2h12a2 2 0 0 1 2 2v12a2 2 0 0 1-2 2H2a2 2 0 0 1-2-2V2zm8.93 4.588l-2.29.287-.082.38.45.083c.294.07.352.176.288.469l-.738 3.468c-.194.897.105 1.319.808 1.319.545 0 1.178-.252 1.465-.598l.088-.416c-.2.176-.492.246-.686.246-.275 0-.375-.193-.304-.533L8.93 6.588zM8 5.5a1 1 0 1 0 0-2 1 1 0 0 0 0 2z" clip-rule="evenodd"/>
</symbol>
<symbol id="bi-kanban-fill" viewBox="0 0 16 16">
  <path fill-rule="evenodd" d="M2.5 0a2 2 0 0 0-2 2v12a2 2 0 0 0 2 2h11a2 2 0 0 0 2-2V2a2 2 0 0 0-2-2h-11zm5 2a1 1 0 0 0-1 1v3a1 1 0 0 0 1 1h1a1 1 0 0 0 1-1V3a1 1 0 0 0-1-1h-1zm-5 1a1 1 0 0 1 1-1h1a1 1 0 0 1 1 1v7a1 1 0 0 1-1 1h-1a1 1 0 0 1-1-1V3zm9-1a1 1 0 0 0-1 1v10a1 1 0 0 0 1 1h1a1 1 0 0 0 1-1V3a1 1 0 0 0-1-1h-1z" clip-rule="evenodd"/>
</symbol>
<symbol id="bi-layers-fill" viewBox="0 0 16 16">
  <path fill-rule="evenodd" d="M7.765 1.559a.5.5 0 0 1 .47 0l7.5 4a.5.5 0 0 1 0 .882l-7.5 4a.5.5 0 0 1-.47 0l-7.5-4a.5.5 0 0 1 0-.882l7.5-4z" clip-rule="evenodd"/>
  <path fill-rule="evenodd" d="M2.125 8.567l-1.86.992a.5.5 0 0 0 0 .882l7.5 4a.5.5 0 0 0 .47 0l7.5-4a.5.5 0 0 0 0-.882l-1.86-.992-5.17 2.756a1.5 1.5 0 0 1-1.41 0l.418-.785-.419.785-5.169-2.756z" clip-rule="evenodd"/>
</symbol>
<symbol id="bi-lightning-fill" viewBox="0 0 16 16">
  <path fill-rule="evenodd" d="M11.251.068a.5.5 0 0 1 .227.58L9.677 6.5H13a.5.5 0 0 1 .364.843l-8 8.5a.5.5 0 0 1-.842-.49L6.323 9.5H3a.5.5 0 0 1-.364-.843l8-8.5a.5.5 0 0 1 .615-.09z" clip-rule="evenodd"/>
</symbol>
<symbol id="bi-lock-fill" viewBox="0 0 16 16">
  <rect width="11" height="9" x="2.5" y="7" rx="2"/>
  <path fill-rule="evenodd" d="M4.5 4a3.5 3.5 0 1 1 7 0v3h-1V4a2.5 2.5 0 0 0-5 0v3h-1V4z" clip-rule="evenodd"/>
</symbol>
<symbol id="bi-mic-fill" viewBox="0 0 16 16">
  <path d="M5 3a3 3 0 0 1 6 0v5a3 3 0 0 1-6 0V3z"/>
  <path fill-rule="evenodd" d="M3.5 6.5A.5.5 0 0 1 4 7v1a4 4 0 0 0 8 0V7a.5.5 0 0 1 1 0v1a5 5 0 0 1-4.5 4.975V15h3a.5.5 0 0 1 0 1h-7a.5.5 0 0 1 0-1h3v-2.025A5 5 0 0 1 3 8V7a.5.5 0 0 1 .5-.5z" clip-rule="evenodd"/>
</symbol>
<symbol id="bi-mic-mute-fill" viewBox="0 0 16 16">
  <path fill-rule="evenodd" d="M12.734 9.613A4.995 4.995 0 0 0 13 8V7a.5.5 0 0 0-1 0v1c0 .274-.027.54-.08.799l.814.814zm-2.522 1.72A4 4 0 0 1 4 8V7a.5.5 0 0 0-1 0v1a5 5 0 0 0 4.5 4.975V15h-3a.5.5 0 0 0 0 1h7a.5.5 0 0 0 0-1h-3v-2.025a4.973 4.973 0 0 0 2.43-.923l-.718-.719zM11 7.88V3a3 3 0 0 0-5.842-.963L11 7.879zM5 6.12l4.486 4.486A3 3 0 0 1 5 8V6.121zm8.646 7.234l-12-12 .708-.708 12 12-.708.707z" clip-rule="evenodd"/>
</symbol>
<symbol id="bi-music-player-fill" viewBox="0 0 16 16">
  <path fill-rule="evenodd" d="M2 2a2 2 0 0 1 2-2h8a2 2 0 0 1 2 2v12a2 2 0 0 1-2 2H4a2 2 0 0 1-2-2V2zm2 1a1 1 0 0 1 1-1h6a1 1 0 0 1 1 1v2.5a1 1 0 0 1-1 1H5a1 1 0 0 1-1-1V3zm7 8a3 3 0 1 1-6 0 3 3 0 0 1 6 0z" clip-rule="evenodd"/>
  <circle cx="8" cy="11" r="1"/>
</symbol>
<symbol id="bi-octagon-fill" viewBox="0 0 16 16">
  <path d="M11.107 0a.5.5 0 0 1 .353.146l4.394 4.394a.5.5 0 0 1 .146.353v6.214a.5.5 0 0 1-.146.353l-4.394 4.394a.5.5 0 0 1-.353.146H4.893a.5.5 0 0 1-.353-.146L.146 11.46A.5.5 0 0 1 0 11.107V4.893a.5.5 0 0 1 .146-.353L4.54.146A.5.5 0 0 1 4.893 0h6.214z"/>
</symbol>
<symbol id="bi-pause-fill" viewBox="0 0 16 16">
  <path d="M5.5 3.5A1.5 1.5 0 0 1 7 5v6a1.5 1.5 0 0 1-3 0V5a1.5 1.5 0 0 1 1.5-1.5zm5 0A1.5 1.5 0 0 1 12 5v6a1.5 1.5 0 0 1-3 0V5a1.5 1.5 0 0 1 1.5-1.5z"/>
</symbol>
<symbol id="bi-pentagon-fill" viewBox="0 0 16 16">
  <path d="M8 0l8 6.5-3 9.5H3L0 6.5 8 0z"/>
</symbol>
<symbol id="bi-people-fill" viewBox="0 0 16 16">
  <path fill-rule="evenodd" d="M7 14s-1 0-1-1 1-4 5-4 5 3 5 4-1 1-1 1H7zm4-6a3 3 0 1 0 0-6 3 3 0 0 0 0 6zm-5.784 6A2.238 2.238 0 0 1 5 13c0-1.355.68-2.75 1.936-3.72A6.325 6.325 0 0 0 5 9c-4 0-5 3-5 4s1 1 1 1h4.216zM4.5 8a2.5 2.5 0 1 0 0-5 2.5 2.5 0 0 0 0 5z" clip-rule="evenodd"/>
</symbol>
<symbol id="bi-person-check-fill" viewBox="0 0 16 16">
  <path fill-rule="evenodd" d="M1 14s-1 0-1-1 1-4 6-4 6 3 6 4-1 1-1 1H1zm5-6a3 3 0 1 0 0-6 3 3 0 0 0 0 6zm9.854-2.854a.5.5 0 0 1 0 .708l-3 3a.5.5 0 0 1-.708 0l-1.5-1.5a.5.5 0 0 1 .708-.708L12.5 7.793l2.646-2.647a.5.5 0 0 1 .708 0z" clip-rule="evenodd"/>
</symbol>
<symbol id="bi-person-dash-fill" viewBox="0 0 16 16">
  <path fill-rule="evenodd" d="M1 14s-1 0-1-1 1-4 6-4 6 3 6 4-1 1-1 1H1zm5-6a3 3 0 1 0 0-6 3 3 0 0 0 0 6zm5-.5a.5.5 0 0 1 .5-.5h4a.5.5 0 0 1 0 1h-4a.5.5 0 0 1-.5-.5z" clip-rule="evenodd"/>
</symbol>
<symbol id="bi-person-fill" viewBox="0 0 16 16">
  <path fill-rule="evenodd" d="M3 14s-1 0-1-1 1-4 6-4 6 3 6 4-1 1-1 1H3zm5-6a3 3 0 1 0 0-6 3 3 0 0 0 0 6z" clip-rule="evenodd"/>
</symbol>
<symbol id="bi-person-lines-fill" viewBox="0 0 16 16">
  <path fill-rule="evenodd" d="M1 14s-1 0-1-1 1-4 6-4 6 3 6 4-1 1-1 1H1zm5-6a3 3 0 1 0 0-6 3 3 0 0 0 0 6zm7 1.5a.5.5 0 0 1 .5-.5h2a.5.5 0 0 1 0 1h-2a.5.5 0 0 1-.5-.5zm-2-3a.5.5 0 0 1 .5-.5h4a.5.5 0 0 1 0 1h-4a.5.5 0 0 1-.5-.5zm0-3a.5.5 0 0 1 .5-.5h4a.5.5 0 0 1 0 1h-4a.5.5 0 0 1-.5-.5zm2 9a.5.5 0 0 1 .5-.5h2a.5.5 0 0 1 0 1h-2a.5.5 0 0 1-.5-.5z" clip-rule="evenodd"/>
</symbol>
<symbol id="bi-person-plus-fill" viewBox="0 0 16 16">
  <path fill-rule="evenodd" d="M1 14s-1 0-1-1 1-4 6-4 6 3 6 4-1 1-1 1H1zm5-6a3 3 0 1 0 0-6 3 3 0 0 0 0 6zm7.5-3a.5.5 0 0 1 .5.5v2a.5.5 0 0 1-.5.5h-2a.5.5 0 0 1 0-1H13V5.5a.5.5 0 0 1 .5-.5z" clip-rule="evenodd"/>
  <path fill-rule="evenodd" d="M13 7.5a.5.5 0 0 1 .5-.5h2a.5.5 0 0 1 0 1H14v1.5a.5.5 0 0 1-1 0v-2z" clip-rule="evenodd"/>
</symbol>
<symbol id="bi-pie-chart-fill" viewBox="0 0 16 16">
  <path d="M15.985 8.5H8.207l-5.5 5.5a8 8 0 0 0 13.277-5.5zM2 13.292A8 8 0 0 1 7.5.015v7.778l-5.5 5.5zM8.5.015V7.5h7.485A8.001 8.001 0 0 0 8.5.015z"/>
</symbol>
<symbol id="bi-pip-fill" viewBox="0 0 16 16">
  <path fill-rule="evenodd" d="M1.5 2A1.5 1.5 0 0 0 0 3.5v9A1.5 1.5 0 0 0 1.5 14h13a1.5 1.5 0 0 0 1.5-1.5v-9A1.5 1.5 0 0 0 14.5 2h-13zm7 6a.5.5 0 0 0-.5.5v3a.5.5 0 0 0 .5.5h5a.5.5 0 0 0 .5-.5v-3a.5.5 0 0 0-.5-.5h-5z" clip-rule="evenodd"/>
</symbol>
<symbol id="bi-play-fill" viewBox="0 0 16 16">
  <path d="M11.596 8.697l-6.363 3.692c-.54.313-1.233-.066-1.233-.697V4.308c0-.63.692-1.01 1.233-.696l6.363 3.692a.802.802 0 0 1 0 1.393z"/>
</symbol>
<symbol id="bi-plus-circle-fill" viewBox="0 0 16 16">
  <path fill-rule="evenodd" d="M16 8A8 8 0 1 1 0 8a8 8 0 0 1 16 0zM8.5 4a.5.5 0 0 0-1 0v3.5H4a.5.5 0 0 0 0 1h3.5V12a.5.5 0 0 0 1 0V8.5H12a.5.5 0 0 0 0-1H8.5V4z" clip-rule="evenodd"/>
</symbol>
<symbol id="bi-plus-square-fill" viewBox="0 0 16 16">
  <path fill-rule="evenodd" d="M2 0a2 2 0 0 0-2 2v12a2 2 0 0 0 2 2h12a2 2 0 0 0 2-2V2a2 2 0 0 0-2-2H2zm6.5 4a.5.5 0 0 0-1 0v3.5H4a.5.5 0 0 0 0 1h3.5V12a.5.5 0 0 0 1 0V8.5H12a.5.5 0 0 0 0-1H8.5V4z" clip-rule="evenodd"/>
</symbol>
<symbol id="bi-puzzle-fill" viewBox="0 0 16 16">
  <path fill-rule="evenodd" d="M3.112 3.645A1.5 1.5 0 0 1 4.605 2H7a.5.5 0 0 1 .5.5v.382c0 .696-.497 1.182-.872 1.469a.459.459 0 0 0-.115.118.113.113 0 0 0-.012.025L6.5 4.5v.003l.003.01c.004.01.014.028.036.053a.86.86 0 0 0 .27.194C7.09 4.9 7.51 5 8 5c.492 0 .912-.1 1.19-.24a.86.86 0 0 0 .271-.194.213.213 0 0 0 .036-.054l.003-.01v-.008a.112.112 0 0 0-.012-.025.459.459 0 0 0-.115-.118c-.375-.287-.872-.773-.872-1.469V2.5A.5.5 0 0 1 9 2h2.395a1.5 1.5 0 0 1 1.493 1.645L12.645 6.5h.237c.195 0 .42-.147.675-.48.21-.274.528-.52.943-.52.568 0 .947.447 1.154.862C15.877 6.807 16 7.387 16 8s-.123 1.193-.346 1.638c-.207.415-.586.862-1.154.862-.415 0-.733-.246-.943-.52-.255-.333-.48-.48-.675-.48h-.237l.243 2.855A1.5 1.5 0 0 1 11.395 14H9a.5.5 0 0 1-.5-.5v-.382c0-.696.497-1.182.872-1.469a.459.459 0 0 0 .115-.118.113.113 0 0 0 .012-.025L9.5 11.5v-.003l-.003-.01a.214.214 0 0 0-.036-.053.859.859 0 0 0-.27-.194C8.91 11.1 8.49 11 8 11c-.491 0-.912.1-1.19.24a.859.859 0 0 0-.271.194.214.214 0 0 0-.036.054l-.003.01v.002l.001.006a.113.113 0 0 0 .012.025c.016.027.05.068.115.118.375.287.872.773.872 1.469v.382a.5.5 0 0 1-.5.5H4.605a1.5 1.5 0 0 1-1.493-1.645L3.356 9.5h-.238c-.195 0-.42.147-.675.48-.21.274-.528.52-.943.52-.568 0-.947-.447-1.154-.862C.123 9.193 0 8.613 0 8s.123-1.193.346-1.638C.553 5.947.932 5.5 1.5 5.5c.415 0 .733.246.943.52.255.333.48.48.675.48h.238l-.244-2.855z" clip-rule="evenodd"/>
</symbol>
<symbol id="bi-question-circle-fill" viewBox="0 0 16 16">
  <path fill-rule="evenodd" d="M16 8A8 8 0 1 1 0 8a8 8 0 0 1 16 0zM6.57 6.033H5.25C5.22 4.147 6.68 3.5 8.006 3.5c1.397 0 2.673.73 2.673 2.24 0 1.08-.635 1.594-1.244 2.057-.737.559-1.01.768-1.01 1.486v.355H7.117l-.007-.463c-.038-.927.495-1.498 1.168-1.987.59-.444.965-.736.965-1.371 0-.825-.628-1.168-1.314-1.168-.901 0-1.358.603-1.358 1.384zm1.251 6.443c-.584 0-1.009-.394-1.009-.927 0-.552.425-.94 1.01-.94.609 0 1.028.388 1.028.94 0 .533-.42.927-1.029.927z" clip-rule="evenodd"/>
</symbol>
<symbol id="bi-question-diamond-fill" viewBox="0 0 16 16">
  <path fill-rule="evenodd" d="M9.05.435c-.58-.58-1.52-.58-2.1 0L.436 6.95c-.58.58-.58 1.519 0 2.098l6.516 6.516c.58.58 1.519.58 2.098 0l6.516-6.516c.58-.58.58-1.519 0-2.098L9.05.435zM6.57 6.033H5.25C5.22 4.147 6.68 3.5 8.006 3.5c1.397 0 2.673.73 2.673 2.24 0 1.08-.635 1.594-1.244 2.057-.737.559-1.01.768-1.01 1.486v.355H7.117l-.007-.463c-.038-.927.495-1.498 1.168-1.987.59-.444.965-.736.965-1.371 0-.825-.628-1.168-1.314-1.168-.901 0-1.358.603-1.358 1.384zm1.251 6.443c-.584 0-1.009-.394-1.009-.927 0-.552.425-.94 1.01-.94.609 0 1.028.388 1.028.94 0 .533-.42.927-1.029.927z" clip-rule="evenodd"/>
</symbol>
<symbol id="bi-question-octagon-fill" viewBox="0 0 16 16">
  <path fill-rule="evenodd" d="M11.46.146A.5.5 0 0 0 11.107 0H4.893a.5.5 0 0 0-.353.146L.146 4.54A.5.5 0 0 0 0 4.893v6.214a.5.5 0 0 0 .146.353l4.394 4.394a.5.5 0 0 0 .353.146h6.214a.5.5 0 0 0 .353-.146l4.394-4.394a.5.5 0 0 0 .146-.353V4.893a.5.5 0 0 0-.146-.353L11.46.146zM6.57 6.033H5.25C5.22 4.147 6.68 3.5 8.006 3.5c1.397 0 2.673.73 2.673 2.24 0 1.08-.635 1.594-1.244 2.057-.737.559-1.01.768-1.01 1.486v.355H7.117l-.007-.463c-.038-.927.495-1.498 1.168-1.987.59-.444.965-.736.965-1.371 0-.825-.628-1.168-1.314-1.168-.901 0-1.358.603-1.358 1.384zm1.251 6.443c-.584 0-1.009-.394-1.009-.927 0-.552.425-.94 1.01-.94.609 0 1.028.388 1.028.94 0 .533-.42.927-1.029.927z" clip-rule="evenodd"/>
</symbol>
<symbol id="bi-question-square-fill" viewBox="0 0 16 16">
  <path fill-rule="evenodd" d="M2 0a2 2 0 0 0-2 2v12a2 2 0 0 0 2 2h12a2 2 0 0 0 2-2V2a2 2 0 0 0-2-2H2zm4.57 6.033H5.25C5.22 4.147 6.68 3.5 8.006 3.5c1.397 0 2.673.73 2.673 2.24 0 1.08-.635 1.594-1.244 2.057-.737.559-1.01.768-1.01 1.486v.355H7.117l-.007-.463c-.038-.927.495-1.498 1.168-1.987.59-.444.965-.736.965-1.371 0-.825-.628-1.168-1.314-1.168-.901 0-1.358.603-1.358 1.384zm1.251 6.443c-.584 0-1.009-.394-1.009-.927 0-.552.425-.94 1.01-.94.609 0 1.028.388 1.028.94 0 .533-.42.927-1.029.927z" clip-rule="evenodd"/>
</symbol>
<symbol id="bi-reply-all-fill" viewBox="0 0 16 16">
  <path d="M8.079 11.9l4.568-3.281a.719.719 0 0 0 0-1.238L8.079 4.1A.716.716 0 0 0 7 4.719V6c-1.5 0-6 0-7 8 2.5-4.5 7-4 7-4v1.281c0 .56.606.898 1.079.62z"/>
  <path fill-rule="evenodd" d="M10.868 4.293a.5.5 0 0 1 .7-.106l3.993 2.94a1.147 1.147 0 0 1 0 1.946l-3.994 2.94a.5.5 0 0 1-.593-.805l4.012-2.954a.493.493 0 0 1 .042-.028.147.147 0 0 0 0-.252.496.496 0 0 1-.042-.028l-4.012-2.954a.5.5 0 0 1-.106-.699z" clip-rule="evenodd"/>
</symbol>
<symbol id="bi-reply-fill" viewBox="0 0 16 16">
  <path d="M9.079 11.9l4.568-3.281a.719.719 0 0 0 0-1.238L9.079 4.1A.716.716 0 0 0 8 4.719V6c-1.5 0-6 0-7 8 2.5-4.5 7-4 7-4v1.281c0 .56.606.898 1.079.62z"/>
</symbol>
<symbol id="bi-shield-fill" viewBox="0 0 16 16">
  <path fill-rule="evenodd" d="M5.187 1.025C6.23.749 7.337.5 8 .5c.662 0 1.77.249 2.813.525a61.09 61.09 0 0 1 2.772.815c.528.168.926.623 1.003 1.184.573 4.197-.756 7.307-2.367 9.365a11.191 11.191 0 0 1-2.418 2.3 6.942 6.942 0 0 1-1.007.586c-.27.124-.558.225-.796.225s-.526-.101-.796-.225a6.908 6.908 0 0 1-1.007-.586 11.192 11.192 0 0 1-2.417-2.3C2.167 10.331.839 7.221 1.412 3.024A1.454 1.454 0 0 1 2.415 1.84a61.11 61.11 0 0 1 2.772-.815z" clip-rule="evenodd"/>
</symbol>
<symbol id="bi-shield-lock-fill" viewBox="0 0 16 16">
  <path fill-rule="evenodd" d="M5.187 1.025C6.23.749 7.337.5 8 .5c.662 0 1.77.249 2.813.525a61.09 61.09 0 0 1 2.772.815c.528.168.926.623 1.003 1.184.573 4.197-.756 7.307-2.367 9.365a11.191 11.191 0 0 1-2.418 2.3 6.942 6.942 0 0 1-1.007.586c-.27.124-.558.225-.796.225s-.526-.101-.796-.225a6.908 6.908 0 0 1-1.007-.586 11.192 11.192 0 0 1-2.417-2.3C2.167 10.331.839 7.221 1.412 3.024A1.454 1.454 0 0 1 2.415 1.84a61.11 61.11 0 0 1 2.772-.815zm3.328 6.884a1.5 1.5 0 1 0-1.06-.011.5.5 0 0 0-.044.136l-.333 2a.5.5 0 0 0 .493.582h.835a.5.5 0 0 0 .493-.585l-.347-2a.5.5 0 0 0-.037-.122z" clip-rule="evenodd"/>
</symbol>
<symbol id="bi-shift-fill" viewBox="0 0 16 16">
  <path fill-rule="evenodd" d="M7.27 2.047a1 1 0 0 1 1.46 0l6.345 6.77c.6.638.146 1.683-.73 1.683H11.5v3a1 1 0 0 1-1 1h-5a1 1 0 0 1-1-1v-3H1.654C.78 10.5.326 9.455.924 8.816L7.27 2.047z" clip-rule="evenodd"/>
</symbol>
<symbol id="bi-skip-backward-fill" viewBox="0 0 16 16">
  <path fill-rule="evenodd" d="M.5 3.5A.5.5 0 0 0 0 4v8a.5.5 0 0 0 1 0V4a.5.5 0 0 0-.5-.5z" clip-rule="evenodd"/>
  <path d="M.904 8.697l6.363 3.692c.54.313 1.233-.066 1.233-.697V4.308c0-.63-.692-1.01-1.233-.696L.904 7.304a.802.802 0 0 0 0 1.393z"/>
  <path d="M8.404 8.697l6.363 3.692c.54.313 1.233-.066 1.233-.697V4.308c0-.63-.693-1.01-1.233-.696L8.404 7.304a.802.802 0 0 0 0 1.393z"/>
</symbol>
<symbol id="bi-skip-end-fill" viewBox="0 0 16 16">
  <path fill-rule="evenodd" d="M12 3.5a.5.5 0 0 1 .5.5v8a.5.5 0 0 1-1 0V4a.5.5 0 0 1 .5-.5z" clip-rule="evenodd"/>
  <path d="M11.596 8.697l-6.363 3.692c-.54.313-1.233-.066-1.233-.697V4.308c0-.63.692-1.01 1.233-.696l6.363 3.692a.802.802 0 0 1 0 1.393z"/>
</symbol>
<symbol id="bi-skip-forward-fill" viewBox="0 0 16 16">
  <path fill-rule="evenodd" d="M15.5 3.5a.5.5 0 0 1 .5.5v8a.5.5 0 0 1-1 0V4a.5.5 0 0 1 .5-.5z" clip-rule="evenodd"/>
  <path d="M7.596 8.697l-6.363 3.692C.693 12.702 0 12.322 0 11.692V4.308c0-.63.693-1.01 1.233-.696l6.363 3.692a.802.802 0 0 1 0 1.393z"/>
  <path d="M15.096 8.697l-6.363 3.692c-.54.313-1.233-.066-1.233-.697V4.308c0-.63.693-1.01 1.233-.696l6.363 3.692a.802.802 0 0 1 0 1.393z"/>
</symbol>
<symbol id="bi-skip-start-fill" viewBox="0 0 16 16">
  <path fill-rule="evenodd" d="M4.5 3.5A.5.5 0 0 0 4 4v8a.5.5 0 0 0 1 0V4a.5.5 0 0 0-.5-.5z" clip-rule="evenodd"/>
  <path d="M4.903 8.697l6.364 3.692c.54.313 1.232-.066 1.232-.697V4.308c0-.63-.692-1.01-1.232-.696L4.903 7.304a.802.802 0 0 0 0 1.393z"/>
</symbol>
<symbol id="bi-slash-circle-fill" viewBox="0 0 16 16">
  <path fill-rule="evenodd" d="M16 8A8 8 0 1 1 0 8a8 8 0 0 1 16 0zm-4.146-3.146a.5.5 0 0 0-.708-.708l-7 7a.5.5 0 0 0 .708.708l7-7z" clip-rule="evenodd"/>
</symbol>
<symbol id="bi-slash-square-fill" viewBox="0 0 16 16">
  <path fill-rule="evenodd" d="M2 0a2 2 0 0 0-2 2v12a2 2 0 0 0 2 2h12a2 2 0 0 0 2-2V2a2 2 0 0 0-2-2H2zm9.854 4.854a.5.5 0 0 0-.708-.708l-7 7a.5.5 0 0 0 .708.708l7-7z" clip-rule="evenodd"/>
</symbol>
<symbol id="bi-square-fill" viewBox="0 0 16 16">
  <rect width="16" height="16" rx="2"/>
</symbol>
<symbol id="bi-star-fill" viewBox="0 0 16 16">
  <path d="M3.612 15.443c-.386.198-.824-.149-.746-.592l.83-4.73L.173 6.765c-.329-.314-.158-.888.283-.95l4.898-.696L7.538.792c.197-.39.73-.39.927 0l2.184 4.327 4.898.696c.441.062.612.636.283.95l-3.523 3.356.83 4.73c.078.443-.36.79-.746.592L8 13.187l-4.389 2.256z"/>
</symbol>
<symbol id="bi-stop-fill" viewBox="0 0 16 16">
  <path d="M5 3.5h6A1.5 1.5 0 0 1 12.5 5v6a1.5 1.5 0 0 1-1.5 1.5H5A1.5 1.5 0 0 1 3.5 11V5A1.5 1.5 0 0 1 5 3.5z"/>
</symbol>
<symbol id="bi-stopwatch-fill" viewBox="0 0 16 16">
  <path fill-rule="evenodd" d="M5.5.5A.5.5 0 0 1 6 0h4a.5.5 0 0 1 0 1H9v1.07A7.002 7.002 0 0 1 8 16 7 7 0 0 1 7 2.07V1H6a.5.5 0 0 1-.5-.5zm3 4.5a.5.5 0 0 0-1 0v3.5h-3a.5.5 0 0 0 0 1H8a.5.5 0 0 0 .5-.5V5z" clip-rule="evenodd"/>
</symbol>
<symbol id="bi-tag-fill" viewBox="0 0 16 16">
  <path fill-rule="evenodd" d="M2 1a1 1 0 0 0-1 1v4.586a1 1 0 0 0 .293.707l7 7a1 1 0 0 0 1.414 0l4.586-4.586a1 1 0 0 0 0-1.414l-7-7A1 1 0 0 0 6.586 1H2zm4 3.5a1.5 1.5 0 1 1-3 0 1.5 1.5 0 0 1 3 0z" clip-rule="evenodd"/>
</symbol>
<symbol id="bi-terminal-fill" viewBox="0 0 16 16">
  <path fill-rule="evenodd" d="M0 3a2 2 0 0 1 2-2h12a2 2 0 0 1 2 2v10a2 2 0 0 1-2 2H2a2 2 0 0 1-2-2V3zm9.5 5.5h-3a.5.5 0 0 0 0 1h3a.5.5 0 0 0 0-1zm-6.354-.354L4.793 6.5 3.146 4.854a.5.5 0 1 1 .708-.708l2 2a.5.5 0 0 1 0 .708l-2 2a.5.5 0 0 1-.708-.708z" clip-rule="evenodd"/>
</symbol>
<symbol id="bi-trash-fill" viewBox="0 0 16 16">
  <path fill-rule="evenodd" d="M2.5 1a1 1 0 0 0-1 1v1a1 1 0 0 0 1 1H3v9a2 2 0 0 0 2 2h6a2 2 0 0 0 2-2V4h.5a1 1 0 0 0 1-1V2a1 1 0 0 0-1-1H10a1 1 0 0 0-1-1H7a1 1 0 0 0-1 1H2.5zm3 4a.5.5 0 0 1 .5.5v7a.5.5 0 0 1-1 0v-7a.5.5 0 0 1 .5-.5zM8 5a.5.5 0 0 1 .5.5v7a.5.5 0 0 1-1 0v-7A.5.5 0 0 1 8 5zm3 .5a.5.5 0 0 0-1 0v7a.5.5 0 0 0 1 0v-7z" clip-rule="evenodd"/>
</symbol>
<symbol id="bi-trash2-fill" viewBox="0 0 16 16">
  <path d="M2.037 3.225l1.684 10.104A2 2 0 0 0 5.694 15h4.612a2 2 0 0 0 1.973-1.671l1.684-10.104C13.627 4.224 11.085 5 8 5c-3.086 0-5.627-.776-5.963-1.775z"/>
  <path fill-rule="evenodd" d="M12.9 3c-.18-.14-.497-.307-.974-.466C10.967 2.214 9.58 2 8 2s-2.968.215-3.926.534c-.477.16-.795.327-.975.466.18.14.498.307.975.466C5.032 3.786 6.42 4 8 4s2.967-.215 3.926-.534c.477-.16.795-.327.975-.466zM8 5c3.314 0 6-.895 6-2s-2.686-2-6-2-6 .895-6 2 2.686 2 6 2z" clip-rule="evenodd"/>
</symbol>
<symbol id="bi-triangle-fill" viewBox="0 0 16 16">
  <path fill-rule="evenodd" d="M7.022 1.566a1.13 1.13 0 0 1 1.96 0l6.857 11.667c.457.778-.092 1.767-.98 1.767H1.144c-.889 0-1.437-.99-.98-1.767L7.022 1.566z" clip-rule="evenodd"/>
</symbol>
<symbol id="bi-tv-fill" viewBox="0 0 16 16">
  <path fill-rule="evenodd" d="M2.5 13.5A.5.5 0 0 1 3 13h10a.5.5 0 0 1 0 1H3a.5.5 0 0 1-.5-.5zM2 2h12s2 0 2 2v6s0 2-2 2H2s-2 0-2-2V4s0-2 2-2z" clip-rule="evenodd"/>
</symbol>
<symbol id="bi-unlock-fill" viewBox="0 0 16 16">
  <path d="M.5 9a2 2 0 0 1 2-2h7a2 2 0 0 1 2 2v5a2 2 0 0 1-2 2h-7a2 2 0 0 1-2-2V9z"/>
  <path fill-rule="evenodd" d="M8.5 4a3.5 3.5 0 1 1 7 0v3h-1V4a2.5 2.5 0 0 0-5 0v3h-1V4z" clip-rule="evenodd"/>
</symbol>
<symbol id="bi-volume-down-fill" viewBox="0 0 16 16">
  <path fill-rule="evenodd" d="M8.717 3.55A.5.5 0 0 1 9 4v8a.5.5 0 0 1-.812.39L5.825 10.5H3.5A.5.5 0 0 1 3 10V6a.5.5 0 0 1 .5-.5h2.325l2.363-1.89a.5.5 0 0 1 .529-.06z" clip-rule="evenodd"/>
  <path d="M10.707 11.182A4.486 4.486 0 0 0 12.025 8a4.486 4.486 0 0 0-1.318-3.182L10 5.525A3.489 3.489 0 0 1 11.025 8c0 .966-.392 1.841-1.025 2.475l.707.707z"/>
</symbol>
<symbol id="bi-volume-mute-fill" viewBox="0 0 16 16">
  <path fill-rule="evenodd" d="M6.717 3.55A.5.5 0 0 1 7 4v8a.5.5 0 0 1-.812.39L3.825 10.5H1.5A.5.5 0 0 1 1 10V6a.5.5 0 0 1 .5-.5h2.325l2.363-1.89a.5.5 0 0 1 .529-.06zm7.137 1.596a.5.5 0 0 1 0 .708l-4 4a.5.5 0 0 1-.708-.708l4-4a.5.5 0 0 1 .708 0z" clip-rule="evenodd"/>
  <path fill-rule="evenodd" d="M9.146 5.146a.5.5 0 0 0 0 .708l4 4a.5.5 0 0 0 .708-.708l-4-4a.5.5 0 0 0-.708 0z" clip-rule="evenodd"/>
</symbol>
<symbol id="bi-volume-up-fill" viewBox="0 0 16 16">
  <path d="M11.536 14.01A8.473 8.473 0 0 0 14.026 8a8.473 8.473 0 0 0-2.49-6.01l-.708.707A7.476 7.476 0 0 1 13.025 8c0 2.071-.84 3.946-2.197 5.303l.708.707z"/>
  <path d="M10.121 12.596A6.48 6.48 0 0 0 12.025 8a6.48 6.48 0 0 0-1.904-4.596l-.707.707A5.483 5.483 0 0 1 11.025 8a5.483 5.483 0 0 1-1.61 3.89l.706.706z"/>
  <path d="M8.707 11.182A4.486 4.486 0 0 0 10.025 8a4.486 4.486 0 0 0-1.318-3.182L8 5.525A3.489 3.489 0 0 1 9.025 8 3.49 3.49 0 0 1 8 10.475l.707.707z"/>
  <path fill-rule="evenodd" d="M6.717 3.55A.5.5 0 0 1 7 4v8a.5.5 0 0 1-.812.39L3.825 10.5H1.5A.5.5 0 0 1 1 10V6a.5.5 0 0 1 .5-.5h2.325l2.363-1.89a.5.5 0 0 1 .529-.06z" clip-rule="evenodd"/>
</symbol>
<symbol id="bi-x-circle-fill" viewBox="0 0 16 16">
  <path fill-rule="evenodd" d="M16 8A8 8 0 1 1 0 8a8 8 0 0 1 16 0zm-4.146-3.146a.5.5 0 0 0-.708-.708L8 7.293 4.854 4.146a.5.5 0 1 0-.708.708L7.293 8l-3.147 3.146a.5.5 0 0 0 .708.708L8 8.707l3.146 3.147a.5.5 0 0 0 .708-.708L8.707 8l3.147-3.146z" clip-rule="evenodd"/>
</symbol>
<symbol id="bi-x-diamond-fill" viewBox="0 0 16 16">
  <path fill-rule="evenodd" d="M9.05.435c-.58-.58-1.52-.58-2.1 0L4.047 3.339 8 7.293l3.954-3.954L9.049.435zm3.61 3.611L8.708 8l3.954 3.954 2.904-2.905c.58-.58.58-1.519 0-2.098l-2.904-2.905zm-.706 8.615L8 8.707l-3.954 3.954 2.905 2.904c.58.58 1.519.58 2.098 0l2.905-2.904zm-8.615-.707L7.293 8 3.339 4.046.435 6.951c-.58.58-.58 1.519 0 2.098l2.904 2.905z" clip-rule="evenodd"/>
</symbol>
<symbol id="bi-x-octagon-fill" viewBox="0 0 16 16">
  <path fill-rule="evenodd" d="M11.46.146A.5.5 0 0 0 11.107 0H4.893a.5.5 0 0 0-.353.146L.146 4.54A.5.5 0 0 0 0 4.893v6.214a.5.5 0 0 0 .146.353l4.394 4.394a.5.5 0 0 0 .353.146h6.214a.5.5 0 0 0 .353-.146l4.394-4.394a.5.5 0 0 0 .146-.353V4.893a.5.5 0 0 0-.146-.353L11.46.146zm.394 4.708a.5.5 0 0 0-.708-.708L8 7.293 4.854 4.146a.5.5 0 1 0-.708.708L7.293 8l-3.147 3.146a.5.5 0 0 0 .708.708L8 8.707l3.146 3.147a.5.5 0 0 0 .708-.708L8.707 8l3.147-3.146z" clip-rule="evenodd"/>
</symbol>
<symbol id="bi-x-square-fill" viewBox="0 0 16 16">
  <path fill-rule="evenodd" d="M2 0a2 2 0 0 0-2 2v12a2 2 0 0 0 2 2h12a2 2 0 0 0 2-2V2a2 2 0 0 0-2-2H2zm9.854 4.854a.5.5 0 0 0-.708-.708L8 7.293 4.854 4.146a.5.5 0 1 0-.708.708L7.293 8l-3.147 3.146a.5.5 0 0 0 .708.708L8 8.707l3.146 3.147a.5.5 0 0 0 .708-.708L8.707 8l3.147-3.146z" clip-rule="evenodd"/>
</symbol>
</svg>