<svg version="1.1"
	width="128"
	height="128"
	viewBox="0 0 512 512"
	xmlns="http://www.w3.org/2000/svg">
	<path fill="#ffb129" d="m274.714844 150.433594h-274.714844v-90.378906c0-33.117188 26.949219-60.054688 60.078125-60.054688h87.835937c8.730469 0 17.140626 1.839844 24.78125 5.296875 10.671876 4.808594 19.839844 12.734375 26.269532 23.089844zm0 0" />
	<g fill="#ccf4ff">
		<path d="m440.3125 59.335938c-8.285156 0-15 6.714843-15 15v60.226562c0 8.28125 6.714844 15 15 15s15-6.71875 15-15v-60.226562c0-8.285157-6.714844-15-15-15zm0 0"/>
		<path d="m380.230469 59.335938c-8.285157 0-15 6.714843-15 15v60.226562c0 8.28125 6.714843 15 15 15 8.285156 0 15-6.71875 15-15v-60.226562c0-8.285157-6.714844-15-15-15zm0 0"/>
		<path d="m320.230469 59.335938c-8.285157 0-15 6.714843-15 15v60.226562c0 8.28125 6.714843 15 15 15 8.285156 0 15-6.71875 15-15v-60.226562c0-8.285157-6.714844-15-15-15zm0 0"/>
	</g>
	<path fill="#ffda2f" d="m512 170.667969v291.125c0 27.6875-22.539062 50.207031-50.238281 50.207031h-411.523438c-27.699219 0-50.238281-22.519531-50.238281-50.207031v-341.34375h461.761719c27.699219 0 50.238281 22.527343 50.238281 50.21875zm0 0"/>
	<path fill="#ffb129" d="m512 170.667969v291.125c0 27.6875-22.539062 50.207031-50.238281 50.207031h-205.761719v-391.550781h205.761719c27.699219 0 50.238281 22.527343 50.238281 50.21875zm0 0"/>
	<path fill="#ff6d40" d="m355.28125 335.960938-83.292969 83.289062c-4.269531 4.28125-9.949219 6.628906-15.988281 6.628906s-11.71875-2.347656-15.988281-6.628906l-83.292969-83.289062c-17.1875-15.210938-26.25-37.039063-24.847656-59.972657 2.25-36.976562 31.808594-66.75 68.757812-69.25 20.582032-1.386719 40.53125 5.800781 55.371094 19.582031 14.828125-13.769531 34.761719-20.96875 55.339844-19.582031 36.960937 2.492188 66.53125 32.261719 68.789062 69.25 1.402344 22.933594-7.648437 44.761719-24.847656 59.972657zm0 0"/>
	<path fill="#e83315" d="m355.28125 335.960938-83.292969 83.289062c-4.269531 4.28125-9.949219 6.628906-15.988281 6.628906v-199.558594c14.828125-13.769531 34.761719-20.96875 55.339844-19.582031 36.960937 2.492188 66.53125 32.261719 68.789062 69.25 1.402344 22.933594-7.648437 44.761719-24.847656 59.972657zm0 0"/>
</svg>