<svg version="1.1"
		 width="64"
		 height="64"
		 viewBox="0 -35 512 512"
		 xmlns="http://www.w3.org/2000/svg">
	<path fill="#ad0123" d="m358.636719 0c-38 0-74.613281 14.207031-102.636719 39.417969-28.023438-25.214844-64.636719-39.417969-102.636719-39.417969-84.5625 0-153.363281 68.800781-153.363281 153.363281 0 42.667969 17.988281 83.75 49.351562 112.707031l178.65625 164.953126c7.644532 7.054687 17.585938 10.945312 27.992188 10.945312 10.914062 0 21.179688-4.207031 28.945312-11.855469l177.703126-164.042969c31.363281-28.960937 49.351562-70.039062 49.351562-112.707031 0-84.5625-68.800781-153.363281-153.363281-153.363281zm0 0"/>
	<path fill="#fd0134" d="m256 39.417969c-28.023438-25.214844-64.636719-39.417969-102.636719-39.417969-84.5625 0-153.363281 68.800781-153.363281 153.363281 0 42.667969 17.988281 83.75 49.351562 112.707031l178.65625 164.953126c7.644532 7.054687 17.585938 10.945312 27.992188 10.945312zm0 0"/>
</svg>