<svg xmlns="http://www.w3.org/2000/svg" viewBox="-261 231 64 64"><circle fill="#2C3E50" cx="-229" cy="263" r="31.5"/><path fill="#ECF0F1" d="M-214.2 250.1c-2.6 0-4.7 2.1-4.7 4.7 0 .2 0 .5.1.7l-12 4.6c-1-1.5-2.7-2.6-4.7-2.6-1.4 0-2.6.5-3.6 1.3l-2.5-1.9c.1-.3.2-.7.2-1 0-2-1.6-3.5-3.5-3.5-2 0-3.5 1.6-3.5 3.5 0 2 1.6 3.5 3.5 3.5.8 0 1.6-.3 2.2-.8l2.4 1.8c-.4.8-.7 1.7-.7 2.7 0 3.1 2.5 5.6 5.6 5.6.9 0 1.8-.2 2.5-.6l3.3 4.4c-.7.8-1.2 1.8-1.2 3 0 2.4 2 4.4 4.4 4.4 2.4 0 4.4-2 4.4-4.4 0-2.4-2-4.4-4.4-4.4-.5 0-1 .1-1.5.3l-3.4-4.5c.9-1 1.4-2.3 1.4-3.7 0-.4 0-.8-.1-1.1l12-4.6c.8 1.2 2.3 2 3.9 2 2.6 0 4.7-2.1 4.7-4.7-.1-2.6-2.2-4.7-4.8-4.7z"/></svg>