<?xml version="1.0" encoding="UTF-8" standalone="no"?>
<!-- Created with Inkscape (http://www.inkscape.org/) -->

<svg
   xmlns:dc="http://purl.org/dc/elements/1.1/"
   xmlns:cc="http://creativecommons.org/ns#"
   xmlns:rdf="http://www.w3.org/1999/02/22-rdf-syntax-ns#"
   xmlns:svg="http://www.w3.org/2000/svg"
   xmlns="http://www.w3.org/2000/svg"
   xmlns:sodipodi="http://sodipodi.sourceforge.net/DTD/sodipodi-0.dtd"
   xmlns:inkscape="http://www.inkscape.org/namespaces/inkscape"
   width="210mm"
   height="297mm"
   id="svg2"
   version="1.1"
   inkscape:version="0.47 r22583"
   sodipodi:docname="globe.svg"
   inkscape:export-filename="C:\EasyPHP1-8\www\spip 2.1.8\plugins\spip_mashup\img\mashup.png"
   inkscape:export-xdpi="90"
   inkscape:export-ydpi="90">
  <defs
     id="defs4">
    <inkscape:perspective
       sodipodi:type="inkscape:persp3d"
       inkscape:vp_x="0 : 526.18109 : 1"
       inkscape:vp_y="0 : 1000 : 0"
       inkscape:vp_z="744.09448 : 526.18109 : 1"
       inkscape:persp3d-origin="372.04724 : 350.78739 : 1"
       id="perspective10" />
    <inkscape:perspective
       id="perspective2824"
       inkscape:persp3d-origin="0.5 : 0.33333333 : 1"
       inkscape:vp_z="1 : 0.5 : 1"
       inkscape:vp_y="0 : 1000 : 0"
       inkscape:vp_x="0 : 0.5 : 1"
       sodipodi:type="inkscape:persp3d" />
    <inkscape:perspective
       id="perspective3626"
       inkscape:persp3d-origin="0.5 : 0.33333333 : 1"
       inkscape:vp_z="1 : 0.5 : 1"
       inkscape:vp_y="0 : 1000 : 0"
       inkscape:vp_x="0 : 0.5 : 1"
       sodipodi:type="inkscape:persp3d" />
    <inkscape:perspective
       id="perspective3648"
       inkscape:persp3d-origin="0.5 : 0.33333333 : 1"
       inkscape:vp_z="1 : 0.5 : 1"
       inkscape:vp_y="0 : 1000 : 0"
       inkscape:vp_x="0 : 0.5 : 1"
       sodipodi:type="inkscape:persp3d" />
    <inkscape:perspective
       id="perspective3670"
       inkscape:persp3d-origin="0.5 : 0.33333333 : 1"
       inkscape:vp_z="1 : 0.5 : 1"
       inkscape:vp_y="0 : 1000 : 0"
       inkscape:vp_x="0 : 0.5 : 1"
       sodipodi:type="inkscape:persp3d" />
    <inkscape:perspective
       id="perspective3692"
       inkscape:persp3d-origin="0.5 : 0.33333333 : 1"
       inkscape:vp_z="1 : 0.5 : 1"
       inkscape:vp_y="0 : 1000 : 0"
       inkscape:vp_x="0 : 0.5 : 1"
       sodipodi:type="inkscape:persp3d" />
    <inkscape:perspective
       id="perspective3714"
       inkscape:persp3d-origin="0.5 : 0.33333333 : 1"
       inkscape:vp_z="1 : 0.5 : 1"
       inkscape:vp_y="0 : 1000 : 0"
       inkscape:vp_x="0 : 0.5 : 1"
       sodipodi:type="inkscape:persp3d" />
    <inkscape:perspective
       id="perspective3816"
       inkscape:persp3d-origin="0.5 : 0.33333333 : 1"
       inkscape:vp_z="1 : 0.5 : 1"
       inkscape:vp_y="0 : 1000 : 0"
       inkscape:vp_x="0 : 0.5 : 1"
       sodipodi:type="inkscape:persp3d" />
    <inkscape:perspective
       id="perspective3863"
       inkscape:persp3d-origin="0.5 : 0.33333333 : 1"
       inkscape:vp_z="1 : 0.5 : 1"
       inkscape:vp_y="0 : 1000 : 0"
       inkscape:vp_x="0 : 0.5 : 1"
       sodipodi:type="inkscape:persp3d" />
  </defs>
  <sodipodi:namedview
     id="base"
     pagecolor="#ffffff"
     bordercolor="#666666"
     borderopacity="1.0"
     inkscape:pageopacity="0.0"
     inkscape:pageshadow="2"
     inkscape:zoom="0.98994949"
     inkscape:cx="364.68622"
     inkscape:cy="496.89868"
     inkscape:document-units="px"
     inkscape:current-layer="layer1"
     showgrid="false"
     inkscape:window-width="1366"
     inkscape:window-height="716"
     inkscape:window-x="-8"
     inkscape:window-y="-8"
     inkscape:window-maximized="1" />
  <metadata
     id="metadata7">
    <rdf:RDF>
      <cc:Work
         rdf:about="">
        <dc:format>image/svg+xml</dc:format>
        <dc:type
           rdf:resource="http://purl.org/dc/dcmitype/StillImage" />
        <dc:title></dc:title>
      </cc:Work>
    </rdf:RDF>
  </metadata>
  <g
     inkscape:label="Calque 1"
     inkscape:groupmode="layer"
     id="layer1">
    <g
       id="g3830"
       style="stroke:#000000;stroke-opacity:1;stroke-width:2.5;stroke-miterlimit:4;stroke-dasharray:none">
      <path
         style="fill:none;stroke:#000000;stroke-width:2.5;stroke-linecap:round;stroke-linejoin:miter;stroke-opacity:1;stroke-miterlimit:4;stroke-dasharray:none"
         d="m 540.51827,507.38488 c 0,0 -23.43495,-1.28427 -45.03845,6.06092 -50.50762,17.17259 -134.91401,95.45942 -121.78202,146.47211"
         id="path3789"
         sodipodi:nodetypes="csc" />
      <path
         sodipodi:type="arc"
         style="color:#000000;fill:none;stroke:#000000;stroke-width:2.54589964;stroke-miterlimit:4;stroke-opacity:1;stroke-dasharray:none;marker:none;visibility:visible;display:inline;overflow:visible;enable-background:accumulate;stroke-linecap:round"
         id="path3775"
         sodipodi:cx="484.28571"
         sodipodi:cy="601.64789"
         sodipodi:rx="117.85714"
         sodipodi:ry="117.85714"
         d="m 602.14285,601.64789 a 117.85714,117.85714 0 1 1 -235.71428,0 117.85714,117.85714 0 1 1 235.71428,0 z"
         transform="matrix(0.98197115,0,0,0.98197115,-1.983173,10.847018)" />
      <path
         sodipodi:nodetypes="csc"
         id="path3753"
         d="m 566.1905,532.13363 c 0,0 -18.70618,-20.07394 -74.24621,-17.1726 -67.17514,3.53553 -136.83978,53.3131 -132.20743,107.55061"
         style="fill:none;stroke:#000000;stroke-width:2.5;stroke-linecap:round;stroke-linejoin:miter;stroke-opacity:1;stroke-miterlimit:4;stroke-dasharray:none" />
      <path
         sodipodi:nodetypes="csc"
         id="path3755"
         d="m 587.19449,579.37357 c -6.56599,-21.2132 -44.85181,-57.66461 -94.61885,-64.66508 -49.3712,-6.9448 -107.73553,8.95876 -127.93858,47.84963"
         style="fill:none;stroke:#000000;stroke-width:2.5;stroke-linecap:round;stroke-linejoin:miter;stroke-opacity:1;stroke-miterlimit:4;stroke-dasharray:none" />
      <path
         sodipodi:nodetypes="csc"
         id="path3759"
         d="m 581.64183,643.10564 c 0,0 18.44623,-79.80188 -86.66708,-127.13446 C 411.2505,478.27011 378.4284,536.17423 378.4284,536.17423"
         style="fill:none;stroke:#000000;stroke-width:2.5;stroke-linecap:round;stroke-linejoin:miter;stroke-opacity:1;stroke-miterlimit:4;stroke-dasharray:none" />
      <path
         sodipodi:nodetypes="csc"
         id="path3761"
         d="m 521.23871,496.27321 c 0,0 -11.17481,3.59866 -28.85248,17.23572 -17.67767,13.63706 -112.71681,122.55048 -94.02899,176.08856"
         style="fill:none;stroke:#000000;stroke-width:2.5;stroke-linecap:round;stroke-linejoin:miter;stroke-opacity:1;stroke-miterlimit:4;stroke-dasharray:none" />
      <path
         sodipodi:nodetypes="csc"
         id="path3763"
         d="m 502.8774,490.12563 c 0,0 -3.73577,2.10697 -11.31192,23.32017 -7.57614,21.2132 -62.75572,167.15223 -58.71511,196.44666"
         style="fill:none;stroke:#000000;stroke-width:2.5;stroke-linecap:round;stroke-linejoin:miter;stroke-opacity:1;stroke-miterlimit:4;stroke-dasharray:none" />
      <path
         sodipodi:nodetypes="csc"
         id="path3767"
         d="m 461.63971,486.49819 c 0,0 17.23912,1.18097 29.7995,27.01075 17.49387,35.97526 57.81591,154.93663 21.45042,196.85796"
         style="fill:none;stroke:#000000;stroke-width:2.5;stroke-linecap:round;stroke-linejoin:miter;stroke-opacity:1;stroke-miterlimit:4;stroke-dasharray:none" />
      <path
         sodipodi:type="arc"
         style="color:#000000;fill:none;stroke:#000000;stroke-width:5.36302789;stroke-miterlimit:4;stroke-opacity:1;stroke-dasharray:none;marker:none;visibility:visible;display:inline;overflow:visible;enable-background:accumulate;stroke-linecap:round"
         id="path3777"
         sodipodi:cx="484.28571"
         sodipodi:cy="601.64789"
         sodipodi:rx="117.85714"
         sodipodi:ry="117.85714"
         d="m 602.14285,601.64789 a 117.85714,117.85714 0 1 1 -235.71428,0 117.85714,117.85714 0 1 1 235.71428,0 z"
         transform="matrix(0.56461558,0.07044437,-0.05122516,0.37847267,245.2414,271.25398)" />
      <path
         style="color:#000000;fill:none;stroke:#000000;stroke-width:2.5;stroke-miterlimit:4;stroke-opacity:1;stroke-dasharray:none;marker:none;visibility:visible;display:inline;overflow:visible;enable-background:accumulate;stroke-linecap:round"
         d="m 577.10406,549.89461 c 1.96215,6.76683 2.45635,13.89788 1.55641,20.94542 l 0,0 c -4.83616,37.87243 -51.96904,62.85965 -105.27424,55.81053 -53.3052,-7.04912 -92.59712,-43.46522 -87.76097,-81.33765 1.88266,-14.7433 10.8895,-30.07855 23.46077,-39.78665"
         id="path3779"
         sodipodi:nodetypes="cccssc" />
      <path
         style="color:#000000;fill:none;stroke:#000000;stroke-width:2.5;stroke-miterlimit:4;stroke-opacity:1;stroke-dasharray:none;marker:none;visibility:visible;display:inline;overflow:visible;enable-background:accumulate;stroke-linecap:round"
         d="m 588.63952,589.15422 c 0.28297,3.38135 0.72206,7.14059 0.32261,10.37293 l 0,0 c -5.63866,45.63379 -60.59271,75.74176 -122.7433,67.24803 C 416.264,656.55544 351.20144,623.43256 365.10356,561.22928"
         id="path3781"
         sodipodi:nodetypes="ccccc" />
      <path
         style="color:#000000;fill:none;stroke:#000000;stroke-width:2.5;stroke-miterlimit:4;stroke-opacity:1;stroke-dasharray:none;marker:none;visibility:visible;display:inline;overflow:visible;enable-background:accumulate;stroke-linecap:round"
         d="m 578.70714,650.04413 c -15.6106,35.36729 -64.33073,56.57016 -117.78204,49.24979 -53.53411,-7.33171 -95.27197,-41.13741 -101.68939,-79.6089"
         id="path3783"
         sodipodi:nodetypes="csc" />
      <path
         sodipodi:nodetypes="csc"
         style="fill:none;stroke:#000000;stroke-width:2.5;stroke-linecap:round;stroke-linejoin:miter;stroke-opacity:1;stroke-miterlimit:4;stroke-dasharray:none"
         d="m 483.38863,487.09517 c 0,0 6.97729,1.47563 8.36625,27.61332 1.77933,33.32198 1.79393,175.39408 -18.9142,202.16312"
         id="path3797" />
      <path
         sodipodi:nodetypes="csc"
         style="fill:none;stroke:#000000;stroke-width:2.5;stroke-linecap:round;stroke-linejoin:miter;stroke-opacity:1;stroke-miterlimit:4;stroke-dasharray:none"
         d="m 427.29453,495.76813 c 0,0 33.66897,-7.033 63.89214,18.43528 46.83589,39.46739 91.67135,107.32871 59.34647,173.4937"
         id="path3801" />
      <path
         sodipodi:type="arc"
         style="color:#000000;fill:none;stroke:#000000;stroke-width:15.39588359;stroke-miterlimit:4;stroke-opacity:1;stroke-dasharray:none;marker:none;visibility:visible;display:inline;overflow:visible;enable-background:accumulate;stroke-linecap:round"
         id="path3777-4"
         sodipodi:cx="484.28571"
         sodipodi:cy="601.64789"
         sodipodi:rx="117.85714"
         sodipodi:ry="117.85714"
         d="m 602.14285,601.64789 a 117.85714,117.85714 0 1 1 -235.71428,0 117.85714,117.85714 0 1 1 235.71428,0 z"
         transform="matrix(0.19456478,0.02480538,-0.01765203,0.1332705,407.3295,425.03907)" />
    </g>
    <g
       id="g3877">
      <path
         sodipodi:nodetypes="ccc"
         id="path3851"
         d="m 442.54641,452.46153 c -2.30874,-1.93365 -0.89286,-4.82143 -0.89286,-4.82143 0,0 2.32143,2.32143 8.03571,3.03572"
         style="fill:none;stroke:#000000;stroke-width:2.5;stroke-linecap:round;stroke-linejoin:round;stroke-miterlimit:4;stroke-opacity:1;stroke-dasharray:none" />
      <path
         style="fill:#ff6600;stroke:#000000;stroke-width:2.5;stroke-linecap:round;stroke-linejoin:round;stroke-miterlimit:4;stroke-opacity:1;stroke-dasharray:none"
         d="m 452.47072,450.78706 c -1.38828,-2.67244 1.02869,-4.79429 1.02869,-4.79429 0,0 1.25097,3.03532 6.25188,5.89087"
         id="path3853-8"
         sodipodi:nodetypes="ccc" />
      <path
         style="fill:#ff6600;stroke:#000000;stroke-width:2.5;stroke-linecap:round;stroke-linejoin:round;stroke-miterlimit:4;stroke-opacity:1;stroke-dasharray:none"
         d="m 442.54641,452.46153 c -2.30874,-1.93365 -0.89286,-4.82143 -0.89286,-4.82143 0,0 2.32143,2.32143 8.03571,3.03572"
         id="path3853"
         sodipodi:nodetypes="ccc" />
      <path
         sodipodi:nodetypes="ccccczcczccccccc"
         id="path3847"
         d="M 439.85715,482.79075 457,492.07647 l -4.28572,-11.78571 20.00001,4.64285 c 0,0 -10.67083,-6.65772 -15.35715,-11.96429 19.5994,3.97915 28.02491,-7.52204 13.92857,-17.5 -14.26673,-10.09857 -35.06231,-6.31595 -29.64285,9.10715 -12.06033,-9.24681 -50.03126,-9.83247 -45.29351,23.20041 -40.96258,-35.83111 -89.10803,36.68651 -55.67096,52.52039 33.02393,15.63824 52.46103,-41.24167 24.64285,-39.13034 4.25418,-26.17296 25.12784,-15.27307 31.4032,-8.39376 l -2.43872,25.66044 11.07142,-20 8.57143,2.85714 -1.20141,-7.91842 c 8.30531,3.88105 22.92894,-2.27304 27.12999,-10.58158 z"
         style="fill:#ff6600;stroke:#000000;stroke-width:2.5;stroke-linecap:round;stroke-linejoin:round;stroke-opacity:1;stroke-miterlimit:4;stroke-dasharray:none" />
      <path
         inkscape:transform-center-y="3.146444"
         inkscape:transform-center-x="-8.5714286"
         transform="matrix(0.94768102,0.31921887,-0.31921887,0.94768102,158.7081,-129.74354)"
         d="m 480.00001,461.29074 a 2.6785715,1.7857143 0 1 1 -5.35714,0 2.6785715,1.7857143 0 1 1 5.35714,0 z"
         sodipodi:ry="1.7857143"
         sodipodi:rx="2.6785715"
         sodipodi:cy="461.29074"
         sodipodi:cx="477.32144"
         id="path3849"
         style="color:#000000;fill:#000000;stroke:#000000;stroke-width:2.5;stroke-linecap:round;stroke-linejoin:miter;stroke-miterlimit:4;stroke-opacity:1;stroke-dasharray:none;stroke-dashoffset:0;marker:none;visibility:visible;display:inline;overflow:visible;enable-background:accumulate"
         sodipodi:type="arc" />
    </g>
  </g>
</svg>
