<?xml version="1.0" encoding="UTF-8" standalone="no"?>
<svg
   xmlns:dc="http://purl.org/dc/elements/1.1/"
   xmlns:cc="http://creativecommons.org/ns#"
   xmlns:rdf="http://www.w3.org/1999/02/22-rdf-syntax-ns#"
   xmlns:svg="http://www.w3.org/2000/svg"
   xmlns="http://www.w3.org/2000/svg"
   xmlns:sodipodi="http://sodipodi.sourceforge.net/DTD/sodipodi-0.dtd"
   xmlns:inkscape="http://www.inkscape.org/namespaces/inkscape"
   enable-background="new 0 0 30 30"
   height="64"
   id="Capa_1"
   version="1.1"
   viewBox="0 0 64 64"
   width="64"
   xml:space="preserve"
   inkscape:version="0.91 r13725"
   sodipodi:docname="prive_fluide.svg"
   inkscape:export-filename="/home/charles/www/html/divers/labo/plugins/dev/prive_fluide/trunk/prive/themes/spip/images/prive_fluide-64.png"
   inkscape:export-xdpi="90"
   inkscape:export-ydpi="90"><metadata
     id="metadata9"><rdf:RDF><cc:Work
         rdf:about=""><dc:format>image/svg+xml</dc:format><dc:type
           rdf:resource="http://purl.org/dc/dcmitype/StillImage" /><dc:title /></cc:Work></rdf:RDF></metadata><defs
     id="defs7" /><sodipodi:namedview
     pagecolor="#ffffff"
     bordercolor="#666666"
     borderopacity="1"
     objecttolerance="10"
     gridtolerance="10"
     guidetolerance="10"
     inkscape:pageopacity="0"
     inkscape:pageshadow="2"
     inkscape:window-width="640"
     inkscape:window-height="480"
     id="namedview5"
     showgrid="false"
     inkscape:zoom="1"
     inkscape:cx="30.396802"
     inkscape:cy="32.967303"
     inkscape:current-layer="g4193" /><g
     inkscape:groupmode="layer"
     id="layer3"
     inkscape:label="Layer 3" /><g
     inkscape:groupmode="layer"
     id="layer1"
     inkscape:label="Layer 1"
     transform="translate(0,34)"><g
       id="g4193"
       transform="matrix(1.1428571,0,0,1.1428571,-4.5714286,9e-7)"><path
         transform="translate(0,-34)"
         id="rect4181"
         d="M 8.3457031,10 C 5.9380996,10 4,11.9381 4,14.345703 L 4,39.654297 C 4,42.0619 5.9380996,44 8.3457031,44 L 28,44 28,49 17.388672,49 C 16.619857,49 16,49.619857 16,50.388672 l 0,3.222656 C 16,54.380143 16.619857,55 17.388672,55 l 29.222656,0 C 47.380143,55 48,54.380143 48,53.611328 l 0,-3.222656 C 48,49.619857 47.380143,49 46.611328,49 L 36,49 36,44 55.654297,44 C 58.0619,44 60,42.0619 60,39.654297 L 60,14.345703 C 60,11.9381 58.0619,10 55.654297,10 L 8.3457031,10 Z M 10,15 l 44,0 0,24 -44,0 0,-24 z"
         style="opacity:1;fill:#37c8a5;fill-opacity:1;stroke:none;stroke-width:3;stroke-linecap:round;stroke-linejoin:round;stroke-miterlimit:4;stroke-dasharray:none;stroke-dashoffset:0;stroke-opacity:1"
         inkscape:connector-curvature="0" /><path
         style="opacity:1;fill:#000000;fill-opacity:1;stroke:none;stroke-width:3;stroke-linecap:round;stroke-linejoin:round;stroke-miterlimit:4;stroke-dasharray:none;stroke-dashoffset:0;stroke-opacity:1"
         d="M 18.861328 17.183594 L 10 26.044922 L 18.861328 34.90625 L 18.861328 28.544922 L 44 28.544922 L 44 34.90625 L 52.861328 26.044922 L 44 17.183594 L 44 23.544922 L 18.861328 23.544922 L 18.861328 17.183594 z "
         transform="matrix(0.87500003,0,0,0.87500003,4.0000002,-29.750002)"
         id="rect4137" /></g></g></svg>