<!-- Icons made Freepik https://www.flaticon.com/authors/freepik -->
<svg height="512" viewBox="0 0 512 512" width="512" xmlns="http://www.w3.org/2000/svg"><g transform="matrix(1.13 0 0 1 -33.9 0)"><path d="m77.6 36.964h356.8v438.07h-356.8z" fill="#dcf3ff"/><path d="m256 377.48h178.4v97.55h-178.4z" fill="#9bddff"/><path d="m228.02 324.61h98.52v52.877h-98.52z" fill="#da833d"/><path d="m228.02 324.61h27.984v52.877h-27.984z" fill="#ff6842"/><path d="m77.6 324.61h120.42v150.43h-120.42z" fill="#fdea82"/><path d="m356.54 324.61h77.863v52.877h-77.863z" fill="#2082f9"/><path d="m228.016 305.211h206.384v-268.247h-206.384v.001z" fill="#c64822"/><path d="m217.01 305.211h38.99v-268.247h-38.99v.001z" fill="#ff6842"/><path d="m228.02 324.61h27.984v52.877h-27.984z" fill="#fdc277"/><path d="m77.6 324.61h120.42v150.43h-120.42z" fill="#fdea82"/><path d="m434.4 324.605v-30h-206.384v-250.376h-30v250.377h-120.416v30h120.416v150.43h30v-67.553h98.521v67.553h30v-97.654h77.863v-30h-77.863v-22.776zm-107.863 52.877h-98.521v-52.877h98.521z" fill="#233245"/><path d="m256 377.482h-27.984v-52.877h27.984v-30h-27.984v-250.376h-30v250.376h-120.416v30h120.416v150.431h30v-67.554h27.984z" fill="#3a506e"/><path d="m467.115 0h-422.23c-8.284 0-15 6.716-15 15v482c0 8.284 6.716 15 15 15h422.23c8.284 0 15-6.716 15-15v-482c0-8.284-6.716-15-15-15zm-382.848 463.778v-415.556h343.466v415.556z" fill="#233245"/><path d="m256 463.778h-171.733v-415.556h171.733v-48.222h-211.115c-8.284 0-15 6.716-15 15v482c0 8.284 6.716 15 15 15h211.115z" fill="#3a506e"/></g></svg>