<?xml version="1.0" encoding="UTF-8" standalone="no"?>
<!-- Generator: Adobe Illustrator 14.0.0, SVG Export Plug-In . SVG Version: 6.00 Build 43363)  -->

<svg
   xmlns:dc="http://purl.org/dc/elements/1.1/"
   xmlns:cc="http://creativecommons.org/ns#"
   xmlns:rdf="http://www.w3.org/1999/02/22-rdf-syntax-ns#"
   xmlns:svg="http://www.w3.org/2000/svg"
   xmlns="http://www.w3.org/2000/svg"
   xmlns:sodipodi="http://sodipodi.sourceforge.net/DTD/sodipodi-0.dtd"
   xmlns:inkscape="http://www.inkscape.org/namespaces/inkscape"
   version="1.0"
   id="Layer_1"
   x="0px"
   y="0px"
   width="100px"
   height="90.682px"
   viewBox="0 0 100 90.682"
   enable-background="new 0 0 100 90.682"
   xml:space="preserve"
   inkscape:version="0.48.2 r9819"
   sodipodi:docname="contacts.svg"
   inkscape:export-filename="/home/marcimat/www/spip-dev/plugins/contacts_et_organisations/trunk/images/organisations.png"
   inkscape:export-xdpi="300"
   inkscape:export-ydpi="300"><metadata
   id="metadata11"><rdf:RDF><cc:Work
       rdf:about=""><dc:format>image/svg+xml</dc:format><dc:type
         rdf:resource="http://purl.org/dc/dcmitype/StillImage" /></cc:Work></rdf:RDF></metadata><defs
   id="defs9" /><sodipodi:namedview
   pagecolor="#ffffff"
   bordercolor="#666666"
   borderopacity="1"
   objecttolerance="10"
   gridtolerance="10"
   guidetolerance="10"
   inkscape:pageopacity="0"
   inkscape:pageshadow="2"
   inkscape:window-width="1280"
   inkscape:window-height="776"
   id="namedview7"
   showgrid="false"
   inkscape:zoom="1.8402462"
   inkscape:cx="-25.054698"
   inkscape:cy="44.272931"
   inkscape:window-x="0"
   inkscape:window-y="24"
   inkscape:window-maximized="1"
   inkscape:current-layer="Layer_1" />

<path
   inkscape:connector-curvature="0"
   d="m 79.335805,6.876406 h -44.615 v -3.308 c 0,-1.9049998 -1.429,-3.45199977 -3.381,-3.45199977 H 2.4888037 c -1.95000002,0 -3.37100002,1.55399997 -3.37100002,3.45799977 v 56.326001 c 0,1.237 0.997,2.231 2.23900002,2.231 H 7.8838041 79.334805 c 1.241,0 2.239,-0.994 2.239,-2.231 V 9.107406 c 0.001,-1.23 -0.997,-2.231 -2.238,-2.231 z"
   id="path5-3"
   style="fill:#666666" /><path
   inkscape:connector-curvature="0"
   d="m 86.941949,21.398976 h -44.615 v -3.308001 c 0,-1.905 -1.429,-3.452 -3.381,-3.452 H 10.094948 c -1.9500003,0 -3.3710002,1.554 -3.3710002,3.458 v 56.326001 c 0,1.237 0.9969999,2.231 2.239,2.231 h 6.5270002 71.451001 c 1.241,0 2.239,-0.994 2.239,-2.231 v -50.793 c 0.001,-1.23 -0.997,-2.231 -2.238,-2.231 z"
   id="path5-8"
   style="fill:#ffffff;stroke:#666666;stroke-width:2.00000002;stroke-opacity:1;stroke-miterlimit:4;stroke-dasharray:none" /><path
   d="M97.761,35.426H53.146v-3.308c0-1.905-1.429-3.452-3.381-3.452H20.914c-1.95,0-3.371,1.554-3.371,3.458V88.45  c0,1.237,0.997,2.231,2.239,2.231h6.527h71.451c1.241,0,2.239-0.994,2.239-2.231V37.657C100,36.427,99.002,35.426,97.761,35.426z"
   id="path5"
   style="fill:#666666" /><g
   transform="matrix(0.38121459,0,0,0.36346573,61.311593,-298.61733)"
   id="layer1-8-9-1"
   style="fill:#ffffff;stroke:none"><path
     d="M 10.272923,990.96339"
     id="path5-4-4-3-0"
     inkscape:connector-curvature="0"
     style="fill:#ffffff;stroke:none" /><path
     d="m 31.698961,1012.4972 c -14.00857,0.058 -26.3586935,24.705 -26.3108009,39.8002 0,0 72.5299159,0.044 95.3439599,0 0.0213,-14.0041 -11.772296,-39.7187 -27.113875,-39.6494 z"
     id="path13-3-9-3"
     inkscape:connector-curvature="0"
     style="fill:#ffffff;stroke:none" /><path
     d="m 52.803611,1006.6251 c 10.951429,0.063 19.878068,-9.48571 19.925961,-21.32295 -0.04789,-11.72621 -8.974532,-21.27457 -19.925961,-21.32012 -11.065839,0.0455 -19.992478,9.59391 -19.920639,21.31728 -0.07184,11.84008 8.8548,21.38559 19.920639,21.32579 l 0,0 z"
     id="path15-1-0-5"
     inkscape:connector-curvature="0"
     style="fill:#ffffff;stroke:none" /><path
     d="M 53.303611,985.29931"
     id="path17-4-8-9"
     inkscape:connector-curvature="0"
     style="fill:#ffffff;stroke:none" /></g>
<g
   transform="matrix(0.44569609,0,0,0.42494505,39.490803,-362.91359)"
   id="layer1-8-9"
   style="fill:#ffffff;stroke:#666666;stroke-width:4.59562094;stroke-miterlimit:4;stroke-opacity:1;stroke-dasharray:none"><path
     d="M 10.272923,990.96339"
     id="path5-4-4-3"
     inkscape:connector-curvature="0"
     style="fill:#ffffff;stroke:#666666;stroke-width:4.59562094;stroke-miterlimit:4;stroke-opacity:1;stroke-dasharray:none" /><path
     d="m 31.698961,1012.4972 c -14.00857,0.058 -26.3586935,24.705 -26.3108009,39.8002 0,0 72.5299159,0.044 95.3439599,0 0.0213,-14.0041 -11.772296,-39.7187 -27.113875,-39.6494 z"
     id="path13-3-9"
     inkscape:connector-curvature="0"
     style="fill:#ffffff;stroke:#666666;stroke-width:4.59562094;stroke-miterlimit:4;stroke-opacity:1;stroke-dasharray:none" /><path
     d="m 52.803611,1006.6251 c 10.951429,0.063 19.878068,-9.48571 19.925961,-21.32295 -0.04789,-11.72621 -8.974532,-21.27457 -19.925961,-21.32012 -11.065839,0.0455 -19.992478,9.59391 -19.920639,21.31728 -0.07184,11.84008 8.8548,21.38559 19.920639,21.32579 l 0,0 z"
     id="path15-1-0"
     inkscape:connector-curvature="0"
     style="fill:#ffffff;stroke:#666666;stroke-width:4.59562094;stroke-miterlimit:4;stroke-opacity:1;stroke-dasharray:none" /><path
     d="M 53.303611,985.29931"
     id="path17-4-8"
     inkscape:connector-curvature="0"
     style="fill:#ffffff;stroke:#666666;stroke-width:4.59562094;stroke-miterlimit:4;stroke-opacity:1;stroke-dasharray:none" /></g><g
   transform="matrix(0.52371427,0,0,0.4993308,16.11758,-441.09854)"
   id="layer1"
   style="fill:#ffffff;stroke:#666666;stroke-width:3.91100722;stroke-miterlimit:4;stroke-opacity:1;stroke-dasharray:none"><path
     d="M 10.272923,990.96339"
     id="path5-4"
     inkscape:connector-curvature="0"
     style="fill:#ffffff;stroke:#666666;stroke-width:3.91100722;stroke-miterlimit:4;stroke-opacity:1;stroke-dasharray:none" /><path
     d="m 31.698961,1012.4972 c -14.00857,0.058 -26.3586935,24.705 -26.3108009,39.8002 0,0 72.5299159,0.044 95.3439599,0 0.0213,-14.0041 -11.772296,-39.7187 -27.113875,-39.6494 z"
     id="path13"
     inkscape:connector-curvature="0"
     style="fill:#ffffff;stroke:#666666;stroke-width:3.91100722;stroke-miterlimit:4;stroke-opacity:1;stroke-dasharray:none" /><path
     d="m 52.803611,1006.6251 c 10.951429,0.063 19.878068,-9.48571 19.925961,-21.32295 -0.04789,-11.72621 -8.974532,-21.27457 -19.925961,-21.32012 -11.065839,0.0455 -19.992478,9.59391 -19.920639,21.31728 -0.07184,11.84008 8.8548,21.38559 19.920639,21.32579 l 0,0 z"
     id="path15"
     inkscape:connector-curvature="0"
     style="fill:#ffffff;stroke:#666666;stroke-width:3.91100722;stroke-miterlimit:4;stroke-opacity:1;stroke-dasharray:none" /><path
     d="M 53.303611,985.29931"
     id="path17"
     inkscape:connector-curvature="0"
     style="fill:#ffffff;stroke:#666666;stroke-width:3.91100722;stroke-miterlimit:4;stroke-opacity:1;stroke-dasharray:none" /></g></svg>