<svg xmlns="http://www.w3.org/2000/svg" xmlns:xlink="http://www.w3.org/1999/xlink" version="1.1" x="0px" y="0px" viewBox="0 0 160.54 298.075" style="enable-background:new 0 0 160.54 238.46;" xml:space="preserve"><g><path d="M71.482,195.501c3.076-0.167,6.025-0.259,8.788-0.259c2.761,0,5.71,0.092,8.785,0.259l-8.786-51.419L71.482,195.501z"/><path d="M122.521,122.856c-1.826,1.234-3.953,1.887-6.151,1.887c-3.413,0-6.606-1.571-8.682-4.234l13.4,78.404   c21.069,3.028,39.453,6.83,39.453,6.83s-6.687-51.855-21.733-96.969C134.751,113.56,129.401,118.198,122.521,122.856z"/><path d="M39.451,198.913l13.398-78.4c-2.078,2.662-5.27,4.23-8.68,4.23c-2.195,0-4.321-0.652-6.149-1.887   c-6.886-4.665-12.235-9.301-16.287-14.082C6.687,153.888,0,205.742,0,205.742S18.383,201.941,39.451,198.913z"/><path d="M123.421,92.795c2.209-3.141,2.511-4.996,2.525-6.258c-0.006-1.555-0.622-3.105-1.998-4.999   c-1.45-1.989-3.825-4.188-6.684-6.189c-0.318-0.226-0.649-0.451-0.986-0.676l-7.243,30.86c0.367-0.324,0.755-0.626,1.166-0.904   C117.85,99.47,121.611,95.346,123.421,92.795z"/><path d="M36.743,81.334c-1.486,1.979-2.146,3.59-2.152,5.231c0.016,1.234,0.318,3.09,2.531,6.237   c1.804,2.545,5.567,6.669,13.214,11.823c0.415,0.282,0.805,0.586,1.169,0.91l-7.242-30.864   C41.002,76.864,38.282,79.262,36.743,81.334z"/><ellipse transform="matrix(0.2268 -0.9739 0.9739 0.2268 40.1524 95.5767)" cx="80.27" cy="22.5" rx="22.495" ry="22.495"/><path d="M39.14,121.2c1.544,1.043,3.296,1.543,5.03,1.543c2.889,0,5.727-1.388,7.467-3.961c2.782-4.118,1.699-9.713-2.419-12.495   c-7.024-4.737-11.361-8.988-13.732-12.332c-2.381-3.386-2.873-5.637-2.895-7.394c0.006-1.997,0.742-4.011,2.546-6.418   c2.336-3.146,6.507-6.326,10.431-8.661l10.292,43.851c-0.142,0.49-0.265,0.989-0.353,1.503l-18.089,105.85   c-1.255,7.351,3.683,14.325,11.034,15.58c0.77,0.132,1.537,0.195,2.292,0.195c6.456,0,12.163-4.648,13.289-11.228l15.532-90.897   h1.409l15.532,90.897c1.125,6.579,6.833,11.228,13.291,11.228c0.756,0,1.521-0.063,2.292-0.195   c7.349-1.255,12.288-8.23,11.032-15.58l-18.087-105.85c-0.088-0.514-0.211-1.013-0.352-1.502l10.291-43.847   c1.141,0.678,2.304,1.42,3.44,2.224c2.862,2.002,5.493,4.374,7.155,6.651c1.686,2.322,2.373,4.26,2.379,6.198   c-0.02,1.756-0.512,4.006-2.894,7.392c-2.373,3.347-6.707,7.597-13.731,12.333c-4.119,2.783-5.201,8.377-2.417,12.496   c1.739,2.574,4.576,3.962,7.465,3.962c1.734,0,3.486-0.499,5.031-1.544c8.244-5.582,14.202-11.06,18.307-16.795   c4.093-5.694,6.26-11.877,6.24-17.845c0.006-6.874-2.763-12.796-6.212-17.306c-5.233-6.808-12.043-11.276-17.564-14.391   c-5.531-3.076-9.847-4.665-10.145-4.778c-1.257-0.462-2.549-0.616-3.802-0.517c-0.499-0.084-1.006-0.142-1.526-0.142H53.842   c-0.521,0-1.028,0.059-1.529,0.143c-1.253-0.098-2.544,0.056-3.801,0.517c-0.401,0.163-7.925,2.891-15.989,8.379   c-4.031,2.768-8.242,6.232-11.72,10.788c-3.45,4.51-6.218,10.433-6.212,17.307c-0.021,5.968,2.146,12.15,6.24,17.845   C24.935,110.14,30.895,115.616,39.14,121.2z"/></g><text x="0" y="253.46" fill="#000000" font-size="5px" font-weight="bold" font-family="'Helvetica Neue', Helvetica, Arial-Unicode, Arial, Sans-serif">Created by Gan Khoon Lay</text><text x="0" y="258.46000000000004" fill="#000000" font-size="5px" font-weight="bold" font-family="'Helvetica Neue', Helvetica, Arial-Unicode, Arial, Sans-serif">from the Noun Project</text></svg>