<svg
	width="512"
	height="512"
	viewBox="0 0 512 512"
	xmlns="http://www.w3.org/2000/svg">
	<path fill="#0051bd" opacity="0.65" d="m45,472 l100,-430 l210,90 l120,260z" />
	<g id="shape">
		<path fill="#0051bd" d="m45 482c-4.074219 0-8.015625-1.660156-10.875-4.667969-3.476562-3.660156-4.882812-8.828125-3.730469-13.746093l98.664063-422c1.015625-4.355469 3.925781-8.03125 7.933594-10.023438 4.011718-1.988281 8.695312-2.085938 12.78125-.261719l210.527343 93.890625c3.375 1.503906 6.070313 4.199219 7.582031 7.570313l112.808594 251.941406c1.882813 4.210937 1.726563 9.054687-.425781 13.132813-2.152344 4.078124-6.0625 6.941406-10.601563 7.761718l-422 76.164063c-.886718.160156-1.777343.238281-2.664062.238281zm109.136719-415.90625-89.332031 382.089844 380.675781-68.707032-102.636719-229.21875zm0 0" />
		<path fill="#0051bd" d="m480.691406 384.703125-112.808594-251.941406c-1.511718-3.367188-4.207031-6.0625-7.582031-7.566407l-102.238281-45.597656v32.847656l84.78125 37.8125 102.636719 229.21875-187.417969 33.828126v30.480468l211.601562-38.1875c4.539063-.820312 8.449219-3.683594 10.601563-7.761718 2.152344-4.078126 2.308594-8.921876.425781-13.132813zm0 0" />
		<path fill="#ffcd00" d="m354.191406 183.894531c-24.8125 0-45-20.1875-45-45 0-24.816406 20.1875-45 45-45s45 20.183594 45 45c0 24.8125-20.1875 45-45 45zm0 0" />
		<path fill="#ffcd00" d="m143.664062 90c-24.8125 0-45-20.1875-45-45s20.1875-45 45-45 45 20.1875 45 45-20.1875 45-45 45zm0 0" />
		<path fill="#ffcd00" d="m467 435.835938c-24.8125 0-45-20.1875-45-45 0-24.816407 20.1875-45 45-45s45 20.183593 45 45c0 24.8125-20.1875 45-45 45zm0 0" />
		<path fill="#ffcd00" d="m45 512c-24.8125 0-45-20.1875-45-45s20.1875-45 45-45 45 20.1875 45 45-20.1875 45-45 45zm0 0" />
	</g>
	<g id="penshadow" transform="translate(230 131) scale(0.85)" opacity="0.5">
		<path fill="#000" d="m210.414062 512h-120.238281c-8.300781 0-15.027343-6.730469-15.027343-15.03125v-92.175781c0-8.300781 6.726562-15.03125 15.027343-15.03125h120.238281c8.296876 0 15.027344 6.730469 15.027344 15.03125v92.175781c0 8.300781-6.730468 15.03125-15.027344 15.03125zm0 0" />
		<path fill="#000" d="m210.414062 389.761719h-59.976562v122.238281h59.976562c8.296876 0 15.027344-6.730469 15.027344-15.03125v-92.175781c0-8.300781-6.730468-15.03125-15.027344-15.03125zm0 0" />
		<path fill="#000" d="m213.40625 360.203125h-126.222656c-5.699219 0-10.910156-3.222656-13.453125-8.320313l-72.152344-144.6875c-2.5-5.019531-2.003906-11.011718 1.292969-15.546874l134.816406-185.457032c2.820312-3.882812 7.328125-6.1835935 12.128906-6.191406h.023438c4.792968 0 9.300781 2.285156 12.128906 6.152344l135.71875 185.460937c3.320312 4.535157 3.832031 10.546875 1.320312 15.582031l-72.152343 144.6875c-2.539063 5.097657-7.75 8.320313-13.449219 8.320313zm0 0" />
		<path fill="#000" d="m297.6875 191.609375-135.71875-185.457031c-2.710938-3.703125-6.964844-5.933594-11.53125-6.1171878v360.1679688h62.96875c5.699219 0 10.910156-3.222656 13.453125-8.320313l72.152344-144.6875c2.507812-5.035156 1.996093-11.046874-1.324219-15.585937zm0 0" />
		<path fill="#000" d="m240.472656 419.824219h-180.355468c-8.296876 0-15.027344-6.730469-15.027344-15.03125v-60.117188c0-8.300781 6.730468-15.03125 15.027344-15.03125h180.355468c8.300782 0 15.027344 6.730469 15.027344 15.03125v60.117188c0 8.300781-6.726562 15.03125-15.027344 15.03125zm0 0" />
		<path fill="#000" d="m240.472656 329.644531h-90.035156v90.179688h90.035156c8.300782 0 15.027344-6.730469 15.027344-15.03125v-60.117188c0-8.300781-6.726562-15.03125-15.027344-15.03125zm0 0" />
	</g>
	<g id="pen" transform="translate(230 138) scale(0.81)">
		<path fill="#0051bd" d="m210.414062 512h-120.238281c-8.300781 0-15.027343-6.730469-15.027343-15.03125v-92.175781c0-8.300781 6.726562-15.03125 15.027343-15.03125h120.238281c8.296876 0 15.027344 6.730469 15.027344 15.03125v92.175781c0 8.300781-6.730468 15.03125-15.027344 15.03125zm0 0" />
		<path fill="#00347b" d="m210.414062 389.761719h-59.976562v122.238281h59.976562c8.296876 0 15.027344-6.730469 15.027344-15.03125v-92.175781c0-8.300781-6.730468-15.03125-15.027344-15.03125zm0 0" />
		<path fill="#f5f0eb" d="m213.40625 360.203125h-126.222656c-5.699219 0-10.910156-3.222656-13.453125-8.320313l-72.152344-144.6875c-2.5-5.019531-2.003906-11.011718 1.292969-15.546874l134.816406-185.457032c2.820312-3.882812 7.328125-6.1835935 12.128906-6.191406h.023438c4.792968 0 9.300781 2.285156 12.128906 6.152344l135.71875 185.460937c3.320312 4.535157 3.832031 10.546875 1.320312 15.582031l-72.152343 144.6875c-2.539063 5.097657-7.75 8.320313-13.449219 8.320313zm0 0" />
		<path fill="#e0d2cd" d="m297.6875 191.609375-135.71875-185.457031c-2.710938-3.703125-6.964844-5.933594-11.53125-6.1171878v360.1679688h62.96875c5.699219 0 10.910156-3.222656 13.453125-8.320313l72.152344-144.6875c2.507812-5.035156 1.996093-11.046874-1.324219-15.585937zm0 0" />
		<path fill="#e0d2cd" d="m165.324219 186.898438v-171.867188c0-8.300781-6.730469-15.03125-15.027344-15.03125-8.300781 0-15.03125 6.730469-15.03125 15.03125v171.867188c-8.976563 5.207031-15.027344 14.914062-15.027344 26.015624 0 16.574219 13.484375 30.058594 30.058594 30.058594s30.058594-13.484375 30.058594-30.058594c0-11.101562-6.054688-20.808593-15.03125-26.015624zm0 0" />
		<path fill="#ffe277" d="m240.472656 419.824219h-180.355468c-8.296876 0-15.027344-6.730469-15.027344-15.03125v-60.117188c0-8.300781 6.730468-15.03125 15.027344-15.03125h180.355468c8.300782 0 15.027344 6.730469 15.027344 15.03125v60.117188c0 8.300781-6.726562 15.03125-15.027344 15.03125zm0 0" />
		<path fill="#ccbeb9" d="m165.324219 186.898438v-171.867188c0-8.253906-6.652344-14.9492188-14.886719-15.0234375v242.9648435c16.507812-.078125 29.917969-13.527344 29.917969-30.058594 0-11.101562-6.054688-20.808593-15.03125-26.015624zm0 0" />
		<path fill="#ffcd00" d="m240.472656 329.644531h-90.035156v90.179688h90.035156c8.300782 0 15.027344-6.730469 15.027344-15.03125v-60.117188c0-8.300781-6.726562-15.03125-15.027344-15.03125zm0 0" />
	</g>
</svg>