<?xml version="1.0" encoding="utf-8"?>
<!-- Generator: Adobe Illustrator 18.1.0, SVG Export Plug-In . SVG Version: 6.00 Build 0)  -->
<svg version="1.1" id="Layer_1" xmlns="http://www.w3.org/2000/svg" xmlns:xlink="http://www.w3.org/1999/xlink" x="0px" y="0px"
	 viewBox="-261 231 64 64" enable-background="new -261 231 64 64" xml:space="preserve">
<g>
	<circle fill="#2C3E50" cx="-229" cy="263" r="31.5"/>
</g>
<path fill="#ECF0F1" d="M-214.2,250.1c-2.6,0-4.7,2.1-4.7,4.7c0,0.2,0,0.5,0.1,0.7l-12,4.6c-1-1.5-2.7-2.6-4.7-2.6
	c-1.4,0-2.6,0.5-3.6,1.3l-2.5-1.9c0.1-0.3,0.2-0.7,0.2-1c0-2-1.6-3.5-3.5-3.5c-2,0-3.5,1.6-3.5,3.5c0,2,1.6,3.5,3.5,3.5
	c0.8,0,1.6-0.3,2.2-0.8l2.4,1.8c-0.4,0.8-0.7,1.7-0.7,2.7c0,3.1,2.5,5.6,5.6,5.6c0.9,0,1.8-0.2,2.5-0.6l3.3,4.4
	c-0.7,0.8-1.2,1.8-1.2,3c0,2.4,2,4.4,4.4,4.4c2.4,0,4.4-2,4.4-4.4c0-2.4-2-4.4-4.4-4.4c-0.5,0-1,0.1-1.5,0.3l-3.4-4.5
	c0.9-1,1.4-2.3,1.4-3.7c0-0.4,0-0.8-0.1-1.1l12-4.6c0.8,1.2,2.3,2,3.9,2c2.6,0,4.7-2.1,4.7-4.7
	C-209.5,252.2-211.6,250.1-214.2,250.1z"/>
</svg>
