<svg version="1.1"
		 id="Capa_1"
		 xmlns="http://www.w3.org/2000/svg" xmlns:xlink="http://www.w3.org/1999/xlink"
		 x="0px" y="0px"
		 width="64"
		 height="64"
		 viewBox="0 0 401.994 401.994">
	<g transform="translate(10 10) scale(0.95)">
		<path fill="#E21B1B" d="M394,154.175c-5.331-5.33-11.806-7.994-19.417-7.994H255.811
		H27.407c-7.611,0-14.084,2.664-19.414,7.994S0,165.973,0,173.589
		v54.819c0,7.618,2.662,14.086,7.992,19.411c5.33,5.332,11.803,7.994,19.414,7.994h118.771
		H374.77 c7.618,0,14.089-2.662,19.417-7.994c5.329-5.325,7.994-11.793,7.994-19.411
		v-54.819C401.991,165.973,399.332,159.502,394,154.175z" stroke="#fff" stroke-width="20"/>
	</g>
</svg>
