<?xml version="1.0" encoding="UTF-8" standalone="no"?>
<svg
   xmlns:dc="http://purl.org/dc/elements/1.1/"
   xmlns:cc="http://creativecommons.org/ns#"
   xmlns:rdf="http://www.w3.org/1999/02/22-rdf-syntax-ns#"
   xmlns:svg="http://www.w3.org/2000/svg"
   xmlns="http://www.w3.org/2000/svg"
   xmlns:sodipodi="http://sodipodi.sourceforge.net/DTD/sodipodi-0.dtd"
   xmlns:inkscape="http://www.inkscape.org/namespaces/inkscape"
   xml:space="preserve"
   version="1.1"
   style="shape-rendering:geometricPrecision;text-rendering:geometricPrecision;image-rendering:optimizeQuality;"
   viewBox="0 0 10000 12500"
   x="0px"
   y="0px"
   fill-rule="evenodd"
   clip-rule="evenodd"
   id="svg2"
   inkscape:version="0.48.4 r9939"
   width="100%"
   height="100%"
   sodipodi:docname="noun_101572_CC BY JLuc d'aprés Hadi Davodpour Wqueue.svg"
   inkscape:export-filename="/media/DATA/WEBDEV/arya/xray plugin/noun_101572_CC BY JLuc d'aprés Hadi Davodpour Wqueue.png"
   inkscape:export-xdpi="0.34"
   inkscape:export-ydpi="0.34"><metadata
     id="metadata18"><rdf:RDF><cc:Work
         rdf:about=""><dc:format>image/svg+xml</dc:format><dc:type
           rdf:resource="http://purl.org/dc/dcmitype/StillImage" /><dc:title></dc:title></cc:Work></rdf:RDF></metadata><sodipodi:namedview
     pagecolor="#ffffff"
     bordercolor="#666666"
     borderopacity="1"
     objecttolerance="10"
     gridtolerance="10"
     guidetolerance="10"
     inkscape:pageopacity="0"
     inkscape:pageshadow="2"
     inkscape:window-width="1920"
     inkscape:window-height="1059"
     id="namedview16"
     showgrid="false"
     inkscape:zoom="0.25239094"
     inkscape:cx="7007.8801"
     inkscape:cy="6651.8214"
     inkscape:window-x="0"
     inkscape:window-y="21"
     inkscape:window-maximized="1"
     inkscape:current-layer="svg2"
     inkscape:snap-smooth-nodes="true" /><defs
     id="defs4"><style
       type="text/css"
       id="style6">
   
    .fil0 {fill:black}
   
  </style></defs><path
     style="fill:#000000"
     inkscape:connector-curvature="0"
     id="path10"
     d="M 2494.8876,253.30382 8376.5,243.06035 c -5.3661,5938.39185 2.6299,3027.97815 -0.7551,5880.22895 l -5872.9307,0.5974 z m 4834.2645,454.69717 c 48.3617,-38.47331 86.3198,-65.83768 139.3376,-22.90827 66.9438,54.20553 88.43,123.08608 4.9055,211.10883 -426.1078,449.05625 -302.7725,1042.32725 -195.4896,1483.09975 139.31,572.3562 389.976,1569.3382 389.976,1569.3382 56.073,654.0389 -236.127,929.7768 -415.7943,991.5802 -519.3068,164.0995 -807.1959,-81.2262 -1258.9328,-353.6654 -136.5702,-88.1438 -36.3074,-276.4388 83.9551,-213.0023 410.2039,216.3759 729.8542,488.9833 1079.5008,342.3938 184.446,-78.6203 344.7273,-393.8926 279.9752,-723.166 -128.2119,-651.9755 -414.0152,-1568.3543 -414.0152,-1568.3543 0,0 -385.481,-1165.8662 306.5817,-1716.42451 z M 4053.8,1202.3456 c 0,0 -70.1328,211.5018 103,489 -267,201 -46.8657,527.7297 159.5663,791.0542 l 428.4337,57.9458 0,258 -885,0 c -76,0 -139,62 -139,139 0,76 63,139 139,139 l 885,0 0,84 -777,0 c -77,0 -139,63 -139,139 0,77 62,139 139,139 l 777,0 0,84 -552,0 c -77,0 -140,63 -140,139 0,77 63,139 140,139 l 552,0 0,313 -414.9331,5.4324 c -153,0 -279,125 -279,279 -0.9777,179.8869 154.1829,285.1195 284.9331,272.5676 l 0,722 c 0,77 62,139 139,139 76,0 139,-62 139,-139 l 0,-722 619,0 0,722 c 0,77 63,139 139,139 77,0 139,-62 139,-139 l 0,-722 c 36.8576,3.8931 274.3444,-9.422 282.6223,-279.8108 0,-154 -125.0014,-279.6698 -278,-279 l -413.6223,1.8108 0,-313 552,0 c 76,0 139,-62 139,-139 0,-76 -63,-139 -139,-139 l -552,0 0,-84 777,0 c 76,0 139,-62 139,-139 0,-76 -63,-139 -139,-139 l -777,0 0,-84 884,0 c 77,0 139,-63 139,-139 0,-77 -62,-139 -139,-139 l -884,0 0,-258 374.7311,-32.5945 c 218.5496,-277.2402 483.8537,-603.3821 215.2689,-812.4055 206.6522,-242.8995 106,-493 106,-493 0,0 -279.9338,88.8457 -374,337 -153,-65 -323,-100 -503,-100 -177,0 -344,34 -495,98 -108.4101,-260.7079 -372,-335 -372,-335 z m -700,1393 c 77,0 139,63 139,139 l 0,1061.298 c 0,76 -62,139 -139,139 -76,0 -139,-63 -139,-139 l 0,-1061.298 c 0,-76 63,-139 139,-139 z m 3141,0 c 77,0 139,63 139,139 l 0,1083.0277 c 0,76 -62,139 -139,139 -76,0 -139,-63 -139,-139 l 0,-1083.0277 c 0,-76 63,-139 139,-139 z M 4613.3575,2135.0892 c -151,0 -239.2163,9.9997 -239.2163,-135.0003 0,-147 77.2272,-155.0594 216.8653,-97.5945 114.4055,47.081 189.8802,90.5255 181.7029,128.6888 -8.8015,41.076 -12.3519,103.906 -159.3519,103.906 z m 616.3754,10.0541 c -76.3777,8.0677 -180.951,-1.1095 -190.3245,-73.4329 -10.9784,-84.7057 93.7519,-135.7319 221.1303,-180.9448 69.8734,-24.8016 170.4914,-32.7857 159.8224,86.8206 -16.2937,182.6616 -87.215,156.6337 -190.6282,167.5571 z"
     class="fil0"
     sodipodi:nodetypes="cccccsssssccscssscccccccsssccsssccssscccscsssccsccsssccsssccsssccssscccccccsccsssssssssssssssssssss"
     inkscape:export-xdpi="0.49000001"
     inkscape:export-ydpi="0.49000001" /><text
     x="0"
     y="10015"
     fill="#000000"
     font-size="5px"
     font-weight="bold"
     font-family="'Helvetica Neue', Helvetica, Arial-Unicode, Arial, Sans-serif"
     id="text12">Created by Hadi Davodpour</text>
<text
     x="0"
     y="10020"
     fill="#000000"
     font-size="5px"
     font-weight="bold"
     font-family="'Helvetica Neue', Helvetica, Arial-Unicode, Arial, Sans-serif"
     id="text14">from the Noun Project</text>
</svg>