<?xml version="1.0" standalone="no"?>
<!DOCTYPE svg PUBLIC "-//W3C//DTD SVG 20010904//EN"
  "http://www.w3.org/TR/2001/REC-SVG-20010904/DTD/svg10.dtd">
<svg width="20" height="20">
  <circle cx="0" cy="0" r="1" fill="srgba(239,189,183,1)"/>
  <circle cx="1" cy="0" r="1" fill="srgba(215,89,74,1)"/>
  <circle cx="2" cy="0" r="1" fill="srgba(212,74,57,1)"/>
  <circle cx="3" cy="0" r="1" fill="srgba(213,79,62,1)"/>
  <circle cx="4" cy="0" r="1" fill="srgba(213,79,62,1)"/>
  <circle cx="5" cy="0" r="1" fill="srgba(213,79,62,1)"/>
  <circle cx="6" cy="0" r="1" fill="srgba(213,79,62,1)"/>
  <circle cx="7" cy="0" r="1" fill="srgba(213,79,62,1)"/>
  <circle cx="8" cy="0" r="1" fill="srgba(213,79,62,1)"/>
  <circle cx="9" cy="0" r="1" fill="srgba(213,79,62,1)"/>
  <circle cx="10" cy="0" r="1" fill="srgba(213,79,62,1)"/>
  <circle cx="11" cy="0" r="1" fill="srgba(213,79,62,1)"/>
  <circle cx="12" cy="0" r="1" fill="srgba(213,79,62,1)"/>
  <circle cx="13" cy="0" r="1" fill="srgba(213,79,62,1)"/>
  <circle cx="14" cy="0" r="1" fill="srgba(213,79,62,1)"/>
  <circle cx="15" cy="0" r="1" fill="srgba(213,79,62,1)"/>
  <circle cx="16" cy="0" r="1" fill="srgba(213,79,62,1)"/>
  <circle cx="17" cy="0" r="1" fill="srgba(212,74,57,1)"/>
  <circle cx="18" cy="0" r="1" fill="srgba(215,89,74,1)"/>
  <circle cx="19" cy="0" r="1" fill="srgba(239,189,183,1)"/>
  <circle cx="0" cy="1" r="1" fill="srgba(211,71,54,1)"/>
  <circle cx="1" cy="1" r="1" fill="srgba(209,63,45,1)"/>
  <circle cx="2" cy="1" r="1" fill="srgba(209,63,45,1)"/>
  <circle cx="3" cy="1" r="1" fill="srgba(209,63,45,1)"/>
  <circle cx="4" cy="1" r="1" fill="srgba(209,63,45,1)"/>
  <circle cx="5" cy="1" r="1" fill="srgba(209,63,45,1)"/>
  <circle cx="6" cy="1" r="1" fill="srgba(209,63,45,1)"/>
  <circle cx="7" cy="1" r="1" fill="srgba(209,63,45,1)"/>
  <circle cx="8" cy="1" r="1" fill="srgba(209,63,45,1)"/>
  <circle cx="9" cy="1" r="1" fill="srgba(209,63,45,1)"/>
  <circle cx="10" cy="1" r="1" fill="srgba(209,63,45,1)"/>
  <circle cx="11" cy="1" r="1" fill="srgba(209,63,45,1)"/>
  <circle cx="12" cy="1" r="1" fill="srgba(209,63,45,1)"/>
  <circle cx="13" cy="1" r="1" fill="srgba(209,63,45,1)"/>
  <circle cx="14" cy="1" r="1" fill="srgba(209,63,45,1)"/>
  <circle cx="15" cy="1" r="1" fill="srgba(209,63,45,1)"/>
  <circle cx="16" cy="1" r="1" fill="srgba(209,63,45,1)"/>
  <circle cx="17" cy="1" r="1" fill="srgba(209,63,45,1)"/>
  <circle cx="18" cy="1" r="1" fill="srgba(209,63,45,1)"/>
  <circle cx="19" cy="1" r="1" fill="srgba(211,71,54,1)"/>
  <circle cx="0" cy="2" r="1" fill="srgba(212,74,57,1)"/>
  <circle cx="1" cy="2" r="1" fill="srgba(209,63,45,1)"/>
  <circle cx="2" cy="2" r="1" fill="srgba(209,63,45,1)"/>
  <circle cx="3" cy="2" r="1" fill="srgba(209,63,45,1)"/>
  <circle cx="4" cy="2" r="1" fill="srgba(209,63,45,1)"/>
  <circle cx="5" cy="2" r="1" fill="srgba(209,63,45,1)"/>
  <circle cx="6" cy="2" r="1" fill="srgba(209,63,45,1)"/>
  <circle cx="7" cy="2" r="1" fill="srgba(209,63,44,1)"/>
  <circle cx="8" cy="2" r="1" fill="srgba(209,62,44,1)"/>
  <circle cx="9" cy="2" r="1" fill="srgba(209,62,44,1)"/>
  <circle cx="10" cy="2" r="1" fill="srgba(209,62,44,1)"/>
  <circle cx="11" cy="2" r="1" fill="srgba(209,63,44,1)"/>
  <circle cx="12" cy="2" r="1" fill="srgba(209,63,45,1)"/>
  <circle cx="13" cy="2" r="1" fill="srgba(209,63,45,1)"/>
  <circle cx="14" cy="2" r="1" fill="srgba(209,63,45,1)"/>
  <circle cx="15" cy="2" r="1" fill="srgba(209,63,45,1)"/>
  <circle cx="16" cy="2" r="1" fill="srgba(209,63,45,1)"/>
  <circle cx="17" cy="2" r="1" fill="srgba(209,63,45,1)"/>
  <circle cx="18" cy="2" r="1" fill="srgba(209,63,45,1)"/>
  <circle cx="19" cy="2" r="1" fill="srgba(212,74,57,1)"/>
  <circle cx="0" cy="3" r="1" fill="srgba(213,79,62,1)"/>
  <circle cx="1" cy="3" r="1" fill="srgba(209,63,45,1)"/>
  <circle cx="2" cy="3" r="1" fill="srgba(209,63,45,1)"/>
  <circle cx="3" cy="3" r="1" fill="srgba(209,63,45,1)"/>
  <circle cx="4" cy="3" r="1" fill="srgba(209,64,46,1)"/>
  <circle cx="5" cy="3" r="1" fill="srgba(209,63,45,1)"/>
  <circle cx="6" cy="3" r="1" fill="srgba(205,45,26,1)"/>
  <circle cx="7" cy="3" r="1" fill="srgba(205,45,25,1)"/>
  <circle cx="8" cy="3" r="1" fill="srgba(203,39,19,1)"/>
  <circle cx="9" cy="3" r="1" fill="srgba(202,35,15,1)"/>
  <circle cx="10" cy="3" r="1" fill="srgba(204,44,24,1)"/>
  <circle cx="11" cy="3" r="1" fill="srgba(208,59,41,1)"/>
  <circle cx="12" cy="3" r="1" fill="srgba(210,65,48,1)"/>
  <circle cx="13" cy="3" r="1" fill="srgba(210,66,49,1)"/>
  <circle cx="14" cy="3" r="1" fill="srgba(207,53,34,1)"/>
  <circle cx="15" cy="3" r="1" fill="srgba(207,53,34,1)"/>
  <circle cx="16" cy="3" r="1" fill="srgba(210,66,49,1)"/>
  <circle cx="17" cy="3" r="1" fill="srgba(209,63,45,1)"/>
  <circle cx="18" cy="3" r="1" fill="srgba(209,63,45,1)"/>
  <circle cx="19" cy="3" r="1" fill="srgba(213,79,62,1)"/>
  <circle cx="0" cy="4" r="1" fill="srgba(213,79,62,1)"/>
  <circle cx="1" cy="4" r="1" fill="srgba(209,63,45,1)"/>
  <circle cx="2" cy="4" r="1" fill="srgba(209,63,45,1)"/>
  <circle cx="3" cy="4" r="1" fill="srgba(209,64,46,1)"/>
  <circle cx="4" cy="4" r="1" fill="srgba(209,61,43,1)"/>
  <circle cx="5" cy="4" r="1" fill="srgba(202,36,15,1)"/>
  <circle cx="6" cy="4" r="1" fill="srgba(218,101,87,1)"/>
  <circle cx="7" cy="4" r="1" fill="srgba(232,161,153,1)"/>
  <circle cx="8" cy="4" r="1" fill="srgba(240,191,185,1)"/>
  <circle cx="9" cy="4" r="1" fill="srgba(235,170,162,1)"/>
  <circle cx="10" cy="4" r="1" fill="srgba(231,156,146,1)"/>
  <circle cx="11" cy="4" r="1" fill="srgba(221,112,98,1)"/>
  <circle cx="12" cy="4" r="1" fill="srgba(206,51,32,1)"/>
  <circle cx="13" cy="4" r="1" fill="srgba(205,47,28,1)"/>
  <circle cx="14" cy="4" r="1" fill="srgba(219,107,94,1)"/>
  <circle cx="15" cy="4" r="1" fill="srgba(219,105,90,1)"/>
  <circle cx="16" cy="4" r="1" fill="srgba(205,48,29,1)"/>
  <circle cx="17" cy="4" r="1" fill="srgba(209,63,45,1)"/>
  <circle cx="18" cy="4" r="1" fill="srgba(209,63,45,1)"/>
  <circle cx="19" cy="4" r="1" fill="srgba(213,79,62,1)"/>
  <circle cx="0" cy="5" r="1" fill="srgba(213,79,62,1)"/>
  <circle cx="1" cy="5" r="1" fill="srgba(209,63,45,1)"/>
  <circle cx="2" cy="5" r="1" fill="srgba(209,63,45,1)"/>
  <circle cx="3" cy="5" r="1" fill="srgba(209,64,46,1)"/>
  <circle cx="4" cy="5" r="1" fill="srgba(203,39,19,1)"/>
  <circle cx="5" cy="5" r="1" fill="srgba(229,146,136,1)"/>
  <circle cx="6" cy="5" r="1" fill="srgba(242,199,194,1)"/>
  <circle cx="7" cy="5" r="1" fill="srgba(215,87,74,1)"/>
  <circle cx="8" cy="5" r="1" fill="srgba(235,169,162,1)"/>
  <circle cx="9" cy="5" r="1" fill="white"/>
  <circle cx="10" cy="5" r="1" fill="srgba(240,190,184,1)"/>
  <circle cx="11" cy="5" r="1" fill="srgba(208,61,42,1)"/>
  <circle cx="12" cy="5" r="1" fill="srgba(206,51,31,1)"/>
  <circle cx="13" cy="5" r="1" fill="srgba(198,17,0,1)"/>
  <circle cx="14" cy="5" r="1" fill="srgba(226,136,125,1)"/>
  <circle cx="15" cy="5" r="1" fill="srgba(225,131,120,1)"/>
  <circle cx="16" cy="5" r="1" fill="srgba(198,18,0,1)"/>
  <circle cx="17" cy="5" r="1" fill="srgba(208,58,40,1)"/>
  <circle cx="18" cy="5" r="1" fill="srgba(210,65,48,1)"/>
  <circle cx="19" cy="5" r="1" fill="srgba(213,79,62,1)"/>
  <circle cx="0" cy="6" r="1" fill="srgba(213,79,62,1)"/>
  <circle cx="1" cy="6" r="1" fill="srgba(209,63,45,1)"/>
  <circle cx="2" cy="6" r="1" fill="srgba(209,63,45,1)"/>
  <circle cx="3" cy="6" r="1" fill="srgba(205,47,28,1)"/>
  <circle cx="4" cy="6" r="1" fill="srgba(214,85,68,1)"/>
  <circle cx="5" cy="6" r="1" fill="white"/>
  <circle cx="6" cy="6" r="1" fill="srgba(221,114,100,1)"/>
  <circle cx="7" cy="6" r="1" fill="srgba(197,12,0,1)"/>
  <circle cx="8" cy="6" r="1" fill="srgba(198,18,0,1)"/>
  <circle cx="9" cy="6" r="1" fill="srgba(241,199,194,1)"/>
  <circle cx="10" cy="6" r="1" fill="srgba(253,247,246,1)"/>
  <circle cx="11" cy="6" r="1" fill="srgba(204,41,22,1)"/>
  <circle cx="12" cy="6" r="1" fill="srgba(215,89,73,1)"/>
  <circle cx="13" cy="6" r="1" fill="srgba(229,148,138,1)"/>
  <circle cx="14" cy="6" r="1" fill="srgba(239,188,182,1)"/>
  <circle cx="15" cy="6" r="1" fill="srgba(238,186,180,1)"/>
  <circle cx="16" cy="6" r="1" fill="srgba(229,149,139,1)"/>
  <circle cx="17" cy="6" r="1" fill="srgba(216,91,76,1)"/>
  <circle cx="18" cy="6" r="1" fill="srgba(206,49,30,1)"/>
  <circle cx="19" cy="6" r="1" fill="srgba(213,79,62,1)"/>
  <circle cx="0" cy="7" r="1" fill="srgba(213,79,62,1)"/>
  <circle cx="1" cy="7" r="1" fill="srgba(209,63,45,1)"/>
  <circle cx="2" cy="7" r="1" fill="srgba(209,63,45,1)"/>
  <circle cx="3" cy="7" r="1" fill="srgba(203,39,19,1)"/>
  <circle cx="4" cy="7" r="1" fill="srgba(220,111,97,1)"/>
  <circle cx="5" cy="7" r="1" fill="white"/>
  <circle cx="6" cy="7" r="1" fill="srgba(219,107,92,1)"/>
  <circle cx="7" cy="7" r="1" fill="srgba(201,30,9,1)"/>
  <circle cx="8" cy="7" r="1" fill="srgba(201,27,6,1)"/>
  <circle cx="9" cy="7" r="1" fill="srgba(227,137,126,1)"/>
  <circle cx="10" cy="7" r="1" fill="white"/>
  <circle cx="11" cy="7" r="1" fill="srgba(210,67,49,1)"/>
  <circle cx="12" cy="7" r="1" fill="srgba(210,67,50,1)"/>
  <circle cx="13" cy="7" r="1" fill="srgba(216,94,79,1)"/>
  <circle cx="14" cy="7" r="1" fill="srgba(234,166,158,1)"/>
  <circle cx="15" cy="7" r="1" fill="srgba(233,163,155,1)"/>
  <circle cx="16" cy="7" r="1" fill="srgba(217,95,80,1)"/>
  <circle cx="17" cy="7" r="1" fill="srgba(213,78,61,1)"/>
  <circle cx="18" cy="7" r="1" fill="srgba(207,56,37,1)"/>
  <circle cx="19" cy="7" r="1" fill="srgba(213,79,62,1)"/>
  <circle cx="0" cy="8" r="1" fill="srgba(213,79,62,1)"/>
  <circle cx="1" cy="8" r="1" fill="srgba(209,63,45,1)"/>
  <circle cx="2" cy="8" r="1" fill="srgba(209,63,45,1)"/>
  <circle cx="3" cy="8" r="1" fill="srgba(207,56,37,1)"/>
  <circle cx="4" cy="8" r="1" fill="srgba(206,51,32,1)"/>
  <circle cx="5" cy="8" r="1" fill="srgba(251,237,236,1)"/>
  <circle cx="6" cy="8" r="1" fill="srgba(252,243,243,1)"/>
  <circle cx="7" cy="8" r="1" fill="srgba(205,45,26,1)"/>
  <circle cx="8" cy="8" r="1" fill="srgba(195,5,0,1)"/>
  <circle cx="9" cy="8" r="1" fill="srgba(239,190,185,1)"/>
  <circle cx="10" cy="8" r="1" fill="srgba(241,196,191,1)"/>
  <circle cx="11" cy="8" r="1" fill="srgba(204,42,22,1)"/>
  <circle cx="12" cy="8" r="1" fill="srgba(207,56,37,1)"/>
  <circle cx="13" cy="8" r="1" fill="srgba(199,23,1,1)"/>
  <circle cx="14" cy="8" r="1" fill="srgba(223,123,110,1)"/>
  <circle cx="15" cy="8" r="1" fill="srgba(222,119,107,1)"/>
  <circle cx="16" cy="8" r="1" fill="srgba(200,23,1,1)"/>
  <circle cx="17" cy="8" r="1" fill="srgba(208,58,40,1)"/>
  <circle cx="18" cy="8" r="1" fill="srgba(210,65,48,1)"/>
  <circle cx="19" cy="8" r="1" fill="srgba(213,79,62,1)"/>
  <circle cx="0" cy="9" r="1" fill="srgba(213,79,62,1)"/>
  <circle cx="1" cy="9" r="1" fill="srgba(209,63,45,1)"/>
  <circle cx="2" cy="9" r="1" fill="srgba(209,63,45,1)"/>
  <circle cx="3" cy="9" r="1" fill="srgba(209,65,47,1)"/>
  <circle cx="4" cy="9" r="1" fill="srgba(205,45,25,1)"/>
  <circle cx="5" cy="9" r="1" fill="srgba(212,76,60,1)"/>
  <circle cx="6" cy="9" r="1" fill="srgba(243,203,198,1)"/>
  <circle cx="7" cy="9" r="1" fill="srgba(237,180,172,1)"/>
  <circle cx="8" cy="9" r="1" fill="srgba(233,167,158,1)"/>
  <circle cx="9" cy="9" r="1" fill="srgba(232,158,149,1)"/>
  <circle cx="10" cy="9" r="1" fill="srgba(204,43,23,1)"/>
  <circle cx="11" cy="9" r="1" fill="srgba(207,56,37,1)"/>
  <circle cx="12" cy="9" r="1" fill="srgba(209,64,46,1)"/>
  <circle cx="13" cy="9" r="1" fill="srgba(209,61,43,1)"/>
  <circle cx="14" cy="9" r="1" fill="srgba(210,69,51,1)"/>
  <circle cx="15" cy="9" r="1" fill="srgba(210,68,51,1)"/>
  <circle cx="16" cy="9" r="1" fill="srgba(209,61,43,1)"/>
  <circle cx="17" cy="9" r="1" fill="srgba(209,63,45,1)"/>
  <circle cx="18" cy="9" r="1" fill="srgba(209,63,45,1)"/>
  <circle cx="19" cy="9" r="1" fill="srgba(213,79,62,1)"/>
  <circle cx="0" cy="10" r="1" fill="srgba(213,79,62,1)"/>
  <circle cx="1" cy="10" r="1" fill="srgba(209,63,45,1)"/>
  <circle cx="2" cy="10" r="1" fill="srgba(209,63,45,1)"/>
  <circle cx="3" cy="10" r="1" fill="srgba(209,63,45,1)"/>
  <circle cx="4" cy="10" r="1" fill="srgba(210,69,52,1)"/>
  <circle cx="5" cy="10" r="1" fill="srgba(203,37,17,1)"/>
  <circle cx="6" cy="10" r="1" fill="srgba(194,0,0,1)"/>
  <circle cx="7" cy="10" r="1" fill="srgba(219,106,91,1)"/>
  <circle cx="8" cy="10" r="1" fill="white"/>
  <circle cx="9" cy="10" r="1" fill="srgba(227,139,128,1)"/>
  <circle cx="10" cy="10" r="1" fill="srgba(194,2,0,1)"/>
  <circle cx="11" cy="10" r="1" fill="srgba(209,63,45,1)"/>
  <circle cx="12" cy="10" r="1" fill="srgba(209,64,47,1)"/>
  <circle cx="13" cy="10" r="1" fill="srgba(209,65,47,1)"/>
  <circle cx="14" cy="10" r="1" fill="srgba(208,57,39,1)"/>
  <circle cx="15" cy="10" r="1" fill="srgba(208,58,39,1)"/>
  <circle cx="16" cy="10" r="1" fill="srgba(209,65,47,1)"/>
  <circle cx="17" cy="10" r="1" fill="srgba(209,63,45,1)"/>
  <circle cx="18" cy="10" r="1" fill="srgba(209,63,45,1)"/>
  <circle cx="19" cy="10" r="1" fill="srgba(213,79,62,1)"/>
  <circle cx="0" cy="11" r="1" fill="srgba(213,79,62,1)"/>
  <circle cx="1" cy="11" r="1" fill="srgba(209,63,45,1)"/>
  <circle cx="2" cy="11" r="1" fill="srgba(209,63,45,1)"/>
  <circle cx="3" cy="11" r="1" fill="srgba(210,67,49,1)"/>
  <circle cx="4" cy="11" r="1" fill="srgba(203,39,19,1)"/>
  <circle cx="5" cy="11" r="1" fill="srgba(208,59,41,1)"/>
  <circle cx="6" cy="11" r="1" fill="srgba(224,127,116,1)"/>
  <circle cx="7" cy="11" r="1" fill="srgba(224,128,116,1)"/>
  <circle cx="8" cy="11" r="1" fill="srgba(250,234,233,1)"/>
  <circle cx="9" cy="11" r="1" fill="white"/>
  <circle cx="10" cy="11" r="1" fill="srgba(226,135,124,1)"/>
  <circle cx="11" cy="11" r="1" fill="srgba(202,34,13,1)"/>
  <circle cx="12" cy="11" r="1" fill="srgba(209,63,45,1)"/>
  <circle cx="13" cy="11" r="1" fill="srgba(209,63,45,1)"/>
  <circle cx="14" cy="11" r="1" fill="srgba(209,63,45,1)"/>
  <circle cx="15" cy="11" r="1" fill="srgba(209,63,45,1)"/>
  <circle cx="16" cy="11" r="1" fill="srgba(209,63,45,1)"/>
  <circle cx="17" cy="11" r="1" fill="srgba(209,63,45,1)"/>
  <circle cx="18" cy="11" r="1" fill="srgba(209,63,45,1)"/>
  <circle cx="19" cy="11" r="1" fill="srgba(213,79,62,1)"/>
  <circle cx="0" cy="12" r="1" fill="srgba(213,79,62,1)"/>
  <circle cx="1" cy="12" r="1" fill="srgba(209,63,45,1)"/>
  <circle cx="2" cy="12" r="1" fill="srgba(209,65,47,1)"/>
  <circle cx="3" cy="12" r="1" fill="srgba(205,45,25,1)"/>
  <circle cx="4" cy="12" r="1" fill="srgba(214,83,66,1)"/>
  <circle cx="5" cy="12" r="1" fill="srgba(245,214,211,1)"/>
  <circle cx="6" cy="12" r="1" fill="srgba(234,166,157,1)"/>
  <circle cx="7" cy="12" r="1" fill="srgba(216,93,77,1)"/>
  <circle cx="8" cy="12" r="1" fill="srgba(208,60,42,1)"/>
  <circle cx="9" cy="12" r="1" fill="srgba(234,166,158,1)"/>
  <circle cx="10" cy="12" r="1" fill="white"/>
  <circle cx="11" cy="12" r="1" fill="srgba(220,109,95,1)"/>
  <circle cx="12" cy="12" r="1" fill="srgba(203,40,20,1)"/>
  <circle cx="13" cy="12" r="1" fill="srgba(209,63,45,1)"/>
  <circle cx="14" cy="12" r="1" fill="srgba(209,63,45,1)"/>
  <circle cx="15" cy="12" r="1" fill="srgba(209,63,45,1)"/>
  <circle cx="16" cy="12" r="1" fill="srgba(209,63,45,1)"/>
  <circle cx="17" cy="12" r="1" fill="srgba(209,63,45,1)"/>
  <circle cx="18" cy="12" r="1" fill="srgba(209,63,45,1)"/>
  <circle cx="19" cy="12" r="1" fill="srgba(213,79,62,1)"/>
  <circle cx="0" cy="13" r="1" fill="srgba(213,79,62,1)"/>
  <circle cx="1" cy="13" r="1" fill="srgba(209,63,45,1)"/>
  <circle cx="2" cy="13" r="1" fill="srgba(208,56,37,1)"/>
  <circle cx="3" cy="13" r="1" fill="srgba(206,52,33,1)"/>
  <circle cx="4" cy="13" r="1" fill="srgba(252,246,245,1)"/>
  <circle cx="5" cy="13" r="1" fill="srgba(240,192,186,1)"/>
  <circle cx="6" cy="13" r="1" fill="srgba(196,10,0,1)"/>
  <circle cx="7" cy="13" r="1" fill="srgba(205,47,27,1)"/>
  <circle cx="8" cy="13" r="1" fill="srgba(205,45,26,1)"/>
  <circle cx="9" cy="13" r="1" fill="srgba(196,11,0,1)"/>
  <circle cx="10" cy="13" r="1" fill="srgba(242,203,197,1)"/>
  <circle cx="11" cy="13" r="1" fill="srgba(242,201,196,1)"/>
  <circle cx="12" cy="13" r="1" fill="srgba(201,29,9,1)"/>
  <circle cx="13" cy="13" r="1" fill="srgba(209,63,45,1)"/>
  <circle cx="14" cy="13" r="1" fill="srgba(209,63,45,1)"/>
  <circle cx="15" cy="13" r="1" fill="srgba(209,63,45,1)"/>
  <circle cx="16" cy="13" r="1" fill="srgba(209,63,45,1)"/>
  <circle cx="17" cy="13" r="1" fill="srgba(209,63,45,1)"/>
  <circle cx="18" cy="13" r="1" fill="srgba(209,63,45,1)"/>
  <circle cx="19" cy="13" r="1" fill="srgba(213,79,62,1)"/>
  <circle cx="0" cy="14" r="1" fill="srgba(213,79,62,1)"/>
  <circle cx="1" cy="14" r="1" fill="srgba(209,63,45,1)"/>
  <circle cx="2" cy="14" r="1" fill="srgba(206,50,31,1)"/>
  <circle cx="3" cy="14" r="1" fill="srgba(211,70,53,1)"/>
  <circle cx="4" cy="14" r="1" fill="white"/>
  <circle cx="5" cy="14" r="1" fill="srgba(239,188,182,1)"/>
  <circle cx="6" cy="14" r="1" fill="srgba(196,9,0,1)"/>
  <circle cx="7" cy="14" r="1" fill="srgba(203,39,19,1)"/>
  <circle cx="8" cy="14" r="1" fill="srgba(203,39,19,1)"/>
  <circle cx="9" cy="14" r="1" fill="srgba(198,17,0,1)"/>
  <circle cx="10" cy="14" r="1" fill="srgba(242,204,199,1)"/>
  <circle cx="11" cy="14" r="1" fill="srgba(234,167,159,1)"/>
  <circle cx="12" cy="14" r="1" fill="srgba(202,35,14,1)"/>
  <circle cx="13" cy="14" r="1" fill="srgba(209,63,45,1)"/>
  <circle cx="14" cy="14" r="1" fill="srgba(209,63,45,1)"/>
  <circle cx="15" cy="14" r="1" fill="srgba(209,63,45,1)"/>
  <circle cx="16" cy="14" r="1" fill="srgba(209,63,45,1)"/>
  <circle cx="17" cy="14" r="1" fill="srgba(209,63,45,1)"/>
  <circle cx="18" cy="14" r="1" fill="srgba(209,63,45,1)"/>
  <circle cx="19" cy="14" r="1" fill="srgba(213,79,62,1)"/>
  <circle cx="0" cy="15" r="1" fill="srgba(213,79,62,1)"/>
  <circle cx="1" cy="15" r="1" fill="srgba(209,63,45,1)"/>
  <circle cx="2" cy="15" r="1" fill="srgba(209,62,44,1)"/>
  <circle cx="3" cy="15" r="1" fill="srgba(204,44,24,1)"/>
  <circle cx="4" cy="15" r="1" fill="srgba(226,134,123,1)"/>
  <circle cx="5" cy="15" r="1" fill="srgba(253,249,249,1)"/>
  <circle cx="6" cy="15" r="1" fill="srgba(237,182,175,1)"/>
  <circle cx="7" cy="15" r="1" fill="srgba(221,114,101,1)"/>
  <circle cx="8" cy="15" r="1" fill="srgba(222,117,104,1)"/>
  <circle cx="9" cy="15" r="1" fill="srgba(236,177,169,1)"/>
  <circle cx="10" cy="15" r="1" fill="srgba(236,179,171,1)"/>
  <circle cx="11" cy="15" r="1" fill="srgba(207,58,39,1)"/>
  <circle cx="12" cy="15" r="1" fill="srgba(208,57,38,1)"/>
  <circle cx="13" cy="15" r="1" fill="srgba(209,63,45,1)"/>
  <circle cx="14" cy="15" r="1" fill="srgba(209,63,45,1)"/>
  <circle cx="15" cy="15" r="1" fill="srgba(209,63,45,1)"/>
  <circle cx="16" cy="15" r="1" fill="srgba(209,63,45,1)"/>
  <circle cx="17" cy="15" r="1" fill="srgba(209,63,45,1)"/>
  <circle cx="18" cy="15" r="1" fill="srgba(209,63,45,1)"/>
  <circle cx="19" cy="15" r="1" fill="srgba(213,79,62,1)"/>
  <circle cx="0" cy="16" r="1" fill="srgba(213,79,62,1)"/>
  <circle cx="1" cy="16" r="1" fill="srgba(209,63,45,1)"/>
  <circle cx="2" cy="16" r="1" fill="srgba(209,64,46,1)"/>
  <circle cx="3" cy="16" r="1" fill="srgba(209,62,44,1)"/>
  <circle cx="4" cy="16" r="1" fill="srgba(202,34,13,1)"/>
  <circle cx="5" cy="16" r="1" fill="srgba(213,81,65,1)"/>
  <circle cx="6" cy="16" r="1" fill="srgba(234,166,158,1)"/>
  <circle cx="7" cy="16" r="1" fill="srgba(234,168,160,1)"/>
  <circle cx="8" cy="16" r="1" fill="srgba(233,162,153,1)"/>
  <circle cx="9" cy="16" r="1" fill="srgba(227,135,124,1)"/>
  <circle cx="10" cy="16" r="1" fill="srgba(205,49,30,1)"/>
  <circle cx="11" cy="16" r="1" fill="srgba(206,48,29,1)"/>
  <circle cx="12" cy="16" r="1" fill="srgba(210,66,48,1)"/>
  <circle cx="13" cy="16" r="1" fill="srgba(209,63,45,1)"/>
  <circle cx="14" cy="16" r="1" fill="srgba(209,63,45,1)"/>
  <circle cx="15" cy="16" r="1" fill="srgba(209,63,45,1)"/>
  <circle cx="16" cy="16" r="1" fill="srgba(209,63,45,1)"/>
  <circle cx="17" cy="16" r="1" fill="srgba(209,63,45,1)"/>
  <circle cx="18" cy="16" r="1" fill="srgba(209,63,45,1)"/>
  <circle cx="19" cy="16" r="1" fill="srgba(213,79,62,1)"/>
  <circle cx="0" cy="17" r="1" fill="srgba(212,74,57,1)"/>
  <circle cx="1" cy="17" r="1" fill="srgba(209,63,45,1)"/>
  <circle cx="2" cy="17" r="1" fill="srgba(209,63,45,1)"/>
  <circle cx="3" cy="17" r="1" fill="srgba(209,64,46,1)"/>
  <circle cx="4" cy="17" r="1" fill="srgba(209,64,46,1)"/>
  <circle cx="5" cy="17" r="1" fill="srgba(205,47,28,1)"/>
  <circle cx="6" cy="17" r="1" fill="srgba(202,34,14,1)"/>
  <circle cx="7" cy="17" r="1" fill="srgba(204,43,23,1)"/>
  <circle cx="8" cy="17" r="1" fill="srgba(204,42,22,1)"/>
  <circle cx="9" cy="17" r="1" fill="srgba(203,40,20,1)"/>
  <circle cx="10" cy="17" r="1" fill="srgba(208,59,41,1)"/>
  <circle cx="11" cy="17" r="1" fill="srgba(209,65,47,1)"/>
  <circle cx="12" cy="17" r="1" fill="srgba(209,63,45,1)"/>
  <circle cx="13" cy="17" r="1" fill="srgba(209,63,45,1)"/>
  <circle cx="14" cy="17" r="1" fill="srgba(209,63,45,1)"/>
  <circle cx="15" cy="17" r="1" fill="srgba(209,63,45,1)"/>
  <circle cx="16" cy="17" r="1" fill="srgba(209,63,45,1)"/>
  <circle cx="17" cy="17" r="1" fill="srgba(209,63,45,1)"/>
  <circle cx="18" cy="17" r="1" fill="srgba(209,63,45,1)"/>
  <circle cx="19" cy="17" r="1" fill="srgba(212,74,57,1)"/>
  <circle cx="0" cy="18" r="1" fill="srgba(211,71,54,1)"/>
  <circle cx="1" cy="18" r="1" fill="srgba(209,63,45,1)"/>
  <circle cx="2" cy="18" r="1" fill="srgba(209,63,45,1)"/>
  <circle cx="3" cy="18" r="1" fill="srgba(209,63,45,1)"/>
  <circle cx="4" cy="18" r="1" fill="srgba(209,63,45,1)"/>
  <circle cx="5" cy="18" r="1" fill="srgba(209,63,45,1)"/>
  <circle cx="6" cy="18" r="1" fill="srgba(209,63,45,1)"/>
  <circle cx="7" cy="18" r="1" fill="srgba(209,62,44,1)"/>
  <circle cx="8" cy="18" r="1" fill="srgba(209,63,45,1)"/>
  <circle cx="9" cy="18" r="1" fill="srgba(209,63,45,1)"/>
  <circle cx="10" cy="18" r="1" fill="srgba(209,63,45,1)"/>
  <circle cx="11" cy="18" r="1" fill="srgba(209,63,45,1)"/>
  <circle cx="12" cy="18" r="1" fill="srgba(209,63,45,1)"/>
  <circle cx="13" cy="18" r="1" fill="srgba(209,63,45,1)"/>
  <circle cx="14" cy="18" r="1" fill="srgba(209,63,45,1)"/>
  <circle cx="15" cy="18" r="1" fill="srgba(209,63,45,1)"/>
  <circle cx="16" cy="18" r="1" fill="srgba(209,63,45,1)"/>
  <circle cx="17" cy="18" r="1" fill="srgba(209,63,45,1)"/>
  <circle cx="18" cy="18" r="1" fill="srgba(209,63,45,1)"/>
  <circle cx="19" cy="18" r="1" fill="srgba(211,71,54,1)"/>
  <circle cx="0" cy="19" r="1" fill="srgba(239,189,183,1)"/>
  <circle cx="1" cy="19" r="1" fill="srgba(215,89,74,1)"/>
  <circle cx="2" cy="19" r="1" fill="srgba(212,74,57,1)"/>
  <circle cx="3" cy="19" r="1" fill="srgba(213,79,62,1)"/>
  <circle cx="4" cy="19" r="1" fill="srgba(213,79,62,1)"/>
  <circle cx="5" cy="19" r="1" fill="srgba(213,79,62,1)"/>
  <circle cx="6" cy="19" r="1" fill="srgba(213,79,62,1)"/>
  <circle cx="7" cy="19" r="1" fill="srgba(213,79,62,1)"/>
  <circle cx="8" cy="19" r="1" fill="srgba(213,79,62,1)"/>
  <circle cx="9" cy="19" r="1" fill="srgba(213,79,62,1)"/>
  <circle cx="10" cy="19" r="1" fill="srgba(213,79,62,1)"/>
  <circle cx="11" cy="19" r="1" fill="srgba(213,79,62,1)"/>
  <circle cx="12" cy="19" r="1" fill="srgba(213,79,62,1)"/>
  <circle cx="13" cy="19" r="1" fill="srgba(213,79,62,1)"/>
  <circle cx="14" cy="19" r="1" fill="srgba(213,79,62,1)"/>
  <circle cx="15" cy="19" r="1" fill="srgba(213,79,62,1)"/>
  <circle cx="16" cy="19" r="1" fill="srgba(213,79,62,1)"/>
  <circle cx="17" cy="19" r="1" fill="srgba(212,74,57,1)"/>
  <circle cx="18" cy="19" r="1" fill="srgba(215,89,74,1)"/>
  <circle cx="19" cy="19" r="1" fill="srgba(239,189,183,1)"/>
</svg>
