<svg height="512pt" viewBox="0 0 512 512" width="512pt" xmlns="http://www.w3.org/2000/svg"><path d="m326.621094 176.816406c0 1.5 0 12.800782-.089844 14.476563h-299.960938c-.085937-1.675781-.085937-12.976563-.085937-14.476563-.007813-15.921875 2.25-31.765625 6.707031-47.050781.882813-3.089844 1.855469-6.089844 2.914063-9.09375h280.894531c1.058594 3.003906 2.027344 6.003906 2.910156 9.09375 4.457032 15.285156 6.714844 31.128906 6.710938 47.050781zm0 0" fill="#7f5b53"/><path d="m319.910156 129.765625c-4.414062 10.417969-30.984375 24.71875-143.359375 24.71875s-138.945312-14.300781-143.359375-24.71875c.882813-3.089844 1.855469-6.089844 2.914063-9.09375h280.894531c1.058594 3.003906 2.027344 6.003906 2.910156 9.09375zm0 0" fill="#59474e"/><path d="m335.449219 512h-317.792969c-9.738281-.027344-17.6289062-7.917969-17.65625-17.65625v-26.480469c.0234375-48.949219 33.546875-91.519531 81.125-103.019531h190.851562c17.035157 4.113281 32.777344 12.394531 45.816407 24.101562zm0 0" fill="#e64c3c"/><path d="m133.886719 364.632812 38.984375 61.296876h16.921875l30.648437-61.296876zm0 0" fill="#bdc3c7"/><path d="m185.378906 423.722656v88.277344h-17.65625v-88.277344c0-4.875 3.953125-8.824218 8.828125-8.824218s8.828125 3.949218 8.828125 8.824218zm0 0" fill="#c03a2b"/><path d="m176.550781 423.722656-27.277343 34.097656c-1.816407 2.269532-4.636719 3.5-7.539063 3.289063-2.902344-.214844-5.511719-1.84375-6.976563-4.355469l-50.152343-85.980468c-1.292969-2.21875-1.558594-4.890626-.722657-7.320313.835938-2.425781 2.683594-4.371094 5.070313-5.324219l28.011719-11.203125c3.878906-1.539062 8.308594-.140625 10.59375 3.351563l7.769531 11.652344 14.742187 22.070312zm0 0" fill="#ecf0f1"/><path d="m203.035156 315.410156v68.589844l-26.484375 39.722656-26.480469-39.722656v-68.589844zm0 0" fill="#fdd7ad"/><path d="m268.496094 370.773438-50.152344 85.980468c-1.464844 2.511719-4.074219 4.144532-6.976562 4.355469-2.902344.214844-5.722657-1.015625-7.539063-3.289063l-27.277344-34.097656 26.484375-39.722656 14.742188-22.070312 7.765625-11.652344c2.289062-3.492188 6.714843-4.890625 10.59375-3.351563l28.015625 11.203125c2.382812.953125 4.234375 2.898438 5.066406 5.328125.835938 2.425781.574219 5.097657-.722656 7.316407zm0 0" fill="#ecf0f1"/><path d="m282.484375 476.691406h-17.65625c-4.875 0-8.828125-3.953125-8.828125-8.828125s3.953125-8.828125 8.828125-8.828125h17.65625c4.875 0 8.824219 3.953125 8.824219 8.828125s-3.949219 8.828125-8.824219 8.828125zm0 0" fill="#f0c419"/><path d="m308.347656 185.378906h18.273438c9.722656.070313 17.585937 7.933594 17.65625 17.65625-.03125 9.738282-7.917969 17.625-17.65625 17.65625h-300.136719c-9.742187-.03125-17.628906-7.917968-17.65625-17.65625.070313-9.722656 7.933594-17.585937 17.65625-17.65625zm0 0" fill="#f09372"/><path d="m203.035156 315.410156v13.242188c-17.511718 3.175781-35.453125 3.175781-52.964844 0v-13.242188zm0 0" fill="#f09372"/><path d="m308.964844 196.765625c-.011719 4.1875-.246094 8.375-.707032 12.535156-6.882812 61-63.203124 108.492188-131.707031 108.492188-68.5 0-124.820312-47.492188-131.707031-108.492188-.457031-4.160156-.691406-8.347656-.707031-12.535156.019531-7.015625.667969-14.019531 1.941406-20.921875.796875-3.882812 1.765625-7.765625 2.914063-11.5625 2.382812-5.472656 5.652343-12.269531 9.800781-19.683594 2.117187-3.710937 4.5-7.59375 7.0625-11.476562h221.394531c2.558594 3.882812 4.941406 7.765625 7.0625 11.476562 4.148438 7.414063 7.414062 14.210938 9.796875 19.683594 1.148437 3.796875 2.121094 7.679688 2.914063 11.5625 1.273437 6.902344 1.925781 13.90625 1.941406 20.921875zm0 0" fill="#fdd7ad"/><path d="m294.3125 144.597656c-20.570312 5.648438-56.320312 9.886719-117.761719 9.886719-61.4375 0-97.191406-4.238281-117.757812-9.886719 2.117187-3.710937 4.5-7.59375 7.0625-11.476562h221.394531c2.558594 3.882812 4.941406 7.765625 7.0625 11.476562zm0 0" fill="#f09372"/><path d="m317.792969 105.929688s35.308593 35.3125-141.242188 35.3125-141.242187-35.3125-141.242187-35.3125l11.066406-19.09375 130.792969-55.9375 133.085937 57.769531zm0 0" fill="#c03a2b"/><path d="m176.550781 70.621094c88.277344 0 141.242188 35.308594 141.242188 35.308594l7.535156-52.738282c.878906-6.253906-1.628906-12.5-6.589844-16.410156-15.753906-12.554688-57.167969-36.78125-142.1875-36.78125s-126.433593 24.226562-142.1875 36.78125c-4.957031 3.910156-7.46875 10.15625-6.585937 16.410156l7.53125 52.738282s52.96875-35.308594 141.242187-35.308594zm0 0" fill="#e64c3c"/><path d="m185.378906 44.136719h-17.65625c-4.875 0-8.824218-3.949219-8.824218-8.828125 0-4.875 3.949218-8.824219 8.824218-8.824219h17.65625c4.875 0 8.828125 3.949219 8.828125 8.824219 0 4.878906-3.953125 8.828125-8.828125 8.828125zm0 0" fill="#f0c419"/><path d="m509.261719 373.230469c-1.636719-1.578125-3.816407-2.460938-6.089844-2.472657h-176.550781c-4.863282.03125-8.796875 3.964844-8.828125 8.828126v123.585937c.03125 4.863281 3.964843 8.796875 8.828125 8.828125h176.550781c4.863281-.03125 8.796875-3.964844 8.828125-8.828125v-123.585937c-.007812-2.402344-.996094-4.699219-2.738281-6.355469zm0 0" fill="#f3d55b"/><path d="m395.476562 441.378906-74.945312 68.148438c-1.742188-1.65625-2.730469-3.953125-2.738281-6.355469v-123.585937c.007812-2.402344.996093-4.699219 2.738281-6.355469zm0 0" fill="#f0c419"/><path d="m509.261719 509.527344c-1.636719 1.578125-3.816407 2.460937-6.089844 2.472656h-176.550781c-2.273438-.011719-4.453125-.894531-6.089844-2.472656l74.945312-68.148438 19.421876 17.65625 19.417968-17.65625zm0 0" fill="#f29c1f"/><path d="m512 379.585938v123.585937c-.007812 2.402344-.996094 4.699219-2.738281 6.355469l-74.945313-68.148438 74.945313-68.148437c1.742187 1.65625 2.730469 3.953125 2.738281 6.355469zm0 0" fill="#f0c419"/><path d="m509.261719 373.230469-74.945313 68.148437-19.417968 17.65625-19.421876-17.65625-74.945312-68.148437c1.636719-1.578125 3.816406-2.460938 6.089844-2.472657h176.550781c2.273437.011719 4.453125.894532 6.089844 2.472657zm0 0" fill="#f3d55b"/></svg>