<svg height="512" viewBox="60 -50 900 900" width="512" xmlns="http://www.w3.org/2000/svg" xmlns:xlink="http://www.w3.org/1999/xlink"><defs><linearGradient id="a" x1="50%" x2="50%" y1="0%" y2="100%"><stop offset="0" stop-color="#5c24ae"/><stop offset="1" stop-color="#30135a"/></linearGradient><path id="b" d="m355.967 242.807-322 216.395c-44.275 29.754-44.275 78.443 0 108.197l322 216.395c44.275 29.754 116.725 29.754 161 0l322-216.395c44.275-29.754 44.275-78.443 0-108.197l-322-216.395c-44.275-29.754-116.725-29.754-161 0z"/><filter id="c" height="112%" width="108%" x="-4%" y="-4.3%"><feOffset dy="10" in="SourceAlpha" result="shadowOffsetOuter1"/><feGaussianBlur in="shadowOffsetOuter1" result="shadowBlurOuter1" stdDeviation="10"/><feColorMatrix in="shadowBlurOuter1" values="0 0 0 0 0 0 0 0 0 0 0 0 0 0 0 0 0 0 0.25 0"/></filter><linearGradient id="d" x1="50%" x2="50%" y1="-17.303%" y2="100%"><stop offset="0" stop-color="#7331d4"/><stop offset="1" stop-color="#461b84"/></linearGradient><path id="e" d="m355.967 132.807-322 216.395c-44.275 29.754-44.275 78.443 0 108.197l322 216.395c44.275 29.754 116.725 29.754 161 0l322-216.395c44.275-29.754 44.275-78.443 0-108.197l-322-216.395c-44.275-29.754-116.725-29.754-161 0z"/><filter id="f" height="112%" width="108%" x="-4%" y="-4.3%"><feOffset dy="10" in="SourceAlpha" result="shadowOffsetOuter1"/><feGaussianBlur in="shadowOffsetOuter1" result="shadowBlurOuter1" stdDeviation="10"/><feColorMatrix in="shadowBlurOuter1" values="0 0 0 0 0 0 0 0 0 0 0 0 0 0 0 0 0 0 0.25 0"/></filter><linearGradient id="g" x1="50%" x2="50%" y1="0%" y2="100%"><stop offset="0" stop-color="#905bdd"/><stop offset="1" stop-color="#5521a0"/></linearGradient><path id="h" d="m355.967 22.807-322 216.395c-44.275 29.754-44.275 78.443 0 108.197l322 216.395c44.275 29.754 116.725 29.754 161 0l322-216.395c44.275-29.754 44.275-78.443 0-108.197l-322-216.395c-44.275-29.754-116.725-29.754-161 0z"/><filter id="i" height="112%" width="108%" x="-4%" y="-4.3%"><feOffset dy="10" in="SourceAlpha" result="shadowOffsetOuter1"/><feGaussianBlur in="shadowOffsetOuter1" result="shadowBlurOuter1" stdDeviation="10"/><feColorMatrix in="shadowBlurOuter1" values="0 0 0 0 0 0 0 0 0 0 0 0 0 0 0 0 0 0 0.25 0"/></filter></defs><g fill="none"><g transform="translate(75 23)"><g><use fill="#000" filter="url(#c)" xlink:href="#b"/><use fill="url(#a)" xlink:href="#b"/></g><g><use fill="#000" filter="url(#f)" xlink:href="#e"/><use fill="url(#d)" xlink:href="#e"/></g><g><use fill="#000" filter="url(#i)" xlink:href="#h"/><use fill="url(#g)" xlink:href="#h"/></g></g><path d="m558.273 447.667-250.237-168.167 97.982-65.847c42.83-28.784 96.789-31.483 134.245-6.311 26.044 17.502 31.214 46.615 11.444 65.724l1.389.934c38.324-19.932 84.107-18.527 117.396 3.845 44.046 29.6 38.671 68.419-14.561 104.193zm-111.161-116.657 49.942-33.562c36.935-24.822 42.31-48.249 15.224-66.451-24.798-16.665-55.49-14.453-85.851 5.95l-59.641 40.081zm176.532 35.663c37.63-25.289 42.136-48.832 13.203-68.276-28.932-19.444-64.163-15.614-104.042 11.186l-58.789 39.508 87.92 59.084z" fill="#fff"/></g></svg>