<!-- Icons made by Smartline https://www.flaticon.com/authors/smartline -->
<svg height="512" viewBox="0 0 512 512" width="512" xmlns="http://www.w3.org/2000/svg"><rect fill="#fff" height="512" rx="60" width="512"/><path d="m472 0h-432c-22.08.026-39.974 17.92-40 40v432c.026 22.08 17.92 39.974 40 40h432c22.08-.026 39.974-17.92 40-40v-432c-.026-22.08-17.92-39.974-40-40zm24 472c0 13.255-10.745 24-24 24h-432c-13.255 0-24-10.745-24-24v-432c0-13.255 10.745-24 24-24h432c13.255 0 24 10.745 24 24z"/><path d="m56 40c-.221-.005-.442-.005-.663 0-8.653.183-15.52 7.347-15.337 16v32h16v-32h40v-16z"/><path d="m424 80h-336c-4.418 0-8 3.582-8 8v96c0 4.418 3.582 8 8 8h336c4.418 0 8-3.582 8-8v-96c0-4.418-3.582-8-8-8zm-8 96h-320v-80h320z"/><path d="m216 216h-128c-4.418 0-8 3.582-8 8v128c0 4.418 3.582 8 8 8h128c4.418 0 8-3.582 8-8v-128c0-4.418-3.582-8-8-8zm-120 128v-100.688l100.688 100.688zm112-11.315-100.685-100.685h100.685z"/><path d="m424 216h-176c-4.418 0-8 3.582-8 8v48c0 4.418 3.582 8 8 8h176c4.418 0 8-3.582 8-8v-48c0-4.418-3.582-8-8-8zm-8 48h-160v-32h160z"/><path d="m240 304h192v16h-192z"/><path d="m240 344h192v16h-192z"/><path d="m144 384h288v16h-288z"/><path d="m80 424h288v16h-288z"/><path d="m80 384h16v16h-16z"/><path d="m112 384h16v16h-16z"/></svg>
