<?xml version="1.0" encoding="UTF-8" standalone="no"?>
<!-- Created with Inkscape (http://www.inkscape.org/) -->

<svg
   xmlns:dc="http://purl.org/dc/elements/1.1/"
   xmlns:cc="http://creativecommons.org/ns#"
   xmlns:rdf="http://www.w3.org/1999/02/22-rdf-syntax-ns#"
   xmlns:svg="http://www.w3.org/2000/svg"
   xmlns="http://www.w3.org/2000/svg"
   xmlns:sodipodi="http://sodipodi.sourceforge.net/DTD/sodipodi-0.dtd"
   xmlns:inkscape="http://www.inkscape.org/namespaces/inkscape"
   width="128"
   height="128"
   id="svg2"
   version="1.1"
   inkscape:version="0.48.0 r9654"
   sodipodi:docname="parrainage.svg">
  <defs
     id="defs4" />
  <sodipodi:namedview
     id="base"
     pagecolor="#ffffff"
     bordercolor="#666666"
     borderopacity="1.0"
     inkscape:pageopacity="0.0"
     inkscape:pageshadow="2"
     inkscape:zoom="2.8"
     inkscape:cx="-16.54145"
     inkscape:cy="88.454144"
     inkscape:document-units="px"
     inkscape:current-layer="layer1"
     showgrid="false"
     inkscape:window-width="1366"
     inkscape:window-height="715"
     inkscape:window-x="0"
     inkscape:window-y="24"
     inkscape:window-maximized="1" />
  <metadata
     id="metadata7">
    <rdf:RDF>
      <cc:Work
         rdf:about="">
        <dc:format>image/svg+xml</dc:format>
        <dc:type
           rdf:resource="http://purl.org/dc/dcmitype/StillImage" />
        <dc:title></dc:title>
      </cc:Work>
    </rdf:RDF>
  </metadata>
  <g
     inkscape:label="Calque 1"
     inkscape:groupmode="layer"
     id="layer1"
     transform="translate(0,-924.36218)">
    <path
       style="fill:#5c3566;fill-opacity:1"
       d="m 55.374424,1047.7399 c -0.791372,-0.142 -1.571313,-0.3384 -1.733202,-0.4385 -0.161882,-0.1009 -1.405618,-0.3928 -2.763837,-0.6506 -1.358217,-0.2575 -3.902538,-0.9378 -5.654043,-1.5115 -3.375977,-1.1058 -10.599051,-4.4654 -11.2266,-5.2215 -0.205349,-0.2475 -0.530534,-0.4498 -0.722644,-0.4498 -0.826118,0 -8.554333,-6.2047 -11.37286,-9.131 -4.705497,-4.8851 -7.615766,-8.9428 -10.832214,-15.1032 -3.0889786,-5.9163 -4.8933104,-11.3118 -6.1782187,-18.47491 -0.4788579,-2.66954 -0.6336967,-12.9914 -0.2411165,-16.07328 1.4135091,-11.09652 5.6282752,-20.91582 13.0755962,-30.46271 2.746671,-3.52101 5.505455,-6.19176 9.390687,-9.091 2.02064,-1.50786 4.087205,-3.07144 4.592368,-3.47462 1.646079,-1.31378 9.010374,-4.76796 13.063796,-6.12747 7.20403,-2.41625 9.356065,-2.73511 18.470458,-2.73663 12.802459,-0.002 18.371327,1.24101 27.707276,6.18515 2.777021,1.47064 4.315877,2.41602 8.193332,5.03347 1.919468,1.2957 8.884008,7.92138 10.526978,10.0148 3.37699,4.30275 4.24153,5.46255 4.24153,5.69006 0,0.0974 0.70087,1.2952 1.55751,2.66204 3.70727,5.91541 5.73372,11.57387 7.5502,21.08226 0.74887,3.92003 0.73501,15.76022 -0.0229,19.28795 -2.23001,10.38399 -5.75606,18.62109 -10.87636,25.40729 -0.95127,1.2609 -1.93622,2.566 -2.18879,2.9006 -2.41621,3.2003 -9.4562,9.4577 -13.689428,12.1676 -2.852039,1.8258 -10.39633,5.2944 -13.711699,6.3042 -6.870113,2.0924 -8.433028,2.3066 -17.451003,2.391 -4.546442,0.043 -8.913747,-0.039 -9.705116,-0.1788 z m 16.440589,-8.0744 c 3.123557,-0.4908 8.275472,-1.7849 10.103219,-2.5376 9.120335,-3.7567 16.953768,-9.7318 22.892548,-17.4618 3.67948,-4.7894 7.37297,-13.5276 8.74751,-20.69544 1.15541,-6.02502 1.28461,-7.40147 1.15593,-12.31497 -0.1746,-6.66974 -1.23406,-11.45126 -4.05608,-18.30685 -1.30107,-3.16068 -4.07449,-8.08357 -5.46842,-9.70659 -0.36155,-0.42099 -0.91163,-1.17873 -1.2224,-1.68387 -0.69214,-1.12512 -4.148611,-5.08969 -5.819929,-6.67547 -2.829722,-2.68493 -7.417351,-5.80329 -11.312151,-7.68922 -5.922031,-2.86755 -6.235438,-2.99359 -8.897069,-3.57843 -1.347094,-0.296 -3.000357,-0.68034 -3.673893,-0.8541 -5.939364,-1.53205 -17.31666,-1.23477 -23.880312,0.624 -1.178708,0.3338 -2.625303,0.71231 -3.214656,0.84108 -0.589355,0.12877 -1.347095,0.38847 -1.68387,0.57705 -0.336772,0.18857 -1.549087,0.70179 -2.694034,1.14044 -2.178632,0.83471 -6.296593,3.19342 -6.95022,3.981 -0.209473,0.25239 -0.51202,0.45888 -0.672342,0.45888 -1.02625,0 -8.502965,6.68951 -11.634322,10.40937 -2.609683,3.10014 -2.912106,3.51226 -3.93169,5.35777 -0.558177,1.01031 -1.246813,2.18137 -1.530307,2.60233 -0.839575,1.24671 -3.094563,6.72127 -3.720167,9.03166 -1.44158,5.32386 -2.197251,11.77429 -1.949964,16.64492 0.184154,3.62704 0.957904,9.98932 1.277805,10.50694 0.07905,0.1279 0.408977,1.2452 0.733143,2.4829 0.324166,1.2376 0.799703,2.6535 1.056745,3.1464 0.257043,0.4929 0.4682,1.0691 0.469238,1.2804 9.19e-4,0.2112 0.357855,1.1068 0.792933,1.99 0.435075,0.8832 0.976379,2.1121 1.202895,2.7308 0.22652,0.6188 1.041596,2.0808 1.811293,3.2492 0.769696,1.1684 1.399447,2.21 1.399447,2.3147 0,0.1054 0.769572,1.1915 1.710156,2.4149 1.714857,2.2304 5.260079,5.8387 7.800509,7.9394 2.609337,2.1578 3.207903,2.6055 5.031833,3.7635 1.01032,0.6414 2.181374,1.4005 2.602342,1.6869 0.420965,0.2864 1.144264,0.6148 1.607328,0.73 0.463064,0.1146 0.841935,0.3444 0.841935,0.5096 0,0.165 0.172216,0.2972 0.382695,0.2935 0.210482,0 1.347095,0.4711 2.525803,1.0552 3.275344,1.6225 8.84238,3.1955 13.63079,3.851 1.427007,0.1948 2.646241,0.407 2.709402,0.4702 0.262322,0.2624 9.280815,-0.1787 11.826327,-0.5797 z m -13.691693,-1.6562 c -3.328288,-0.4092 -10.277472,-2.0262 -11.566326,-2.6914 -0.420968,-0.2176 -1.454249,-0.7096 -2.296184,-1.0938 -0.841935,-0.3845 -2.578336,-1.2875 -3.858671,-2.0068 -2.327875,-1.3076 -2.327875,-1.3076 -2.510679,-5.2183 -0.100544,-2.1508 -0.155169,-9.6279 -0.121395,-16.6161 0.06782,-14.03164 0.04947,-13.89329 2.02018,-15.2199 0.968031,-0.65165 1.356796,-0.7003 5.596991,-0.7003 5.222859,0 5.177064,0.0257 4.554238,-2.55806 -0.208832,-0.86628 -0.503018,-2.47058 -0.653767,-3.5651 -0.150746,-1.0945 -0.405311,-2.67886 -0.565685,-3.52081 -1.281016,-6.72503 1.411747,-11.14756 6.799911,-11.16803 0.973629,-0.005 2.21357,0.17896 2.755419,0.40571 1.28684,0.53871 3.171418,2.64804 3.91429,4.38109 0.538524,1.25633 0.562902,1.68884 0.279008,4.95048 -0.171093,1.96562 -0.507518,4.53825 -0.747617,5.71696 -0.240099,1.17872 -0.525885,2.83196 -0.63508,3.67389 -0.198544,1.53079 -0.198544,1.53079 4.345779,1.53079 5.291129,0 6.124535,0.23685 7.1303,2.02636 0.534221,0.95053 0.725364,1.8941 0.853037,4.21112 0.2111,3.8312 0.05417,4.1303 -2.423105,4.6176 -2.391419,0.4705 -3.713444,1.7071 -4.180525,3.9104 -0.197008,0.9294 -0.248345,6.2505 -0.141077,14.6258 0.168619,13.1648 0.168619,13.1648 -0.507378,14.0101 -0.634643,0.7935 -0.804991,0.8405 -2.785336,0.7653 -1.160146,-0.043 -3.525498,-0.2541 -5.25634,-0.467 z m 10.149467,-12.2418 c -0.01169,-6.8619 -0.03075,-13.3066 -0.04218,-14.3217 -0.02788,-2.4767 0.179182,-2.9906 1.602154,-3.9768 1.129318,-0.7826 1.415019,-0.8381 4.123615,-0.8004 1.636558,0.023 2.910239,-0.085 2.910239,-0.2467 0,-0.1579 -0.190638,-1.1568 -0.423667,-2.2197 -0.233005,-1.0629 -0.661964,-3.75 -0.953215,-5.97143 -0.642786,-4.90239 -0.413287,-6.36701 1.278744,-8.16045 1.338595,-1.41886 2.101149,-1.73078 4.231282,-1.73078 2.943739,0 4.202434,0.85538 5.631444,3.82698 0.883353,1.83695 0.883353,1.83695 0.168871,7.1947 -1.050185,7.87578 -1.355023,7.04168 2.573299,7.04168 4.167033,0 4.856975,0.2373 6.01641,2.07 0.917815,1.4508 0.917815,1.4508 0.917815,9.4628 0,9.2084 0.267673,8.3613 -3.501219,11.0795 -7.097527,5.1188 -13.985948,7.9394 -21.74877,8.9052 -1.426869,0.1765 -2.632365,0.3229 -2.678881,0.3229 -0.04651,0 -0.0942,-5.6142 -0.105974,-12.4758 z m -3.652481,-58.11236 c -0.420968,-0.0724 -1.729793,-0.28277 -2.9085,-0.46759 -1.178708,-0.18491 -3.038616,-0.51655 -4.133131,-0.73721 -1.094515,-0.22065 -2.816507,-0.49756 -3.826653,-0.61538 -1.010149,-0.11777 -2.209467,-0.40699 -2.665152,-0.64265 -1.079466,-0.55821 -1.4337,-2.17711 -0.716038,-3.27241 0.879327,-1.342 1.908567,-1.54699 6.577678,-1.30999 4.921546,0.24982 6.584196,-0.0369 7.127385,-1.22905 0.278791,-0.61188 0.253907,-0.85418 -0.126825,-1.23491 -0.388707,-0.3887 -1.347954,-0.47185 -5.347963,-0.46358 -4.1893,0.009 -5.281283,0.11708 -7.770348,0.77082 -4.031451,1.05899 -10.777392,3.33329 -13.704525,4.62026 -3.423243,1.50513 -6.108457,1.46166 -7.321647,-0.11846 -1.093367,-1.42408 0.16965,-2.97036 4.703646,-5.75848 1.58213,-0.97292 3.879176,-2.41295 5.104548,-3.20009 4.238319,-2.72253 7.564574,-4.26453 13.594507,-6.30214 6.055253,-2.04615 6.055253,-2.04615 9.576067,-2.03467 3.222355,0.0114 9.210318,0.62819 13.011712,1.34219 4.220283,0.79271 8.698501,1.23651 12.705554,1.25917 5.156451,0.0291 4.766994,-0.14504 9.120129,4.07774 3.62504,3.51644 9.0521,10.58287 8.52926,11.10571 -0.0866,0.0866 -0.61437,0.0183 -1.1729,-0.15306 -1.01037,-0.30892 -6.779816,-0.63734 -13.325844,-0.75855 -3.007437,-0.0557 -3.594155,0.0206 -4.745456,0.60901 -4.083101,2.09043 -7.541128,3.24938 -12.148326,4.07156 -2.068075,0.36906 -8.842814,0.66432 -10.13718,0.44181 z"
       id="path3229"
       inkscape:connector-curvature="0" />
  </g>
</svg>
