<svg 
	version="1.1"
	xmlns="http://www.w3.org/2000/svg"
	width="512"
	height="512"
	viewBox="0 0 511.746 511.746">
<g>
	<rect y="144.396" fill="#E0E0E2" width="511.746" height="357.962"/>
	<rect x="254.873" y="144.396" fill="#C6C5CA" width="256.873" height="357.962"/>
	<rect y="39.391" fill="#FF5023" width="511.746" height="120.005"/>
	<rect x="254.873" y="39.391" fill="#CD2A00" width="256.873" height="120.005"/>
	<rect x="89.339" y="9.388" fill="#D4D4D9" width="30" height="90.006"/>
	<rect x="391.074" y="9.388" fill="#BBBBC2" width="30" height="90.006"/>

	<rect x="179.398" y="199.401" fill="#738182" width="52.942" height="52.941"/>
	<rect x="79.393" y="289.406" fill="#738182" width="52.941" height="52.941"/>
	<rect x="179.398" y="289.406" fill="#738182" width="52.942" height="52.941"/>
	<rect x="79.393" y="379.412" fill="#738182" width="52.941" height="52.941"/>
	<rect x="179.398" y="379.412" fill="#738182" width="52.942" height="52.941"/>

	<rect x="279.405" y="199.401" fill="#576666" width="52.941" height="52.941"/>
	<rect x="379.411" y="199.401" fill="#576666" width="52.942" height="52.941"/>
	<rect x="279.405" y="289.406" fill="#576666" width="52.941" height="52.941"/>
	<rect x="379.411" y="289.406" fill="#576666" width="52.942" height="52.941"/>
	<rect x="279.405" y="379.412" fill="#576666" width="52.941" height="52.941"/>
</g>
</svg>
