<?xml version="1.0" encoding="UTF-8" standalone="no"?>
<!-- Created with Inkscape (http://www.inkscape.org/) -->

<svg
   xmlns:dc="http://purl.org/dc/elements/1.1/"
   xmlns:cc="http://creativecommons.org/ns#"
   xmlns:rdf="http://www.w3.org/1999/02/22-rdf-syntax-ns#"
   xmlns:svg="http://www.w3.org/2000/svg"
   xmlns="http://www.w3.org/2000/svg"
   xmlns:xlink="http://www.w3.org/1999/xlink"
   xmlns:sodipodi="http://sodipodi.sourceforge.net/DTD/sodipodi-0.dtd"
   xmlns:inkscape="http://www.inkscape.org/namespaces/inkscape"
   width="24"
   height="24"
   id="svg2"
   version="1.1"
   inkscape:version="0.48.2 r9819"
   sodipodi:docname="icone-vide.svg"
   inkscape:export-filename="/home/charles/www/test/plugins/albums/prive/themes/spip/images/icone-vide.png"
   inkscape:export-xdpi="90"
   inkscape:export-ydpi="90">
  <defs
     id="defs4">
    <linearGradient
       id="linearGradient3785">
      <stop
         style="stop-color:#3c3c3c;stop-opacity:1;"
         offset="0"
         id="stop3787" />
      <stop
         style="stop-color:#828282;stop-opacity:1;"
         offset="1"
         id="stop3789" />
    </linearGradient>
    <linearGradient
       inkscape:collect="always"
       xlink:href="#linearGradient3785"
       id="linearGradient3791"
       x1="15.757612"
       y1="27.300596"
       x2="15.757612"
       y2="0.018556235"
       gradientUnits="userSpaceOnUse"
       gradientTransform="matrix(0.72892925,0,0,0.72892925,185.49695,686.86748)" />
    <filter
       inkscape:collect="always"
       id="filter3823">
      <feGaussianBlur
         inkscape:collect="always"
         stdDeviation="0.45027014"
         id="feGaussianBlur3825" />
    </filter>
  </defs>
  <sodipodi:namedview
     id="base"
     pagecolor="#ffffff"
     bordercolor="#666666"
     borderopacity="1.0"
     inkscape:pageopacity="0.0"
     inkscape:pageshadow="2"
     inkscape:zoom="15.839192"
     inkscape:cx="11.53215"
     inkscape:cy="13.228089"
     inkscape:document-units="px"
     inkscape:current-layer="layer1"
     showgrid="false"
     fit-margin-top="0"
     fit-margin-left="0"
     fit-margin-right="0"
     fit-margin-bottom="0"
     inkscape:window-width="1920"
     inkscape:window-height="1056"
     inkscape:window-x="0"
     inkscape:window-y="24"
     inkscape:window-maximized="1" />
  <metadata
     id="metadata7">
    <rdf:RDF>
      <cc:Work
         rdf:about="">
        <dc:format>image/svg+xml</dc:format>
        <dc:type
           rdf:resource="http://purl.org/dc/dcmitype/StillImage" />
        <dc:title></dc:title>
      </cc:Work>
    </rdf:RDF>
  </metadata>
  <g
     inkscape:label="Calque 1"
     inkscape:groupmode="layer"
     id="layer1"
     transform="translate(-183.49695,-684.86748)">
    <path
       inkscape:connector-curvature="0"
       id="path3827"
       d="m 195.49695,686.86748 c -5.50754,0 -10,4.49246 -10,10 0,5.50754 4.49246,10 10,10 5.50754,0 10,-4.49246 10,-10 0,-5.50754 -4.49246,-10 -10,-10 z m 0,2.55125 c 1.66901,0 3.20317,0.53876 4.44192,1.45787 l -10.4328,10.4328 c -0.91911,-1.23875 -1.45787,-2.77291 -1.45787,-4.44192 0,-4.12874 3.32001,-7.44875 7.44875,-7.44875 z m 5.96811,3.00683 c 0.92165,1.23974 1.48064,2.77038 1.48064,4.44192 0,4.12874 -3.32001,7.44875 -7.44875,7.44875 -1.665,0 -3.18193,-0.56555 -4.41913,-1.48064 l 10.38724,-10.41003 z"
       style="font-size:medium;font-style:normal;font-variant:normal;font-weight:normal;font-stretch:normal;text-indent:0;text-align:start;text-decoration:none;line-height:normal;letter-spacing:normal;word-spacing:normal;text-transform:none;direction:ltr;block-progression:tb;writing-mode:lr-tb;text-anchor:start;baseline-shift:baseline;color:#000000;fill:#ffffff;fill-opacity:1;stroke:#ffffff;stroke-width:0.50000000000000000;marker:none;visibility:visible;display:inline;overflow:visible;enable-background:accumulate;font-family:Sans;-inkscape-font-specification:Sans;stroke-opacity:1;stroke-miterlimit:4;stroke-dasharray:none;opacity:0.6" />
    <path
       style="font-size:medium;font-style:normal;font-variant:normal;font-weight:normal;font-stretch:normal;text-indent:0;text-align:start;text-decoration:none;line-height:normal;letter-spacing:normal;word-spacing:normal;text-transform:none;direction:ltr;block-progression:tb;writing-mode:lr-tb;text-anchor:start;baseline-shift:baseline;color:#000000;fill:url(#linearGradient3791);fill-opacity:1;stroke:none;stroke-width:55.14583206;marker:none;visibility:visible;display:inline;overflow:visible;enable-background:accumulate;font-family:Sans;-inkscape-font-specification:Sans"
       d="m 195.49695,686.86748 c -5.50754,0 -10,4.49246 -10,10 0,5.50754 4.49246,10 10,10 5.50754,0 10,-4.49246 10,-10 0,-5.50754 -4.49246,-10 -10,-10 z m 0,2.55125 c 1.66901,0 3.20317,0.53876 4.44192,1.45787 l -10.4328,10.4328 c -0.91911,-1.23875 -1.45787,-2.77291 -1.45787,-4.44192 0,-4.12874 3.32001,-7.44875 7.44875,-7.44875 z m 5.96811,3.00683 c 0.92165,1.23974 1.48064,2.77038 1.48064,4.44192 0,4.12874 -3.32001,7.44875 -7.44875,7.44875 -1.665,0 -3.18193,-0.56555 -4.41913,-1.48064 l 10.38724,-10.41003 z"
       id="path2985"
       inkscape:connector-curvature="0" />
    <path
       style="font-size:medium;font-style:normal;font-variant:normal;font-weight:normal;font-stretch:normal;text-indent:0;text-align:start;text-decoration:none;line-height:normal;letter-spacing:normal;word-spacing:normal;text-transform:none;direction:ltr;block-progression:tb;writing-mode:lr-tb;text-anchor:start;baseline-shift:baseline;color:#000000;fill:#000000;fill-opacity:0.58754861000000003;stroke:none;stroke-width:55.14583205999999649;marker:none;visibility:visible;display:inline;overflow:visible;enable-background:accumulate;font-family:Sans;-inkscape-font-specification:Sans;filter:url(#filter3823)"
       d="m 195.49695,686.86748 c -5.50754,0 -10,4.49246 -10,10 0,2.5127 0.94297,4.80045 2.48292,6.56036 -1.23188,-1.66231 -1.98179,-3.70277 -1.98179,-5.92254 0,-5.50755 4.49246,-10 10,-10 3.01777,0 5.72645,1.3597 7.56265,3.48519 -1.82205,-2.48849 -4.75532,-4.12301 -8.06378,-4.12301 z m 4.25968,4.19134 -10.20501,10.20502 c 0.13849,0.23807 0.29214,0.46307 0.45558,0.68336 L 200.44,691.5144 c -0.22028,-0.16344 -0.44531,-0.31708 -0.68337,-0.45559 z m 2.20957,2.00456 -0.0455,0.0455 c 0.64661,1.10042 1.02506,2.38424 1.02506,3.75852 0,4.12875 -3.32,7.44875 -7.44874,7.44875 -1.36891,0 -2.64021,-0.38053 -3.73576,-1.02506 l -0.18224,0.18223 c 1.2372,0.91511 2.75414,1.48064 4.41913,1.48064 4.12875,0 7.44876,-3.32 7.44876,-7.44874 0,-1.67155 -0.559,-3.20219 -1.48064,-4.44192 z"
       id="path3793"
       inkscape:connector-curvature="0" />
  </g>
</svg>
