<?xml version="1.0" encoding="UTF-8" standalone="no"?>
<!-- Created with Inkscape (http://www.inkscape.org/) -->

<svg
   xmlns:dc="http://purl.org/dc/elements/1.1/"
   xmlns:cc="http://creativecommons.org/ns#"
   xmlns:rdf="http://www.w3.org/1999/02/22-rdf-syntax-ns#"
   xmlns:svg="http://www.w3.org/2000/svg"
   xmlns="http://www.w3.org/2000/svg"
   xmlns:sodipodi="http://sodipodi.sourceforge.net/DTD/sodipodi-0.dtd"
   xmlns:inkscape="http://www.inkscape.org/namespaces/inkscape"
   id="svg2"
   version="1.1"
   inkscape:version="0.48.2 r9819"
   width="16"
   height="10"
   sodipodi:docname="vu.svg"
   inkscape:export-filename="/home/charles/www/test/plugins/albums/prive/themes/spip/images/vu-16-10.png"
   inkscape:export-xdpi="89"
   inkscape:export-ydpi="89">
  <metadata
     id="metadata8">
    <rdf:RDF>
      <cc:Work
         rdf:about="">
        <dc:format>image/svg+xml</dc:format>
        <dc:type
           rdf:resource="http://purl.org/dc/dcmitype/StillImage" />
        <dc:title></dc:title>
      </cc:Work>
    </rdf:RDF>
  </metadata>
  <defs
     id="defs6" />
  <sodipodi:namedview
     pagecolor="#ffffff"
     bordercolor="#666666"
     borderopacity="1"
     objecttolerance="10"
     gridtolerance="10"
     guidetolerance="10"
     inkscape:pageopacity="0"
     inkscape:pageshadow="2"
     inkscape:window-width="1920"
     inkscape:window-height="1056"
     id="namedview4"
     showgrid="false"
     inkscape:zoom="27.400388"
     inkscape:cx="8.2032925"
     inkscape:cy="5.1249509"
     inkscape:window-x="0"
     inkscape:window-y="24"
     inkscape:window-maximized="1"
     inkscape:current-layer="svg2" />
  <path
     sodipodi:nodetypes="scscs"
     inkscape:connector-curvature="0"
     id="path3801"
     d="m 8,1.456 c 3.044328,0 6.10843,1.3200564 7.25,3.544 C 14.10843,7.2239437 11.044328,8.844 8,8.844 4.9556704,8.844 1.8915709,7.2239439 0.75,5 1.8915709,2.7760562 4.9556704,1.456 8,1.456 z"
     style="font-size:medium;font-style:normal;font-variant:normal;font-weight:normal;font-stretch:normal;text-indent:0;text-align:start;text-decoration:none;line-height:normal;letter-spacing:normal;word-spacing:normal;text-transform:none;direction:ltr;block-progression:tb;writing-mode:lr-tb;text-anchor:start;baseline-shift:baseline;color:#000000;fill:#ffffff;fill-opacity:1;fill-rule:nonzero;stroke:none;stroke-width:1.15300453000000003;marker:none;visibility:visible;display:inline;overflow:visible;enable-background:accumulate;font-family:Sans;-inkscape-font-specification:Sans" />
  <path
     style="font-size:medium;font-style:normal;font-variant:normal;font-weight:normal;font-stretch:normal;text-indent:0;text-align:start;text-decoration:none;line-height:normal;letter-spacing:normal;word-spacing:normal;text-transform:none;direction:ltr;block-progression:tb;writing-mode:lr-tb;text-anchor:start;baseline-shift:baseline;color:#000000;fill:#464646;fill-opacity:1;fill-rule:nonzero;stroke:none;stroke-width:3.28536010000000012;marker:none;visibility:visible;display:inline;overflow:visible;enable-background:accumulate;font-family:Sans;-inkscape-font-specification:Sans"
     d="m 7.995867,0.98969833 c -1.918226,0 -3.487344,1.59284107 -3.487344,3.51106707 0,1.918226 1.569118,3.5110671 3.487344,3.5110671 1.918226,0 3.511067,-1.5928411 3.511067,-3.5110671 0,-1.918226 -1.592841,-3.51106707 -3.511067,-3.51106707 z"
     id="path3803"
     inkscape:connector-curvature="0"
     sodipodi:nodetypes="sssss" />
  <path
     style="font-size:medium;font-style:normal;font-variant:normal;font-weight:normal;font-stretch:normal;text-indent:0;text-align:start;text-decoration:none;line-height:normal;letter-spacing:normal;word-spacing:normal;text-transform:none;direction:ltr;block-progression:tb;writing-mode:lr-tb;text-anchor:start;baseline-shift:baseline;color:#000000;fill:#464646;fill-opacity:1;fill-rule:nonzero;stroke:none;stroke-width:1.15300453000000003;marker:none;visibility:visible;display:inline;overflow:visible;enable-background:accumulate;font-family:Sans;-inkscape-font-specification:Sans"
     d="M 8,0 C 4.4197537,0 1.3391361,1.9321174 0.0625,4.75 L -0.0625,5 0.0625,5.25 C 1.3391361,8.0678827 4.4197537,10 8,10 11.580245,10 14.660865,8.067883 15.9375,5.25 L 16.0625,5 15.9375,4.75 C 14.660864,1.9321171 11.580245,0 8,0 z m 0,1.756 c 3.044328,0 6.10843,1.0200564 7.25,3.244 C 14.10843,7.2239437 11.044328,8.844 8,8.844 4.9556704,8.844 1.8915709,7.2239439 0.75,5 1.8915709,2.7760562 4.9556704,1.756 8,1.756 z"
     id="path3787"
     inkscape:connector-curvature="0"
     sodipodi:nodetypes="scccscccsscscs" />
  <path
     style="font-size:medium;font-style:normal;font-variant:normal;font-weight:normal;font-stretch:normal;text-indent:0;text-align:start;text-decoration:none;line-height:normal;letter-spacing:normal;word-spacing:normal;text-transform:none;direction:ltr;block-progression:tb;writing-mode:lr-tb;text-anchor:start;baseline-shift:baseline;color:#000000;fill:#646464;fill-opacity:1;fill-rule:nonzero;stroke:none;stroke-width:3.2853601;marker:none;visibility:visible;display:inline;overflow:visible;enable-background:accumulate;font-family:Sans;-inkscape-font-specification:Sans"
     d="m 7.9958671,3.5043815 c 0.5703251,0 1.0201073,0.4260588 1.0201073,0.9963839 0,0.5703251 -0.4497822,0.9963839 -1.0201073,0.9963839 -0.5703251,0 -0.9963839,-0.4260588 -0.9963839,-0.9963839 0,-0.5703251 0.4260588,-0.9963839 0.9963839,-0.9963839 z"
     id="path3793"
     inkscape:connector-curvature="0"
     sodipodi:nodetypes="sssss" />
</svg>
