<svg version="1.1"
		 xmlns="http://www.w3.org/2000/svg"
		 xmlns:xlink="http://www.w3.org/1999/xlink"
		 width="256"
		 height="256"
		 viewBox="0 0 52 52"
		 xml:space="preserve">
	<g transform="translate(-1 0)">
		<rect x="2" y="1" style="fill:#424A60;stroke:#E7ECED;stroke-width:2;stroke-miterlimit:10;" width="48" height="50"/>
		<circle fill="#EFCE4A" cx="14" cy="13.569" r="4.569"/>
		<rect x="2" y="41" style="fill:#E7ECED;" width="48" height="10"/>
		<polygon fill="#1A9172" points="49,32.111 48,31 36,20 25.5,31.5 30.983,36.983 35,41 49,41 "/>
		<polygon fill="#25AE88" points="30.983,36.983 20.017,26.017 3,41 35,41 "/>
	</g>
	<g transform="translate(0.8 -0.5) scale(0.10 0.10)">
		<path fill="#fff" d="M336,299.31l-42.91,74.33a10,10,0,0,0-1.29,4l-10.4,100.82a10,10,0,0,0,15.81,9.13l82.11-59.42a10,10,0,0,0,2.8-3.1L508.24,206.57A28,28,0,0,0,498,168.38L457.4,144.93a28,28,0,0,0-38.18,10.23L356,264.67" />
		<path d="M336,299.31l-42.91,74.33a10,10,0,0,0-1.29,4l-10.4,100.82a10,10,0,0,0,15.81,9.13l82.11-59.42a10,10,0,0,0,2.8-3.1L508.24,206.57A28,28,0,0,0,498,168.38L457.4,144.93a28,28,0,0,0-38.18,10.23L356,264.67M303.58,458.25,310.1,395l45,26Zm66.21-51.88L315.4,375l95.09-164.69,54.39,31.4ZM490.92,196.57l-16,27.8L420.49,193l16-27.8a8,8,0,0,1,10.86-2.91L488,185.7a8,8,0,0,1,2.91,10.86Z" />
	</g>
	<path d="M2,45 l10,0z" stroke-width="1" stroke="#333"/>
	<path d="M15,45 l8,0z" stroke-width="1" stroke="#333"/>
	<path d="M2,48 l25,0z" stroke-width="1" stroke="#333"/>
</svg>
