<svg height="512" viewBox="0 0 512 512" width="512" xmlns="http://www.w3.org/2000/svg"><g transform="matrix(-1.2 0 0 -1.2 512.4 614.4)"><path d="m355.501 245.374-142.377 142.376c-24.541 24.542-64.333 24.542-88.874 0s-24.542-64.332 0-88.874l142.376-142.376-72.064-72.064-146.305 146.305c-64.342 64.342-64.342 168.661 0 233.002s168.661 64.342 233.002 0l146.306-146.306z" fill="#c43d2c"/><path d="m48.256 463.744 75.994-75.994c24.541 24.542 64.333 24.542 88.874 0l142.376-142.376 72.064 72.064-146.305 146.305c-64.343 64.343-168.661 64.343-233.003.001z" fill="#f74d37"/><path d="m314.661 270.675h101.909v73.266h-101.909z" fill="#d8d9dd" transform="matrix(-.7071 -.7071 .7071 -.7071 406.8443 783.1379)"/><path d="m153.734 109.741h101.909v73.266h-101.909z" fill="#b7b9c0" transform="matrix(.7071 .7071 -.7071 .7071 163.4544 -101.8644)"/></g><path d="m415.402344 495.421875-159.40625-159.410156-159.40625 159.410156c-22.097656 22.09375-57.921875 22.09375-80.019532 0-22.09375-22.097656-22.09375-57.921875 0-80.019531l159.410157-159.40625-159.410157-159.40625c-22.09375-22.097656-22.09375-57.921875 0-80.019532 22.097657-22.09375 57.921876-22.09375 80.019532 0l159.40625 159.410157 159.40625-159.410157c22.097656-22.09375 57.921875-22.09375 80.019531 0 22.09375 22.097657 22.09375 57.921876 0 80.019532l-159.410156 159.40625 159.410156 159.40625c22.09375 22.097656 22.09375 57.921875 0 80.019531-22.097656 22.09375-57.921875 22.09375-80.019531 0zm0 0" fill="#e21b1b" opacity=".9"/></svg>