<svg xmlns="http://www.w3.org/2000/svg" height="19.826" width="24" viewBox="0 0 24 19.826221" data-name="Layer 1"><title>icon-01</title><path d="M18.407 12.535l1.826 2.283a.522.522 0 1 1-.814.65l-1.68-2.099-1.68 2.1a.522.522 0 1 1-.814-.651l1.826-2.283-.537-.671a.522.522 0 0 1 .815-.653l.39.489 1.002-1.252h-3.61a.522.522 0 1 1 0-1.044h2.086v-.522a.522.522 0 1 1 1.044 0v.522h2.087a.522.522 0 1 1 0 1.044h-.271zM5.14 8.752L4.134 11.17a.522.522 0 0 1-.964-.401l2.609-6.26a.522.522 0 0 1 .963 0l2.609 6.243a.522.522 0 0 1-.962.403L7.385 8.752zm.435-1.044H6.95l-.687-1.644zm-4.533 4.827h5.74a.522.522 0 1 1 0 1.043H.522A.522.522 0 0 1 0 13.056V2.622A.522.522 0 0 1 .522 2.1h13.043a.522.522 0 1 1 0 1.043H1.043zm21.914-5.218h-5.74a.522.522 0 1 1 0-1.043h6.261a.522.522 0 0 1 .522.521V17.23a.522.522 0 0 1-.522.522H10.435a.522.522 0 1 1 0-1.044h12.522zM17.827.246a.522.522 0 1 1 .868.578L6.173 19.606a.522.522 0 0 1-.868-.578z" fill-opacity=".66"/></svg>