<?xml version="1.0" encoding="UTF-8"?>
<!DOCTYPE svg PUBLIC "-//W3C//DTD SVG 1.1//EN" "http://www.w3.org/Graphics/SVG/1.1/DTD/svg11.dtd">
<svg version="1.1" xmlns="http://www.w3.org/2000/svg" xmlns:xlink="http://www.w3.org/1999/xlink" x="0" y="0" width="800" height="800" viewBox="0, 0, 800, 800">
  <g id="Calque_1">
    <path d="M777.406,399.494 C777.406,607.381 608.881,775.906 400.994,775.906 C193.107,775.906 24.582,607.381 24.582,399.494 C24.582,191.607 193.107,23.082 400.994,23.082 C608.881,23.082 777.406,191.607 777.406,399.494 z" fill="#82827C"/>
    <path d="M749.802,399.494 C749.802,592.135 593.635,748.302 400.994,748.302 C208.353,748.302 52.186,592.135 52.186,399.494 C52.186,206.853 208.353,50.686 400.994,50.686 C593.635,50.686 749.802,206.853 749.802,399.494 z" fill="#9C9C94"/>
    <g>
      <path d="M400.993,700.08 C234.984,700.08 100.407,565.503 100.407,399.494 C100.407,233.485 234.984,98.908 400.993,98.908 C567.002,98.908 701.579,233.485 701.579,399.494 C701.579,565.503 567.002,700.08 400.993,700.08 z" fill="#4070CD"/>
      <path d="M400.993,700.08 C234.984,700.08 100.407,565.503 100.407,399.494 C100.407,233.485 234.984,98.908 400.993,98.908 C567.002,98.908 701.579,233.485 701.579,399.494 C701.579,565.503 567.002,700.08 400.993,700.08 z" fill-opacity="0" stroke="#2C4D8C" stroke-width="18"/>
    </g>
    <text transform="matrix(1, 0, 0, 1, 409.442, 444.5)">
      <tspan x="-209.875" y="137" font-family="MyanmarMN-Bold" font-size="512" fill="#FFFFFF">N</tspan>
    </text>
  </g>
</svg>
