<svg
	version="1.1"
	width="512"
	height="512"
	viewBox="0 0 483.044 483.044"
	xmlns="http://www.w3.org/2000/svg"
	xmlns:xlink="http://www.w3.org/1999/xlink"
	xml:space="preserve">
	<g transform="translate(483.044 0) scale(-1 1)">
		<path style="fill:#AB2300;" d="M475.042,88.018c0.035-44.183-35.754-80.028-79.937-80.063c-21.235-0.017-41.605,8.41-56.623,23.423
			l-3.68,3.68l-80,80l-223.12,223.2c-30.694,31.78-29.814,82.426,1.966,113.12c31.002,29.942,80.152,29.942,111.154,0l87.576-87.52
			l-7.096-0.928l7.096,0.928l219.304-219.28C466.685,129.584,475.092,109.228,475.042,88.018L475.042,88.018z M99.554,428.761
			l-22.632-22.624l-22.624,22.624l22.624-22.624l-22.624-22.632l22.624,22.632l22.632-22.632l-22.632,22.632L99.554,428.761z
			 M424.97,92.025c-9.371,9.374-24.567,9.376-33.941,0.005s-9.376-24.567-0.005-33.941c9.371-9.374,24.567-9.376,33.941-0.005
			c0.002,0.002,0.003,0.003,0.005,0.005C434.339,67.461,434.339,82.654,424.97,92.025z"/>
		<path style="fill:#AB2300;" d="M391.034,58.09c-9.374,9.371-9.376,24.567-0.005,33.941c9.371,9.374,24.567,9.376,33.941,0.005
			s9.376-24.567,0.005-33.941c-0.002-0.002-0.003-0.003-0.005-0.005C415.598,48.72,400.406,48.72,391.034,58.09z"/>
		<path style="fill:#E7E7E8;" d="M87.762,35.058c-25.443-0.008-49.846,10.093-67.84,28.08l-11.92,11.92l5.92,4.24
			c32.561,23.266,71.581,35.769,111.6,35.76h129.28l80-80H87.762z"/>
			<path style="fill:#E7E7E8;" d="M472.002,451.057c0,0-336,8-328,0l88-88l226.112,30.152c7.949,1.058,13.886,7.837,13.888,15.856
			V451.057z"/>
		<path style="fill:#231F20;" d="M105.21,377.849c-3.124-3.123-8.188-3.123-11.312,0l-16.976,16.976l-16.968-16.976
			c-3.069-3.178-8.134-3.266-11.312-0.196c-3.178,3.07-3.266,8.134-0.196,11.312c0.064,0.067,0.13,0.132,0.196,0.196l16.96,16.976
			l-16.96,16.968c-3.178,3.069-3.266,8.134-0.196,11.312c3.069,3.178,8.134,3.266,11.312,0.196c0.067-0.064,0.132-0.13,0.196-0.196
			l16.968-16.96l16.976,16.968c3.178,3.069,8.243,2.982,11.312-0.196c2.994-3.1,2.994-8.015,0-11.116l-16.976-16.968l16.976-16.976
			c3.126-3.122,3.129-8.188,0.006-11.314C105.214,377.854,105.212,377.852,105.21,377.849z"/>
		<path style="fill:#231F20;" d="M408.002,107.058c17.673-0.004,31.997-14.334,31.993-32.007c-0.002-8.483-3.372-16.618-9.369-22.617
		c-12.657-12.097-32.591-12.097-45.248,0c-12.495,12.499-12.492,32.76,0.007,45.255
		C391.384,103.686,399.519,107.056,408.002,107.058L408.002,107.058z M396.69,63.746c6.139-6.356,16.268-6.532,22.624-0.393
		c6.356,6.139,6.532,16.268,0.393,22.624c-0.129,0.133-0.26,0.265-0.393,0.393c-6.329,6.047-16.295,6.047-22.624,0
		C390.443,80.122,390.443,69.994,396.69,63.746z"/>
		<path style="fill:#231F20;" d="M475.89,396.21l-11.84-15.872c-2.641-3.542-7.653-4.274-11.195-1.633
		c-0.064,0.047-0.127,0.096-0.189,0.145l-11.016,8.736l-8.408-11.264c-2.641-3.542-7.653-4.274-11.195-1.633
		c-0.064,0.047-0.127,0.096-0.189,0.145l-11.024,8.736l-8.432-11.272c-2.643-3.54-7.656-4.268-11.197-1.624
		c-0.063,0.047-0.126,0.095-0.188,0.144l-11.016,8.736l-8.416-11.272c-1.292-1.734-3.232-2.871-5.376-3.152
		c-2.145-0.27-4.308,0.33-6.008,1.664l-11.024,8.744l-8.424-11.28c-2.643-3.54-7.656-4.268-11.197-1.624
		c-0.063,0.047-0.126,0.095-0.188,0.144l-10.968,8.736l-8.408-11.272c-2.643-3.541-7.655-4.269-11.196-1.626
		c-0.061,0.045-0.121,0.091-0.18,0.138l-11.096,8.752l-8.44-11.288c-2.645-3.539-7.658-4.264-11.197-1.619
		c-0.057,0.043-0.114,0.087-0.171,0.131l-11.064,8.76l-5.408-7.2l206.096-206.032c34.276-34.431,34.276-90.089,0-124.52
		c-34.44-34.239-90.064-34.239-124.504,0l-1.344,1.32H87.762c-27.575-0.087-54.039,10.859-73.496,30.4l-11.92,11.92
		c-3.124,3.125-3.123,8.19,0.002,11.314C2.657,81,2.99,81.283,3.346,81.537l5.928,4.24c33.877,24.319,74.547,37.361,116.248,37.28
		h109.992L26.034,332.593c-34.494,34.188-34.742,89.865-0.554,124.359c33.576,33.877,88.037,34.81,122.754,2.105h323.768
		c4.418,0,8-3.582,8-8v-48C479.974,400.198,478.4,397.578,475.89,396.21L475.89,396.21z M20.338,74.034l5.24-5.24
		c16.46-16.537,38.851-25.804,62.184-25.736H315.49l-64,64H125.522C87.898,107.134,51.166,95.602,20.338,74.034L20.338,74.034z
		 M37.33,445.714c-28.111-28.049-28.162-73.576-0.112-101.688c0.037-0.038,0.075-0.075,0.112-0.112l306.8-306.872
		c28.358-27.913,73.975-27.552,101.888,0.806c27.598,28.038,27.602,73.031,0.008,101.074l-306.56,306.48l-0.328,0.328
		c-28.047,28.113-73.574,28.167-101.688,0.12c-0.04-0.04-0.08-0.08-0.12-0.12L37.33,445.714z M164.442,443.057l70.48-70.464
		l5.376-4.248l8.504,11.312c2.648,3.537,7.661,4.258,11.198,1.61c0.057-0.043,0.114-0.086,0.17-0.13l11.032-8.752l8.44,11.288
		c2.645,3.539,7.658,4.264,11.197,1.619c0.057-0.043,0.114-0.087,0.171-0.131l11.048-8.752l8.424,11.28
		c2.643,3.54,7.656,4.268,11.197,1.624c0.063-0.047,0.126-0.095,0.188-0.144l11.008-8.736l8.424,11.28
		c2.645,3.539,7.659,4.263,11.198,1.617c0.06-0.045,0.12-0.091,0.178-0.137l11.032-8.744l8.416,11.272
		c2.641,3.542,7.653,4.274,11.195,1.633c0.064-0.047,0.127-0.096,0.189-0.145l11.024-8.736l8.416,11.272
		c2.643,3.54,7.656,4.268,11.197,1.624c0.063-0.047,0.126-0.095,0.188-0.144l11.016-8.736l8.408,11.264
		c2.641,3.542,7.653,4.274,11.195,1.633c0.064-0.047,0.127-0.096,0.189-0.145l11.024-8.736l7.84,10.552v36L164.442,443.057z"/>
	</g>
</svg>
