<svg 
	version="1.1"
	xmlns="http://www.w3.org/2000/svg"
	width="512"
	height="512"
	viewBox="0 0 511.746 511.746">
	<g>
		<rect y="144.396" fill="#E0E0E2" width="511.746" height="357.962"/>
		<rect x="254.873" y="144.396" fill="#C6C5CA" width="256.873" height="357.962"/>
		<rect y="39.391" fill="#FF5023" width="511.746" height="120.005"/>
		<rect x="254.873" y="39.391" fill="#CD2A00" width="256.873" height="120.005"/>
		<rect x="89.339" y="9.388" fill="#D4D4D9" width="30" height="90.006"/>
		<rect x="391.074" y="9.388" fill="#BBBBC2" width="30" height="90.006"/>

		<rect x="179.398" y="199.401" fill="#738182" width="52.942" height="52.941"/>
		<rect x="79.393" y="289.406" fill="#738182" width="52.941" height="52.941"/>
		<rect x="179.398" y="289.406" fill="#738182" width="52.942" height="52.941"/>
		<rect x="79.393" y="379.412" fill="#738182" width="52.941" height="52.941"/>
		<rect x="179.398" y="379.412" fill="#738182" width="52.942" height="52.941"/>

		<rect x="279.405" y="199.401" fill="#576666" width="52.941" height="52.941"/>
		<rect x="379.411" y="199.401" fill="#576666" width="52.942" height="52.941"/>
		<rect x="279.405" y="289.406" fill="#576666" width="52.941" height="52.941"/>
		<rect x="379.411" y="289.406" fill="#576666" width="52.942" height="52.941"/>
		<rect x="279.405" y="379.412" fill="#576666" width="52.941" height="52.941"/>
	</g>
	<g transform="translate(256 256) scale(4)">
		<circle fill="#4caf50" cx="32" cy="32" r="32" />
		<g transform="translate(-64 -56) scale(5.33333)">
			<path fill="#fff" d="m17.5 19.5c-.265 0-.519-.104-.707-.293l-2-2c-.391-.391-.391-1.023 0-1.414s1.023-.391 1.414 0l1.185 1.185 2.308-3.078c.331-.441.958-.532 1.399-.2.442.331.532.958.2 1.4l-3 4c-.174.232-.439.377-.729.397-.023.002-.047.003-.07.003z"/>
		</g>
	</g>
</svg>
